G04 #@! TF.GenerationSoftware,KiCad,Pcbnew,(5.1.0-0)*
G04 #@! TF.CreationDate,2021-05-05T21:59:45-07:00*
G04 #@! TF.ProjectId,voltage_preamp,766f6c74-6167-4655-9f70-7265616d702e,rev?*
G04 #@! TF.SameCoordinates,Original*
G04 #@! TF.FileFunction,Copper,L1,Top*
G04 #@! TF.FilePolarity,Positive*
%FSLAX46Y46*%
G04 Gerber Fmt 4.6, Leading zero omitted, Abs format (unit mm)*
G04 Created by KiCad (PCBNEW (5.1.0-0)) date 2021-05-05 21:59:45*
%MOMM*%
%LPD*%
G04 APERTURE LIST*
%ADD10R,0.450000X1.450000*%
%ADD11O,1.700000X1.700000*%
%ADD12R,1.700000X1.700000*%
%ADD13R,0.650000X1.560000*%
%ADD14R,0.600000X2.200000*%
%ADD15C,0.100000*%
%ADD16C,1.150000*%
%ADD17O,2.500000X1.600000*%
%ADD18O,7.000000X3.500000*%
%ADD19C,0.800000*%
%ADD20C,0.500000*%
%ADD21C,1.000000*%
%ADD22C,0.250000*%
%ADD23C,0.254000*%
G04 APERTURE END LIST*
D10*
X151425000Y-116672000D03*
X152075000Y-116672000D03*
X152725000Y-116672000D03*
X153375000Y-116672000D03*
X153375000Y-121072000D03*
X152725000Y-121072000D03*
X152075000Y-121072000D03*
X151425000Y-121072000D03*
X156931000Y-163236000D03*
X156281000Y-163236000D03*
X155631000Y-163236000D03*
X154981000Y-163236000D03*
X154981000Y-158836000D03*
X155631000Y-158836000D03*
X156281000Y-158836000D03*
X156931000Y-158836000D03*
D11*
X161544000Y-121412000D03*
D12*
X161544000Y-118872000D03*
D13*
X156972000Y-118538000D03*
X156022000Y-118538000D03*
X157922000Y-118538000D03*
X157922000Y-121238000D03*
X156972000Y-121238000D03*
X156022000Y-121238000D03*
D14*
X139700000Y-165100000D03*
X139700000Y-159700000D03*
X138430000Y-165100000D03*
X138430000Y-159700000D03*
X137160000Y-165100000D03*
X137160000Y-159700000D03*
X135890000Y-165100000D03*
X135890000Y-159700000D03*
X149860000Y-146210000D03*
X149860000Y-140810000D03*
X148590000Y-146210000D03*
X148590000Y-140810000D03*
X147320000Y-146210000D03*
X147320000Y-140810000D03*
X146050000Y-146210000D03*
X146050000Y-140810000D03*
X137160000Y-127160000D03*
X137160000Y-121760000D03*
X135890000Y-127160000D03*
X135890000Y-121760000D03*
X134620000Y-127160000D03*
X134620000Y-121760000D03*
X133350000Y-127160000D03*
X133350000Y-121760000D03*
D15*
G36*
X160748505Y-158802204D02*
G01*
X160772773Y-158805804D01*
X160796572Y-158811765D01*
X160819671Y-158820030D01*
X160841850Y-158830520D01*
X160862893Y-158843132D01*
X160882599Y-158857747D01*
X160900777Y-158874223D01*
X160917253Y-158892401D01*
X160931868Y-158912107D01*
X160944480Y-158933150D01*
X160954970Y-158955329D01*
X160963235Y-158978428D01*
X160969196Y-159002227D01*
X160972796Y-159026495D01*
X160974000Y-159050999D01*
X160974000Y-159701001D01*
X160972796Y-159725505D01*
X160969196Y-159749773D01*
X160963235Y-159773572D01*
X160954970Y-159796671D01*
X160944480Y-159818850D01*
X160931868Y-159839893D01*
X160917253Y-159859599D01*
X160900777Y-159877777D01*
X160882599Y-159894253D01*
X160862893Y-159908868D01*
X160841850Y-159921480D01*
X160819671Y-159931970D01*
X160796572Y-159940235D01*
X160772773Y-159946196D01*
X160748505Y-159949796D01*
X160724001Y-159951000D01*
X159823999Y-159951000D01*
X159799495Y-159949796D01*
X159775227Y-159946196D01*
X159751428Y-159940235D01*
X159728329Y-159931970D01*
X159706150Y-159921480D01*
X159685107Y-159908868D01*
X159665401Y-159894253D01*
X159647223Y-159877777D01*
X159630747Y-159859599D01*
X159616132Y-159839893D01*
X159603520Y-159818850D01*
X159593030Y-159796671D01*
X159584765Y-159773572D01*
X159578804Y-159749773D01*
X159575204Y-159725505D01*
X159574000Y-159701001D01*
X159574000Y-159050999D01*
X159575204Y-159026495D01*
X159578804Y-159002227D01*
X159584765Y-158978428D01*
X159593030Y-158955329D01*
X159603520Y-158933150D01*
X159616132Y-158912107D01*
X159630747Y-158892401D01*
X159647223Y-158874223D01*
X159665401Y-158857747D01*
X159685107Y-158843132D01*
X159706150Y-158830520D01*
X159728329Y-158820030D01*
X159751428Y-158811765D01*
X159775227Y-158805804D01*
X159799495Y-158802204D01*
X159823999Y-158801000D01*
X160724001Y-158801000D01*
X160748505Y-158802204D01*
X160748505Y-158802204D01*
G37*
D16*
X160274000Y-159376000D03*
D15*
G36*
X160748505Y-160852204D02*
G01*
X160772773Y-160855804D01*
X160796572Y-160861765D01*
X160819671Y-160870030D01*
X160841850Y-160880520D01*
X160862893Y-160893132D01*
X160882599Y-160907747D01*
X160900777Y-160924223D01*
X160917253Y-160942401D01*
X160931868Y-160962107D01*
X160944480Y-160983150D01*
X160954970Y-161005329D01*
X160963235Y-161028428D01*
X160969196Y-161052227D01*
X160972796Y-161076495D01*
X160974000Y-161100999D01*
X160974000Y-161751001D01*
X160972796Y-161775505D01*
X160969196Y-161799773D01*
X160963235Y-161823572D01*
X160954970Y-161846671D01*
X160944480Y-161868850D01*
X160931868Y-161889893D01*
X160917253Y-161909599D01*
X160900777Y-161927777D01*
X160882599Y-161944253D01*
X160862893Y-161958868D01*
X160841850Y-161971480D01*
X160819671Y-161981970D01*
X160796572Y-161990235D01*
X160772773Y-161996196D01*
X160748505Y-161999796D01*
X160724001Y-162001000D01*
X159823999Y-162001000D01*
X159799495Y-161999796D01*
X159775227Y-161996196D01*
X159751428Y-161990235D01*
X159728329Y-161981970D01*
X159706150Y-161971480D01*
X159685107Y-161958868D01*
X159665401Y-161944253D01*
X159647223Y-161927777D01*
X159630747Y-161909599D01*
X159616132Y-161889893D01*
X159603520Y-161868850D01*
X159593030Y-161846671D01*
X159584765Y-161823572D01*
X159578804Y-161799773D01*
X159575204Y-161775505D01*
X159574000Y-161751001D01*
X159574000Y-161100999D01*
X159575204Y-161076495D01*
X159578804Y-161052227D01*
X159584765Y-161028428D01*
X159593030Y-161005329D01*
X159603520Y-160983150D01*
X159616132Y-160962107D01*
X159630747Y-160942401D01*
X159647223Y-160924223D01*
X159665401Y-160907747D01*
X159685107Y-160893132D01*
X159706150Y-160880520D01*
X159728329Y-160870030D01*
X159751428Y-160861765D01*
X159775227Y-160855804D01*
X159799495Y-160852204D01*
X159823999Y-160851000D01*
X160724001Y-160851000D01*
X160748505Y-160852204D01*
X160748505Y-160852204D01*
G37*
D16*
X160274000Y-161426000D03*
D15*
G36*
X147669505Y-161861204D02*
G01*
X147693773Y-161864804D01*
X147717572Y-161870765D01*
X147740671Y-161879030D01*
X147762850Y-161889520D01*
X147783893Y-161902132D01*
X147803599Y-161916747D01*
X147821777Y-161933223D01*
X147838253Y-161951401D01*
X147852868Y-161971107D01*
X147865480Y-161992150D01*
X147875970Y-162014329D01*
X147884235Y-162037428D01*
X147890196Y-162061227D01*
X147893796Y-162085495D01*
X147895000Y-162109999D01*
X147895000Y-163010001D01*
X147893796Y-163034505D01*
X147890196Y-163058773D01*
X147884235Y-163082572D01*
X147875970Y-163105671D01*
X147865480Y-163127850D01*
X147852868Y-163148893D01*
X147838253Y-163168599D01*
X147821777Y-163186777D01*
X147803599Y-163203253D01*
X147783893Y-163217868D01*
X147762850Y-163230480D01*
X147740671Y-163240970D01*
X147717572Y-163249235D01*
X147693773Y-163255196D01*
X147669505Y-163258796D01*
X147645001Y-163260000D01*
X146994999Y-163260000D01*
X146970495Y-163258796D01*
X146946227Y-163255196D01*
X146922428Y-163249235D01*
X146899329Y-163240970D01*
X146877150Y-163230480D01*
X146856107Y-163217868D01*
X146836401Y-163203253D01*
X146818223Y-163186777D01*
X146801747Y-163168599D01*
X146787132Y-163148893D01*
X146774520Y-163127850D01*
X146764030Y-163105671D01*
X146755765Y-163082572D01*
X146749804Y-163058773D01*
X146746204Y-163034505D01*
X146745000Y-163010001D01*
X146745000Y-162109999D01*
X146746204Y-162085495D01*
X146749804Y-162061227D01*
X146755765Y-162037428D01*
X146764030Y-162014329D01*
X146774520Y-161992150D01*
X146787132Y-161971107D01*
X146801747Y-161951401D01*
X146818223Y-161933223D01*
X146836401Y-161916747D01*
X146856107Y-161902132D01*
X146877150Y-161889520D01*
X146899329Y-161879030D01*
X146922428Y-161870765D01*
X146946227Y-161864804D01*
X146970495Y-161861204D01*
X146994999Y-161860000D01*
X147645001Y-161860000D01*
X147669505Y-161861204D01*
X147669505Y-161861204D01*
G37*
D16*
X147320000Y-162560000D03*
D15*
G36*
X149719505Y-161861204D02*
G01*
X149743773Y-161864804D01*
X149767572Y-161870765D01*
X149790671Y-161879030D01*
X149812850Y-161889520D01*
X149833893Y-161902132D01*
X149853599Y-161916747D01*
X149871777Y-161933223D01*
X149888253Y-161951401D01*
X149902868Y-161971107D01*
X149915480Y-161992150D01*
X149925970Y-162014329D01*
X149934235Y-162037428D01*
X149940196Y-162061227D01*
X149943796Y-162085495D01*
X149945000Y-162109999D01*
X149945000Y-163010001D01*
X149943796Y-163034505D01*
X149940196Y-163058773D01*
X149934235Y-163082572D01*
X149925970Y-163105671D01*
X149915480Y-163127850D01*
X149902868Y-163148893D01*
X149888253Y-163168599D01*
X149871777Y-163186777D01*
X149853599Y-163203253D01*
X149833893Y-163217868D01*
X149812850Y-163230480D01*
X149790671Y-163240970D01*
X149767572Y-163249235D01*
X149743773Y-163255196D01*
X149719505Y-163258796D01*
X149695001Y-163260000D01*
X149044999Y-163260000D01*
X149020495Y-163258796D01*
X148996227Y-163255196D01*
X148972428Y-163249235D01*
X148949329Y-163240970D01*
X148927150Y-163230480D01*
X148906107Y-163217868D01*
X148886401Y-163203253D01*
X148868223Y-163186777D01*
X148851747Y-163168599D01*
X148837132Y-163148893D01*
X148824520Y-163127850D01*
X148814030Y-163105671D01*
X148805765Y-163082572D01*
X148799804Y-163058773D01*
X148796204Y-163034505D01*
X148795000Y-163010001D01*
X148795000Y-162109999D01*
X148796204Y-162085495D01*
X148799804Y-162061227D01*
X148805765Y-162037428D01*
X148814030Y-162014329D01*
X148824520Y-161992150D01*
X148837132Y-161971107D01*
X148851747Y-161951401D01*
X148868223Y-161933223D01*
X148886401Y-161916747D01*
X148906107Y-161902132D01*
X148927150Y-161889520D01*
X148949329Y-161879030D01*
X148972428Y-161870765D01*
X148996227Y-161864804D01*
X149020495Y-161861204D01*
X149044999Y-161860000D01*
X149695001Y-161860000D01*
X149719505Y-161861204D01*
X149719505Y-161861204D01*
G37*
D16*
X149370000Y-162560000D03*
D15*
G36*
X157829505Y-142811204D02*
G01*
X157853773Y-142814804D01*
X157877572Y-142820765D01*
X157900671Y-142829030D01*
X157922850Y-142839520D01*
X157943893Y-142852132D01*
X157963599Y-142866747D01*
X157981777Y-142883223D01*
X157998253Y-142901401D01*
X158012868Y-142921107D01*
X158025480Y-142942150D01*
X158035970Y-142964329D01*
X158044235Y-142987428D01*
X158050196Y-143011227D01*
X158053796Y-143035495D01*
X158055000Y-143059999D01*
X158055000Y-143960001D01*
X158053796Y-143984505D01*
X158050196Y-144008773D01*
X158044235Y-144032572D01*
X158035970Y-144055671D01*
X158025480Y-144077850D01*
X158012868Y-144098893D01*
X157998253Y-144118599D01*
X157981777Y-144136777D01*
X157963599Y-144153253D01*
X157943893Y-144167868D01*
X157922850Y-144180480D01*
X157900671Y-144190970D01*
X157877572Y-144199235D01*
X157853773Y-144205196D01*
X157829505Y-144208796D01*
X157805001Y-144210000D01*
X157154999Y-144210000D01*
X157130495Y-144208796D01*
X157106227Y-144205196D01*
X157082428Y-144199235D01*
X157059329Y-144190970D01*
X157037150Y-144180480D01*
X157016107Y-144167868D01*
X156996401Y-144153253D01*
X156978223Y-144136777D01*
X156961747Y-144118599D01*
X156947132Y-144098893D01*
X156934520Y-144077850D01*
X156924030Y-144055671D01*
X156915765Y-144032572D01*
X156909804Y-144008773D01*
X156906204Y-143984505D01*
X156905000Y-143960001D01*
X156905000Y-143059999D01*
X156906204Y-143035495D01*
X156909804Y-143011227D01*
X156915765Y-142987428D01*
X156924030Y-142964329D01*
X156934520Y-142942150D01*
X156947132Y-142921107D01*
X156961747Y-142901401D01*
X156978223Y-142883223D01*
X156996401Y-142866747D01*
X157016107Y-142852132D01*
X157037150Y-142839520D01*
X157059329Y-142829030D01*
X157082428Y-142820765D01*
X157106227Y-142814804D01*
X157130495Y-142811204D01*
X157154999Y-142810000D01*
X157805001Y-142810000D01*
X157829505Y-142811204D01*
X157829505Y-142811204D01*
G37*
D16*
X157480000Y-143510000D03*
D15*
G36*
X159879505Y-142811204D02*
G01*
X159903773Y-142814804D01*
X159927572Y-142820765D01*
X159950671Y-142829030D01*
X159972850Y-142839520D01*
X159993893Y-142852132D01*
X160013599Y-142866747D01*
X160031777Y-142883223D01*
X160048253Y-142901401D01*
X160062868Y-142921107D01*
X160075480Y-142942150D01*
X160085970Y-142964329D01*
X160094235Y-142987428D01*
X160100196Y-143011227D01*
X160103796Y-143035495D01*
X160105000Y-143059999D01*
X160105000Y-143960001D01*
X160103796Y-143984505D01*
X160100196Y-144008773D01*
X160094235Y-144032572D01*
X160085970Y-144055671D01*
X160075480Y-144077850D01*
X160062868Y-144098893D01*
X160048253Y-144118599D01*
X160031777Y-144136777D01*
X160013599Y-144153253D01*
X159993893Y-144167868D01*
X159972850Y-144180480D01*
X159950671Y-144190970D01*
X159927572Y-144199235D01*
X159903773Y-144205196D01*
X159879505Y-144208796D01*
X159855001Y-144210000D01*
X159204999Y-144210000D01*
X159180495Y-144208796D01*
X159156227Y-144205196D01*
X159132428Y-144199235D01*
X159109329Y-144190970D01*
X159087150Y-144180480D01*
X159066107Y-144167868D01*
X159046401Y-144153253D01*
X159028223Y-144136777D01*
X159011747Y-144118599D01*
X158997132Y-144098893D01*
X158984520Y-144077850D01*
X158974030Y-144055671D01*
X158965765Y-144032572D01*
X158959804Y-144008773D01*
X158956204Y-143984505D01*
X158955000Y-143960001D01*
X158955000Y-143059999D01*
X158956204Y-143035495D01*
X158959804Y-143011227D01*
X158965765Y-142987428D01*
X158974030Y-142964329D01*
X158984520Y-142942150D01*
X158997132Y-142921107D01*
X159011747Y-142901401D01*
X159028223Y-142883223D01*
X159046401Y-142866747D01*
X159066107Y-142852132D01*
X159087150Y-142839520D01*
X159109329Y-142829030D01*
X159132428Y-142820765D01*
X159156227Y-142814804D01*
X159180495Y-142811204D01*
X159204999Y-142810000D01*
X159855001Y-142810000D01*
X159879505Y-142811204D01*
X159879505Y-142811204D01*
G37*
D16*
X159530000Y-143510000D03*
D15*
G36*
X144984505Y-123761204D02*
G01*
X145008773Y-123764804D01*
X145032572Y-123770765D01*
X145055671Y-123779030D01*
X145077850Y-123789520D01*
X145098893Y-123802132D01*
X145118599Y-123816747D01*
X145136777Y-123833223D01*
X145153253Y-123851401D01*
X145167868Y-123871107D01*
X145180480Y-123892150D01*
X145190970Y-123914329D01*
X145199235Y-123937428D01*
X145205196Y-123961227D01*
X145208796Y-123985495D01*
X145210000Y-124009999D01*
X145210000Y-124910001D01*
X145208796Y-124934505D01*
X145205196Y-124958773D01*
X145199235Y-124982572D01*
X145190970Y-125005671D01*
X145180480Y-125027850D01*
X145167868Y-125048893D01*
X145153253Y-125068599D01*
X145136777Y-125086777D01*
X145118599Y-125103253D01*
X145098893Y-125117868D01*
X145077850Y-125130480D01*
X145055671Y-125140970D01*
X145032572Y-125149235D01*
X145008773Y-125155196D01*
X144984505Y-125158796D01*
X144960001Y-125160000D01*
X144309999Y-125160000D01*
X144285495Y-125158796D01*
X144261227Y-125155196D01*
X144237428Y-125149235D01*
X144214329Y-125140970D01*
X144192150Y-125130480D01*
X144171107Y-125117868D01*
X144151401Y-125103253D01*
X144133223Y-125086777D01*
X144116747Y-125068599D01*
X144102132Y-125048893D01*
X144089520Y-125027850D01*
X144079030Y-125005671D01*
X144070765Y-124982572D01*
X144064804Y-124958773D01*
X144061204Y-124934505D01*
X144060000Y-124910001D01*
X144060000Y-124009999D01*
X144061204Y-123985495D01*
X144064804Y-123961227D01*
X144070765Y-123937428D01*
X144079030Y-123914329D01*
X144089520Y-123892150D01*
X144102132Y-123871107D01*
X144116747Y-123851401D01*
X144133223Y-123833223D01*
X144151401Y-123816747D01*
X144171107Y-123802132D01*
X144192150Y-123789520D01*
X144214329Y-123779030D01*
X144237428Y-123770765D01*
X144261227Y-123764804D01*
X144285495Y-123761204D01*
X144309999Y-123760000D01*
X144960001Y-123760000D01*
X144984505Y-123761204D01*
X144984505Y-123761204D01*
G37*
D16*
X144635000Y-124460000D03*
D15*
G36*
X147034505Y-123761204D02*
G01*
X147058773Y-123764804D01*
X147082572Y-123770765D01*
X147105671Y-123779030D01*
X147127850Y-123789520D01*
X147148893Y-123802132D01*
X147168599Y-123816747D01*
X147186777Y-123833223D01*
X147203253Y-123851401D01*
X147217868Y-123871107D01*
X147230480Y-123892150D01*
X147240970Y-123914329D01*
X147249235Y-123937428D01*
X147255196Y-123961227D01*
X147258796Y-123985495D01*
X147260000Y-124009999D01*
X147260000Y-124910001D01*
X147258796Y-124934505D01*
X147255196Y-124958773D01*
X147249235Y-124982572D01*
X147240970Y-125005671D01*
X147230480Y-125027850D01*
X147217868Y-125048893D01*
X147203253Y-125068599D01*
X147186777Y-125086777D01*
X147168599Y-125103253D01*
X147148893Y-125117868D01*
X147127850Y-125130480D01*
X147105671Y-125140970D01*
X147082572Y-125149235D01*
X147058773Y-125155196D01*
X147034505Y-125158796D01*
X147010001Y-125160000D01*
X146359999Y-125160000D01*
X146335495Y-125158796D01*
X146311227Y-125155196D01*
X146287428Y-125149235D01*
X146264329Y-125140970D01*
X146242150Y-125130480D01*
X146221107Y-125117868D01*
X146201401Y-125103253D01*
X146183223Y-125086777D01*
X146166747Y-125068599D01*
X146152132Y-125048893D01*
X146139520Y-125027850D01*
X146129030Y-125005671D01*
X146120765Y-124982572D01*
X146114804Y-124958773D01*
X146111204Y-124934505D01*
X146110000Y-124910001D01*
X146110000Y-124009999D01*
X146111204Y-123985495D01*
X146114804Y-123961227D01*
X146120765Y-123937428D01*
X146129030Y-123914329D01*
X146139520Y-123892150D01*
X146152132Y-123871107D01*
X146166747Y-123851401D01*
X146183223Y-123833223D01*
X146201401Y-123816747D01*
X146221107Y-123802132D01*
X146242150Y-123789520D01*
X146264329Y-123779030D01*
X146287428Y-123770765D01*
X146311227Y-123764804D01*
X146335495Y-123761204D01*
X146359999Y-123760000D01*
X147010001Y-123760000D01*
X147034505Y-123761204D01*
X147034505Y-123761204D01*
G37*
D16*
X146685000Y-124460000D03*
D15*
G36*
X143349505Y-166431204D02*
G01*
X143373773Y-166434804D01*
X143397572Y-166440765D01*
X143420671Y-166449030D01*
X143442850Y-166459520D01*
X143463893Y-166472132D01*
X143483599Y-166486747D01*
X143501777Y-166503223D01*
X143518253Y-166521401D01*
X143532868Y-166541107D01*
X143545480Y-166562150D01*
X143555970Y-166584329D01*
X143564235Y-166607428D01*
X143570196Y-166631227D01*
X143573796Y-166655495D01*
X143575000Y-166679999D01*
X143575000Y-167330001D01*
X143573796Y-167354505D01*
X143570196Y-167378773D01*
X143564235Y-167402572D01*
X143555970Y-167425671D01*
X143545480Y-167447850D01*
X143532868Y-167468893D01*
X143518253Y-167488599D01*
X143501777Y-167506777D01*
X143483599Y-167523253D01*
X143463893Y-167537868D01*
X143442850Y-167550480D01*
X143420671Y-167560970D01*
X143397572Y-167569235D01*
X143373773Y-167575196D01*
X143349505Y-167578796D01*
X143325001Y-167580000D01*
X142424999Y-167580000D01*
X142400495Y-167578796D01*
X142376227Y-167575196D01*
X142352428Y-167569235D01*
X142329329Y-167560970D01*
X142307150Y-167550480D01*
X142286107Y-167537868D01*
X142266401Y-167523253D01*
X142248223Y-167506777D01*
X142231747Y-167488599D01*
X142217132Y-167468893D01*
X142204520Y-167447850D01*
X142194030Y-167425671D01*
X142185765Y-167402572D01*
X142179804Y-167378773D01*
X142176204Y-167354505D01*
X142175000Y-167330001D01*
X142175000Y-166679999D01*
X142176204Y-166655495D01*
X142179804Y-166631227D01*
X142185765Y-166607428D01*
X142194030Y-166584329D01*
X142204520Y-166562150D01*
X142217132Y-166541107D01*
X142231747Y-166521401D01*
X142248223Y-166503223D01*
X142266401Y-166486747D01*
X142286107Y-166472132D01*
X142307150Y-166459520D01*
X142329329Y-166449030D01*
X142352428Y-166440765D01*
X142376227Y-166434804D01*
X142400495Y-166431204D01*
X142424999Y-166430000D01*
X143325001Y-166430000D01*
X143349505Y-166431204D01*
X143349505Y-166431204D01*
G37*
D16*
X142875000Y-167005000D03*
D15*
G36*
X143349505Y-164381204D02*
G01*
X143373773Y-164384804D01*
X143397572Y-164390765D01*
X143420671Y-164399030D01*
X143442850Y-164409520D01*
X143463893Y-164422132D01*
X143483599Y-164436747D01*
X143501777Y-164453223D01*
X143518253Y-164471401D01*
X143532868Y-164491107D01*
X143545480Y-164512150D01*
X143555970Y-164534329D01*
X143564235Y-164557428D01*
X143570196Y-164581227D01*
X143573796Y-164605495D01*
X143575000Y-164629999D01*
X143575000Y-165280001D01*
X143573796Y-165304505D01*
X143570196Y-165328773D01*
X143564235Y-165352572D01*
X143555970Y-165375671D01*
X143545480Y-165397850D01*
X143532868Y-165418893D01*
X143518253Y-165438599D01*
X143501777Y-165456777D01*
X143483599Y-165473253D01*
X143463893Y-165487868D01*
X143442850Y-165500480D01*
X143420671Y-165510970D01*
X143397572Y-165519235D01*
X143373773Y-165525196D01*
X143349505Y-165528796D01*
X143325001Y-165530000D01*
X142424999Y-165530000D01*
X142400495Y-165528796D01*
X142376227Y-165525196D01*
X142352428Y-165519235D01*
X142329329Y-165510970D01*
X142307150Y-165500480D01*
X142286107Y-165487868D01*
X142266401Y-165473253D01*
X142248223Y-165456777D01*
X142231747Y-165438599D01*
X142217132Y-165418893D01*
X142204520Y-165397850D01*
X142194030Y-165375671D01*
X142185765Y-165352572D01*
X142179804Y-165328773D01*
X142176204Y-165304505D01*
X142175000Y-165280001D01*
X142175000Y-164629999D01*
X142176204Y-164605495D01*
X142179804Y-164581227D01*
X142185765Y-164557428D01*
X142194030Y-164534329D01*
X142204520Y-164512150D01*
X142217132Y-164491107D01*
X142231747Y-164471401D01*
X142248223Y-164453223D01*
X142266401Y-164436747D01*
X142286107Y-164422132D01*
X142307150Y-164409520D01*
X142329329Y-164399030D01*
X142352428Y-164390765D01*
X142376227Y-164384804D01*
X142400495Y-164381204D01*
X142424999Y-164380000D01*
X143325001Y-164380000D01*
X143349505Y-164381204D01*
X143349505Y-164381204D01*
G37*
D16*
X142875000Y-164955000D03*
D15*
G36*
X153509505Y-147517204D02*
G01*
X153533773Y-147520804D01*
X153557572Y-147526765D01*
X153580671Y-147535030D01*
X153602850Y-147545520D01*
X153623893Y-147558132D01*
X153643599Y-147572747D01*
X153661777Y-147589223D01*
X153678253Y-147607401D01*
X153692868Y-147627107D01*
X153705480Y-147648150D01*
X153715970Y-147670329D01*
X153724235Y-147693428D01*
X153730196Y-147717227D01*
X153733796Y-147741495D01*
X153735000Y-147765999D01*
X153735000Y-148416001D01*
X153733796Y-148440505D01*
X153730196Y-148464773D01*
X153724235Y-148488572D01*
X153715970Y-148511671D01*
X153705480Y-148533850D01*
X153692868Y-148554893D01*
X153678253Y-148574599D01*
X153661777Y-148592777D01*
X153643599Y-148609253D01*
X153623893Y-148623868D01*
X153602850Y-148636480D01*
X153580671Y-148646970D01*
X153557572Y-148655235D01*
X153533773Y-148661196D01*
X153509505Y-148664796D01*
X153485001Y-148666000D01*
X152584999Y-148666000D01*
X152560495Y-148664796D01*
X152536227Y-148661196D01*
X152512428Y-148655235D01*
X152489329Y-148646970D01*
X152467150Y-148636480D01*
X152446107Y-148623868D01*
X152426401Y-148609253D01*
X152408223Y-148592777D01*
X152391747Y-148574599D01*
X152377132Y-148554893D01*
X152364520Y-148533850D01*
X152354030Y-148511671D01*
X152345765Y-148488572D01*
X152339804Y-148464773D01*
X152336204Y-148440505D01*
X152335000Y-148416001D01*
X152335000Y-147765999D01*
X152336204Y-147741495D01*
X152339804Y-147717227D01*
X152345765Y-147693428D01*
X152354030Y-147670329D01*
X152364520Y-147648150D01*
X152377132Y-147627107D01*
X152391747Y-147607401D01*
X152408223Y-147589223D01*
X152426401Y-147572747D01*
X152446107Y-147558132D01*
X152467150Y-147545520D01*
X152489329Y-147535030D01*
X152512428Y-147526765D01*
X152536227Y-147520804D01*
X152560495Y-147517204D01*
X152584999Y-147516000D01*
X153485001Y-147516000D01*
X153509505Y-147517204D01*
X153509505Y-147517204D01*
G37*
D16*
X153035000Y-148091000D03*
D15*
G36*
X153509505Y-145467204D02*
G01*
X153533773Y-145470804D01*
X153557572Y-145476765D01*
X153580671Y-145485030D01*
X153602850Y-145495520D01*
X153623893Y-145508132D01*
X153643599Y-145522747D01*
X153661777Y-145539223D01*
X153678253Y-145557401D01*
X153692868Y-145577107D01*
X153705480Y-145598150D01*
X153715970Y-145620329D01*
X153724235Y-145643428D01*
X153730196Y-145667227D01*
X153733796Y-145691495D01*
X153735000Y-145715999D01*
X153735000Y-146366001D01*
X153733796Y-146390505D01*
X153730196Y-146414773D01*
X153724235Y-146438572D01*
X153715970Y-146461671D01*
X153705480Y-146483850D01*
X153692868Y-146504893D01*
X153678253Y-146524599D01*
X153661777Y-146542777D01*
X153643599Y-146559253D01*
X153623893Y-146573868D01*
X153602850Y-146586480D01*
X153580671Y-146596970D01*
X153557572Y-146605235D01*
X153533773Y-146611196D01*
X153509505Y-146614796D01*
X153485001Y-146616000D01*
X152584999Y-146616000D01*
X152560495Y-146614796D01*
X152536227Y-146611196D01*
X152512428Y-146605235D01*
X152489329Y-146596970D01*
X152467150Y-146586480D01*
X152446107Y-146573868D01*
X152426401Y-146559253D01*
X152408223Y-146542777D01*
X152391747Y-146524599D01*
X152377132Y-146504893D01*
X152364520Y-146483850D01*
X152354030Y-146461671D01*
X152345765Y-146438572D01*
X152339804Y-146414773D01*
X152336204Y-146390505D01*
X152335000Y-146366001D01*
X152335000Y-145715999D01*
X152336204Y-145691495D01*
X152339804Y-145667227D01*
X152345765Y-145643428D01*
X152354030Y-145620329D01*
X152364520Y-145598150D01*
X152377132Y-145577107D01*
X152391747Y-145557401D01*
X152408223Y-145539223D01*
X152426401Y-145522747D01*
X152446107Y-145508132D01*
X152467150Y-145495520D01*
X152489329Y-145485030D01*
X152512428Y-145476765D01*
X152536227Y-145470804D01*
X152560495Y-145467204D01*
X152584999Y-145466000D01*
X153485001Y-145466000D01*
X153509505Y-145467204D01*
X153509505Y-145467204D01*
G37*
D16*
X153035000Y-146041000D03*
D15*
G36*
X140809505Y-128331204D02*
G01*
X140833773Y-128334804D01*
X140857572Y-128340765D01*
X140880671Y-128349030D01*
X140902850Y-128359520D01*
X140923893Y-128372132D01*
X140943599Y-128386747D01*
X140961777Y-128403223D01*
X140978253Y-128421401D01*
X140992868Y-128441107D01*
X141005480Y-128462150D01*
X141015970Y-128484329D01*
X141024235Y-128507428D01*
X141030196Y-128531227D01*
X141033796Y-128555495D01*
X141035000Y-128579999D01*
X141035000Y-129230001D01*
X141033796Y-129254505D01*
X141030196Y-129278773D01*
X141024235Y-129302572D01*
X141015970Y-129325671D01*
X141005480Y-129347850D01*
X140992868Y-129368893D01*
X140978253Y-129388599D01*
X140961777Y-129406777D01*
X140943599Y-129423253D01*
X140923893Y-129437868D01*
X140902850Y-129450480D01*
X140880671Y-129460970D01*
X140857572Y-129469235D01*
X140833773Y-129475196D01*
X140809505Y-129478796D01*
X140785001Y-129480000D01*
X139884999Y-129480000D01*
X139860495Y-129478796D01*
X139836227Y-129475196D01*
X139812428Y-129469235D01*
X139789329Y-129460970D01*
X139767150Y-129450480D01*
X139746107Y-129437868D01*
X139726401Y-129423253D01*
X139708223Y-129406777D01*
X139691747Y-129388599D01*
X139677132Y-129368893D01*
X139664520Y-129347850D01*
X139654030Y-129325671D01*
X139645765Y-129302572D01*
X139639804Y-129278773D01*
X139636204Y-129254505D01*
X139635000Y-129230001D01*
X139635000Y-128579999D01*
X139636204Y-128555495D01*
X139639804Y-128531227D01*
X139645765Y-128507428D01*
X139654030Y-128484329D01*
X139664520Y-128462150D01*
X139677132Y-128441107D01*
X139691747Y-128421401D01*
X139708223Y-128403223D01*
X139726401Y-128386747D01*
X139746107Y-128372132D01*
X139767150Y-128359520D01*
X139789329Y-128349030D01*
X139812428Y-128340765D01*
X139836227Y-128334804D01*
X139860495Y-128331204D01*
X139884999Y-128330000D01*
X140785001Y-128330000D01*
X140809505Y-128331204D01*
X140809505Y-128331204D01*
G37*
D16*
X140335000Y-128905000D03*
D15*
G36*
X140809505Y-126281204D02*
G01*
X140833773Y-126284804D01*
X140857572Y-126290765D01*
X140880671Y-126299030D01*
X140902850Y-126309520D01*
X140923893Y-126322132D01*
X140943599Y-126336747D01*
X140961777Y-126353223D01*
X140978253Y-126371401D01*
X140992868Y-126391107D01*
X141005480Y-126412150D01*
X141015970Y-126434329D01*
X141024235Y-126457428D01*
X141030196Y-126481227D01*
X141033796Y-126505495D01*
X141035000Y-126529999D01*
X141035000Y-127180001D01*
X141033796Y-127204505D01*
X141030196Y-127228773D01*
X141024235Y-127252572D01*
X141015970Y-127275671D01*
X141005480Y-127297850D01*
X140992868Y-127318893D01*
X140978253Y-127338599D01*
X140961777Y-127356777D01*
X140943599Y-127373253D01*
X140923893Y-127387868D01*
X140902850Y-127400480D01*
X140880671Y-127410970D01*
X140857572Y-127419235D01*
X140833773Y-127425196D01*
X140809505Y-127428796D01*
X140785001Y-127430000D01*
X139884999Y-127430000D01*
X139860495Y-127428796D01*
X139836227Y-127425196D01*
X139812428Y-127419235D01*
X139789329Y-127410970D01*
X139767150Y-127400480D01*
X139746107Y-127387868D01*
X139726401Y-127373253D01*
X139708223Y-127356777D01*
X139691747Y-127338599D01*
X139677132Y-127318893D01*
X139664520Y-127297850D01*
X139654030Y-127275671D01*
X139645765Y-127252572D01*
X139639804Y-127228773D01*
X139636204Y-127204505D01*
X139635000Y-127180001D01*
X139635000Y-126529999D01*
X139636204Y-126505495D01*
X139639804Y-126481227D01*
X139645765Y-126457428D01*
X139654030Y-126434329D01*
X139664520Y-126412150D01*
X139677132Y-126391107D01*
X139691747Y-126371401D01*
X139708223Y-126353223D01*
X139726401Y-126336747D01*
X139746107Y-126322132D01*
X139767150Y-126309520D01*
X139789329Y-126299030D01*
X139812428Y-126290765D01*
X139836227Y-126284804D01*
X139860495Y-126281204D01*
X139884999Y-126280000D01*
X140785001Y-126280000D01*
X140809505Y-126281204D01*
X140809505Y-126281204D01*
G37*
D16*
X140335000Y-126855000D03*
D15*
G36*
X143349505Y-159201204D02*
G01*
X143373773Y-159204804D01*
X143397572Y-159210765D01*
X143420671Y-159219030D01*
X143442850Y-159229520D01*
X143463893Y-159242132D01*
X143483599Y-159256747D01*
X143501777Y-159273223D01*
X143518253Y-159291401D01*
X143532868Y-159311107D01*
X143545480Y-159332150D01*
X143555970Y-159354329D01*
X143564235Y-159377428D01*
X143570196Y-159401227D01*
X143573796Y-159425495D01*
X143575000Y-159449999D01*
X143575000Y-160100001D01*
X143573796Y-160124505D01*
X143570196Y-160148773D01*
X143564235Y-160172572D01*
X143555970Y-160195671D01*
X143545480Y-160217850D01*
X143532868Y-160238893D01*
X143518253Y-160258599D01*
X143501777Y-160276777D01*
X143483599Y-160293253D01*
X143463893Y-160307868D01*
X143442850Y-160320480D01*
X143420671Y-160330970D01*
X143397572Y-160339235D01*
X143373773Y-160345196D01*
X143349505Y-160348796D01*
X143325001Y-160350000D01*
X142424999Y-160350000D01*
X142400495Y-160348796D01*
X142376227Y-160345196D01*
X142352428Y-160339235D01*
X142329329Y-160330970D01*
X142307150Y-160320480D01*
X142286107Y-160307868D01*
X142266401Y-160293253D01*
X142248223Y-160276777D01*
X142231747Y-160258599D01*
X142217132Y-160238893D01*
X142204520Y-160217850D01*
X142194030Y-160195671D01*
X142185765Y-160172572D01*
X142179804Y-160148773D01*
X142176204Y-160124505D01*
X142175000Y-160100001D01*
X142175000Y-159449999D01*
X142176204Y-159425495D01*
X142179804Y-159401227D01*
X142185765Y-159377428D01*
X142194030Y-159354329D01*
X142204520Y-159332150D01*
X142217132Y-159311107D01*
X142231747Y-159291401D01*
X142248223Y-159273223D01*
X142266401Y-159256747D01*
X142286107Y-159242132D01*
X142307150Y-159229520D01*
X142329329Y-159219030D01*
X142352428Y-159210765D01*
X142376227Y-159204804D01*
X142400495Y-159201204D01*
X142424999Y-159200000D01*
X143325001Y-159200000D01*
X143349505Y-159201204D01*
X143349505Y-159201204D01*
G37*
D16*
X142875000Y-159775000D03*
D15*
G36*
X143349505Y-157151204D02*
G01*
X143373773Y-157154804D01*
X143397572Y-157160765D01*
X143420671Y-157169030D01*
X143442850Y-157179520D01*
X143463893Y-157192132D01*
X143483599Y-157206747D01*
X143501777Y-157223223D01*
X143518253Y-157241401D01*
X143532868Y-157261107D01*
X143545480Y-157282150D01*
X143555970Y-157304329D01*
X143564235Y-157327428D01*
X143570196Y-157351227D01*
X143573796Y-157375495D01*
X143575000Y-157399999D01*
X143575000Y-158050001D01*
X143573796Y-158074505D01*
X143570196Y-158098773D01*
X143564235Y-158122572D01*
X143555970Y-158145671D01*
X143545480Y-158167850D01*
X143532868Y-158188893D01*
X143518253Y-158208599D01*
X143501777Y-158226777D01*
X143483599Y-158243253D01*
X143463893Y-158257868D01*
X143442850Y-158270480D01*
X143420671Y-158280970D01*
X143397572Y-158289235D01*
X143373773Y-158295196D01*
X143349505Y-158298796D01*
X143325001Y-158300000D01*
X142424999Y-158300000D01*
X142400495Y-158298796D01*
X142376227Y-158295196D01*
X142352428Y-158289235D01*
X142329329Y-158280970D01*
X142307150Y-158270480D01*
X142286107Y-158257868D01*
X142266401Y-158243253D01*
X142248223Y-158226777D01*
X142231747Y-158208599D01*
X142217132Y-158188893D01*
X142204520Y-158167850D01*
X142194030Y-158145671D01*
X142185765Y-158122572D01*
X142179804Y-158098773D01*
X142176204Y-158074505D01*
X142175000Y-158050001D01*
X142175000Y-157399999D01*
X142176204Y-157375495D01*
X142179804Y-157351227D01*
X142185765Y-157327428D01*
X142194030Y-157304329D01*
X142204520Y-157282150D01*
X142217132Y-157261107D01*
X142231747Y-157241401D01*
X142248223Y-157223223D01*
X142266401Y-157206747D01*
X142286107Y-157192132D01*
X142307150Y-157179520D01*
X142329329Y-157169030D01*
X142352428Y-157160765D01*
X142376227Y-157154804D01*
X142400495Y-157151204D01*
X142424999Y-157150000D01*
X143325001Y-157150000D01*
X143349505Y-157151204D01*
X143349505Y-157151204D01*
G37*
D16*
X142875000Y-157725000D03*
D15*
G36*
X153509505Y-139906204D02*
G01*
X153533773Y-139909804D01*
X153557572Y-139915765D01*
X153580671Y-139924030D01*
X153602850Y-139934520D01*
X153623893Y-139947132D01*
X153643599Y-139961747D01*
X153661777Y-139978223D01*
X153678253Y-139996401D01*
X153692868Y-140016107D01*
X153705480Y-140037150D01*
X153715970Y-140059329D01*
X153724235Y-140082428D01*
X153730196Y-140106227D01*
X153733796Y-140130495D01*
X153735000Y-140154999D01*
X153735000Y-140805001D01*
X153733796Y-140829505D01*
X153730196Y-140853773D01*
X153724235Y-140877572D01*
X153715970Y-140900671D01*
X153705480Y-140922850D01*
X153692868Y-140943893D01*
X153678253Y-140963599D01*
X153661777Y-140981777D01*
X153643599Y-140998253D01*
X153623893Y-141012868D01*
X153602850Y-141025480D01*
X153580671Y-141035970D01*
X153557572Y-141044235D01*
X153533773Y-141050196D01*
X153509505Y-141053796D01*
X153485001Y-141055000D01*
X152584999Y-141055000D01*
X152560495Y-141053796D01*
X152536227Y-141050196D01*
X152512428Y-141044235D01*
X152489329Y-141035970D01*
X152467150Y-141025480D01*
X152446107Y-141012868D01*
X152426401Y-140998253D01*
X152408223Y-140981777D01*
X152391747Y-140963599D01*
X152377132Y-140943893D01*
X152364520Y-140922850D01*
X152354030Y-140900671D01*
X152345765Y-140877572D01*
X152339804Y-140853773D01*
X152336204Y-140829505D01*
X152335000Y-140805001D01*
X152335000Y-140154999D01*
X152336204Y-140130495D01*
X152339804Y-140106227D01*
X152345765Y-140082428D01*
X152354030Y-140059329D01*
X152364520Y-140037150D01*
X152377132Y-140016107D01*
X152391747Y-139996401D01*
X152408223Y-139978223D01*
X152426401Y-139961747D01*
X152446107Y-139947132D01*
X152467150Y-139934520D01*
X152489329Y-139924030D01*
X152512428Y-139915765D01*
X152536227Y-139909804D01*
X152560495Y-139906204D01*
X152584999Y-139905000D01*
X153485001Y-139905000D01*
X153509505Y-139906204D01*
X153509505Y-139906204D01*
G37*
D16*
X153035000Y-140480000D03*
D15*
G36*
X153509505Y-137856204D02*
G01*
X153533773Y-137859804D01*
X153557572Y-137865765D01*
X153580671Y-137874030D01*
X153602850Y-137884520D01*
X153623893Y-137897132D01*
X153643599Y-137911747D01*
X153661777Y-137928223D01*
X153678253Y-137946401D01*
X153692868Y-137966107D01*
X153705480Y-137987150D01*
X153715970Y-138009329D01*
X153724235Y-138032428D01*
X153730196Y-138056227D01*
X153733796Y-138080495D01*
X153735000Y-138104999D01*
X153735000Y-138755001D01*
X153733796Y-138779505D01*
X153730196Y-138803773D01*
X153724235Y-138827572D01*
X153715970Y-138850671D01*
X153705480Y-138872850D01*
X153692868Y-138893893D01*
X153678253Y-138913599D01*
X153661777Y-138931777D01*
X153643599Y-138948253D01*
X153623893Y-138962868D01*
X153602850Y-138975480D01*
X153580671Y-138985970D01*
X153557572Y-138994235D01*
X153533773Y-139000196D01*
X153509505Y-139003796D01*
X153485001Y-139005000D01*
X152584999Y-139005000D01*
X152560495Y-139003796D01*
X152536227Y-139000196D01*
X152512428Y-138994235D01*
X152489329Y-138985970D01*
X152467150Y-138975480D01*
X152446107Y-138962868D01*
X152426401Y-138948253D01*
X152408223Y-138931777D01*
X152391747Y-138913599D01*
X152377132Y-138893893D01*
X152364520Y-138872850D01*
X152354030Y-138850671D01*
X152345765Y-138827572D01*
X152339804Y-138803773D01*
X152336204Y-138779505D01*
X152335000Y-138755001D01*
X152335000Y-138104999D01*
X152336204Y-138080495D01*
X152339804Y-138056227D01*
X152345765Y-138032428D01*
X152354030Y-138009329D01*
X152364520Y-137987150D01*
X152377132Y-137966107D01*
X152391747Y-137946401D01*
X152408223Y-137928223D01*
X152426401Y-137911747D01*
X152446107Y-137897132D01*
X152467150Y-137884520D01*
X152489329Y-137874030D01*
X152512428Y-137865765D01*
X152536227Y-137859804D01*
X152560495Y-137856204D01*
X152584999Y-137855000D01*
X153485001Y-137855000D01*
X153509505Y-137856204D01*
X153509505Y-137856204D01*
G37*
D16*
X153035000Y-138430000D03*
D15*
G36*
X140809505Y-121101204D02*
G01*
X140833773Y-121104804D01*
X140857572Y-121110765D01*
X140880671Y-121119030D01*
X140902850Y-121129520D01*
X140923893Y-121142132D01*
X140943599Y-121156747D01*
X140961777Y-121173223D01*
X140978253Y-121191401D01*
X140992868Y-121211107D01*
X141005480Y-121232150D01*
X141015970Y-121254329D01*
X141024235Y-121277428D01*
X141030196Y-121301227D01*
X141033796Y-121325495D01*
X141035000Y-121349999D01*
X141035000Y-122000001D01*
X141033796Y-122024505D01*
X141030196Y-122048773D01*
X141024235Y-122072572D01*
X141015970Y-122095671D01*
X141005480Y-122117850D01*
X140992868Y-122138893D01*
X140978253Y-122158599D01*
X140961777Y-122176777D01*
X140943599Y-122193253D01*
X140923893Y-122207868D01*
X140902850Y-122220480D01*
X140880671Y-122230970D01*
X140857572Y-122239235D01*
X140833773Y-122245196D01*
X140809505Y-122248796D01*
X140785001Y-122250000D01*
X139884999Y-122250000D01*
X139860495Y-122248796D01*
X139836227Y-122245196D01*
X139812428Y-122239235D01*
X139789329Y-122230970D01*
X139767150Y-122220480D01*
X139746107Y-122207868D01*
X139726401Y-122193253D01*
X139708223Y-122176777D01*
X139691747Y-122158599D01*
X139677132Y-122138893D01*
X139664520Y-122117850D01*
X139654030Y-122095671D01*
X139645765Y-122072572D01*
X139639804Y-122048773D01*
X139636204Y-122024505D01*
X139635000Y-122000001D01*
X139635000Y-121349999D01*
X139636204Y-121325495D01*
X139639804Y-121301227D01*
X139645765Y-121277428D01*
X139654030Y-121254329D01*
X139664520Y-121232150D01*
X139677132Y-121211107D01*
X139691747Y-121191401D01*
X139708223Y-121173223D01*
X139726401Y-121156747D01*
X139746107Y-121142132D01*
X139767150Y-121129520D01*
X139789329Y-121119030D01*
X139812428Y-121110765D01*
X139836227Y-121104804D01*
X139860495Y-121101204D01*
X139884999Y-121100000D01*
X140785001Y-121100000D01*
X140809505Y-121101204D01*
X140809505Y-121101204D01*
G37*
D16*
X140335000Y-121675000D03*
D15*
G36*
X140809505Y-119051204D02*
G01*
X140833773Y-119054804D01*
X140857572Y-119060765D01*
X140880671Y-119069030D01*
X140902850Y-119079520D01*
X140923893Y-119092132D01*
X140943599Y-119106747D01*
X140961777Y-119123223D01*
X140978253Y-119141401D01*
X140992868Y-119161107D01*
X141005480Y-119182150D01*
X141015970Y-119204329D01*
X141024235Y-119227428D01*
X141030196Y-119251227D01*
X141033796Y-119275495D01*
X141035000Y-119299999D01*
X141035000Y-119950001D01*
X141033796Y-119974505D01*
X141030196Y-119998773D01*
X141024235Y-120022572D01*
X141015970Y-120045671D01*
X141005480Y-120067850D01*
X140992868Y-120088893D01*
X140978253Y-120108599D01*
X140961777Y-120126777D01*
X140943599Y-120143253D01*
X140923893Y-120157868D01*
X140902850Y-120170480D01*
X140880671Y-120180970D01*
X140857572Y-120189235D01*
X140833773Y-120195196D01*
X140809505Y-120198796D01*
X140785001Y-120200000D01*
X139884999Y-120200000D01*
X139860495Y-120198796D01*
X139836227Y-120195196D01*
X139812428Y-120189235D01*
X139789329Y-120180970D01*
X139767150Y-120170480D01*
X139746107Y-120157868D01*
X139726401Y-120143253D01*
X139708223Y-120126777D01*
X139691747Y-120108599D01*
X139677132Y-120088893D01*
X139664520Y-120067850D01*
X139654030Y-120045671D01*
X139645765Y-120022572D01*
X139639804Y-119998773D01*
X139636204Y-119974505D01*
X139635000Y-119950001D01*
X139635000Y-119299999D01*
X139636204Y-119275495D01*
X139639804Y-119251227D01*
X139645765Y-119227428D01*
X139654030Y-119204329D01*
X139664520Y-119182150D01*
X139677132Y-119161107D01*
X139691747Y-119141401D01*
X139708223Y-119123223D01*
X139726401Y-119106747D01*
X139746107Y-119092132D01*
X139767150Y-119079520D01*
X139789329Y-119069030D01*
X139812428Y-119060765D01*
X139836227Y-119054804D01*
X139860495Y-119051204D01*
X139884999Y-119050000D01*
X140785001Y-119050000D01*
X140809505Y-119051204D01*
X140809505Y-119051204D01*
G37*
D16*
X140335000Y-119625000D03*
D17*
X195580000Y-140589000D03*
X195580000Y-143129000D03*
D18*
X200660000Y-148209000D03*
X200660000Y-138049000D03*
D12*
X130937000Y-162560000D03*
X140970000Y-143510000D03*
X128397000Y-124460000D03*
D17*
X127000000Y-146050000D03*
X127000000Y-143510000D03*
D18*
X121920000Y-138430000D03*
X121920000Y-148590000D03*
D15*
G36*
X154652505Y-123369204D02*
G01*
X154676773Y-123372804D01*
X154700572Y-123378765D01*
X154723671Y-123387030D01*
X154745850Y-123397520D01*
X154766893Y-123410132D01*
X154786599Y-123424747D01*
X154804777Y-123441223D01*
X154821253Y-123459401D01*
X154835868Y-123479107D01*
X154848480Y-123500150D01*
X154858970Y-123522329D01*
X154867235Y-123545428D01*
X154873196Y-123569227D01*
X154876796Y-123593495D01*
X154878000Y-123617999D01*
X154878000Y-124268001D01*
X154876796Y-124292505D01*
X154873196Y-124316773D01*
X154867235Y-124340572D01*
X154858970Y-124363671D01*
X154848480Y-124385850D01*
X154835868Y-124406893D01*
X154821253Y-124426599D01*
X154804777Y-124444777D01*
X154786599Y-124461253D01*
X154766893Y-124475868D01*
X154745850Y-124488480D01*
X154723671Y-124498970D01*
X154700572Y-124507235D01*
X154676773Y-124513196D01*
X154652505Y-124516796D01*
X154628001Y-124518000D01*
X153727999Y-124518000D01*
X153703495Y-124516796D01*
X153679227Y-124513196D01*
X153655428Y-124507235D01*
X153632329Y-124498970D01*
X153610150Y-124488480D01*
X153589107Y-124475868D01*
X153569401Y-124461253D01*
X153551223Y-124444777D01*
X153534747Y-124426599D01*
X153520132Y-124406893D01*
X153507520Y-124385850D01*
X153497030Y-124363671D01*
X153488765Y-124340572D01*
X153482804Y-124316773D01*
X153479204Y-124292505D01*
X153478000Y-124268001D01*
X153478000Y-123617999D01*
X153479204Y-123593495D01*
X153482804Y-123569227D01*
X153488765Y-123545428D01*
X153497030Y-123522329D01*
X153507520Y-123500150D01*
X153520132Y-123479107D01*
X153534747Y-123459401D01*
X153551223Y-123441223D01*
X153569401Y-123424747D01*
X153589107Y-123410132D01*
X153610150Y-123397520D01*
X153632329Y-123387030D01*
X153655428Y-123378765D01*
X153679227Y-123372804D01*
X153703495Y-123369204D01*
X153727999Y-123368000D01*
X154628001Y-123368000D01*
X154652505Y-123369204D01*
X154652505Y-123369204D01*
G37*
D16*
X154178000Y-123943000D03*
D15*
G36*
X154652505Y-125419204D02*
G01*
X154676773Y-125422804D01*
X154700572Y-125428765D01*
X154723671Y-125437030D01*
X154745850Y-125447520D01*
X154766893Y-125460132D01*
X154786599Y-125474747D01*
X154804777Y-125491223D01*
X154821253Y-125509401D01*
X154835868Y-125529107D01*
X154848480Y-125550150D01*
X154858970Y-125572329D01*
X154867235Y-125595428D01*
X154873196Y-125619227D01*
X154876796Y-125643495D01*
X154878000Y-125667999D01*
X154878000Y-126318001D01*
X154876796Y-126342505D01*
X154873196Y-126366773D01*
X154867235Y-126390572D01*
X154858970Y-126413671D01*
X154848480Y-126435850D01*
X154835868Y-126456893D01*
X154821253Y-126476599D01*
X154804777Y-126494777D01*
X154786599Y-126511253D01*
X154766893Y-126525868D01*
X154745850Y-126538480D01*
X154723671Y-126548970D01*
X154700572Y-126557235D01*
X154676773Y-126563196D01*
X154652505Y-126566796D01*
X154628001Y-126568000D01*
X153727999Y-126568000D01*
X153703495Y-126566796D01*
X153679227Y-126563196D01*
X153655428Y-126557235D01*
X153632329Y-126548970D01*
X153610150Y-126538480D01*
X153589107Y-126525868D01*
X153569401Y-126511253D01*
X153551223Y-126494777D01*
X153534747Y-126476599D01*
X153520132Y-126456893D01*
X153507520Y-126435850D01*
X153497030Y-126413671D01*
X153488765Y-126390572D01*
X153482804Y-126366773D01*
X153479204Y-126342505D01*
X153478000Y-126318001D01*
X153478000Y-125667999D01*
X153479204Y-125643495D01*
X153482804Y-125619227D01*
X153488765Y-125595428D01*
X153497030Y-125572329D01*
X153507520Y-125550150D01*
X153520132Y-125529107D01*
X153534747Y-125509401D01*
X153551223Y-125491223D01*
X153569401Y-125474747D01*
X153589107Y-125460132D01*
X153610150Y-125447520D01*
X153632329Y-125437030D01*
X153655428Y-125428765D01*
X153679227Y-125422804D01*
X153703495Y-125419204D01*
X153727999Y-125418000D01*
X154628001Y-125418000D01*
X154652505Y-125419204D01*
X154652505Y-125419204D01*
G37*
D16*
X154178000Y-125993000D03*
D11*
X157988000Y-131826000D03*
D12*
X157988000Y-129286000D03*
D15*
G36*
X158208505Y-123369204D02*
G01*
X158232773Y-123372804D01*
X158256572Y-123378765D01*
X158279671Y-123387030D01*
X158301850Y-123397520D01*
X158322893Y-123410132D01*
X158342599Y-123424747D01*
X158360777Y-123441223D01*
X158377253Y-123459401D01*
X158391868Y-123479107D01*
X158404480Y-123500150D01*
X158414970Y-123522329D01*
X158423235Y-123545428D01*
X158429196Y-123569227D01*
X158432796Y-123593495D01*
X158434000Y-123617999D01*
X158434000Y-124268001D01*
X158432796Y-124292505D01*
X158429196Y-124316773D01*
X158423235Y-124340572D01*
X158414970Y-124363671D01*
X158404480Y-124385850D01*
X158391868Y-124406893D01*
X158377253Y-124426599D01*
X158360777Y-124444777D01*
X158342599Y-124461253D01*
X158322893Y-124475868D01*
X158301850Y-124488480D01*
X158279671Y-124498970D01*
X158256572Y-124507235D01*
X158232773Y-124513196D01*
X158208505Y-124516796D01*
X158184001Y-124518000D01*
X157283999Y-124518000D01*
X157259495Y-124516796D01*
X157235227Y-124513196D01*
X157211428Y-124507235D01*
X157188329Y-124498970D01*
X157166150Y-124488480D01*
X157145107Y-124475868D01*
X157125401Y-124461253D01*
X157107223Y-124444777D01*
X157090747Y-124426599D01*
X157076132Y-124406893D01*
X157063520Y-124385850D01*
X157053030Y-124363671D01*
X157044765Y-124340572D01*
X157038804Y-124316773D01*
X157035204Y-124292505D01*
X157034000Y-124268001D01*
X157034000Y-123617999D01*
X157035204Y-123593495D01*
X157038804Y-123569227D01*
X157044765Y-123545428D01*
X157053030Y-123522329D01*
X157063520Y-123500150D01*
X157076132Y-123479107D01*
X157090747Y-123459401D01*
X157107223Y-123441223D01*
X157125401Y-123424747D01*
X157145107Y-123410132D01*
X157166150Y-123397520D01*
X157188329Y-123387030D01*
X157211428Y-123378765D01*
X157235227Y-123372804D01*
X157259495Y-123369204D01*
X157283999Y-123368000D01*
X158184001Y-123368000D01*
X158208505Y-123369204D01*
X158208505Y-123369204D01*
G37*
D16*
X157734000Y-123943000D03*
D15*
G36*
X158208505Y-125419204D02*
G01*
X158232773Y-125422804D01*
X158256572Y-125428765D01*
X158279671Y-125437030D01*
X158301850Y-125447520D01*
X158322893Y-125460132D01*
X158342599Y-125474747D01*
X158360777Y-125491223D01*
X158377253Y-125509401D01*
X158391868Y-125529107D01*
X158404480Y-125550150D01*
X158414970Y-125572329D01*
X158423235Y-125595428D01*
X158429196Y-125619227D01*
X158432796Y-125643495D01*
X158434000Y-125667999D01*
X158434000Y-126318001D01*
X158432796Y-126342505D01*
X158429196Y-126366773D01*
X158423235Y-126390572D01*
X158414970Y-126413671D01*
X158404480Y-126435850D01*
X158391868Y-126456893D01*
X158377253Y-126476599D01*
X158360777Y-126494777D01*
X158342599Y-126511253D01*
X158322893Y-126525868D01*
X158301850Y-126538480D01*
X158279671Y-126548970D01*
X158256572Y-126557235D01*
X158232773Y-126563196D01*
X158208505Y-126566796D01*
X158184001Y-126568000D01*
X157283999Y-126568000D01*
X157259495Y-126566796D01*
X157235227Y-126563196D01*
X157211428Y-126557235D01*
X157188329Y-126548970D01*
X157166150Y-126538480D01*
X157145107Y-126525868D01*
X157125401Y-126511253D01*
X157107223Y-126494777D01*
X157090747Y-126476599D01*
X157076132Y-126456893D01*
X157063520Y-126435850D01*
X157053030Y-126413671D01*
X157044765Y-126390572D01*
X157038804Y-126366773D01*
X157035204Y-126342505D01*
X157034000Y-126318001D01*
X157034000Y-125667999D01*
X157035204Y-125643495D01*
X157038804Y-125619227D01*
X157044765Y-125595428D01*
X157053030Y-125572329D01*
X157063520Y-125550150D01*
X157076132Y-125529107D01*
X157090747Y-125509401D01*
X157107223Y-125491223D01*
X157125401Y-125474747D01*
X157145107Y-125460132D01*
X157166150Y-125447520D01*
X157188329Y-125437030D01*
X157211428Y-125428765D01*
X157235227Y-125422804D01*
X157259495Y-125419204D01*
X157283999Y-125418000D01*
X158184001Y-125418000D01*
X158208505Y-125419204D01*
X158208505Y-125419204D01*
G37*
D16*
X157734000Y-125993000D03*
D11*
X153416000Y-131826000D03*
D12*
X153416000Y-129286000D03*
D15*
G36*
X145889505Y-166431204D02*
G01*
X145913773Y-166434804D01*
X145937572Y-166440765D01*
X145960671Y-166449030D01*
X145982850Y-166459520D01*
X146003893Y-166472132D01*
X146023599Y-166486747D01*
X146041777Y-166503223D01*
X146058253Y-166521401D01*
X146072868Y-166541107D01*
X146085480Y-166562150D01*
X146095970Y-166584329D01*
X146104235Y-166607428D01*
X146110196Y-166631227D01*
X146113796Y-166655495D01*
X146115000Y-166679999D01*
X146115000Y-167330001D01*
X146113796Y-167354505D01*
X146110196Y-167378773D01*
X146104235Y-167402572D01*
X146095970Y-167425671D01*
X146085480Y-167447850D01*
X146072868Y-167468893D01*
X146058253Y-167488599D01*
X146041777Y-167506777D01*
X146023599Y-167523253D01*
X146003893Y-167537868D01*
X145982850Y-167550480D01*
X145960671Y-167560970D01*
X145937572Y-167569235D01*
X145913773Y-167575196D01*
X145889505Y-167578796D01*
X145865001Y-167580000D01*
X144964999Y-167580000D01*
X144940495Y-167578796D01*
X144916227Y-167575196D01*
X144892428Y-167569235D01*
X144869329Y-167560970D01*
X144847150Y-167550480D01*
X144826107Y-167537868D01*
X144806401Y-167523253D01*
X144788223Y-167506777D01*
X144771747Y-167488599D01*
X144757132Y-167468893D01*
X144744520Y-167447850D01*
X144734030Y-167425671D01*
X144725765Y-167402572D01*
X144719804Y-167378773D01*
X144716204Y-167354505D01*
X144715000Y-167330001D01*
X144715000Y-166679999D01*
X144716204Y-166655495D01*
X144719804Y-166631227D01*
X144725765Y-166607428D01*
X144734030Y-166584329D01*
X144744520Y-166562150D01*
X144757132Y-166541107D01*
X144771747Y-166521401D01*
X144788223Y-166503223D01*
X144806401Y-166486747D01*
X144826107Y-166472132D01*
X144847150Y-166459520D01*
X144869329Y-166449030D01*
X144892428Y-166440765D01*
X144916227Y-166434804D01*
X144940495Y-166431204D01*
X144964999Y-166430000D01*
X145865001Y-166430000D01*
X145889505Y-166431204D01*
X145889505Y-166431204D01*
G37*
D16*
X145415000Y-167005000D03*
D15*
G36*
X145889505Y-164381204D02*
G01*
X145913773Y-164384804D01*
X145937572Y-164390765D01*
X145960671Y-164399030D01*
X145982850Y-164409520D01*
X146003893Y-164422132D01*
X146023599Y-164436747D01*
X146041777Y-164453223D01*
X146058253Y-164471401D01*
X146072868Y-164491107D01*
X146085480Y-164512150D01*
X146095970Y-164534329D01*
X146104235Y-164557428D01*
X146110196Y-164581227D01*
X146113796Y-164605495D01*
X146115000Y-164629999D01*
X146115000Y-165280001D01*
X146113796Y-165304505D01*
X146110196Y-165328773D01*
X146104235Y-165352572D01*
X146095970Y-165375671D01*
X146085480Y-165397850D01*
X146072868Y-165418893D01*
X146058253Y-165438599D01*
X146041777Y-165456777D01*
X146023599Y-165473253D01*
X146003893Y-165487868D01*
X145982850Y-165500480D01*
X145960671Y-165510970D01*
X145937572Y-165519235D01*
X145913773Y-165525196D01*
X145889505Y-165528796D01*
X145865001Y-165530000D01*
X144964999Y-165530000D01*
X144940495Y-165528796D01*
X144916227Y-165525196D01*
X144892428Y-165519235D01*
X144869329Y-165510970D01*
X144847150Y-165500480D01*
X144826107Y-165487868D01*
X144806401Y-165473253D01*
X144788223Y-165456777D01*
X144771747Y-165438599D01*
X144757132Y-165418893D01*
X144744520Y-165397850D01*
X144734030Y-165375671D01*
X144725765Y-165352572D01*
X144719804Y-165328773D01*
X144716204Y-165304505D01*
X144715000Y-165280001D01*
X144715000Y-164629999D01*
X144716204Y-164605495D01*
X144719804Y-164581227D01*
X144725765Y-164557428D01*
X144734030Y-164534329D01*
X144744520Y-164512150D01*
X144757132Y-164491107D01*
X144771747Y-164471401D01*
X144788223Y-164453223D01*
X144806401Y-164436747D01*
X144826107Y-164422132D01*
X144847150Y-164409520D01*
X144869329Y-164399030D01*
X144892428Y-164390765D01*
X144916227Y-164384804D01*
X144940495Y-164381204D01*
X144964999Y-164380000D01*
X145865001Y-164380000D01*
X145889505Y-164381204D01*
X145889505Y-164381204D01*
G37*
D16*
X145415000Y-164955000D03*
D15*
G36*
X156049505Y-147526204D02*
G01*
X156073773Y-147529804D01*
X156097572Y-147535765D01*
X156120671Y-147544030D01*
X156142850Y-147554520D01*
X156163893Y-147567132D01*
X156183599Y-147581747D01*
X156201777Y-147598223D01*
X156218253Y-147616401D01*
X156232868Y-147636107D01*
X156245480Y-147657150D01*
X156255970Y-147679329D01*
X156264235Y-147702428D01*
X156270196Y-147726227D01*
X156273796Y-147750495D01*
X156275000Y-147774999D01*
X156275000Y-148425001D01*
X156273796Y-148449505D01*
X156270196Y-148473773D01*
X156264235Y-148497572D01*
X156255970Y-148520671D01*
X156245480Y-148542850D01*
X156232868Y-148563893D01*
X156218253Y-148583599D01*
X156201777Y-148601777D01*
X156183599Y-148618253D01*
X156163893Y-148632868D01*
X156142850Y-148645480D01*
X156120671Y-148655970D01*
X156097572Y-148664235D01*
X156073773Y-148670196D01*
X156049505Y-148673796D01*
X156025001Y-148675000D01*
X155124999Y-148675000D01*
X155100495Y-148673796D01*
X155076227Y-148670196D01*
X155052428Y-148664235D01*
X155029329Y-148655970D01*
X155007150Y-148645480D01*
X154986107Y-148632868D01*
X154966401Y-148618253D01*
X154948223Y-148601777D01*
X154931747Y-148583599D01*
X154917132Y-148563893D01*
X154904520Y-148542850D01*
X154894030Y-148520671D01*
X154885765Y-148497572D01*
X154879804Y-148473773D01*
X154876204Y-148449505D01*
X154875000Y-148425001D01*
X154875000Y-147774999D01*
X154876204Y-147750495D01*
X154879804Y-147726227D01*
X154885765Y-147702428D01*
X154894030Y-147679329D01*
X154904520Y-147657150D01*
X154917132Y-147636107D01*
X154931747Y-147616401D01*
X154948223Y-147598223D01*
X154966401Y-147581747D01*
X154986107Y-147567132D01*
X155007150Y-147554520D01*
X155029329Y-147544030D01*
X155052428Y-147535765D01*
X155076227Y-147529804D01*
X155100495Y-147526204D01*
X155124999Y-147525000D01*
X156025001Y-147525000D01*
X156049505Y-147526204D01*
X156049505Y-147526204D01*
G37*
D16*
X155575000Y-148100000D03*
D15*
G36*
X156049505Y-145476204D02*
G01*
X156073773Y-145479804D01*
X156097572Y-145485765D01*
X156120671Y-145494030D01*
X156142850Y-145504520D01*
X156163893Y-145517132D01*
X156183599Y-145531747D01*
X156201777Y-145548223D01*
X156218253Y-145566401D01*
X156232868Y-145586107D01*
X156245480Y-145607150D01*
X156255970Y-145629329D01*
X156264235Y-145652428D01*
X156270196Y-145676227D01*
X156273796Y-145700495D01*
X156275000Y-145724999D01*
X156275000Y-146375001D01*
X156273796Y-146399505D01*
X156270196Y-146423773D01*
X156264235Y-146447572D01*
X156255970Y-146470671D01*
X156245480Y-146492850D01*
X156232868Y-146513893D01*
X156218253Y-146533599D01*
X156201777Y-146551777D01*
X156183599Y-146568253D01*
X156163893Y-146582868D01*
X156142850Y-146595480D01*
X156120671Y-146605970D01*
X156097572Y-146614235D01*
X156073773Y-146620196D01*
X156049505Y-146623796D01*
X156025001Y-146625000D01*
X155124999Y-146625000D01*
X155100495Y-146623796D01*
X155076227Y-146620196D01*
X155052428Y-146614235D01*
X155029329Y-146605970D01*
X155007150Y-146595480D01*
X154986107Y-146582868D01*
X154966401Y-146568253D01*
X154948223Y-146551777D01*
X154931747Y-146533599D01*
X154917132Y-146513893D01*
X154904520Y-146492850D01*
X154894030Y-146470671D01*
X154885765Y-146447572D01*
X154879804Y-146423773D01*
X154876204Y-146399505D01*
X154875000Y-146375001D01*
X154875000Y-145724999D01*
X154876204Y-145700495D01*
X154879804Y-145676227D01*
X154885765Y-145652428D01*
X154894030Y-145629329D01*
X154904520Y-145607150D01*
X154917132Y-145586107D01*
X154931747Y-145566401D01*
X154948223Y-145548223D01*
X154966401Y-145531747D01*
X154986107Y-145517132D01*
X155007150Y-145504520D01*
X155029329Y-145494030D01*
X155052428Y-145485765D01*
X155076227Y-145479804D01*
X155100495Y-145476204D01*
X155124999Y-145475000D01*
X156025001Y-145475000D01*
X156049505Y-145476204D01*
X156049505Y-145476204D01*
G37*
D16*
X155575000Y-146050000D03*
D15*
G36*
X143349505Y-128331204D02*
G01*
X143373773Y-128334804D01*
X143397572Y-128340765D01*
X143420671Y-128349030D01*
X143442850Y-128359520D01*
X143463893Y-128372132D01*
X143483599Y-128386747D01*
X143501777Y-128403223D01*
X143518253Y-128421401D01*
X143532868Y-128441107D01*
X143545480Y-128462150D01*
X143555970Y-128484329D01*
X143564235Y-128507428D01*
X143570196Y-128531227D01*
X143573796Y-128555495D01*
X143575000Y-128579999D01*
X143575000Y-129230001D01*
X143573796Y-129254505D01*
X143570196Y-129278773D01*
X143564235Y-129302572D01*
X143555970Y-129325671D01*
X143545480Y-129347850D01*
X143532868Y-129368893D01*
X143518253Y-129388599D01*
X143501777Y-129406777D01*
X143483599Y-129423253D01*
X143463893Y-129437868D01*
X143442850Y-129450480D01*
X143420671Y-129460970D01*
X143397572Y-129469235D01*
X143373773Y-129475196D01*
X143349505Y-129478796D01*
X143325001Y-129480000D01*
X142424999Y-129480000D01*
X142400495Y-129478796D01*
X142376227Y-129475196D01*
X142352428Y-129469235D01*
X142329329Y-129460970D01*
X142307150Y-129450480D01*
X142286107Y-129437868D01*
X142266401Y-129423253D01*
X142248223Y-129406777D01*
X142231747Y-129388599D01*
X142217132Y-129368893D01*
X142204520Y-129347850D01*
X142194030Y-129325671D01*
X142185765Y-129302572D01*
X142179804Y-129278773D01*
X142176204Y-129254505D01*
X142175000Y-129230001D01*
X142175000Y-128579999D01*
X142176204Y-128555495D01*
X142179804Y-128531227D01*
X142185765Y-128507428D01*
X142194030Y-128484329D01*
X142204520Y-128462150D01*
X142217132Y-128441107D01*
X142231747Y-128421401D01*
X142248223Y-128403223D01*
X142266401Y-128386747D01*
X142286107Y-128372132D01*
X142307150Y-128359520D01*
X142329329Y-128349030D01*
X142352428Y-128340765D01*
X142376227Y-128334804D01*
X142400495Y-128331204D01*
X142424999Y-128330000D01*
X143325001Y-128330000D01*
X143349505Y-128331204D01*
X143349505Y-128331204D01*
G37*
D16*
X142875000Y-128905000D03*
D15*
G36*
X143349505Y-126281204D02*
G01*
X143373773Y-126284804D01*
X143397572Y-126290765D01*
X143420671Y-126299030D01*
X143442850Y-126309520D01*
X143463893Y-126322132D01*
X143483599Y-126336747D01*
X143501777Y-126353223D01*
X143518253Y-126371401D01*
X143532868Y-126391107D01*
X143545480Y-126412150D01*
X143555970Y-126434329D01*
X143564235Y-126457428D01*
X143570196Y-126481227D01*
X143573796Y-126505495D01*
X143575000Y-126529999D01*
X143575000Y-127180001D01*
X143573796Y-127204505D01*
X143570196Y-127228773D01*
X143564235Y-127252572D01*
X143555970Y-127275671D01*
X143545480Y-127297850D01*
X143532868Y-127318893D01*
X143518253Y-127338599D01*
X143501777Y-127356777D01*
X143483599Y-127373253D01*
X143463893Y-127387868D01*
X143442850Y-127400480D01*
X143420671Y-127410970D01*
X143397572Y-127419235D01*
X143373773Y-127425196D01*
X143349505Y-127428796D01*
X143325001Y-127430000D01*
X142424999Y-127430000D01*
X142400495Y-127428796D01*
X142376227Y-127425196D01*
X142352428Y-127419235D01*
X142329329Y-127410970D01*
X142307150Y-127400480D01*
X142286107Y-127387868D01*
X142266401Y-127373253D01*
X142248223Y-127356777D01*
X142231747Y-127338599D01*
X142217132Y-127318893D01*
X142204520Y-127297850D01*
X142194030Y-127275671D01*
X142185765Y-127252572D01*
X142179804Y-127228773D01*
X142176204Y-127204505D01*
X142175000Y-127180001D01*
X142175000Y-126529999D01*
X142176204Y-126505495D01*
X142179804Y-126481227D01*
X142185765Y-126457428D01*
X142194030Y-126434329D01*
X142204520Y-126412150D01*
X142217132Y-126391107D01*
X142231747Y-126371401D01*
X142248223Y-126353223D01*
X142266401Y-126336747D01*
X142286107Y-126322132D01*
X142307150Y-126309520D01*
X142329329Y-126299030D01*
X142352428Y-126290765D01*
X142376227Y-126284804D01*
X142400495Y-126281204D01*
X142424999Y-126280000D01*
X143325001Y-126280000D01*
X143349505Y-126281204D01*
X143349505Y-126281204D01*
G37*
D16*
X142875000Y-126855000D03*
D19*
X136144000Y-129540000D03*
X148844000Y-148336000D03*
X138684000Y-167132000D03*
X146304000Y-127000000D03*
X146304000Y-130556000D03*
X159004000Y-145796000D03*
X159004000Y-149860000D03*
X148844000Y-164592000D03*
X148844000Y-169164000D03*
X111760000Y-111760000D03*
X114300000Y-111760000D03*
X116840000Y-111760000D03*
X119380000Y-111760000D03*
X121920000Y-111760000D03*
X124460000Y-111760000D03*
X127000000Y-111760000D03*
X129540000Y-111760000D03*
X132080000Y-111760000D03*
X134620000Y-111760000D03*
X137160000Y-111760000D03*
X139700000Y-111760000D03*
X142240000Y-111760000D03*
X144780000Y-111760000D03*
X147320000Y-111760000D03*
X149860000Y-111760000D03*
X152400000Y-111760000D03*
X154940000Y-111760000D03*
X157480000Y-111760000D03*
X160020000Y-111760000D03*
X162560000Y-111760000D03*
X165100000Y-111760000D03*
X167640000Y-111760000D03*
X170180000Y-111760000D03*
X172720000Y-111760000D03*
X175260000Y-111760000D03*
X177800000Y-111760000D03*
X180340000Y-111760000D03*
X182880000Y-111760000D03*
X185420000Y-111760000D03*
X187960000Y-111760000D03*
X190500000Y-111760000D03*
X193040000Y-111760000D03*
X195580000Y-111760000D03*
X198120000Y-111760000D03*
X200660000Y-111760000D03*
X203200000Y-111760000D03*
X205740000Y-111760000D03*
X208280000Y-111760000D03*
X210820000Y-111760000D03*
X210820000Y-114300000D03*
X210820000Y-116840000D03*
X210820000Y-119380000D03*
X210820000Y-121920000D03*
X210820000Y-124460000D03*
X210820000Y-127000000D03*
X210820000Y-129540000D03*
X210820000Y-132080000D03*
X210820000Y-134620000D03*
X210820000Y-137160000D03*
X210820000Y-139700000D03*
X210820000Y-142240000D03*
X210820000Y-144780000D03*
X210820000Y-147320000D03*
X210820000Y-149860000D03*
X210820000Y-152400000D03*
X210820000Y-154940000D03*
X210820000Y-157480000D03*
X210820000Y-160020000D03*
X210820000Y-162560000D03*
X210820000Y-165100000D03*
X210820000Y-167640000D03*
X210820000Y-170180000D03*
X210820000Y-172720000D03*
X210820000Y-175260000D03*
X208280000Y-175260000D03*
X205740000Y-175260000D03*
X203200000Y-175260000D03*
X200660000Y-175260000D03*
X198120000Y-175260000D03*
X195580000Y-175260000D03*
X193040000Y-175260000D03*
X190500000Y-175260000D03*
X187960000Y-175260000D03*
X185420000Y-175260000D03*
X182880000Y-175260000D03*
X180340000Y-175260000D03*
X177800000Y-175260000D03*
X175260000Y-175260000D03*
X172720000Y-175260000D03*
X170180000Y-175260000D03*
X167640000Y-175260000D03*
X165100000Y-175260000D03*
X162560000Y-175260000D03*
X160020000Y-175260000D03*
X157480000Y-175260000D03*
X154940000Y-175260000D03*
X152400000Y-175260000D03*
X149860000Y-175260000D03*
X147320000Y-175260000D03*
X144780000Y-175260000D03*
X142240000Y-175260000D03*
X139700000Y-175260000D03*
X137160000Y-175260000D03*
X134620000Y-175260000D03*
X132080000Y-175260000D03*
X129540000Y-175260000D03*
X127000000Y-175260000D03*
X124460000Y-175260000D03*
X121920000Y-175260000D03*
X119380000Y-175260000D03*
X116840000Y-175260000D03*
X114300000Y-175260000D03*
X111760000Y-175260000D03*
X111760000Y-172720000D03*
X111760000Y-170180000D03*
X111760000Y-167640000D03*
X111760000Y-165100000D03*
X111760000Y-162560000D03*
X111760000Y-160020000D03*
X111760000Y-157480000D03*
X111760000Y-154940000D03*
X111760000Y-152400000D03*
X111760000Y-149860000D03*
X111760000Y-147320000D03*
X111760000Y-144780000D03*
X111760000Y-142240000D03*
X111760000Y-139700000D03*
X111760000Y-137160000D03*
X111760000Y-134620000D03*
X111760000Y-132080000D03*
X111760000Y-129540000D03*
X111760000Y-127000000D03*
X111760000Y-124460000D03*
X111760000Y-121920000D03*
X111760000Y-119380000D03*
X111760000Y-116840000D03*
X111760000Y-114300000D03*
X116840000Y-121920000D03*
X116840000Y-127000000D03*
X116840000Y-132080000D03*
X116840000Y-137160000D03*
X116840000Y-142240000D03*
X116840000Y-147320000D03*
X116840000Y-152400000D03*
X116840000Y-157480000D03*
X116840000Y-162560000D03*
X121920000Y-162560000D03*
X121920000Y-157480000D03*
X121920000Y-152400000D03*
X121920000Y-167640000D03*
X121920000Y-142240000D03*
X121920000Y-132080000D03*
X121920000Y-127000000D03*
X121920000Y-121920000D03*
X121920000Y-116840000D03*
X121920000Y-171450000D03*
X127000000Y-171450000D03*
X132080000Y-171450000D03*
X152400000Y-171450000D03*
X157480000Y-171450000D03*
X152400000Y-167640000D03*
X157480000Y-167640000D03*
X127000000Y-152400000D03*
X127000000Y-137160000D03*
X127000000Y-132080000D03*
X127000000Y-116840000D03*
X132080000Y-137160000D03*
X132080000Y-142240000D03*
X132080000Y-147320000D03*
X132080000Y-152400000D03*
X149860000Y-116840000D03*
X149860000Y-121920000D03*
X195580000Y-137160000D03*
X195580000Y-132080000D03*
X195580000Y-127000000D03*
X195580000Y-121920000D03*
X200660000Y-116840000D03*
X205740000Y-132080000D03*
X205740000Y-127000000D03*
X205740000Y-121920000D03*
X205740000Y-137160000D03*
X205740000Y-142240000D03*
X205740000Y-147320000D03*
X205740000Y-152400000D03*
X205740000Y-157480000D03*
X205740000Y-162560000D03*
X200660000Y-162560000D03*
X200660000Y-157480000D03*
X200660000Y-152400000D03*
X200660000Y-167640000D03*
X200660000Y-171450000D03*
X152908000Y-156972000D03*
X162052000Y-156972000D03*
X153416000Y-137160000D03*
X143256000Y-156464000D03*
X140716000Y-118364000D03*
X151892000Y-122936000D03*
X159512000Y-126326000D03*
X136144000Y-119888000D03*
X148844000Y-139192000D03*
X138684000Y-157988000D03*
X156464000Y-165100000D03*
X152146000Y-115062000D03*
X152400000Y-126238000D03*
X160528000Y-163068000D03*
D20*
X149860000Y-147320000D02*
X150495000Y-147955000D01*
X149860000Y-146210000D02*
X149860000Y-147320000D01*
X155575000Y-147955000D02*
X156275000Y-147955000D01*
X157335000Y-143510000D02*
X157335000Y-146895000D01*
X157335000Y-144210000D02*
X157335000Y-143510000D01*
X150495000Y-147955000D02*
X155575000Y-147955000D01*
X157335000Y-146895000D02*
X156275000Y-147955000D01*
X139700000Y-166370000D02*
X140335000Y-167005000D01*
X139700000Y-165260000D02*
X139700000Y-166370000D01*
X145415000Y-167005000D02*
X146115000Y-167005000D01*
X147175000Y-162560000D02*
X147175000Y-165945000D01*
X147175000Y-163260000D02*
X147175000Y-162560000D01*
X140335000Y-167005000D02*
X145415000Y-167005000D01*
X147175000Y-165945000D02*
X146115000Y-167005000D01*
X137160000Y-127160000D02*
X137160000Y-128270000D01*
X137160000Y-128270000D02*
X137795000Y-128905000D01*
X137795000Y-128905000D02*
X142875000Y-128905000D01*
X142875000Y-128905000D02*
X143575000Y-128905000D01*
X144635000Y-125160000D02*
X144635000Y-124460000D01*
X144635000Y-127845000D02*
X143575000Y-128905000D01*
X144635000Y-124460000D02*
X144635000Y-127845000D01*
X153035000Y-143510000D02*
X153035000Y-145905000D01*
D21*
X144145000Y-138430000D02*
X144145000Y-135255000D01*
X160655000Y-145415000D02*
X160655000Y-145415000D01*
X144145000Y-148590000D02*
X144145000Y-151765000D01*
D20*
X153035000Y-140725000D02*
X153035000Y-143510000D01*
D21*
X144145000Y-148590000D02*
X138430000Y-148590000D01*
D20*
X147320000Y-144610000D02*
X147320000Y-146210000D01*
D21*
X138430000Y-138430000D02*
X137795000Y-139065000D01*
X160655000Y-135255000D02*
X160660010Y-135260010D01*
D20*
X148420000Y-143510000D02*
X147320000Y-144610000D01*
X147320000Y-139210000D02*
X146540000Y-138430000D01*
D21*
X144145000Y-138430000D02*
X138430000Y-138430000D01*
D20*
X146540000Y-148590000D02*
X147320000Y-147810000D01*
D21*
X144145000Y-151765000D02*
X160655000Y-151765000D01*
X160660010Y-141599990D02*
X160660010Y-141599990D01*
X144145000Y-135255000D02*
X160655000Y-135255000D01*
X137795000Y-139065000D02*
X137795000Y-147955000D01*
X160660010Y-135260010D02*
X160660010Y-141599990D01*
D20*
X153035000Y-145905000D02*
X155575000Y-145905000D01*
X144145000Y-148590000D02*
X146540000Y-148590000D01*
D21*
X160655000Y-151765000D02*
X160655000Y-145415000D01*
D20*
X147320000Y-147810000D02*
X147320000Y-146210000D01*
X146540000Y-138430000D02*
X144145000Y-138430000D01*
D21*
X138430000Y-148590000D02*
X137795000Y-147955000D01*
D20*
X153035000Y-143510000D02*
X148420000Y-143510000D01*
X147320000Y-142410000D02*
X147320000Y-140810000D01*
X148420000Y-143510000D02*
X147320000Y-142410000D01*
X146050000Y-140810000D02*
X147320000Y-140810000D01*
X147320000Y-140810000D02*
X147320000Y-139210000D01*
X142875000Y-162560000D02*
X142875000Y-164955000D01*
D21*
X133985000Y-157480000D02*
X133985000Y-154305000D01*
X150495000Y-164465000D02*
X150495000Y-164465000D01*
X133985000Y-167640000D02*
X133985000Y-170815000D01*
D20*
X142875000Y-159775000D02*
X142875000Y-162560000D01*
D21*
X133985000Y-167640000D02*
X128270000Y-167640000D01*
D20*
X137160000Y-163660000D02*
X137160000Y-165260000D01*
D21*
X128270000Y-157480000D02*
X127635000Y-158115000D01*
X150495000Y-154305000D02*
X150500010Y-154310010D01*
D20*
X138260000Y-162560000D02*
X137160000Y-163660000D01*
X137160000Y-158260000D02*
X136380000Y-157480000D01*
D21*
X133985000Y-157480000D02*
X128270000Y-157480000D01*
D20*
X136380000Y-167640000D02*
X137160000Y-166860000D01*
D21*
X133985000Y-170815000D02*
X150495000Y-170815000D01*
X150500010Y-160649990D02*
X150500010Y-160649990D01*
X133985000Y-154305000D02*
X150495000Y-154305000D01*
X127635000Y-158115000D02*
X127635000Y-167005000D01*
X150500010Y-154310010D02*
X150500010Y-160649990D01*
D20*
X142875000Y-164955000D02*
X145415000Y-164955000D01*
X133985000Y-167640000D02*
X136380000Y-167640000D01*
D21*
X150495000Y-170815000D02*
X150495000Y-164465000D01*
D20*
X137160000Y-166860000D02*
X137160000Y-165260000D01*
X136380000Y-157480000D02*
X133985000Y-157480000D01*
D21*
X128270000Y-167640000D02*
X127635000Y-167005000D01*
D20*
X142875000Y-162560000D02*
X138260000Y-162560000D01*
X137160000Y-161460000D02*
X137160000Y-159860000D01*
X138260000Y-162560000D02*
X137160000Y-161460000D01*
X135890000Y-159860000D02*
X137160000Y-159860000D01*
X137160000Y-159860000D02*
X137160000Y-158260000D01*
X134620000Y-120160000D02*
X133840000Y-119380000D01*
X134620000Y-121760000D02*
X134620000Y-120160000D01*
X134620000Y-128760000D02*
X134620000Y-127160000D01*
X133840000Y-129540000D02*
X134620000Y-128760000D01*
X140335000Y-126855000D02*
X142875000Y-126855000D01*
X135720000Y-124460000D02*
X134620000Y-123360000D01*
X140335000Y-124460000D02*
X135720000Y-124460000D01*
X134620000Y-123360000D02*
X134620000Y-121760000D01*
X140335000Y-121675000D02*
X140335000Y-124460000D01*
X140335000Y-124460000D02*
X140335000Y-126855000D01*
X134620000Y-125560000D02*
X134620000Y-127160000D01*
X135720000Y-124460000D02*
X134620000Y-125560000D01*
D21*
X131445000Y-119380000D02*
X131445000Y-116205000D01*
D20*
X133840000Y-119380000D02*
X131445000Y-119380000D01*
D21*
X147960010Y-116210010D02*
X147960010Y-122549990D01*
X147955000Y-116205000D02*
X147960010Y-116210010D01*
X131445000Y-129540000D02*
X131445000Y-132715000D01*
D20*
X131445000Y-129540000D02*
X133840000Y-129540000D01*
D21*
X131445000Y-132715000D02*
X147955000Y-132715000D01*
X147955000Y-132715000D02*
X147955000Y-126365000D01*
X147960010Y-122549990D02*
X147960010Y-122549990D01*
X131445000Y-116205000D02*
X147955000Y-116205000D01*
X131445000Y-119380000D02*
X125730000Y-119380000D01*
X131445000Y-129540000D02*
X125730000Y-129540000D01*
X125730000Y-119380000D02*
X125095000Y-120015000D01*
X125730000Y-129540000D02*
X125095000Y-128905000D01*
X125095000Y-120015000D02*
X125095000Y-128905000D01*
D20*
X133350000Y-121760000D02*
X134620000Y-121760000D01*
X154559000Y-120603000D02*
X154559000Y-121539000D01*
X153924000Y-123571000D02*
X154305000Y-123571000D01*
X135890000Y-129286000D02*
X136144000Y-129540000D01*
X135890000Y-127160000D02*
X135890000Y-129286000D01*
X148590000Y-148082000D02*
X148844000Y-148336000D01*
X148590000Y-146210000D02*
X148590000Y-148082000D01*
X138430000Y-166878000D02*
X138684000Y-167132000D01*
X138430000Y-165100000D02*
X138430000Y-166878000D01*
X153035000Y-137541000D02*
X153416000Y-137160000D01*
X153035000Y-138430000D02*
X153035000Y-137541000D01*
X142875000Y-156845000D02*
X143256000Y-156464000D01*
X142875000Y-157725000D02*
X142875000Y-156845000D01*
X140335000Y-118745000D02*
X140716000Y-118364000D01*
X140335000Y-119625000D02*
X140335000Y-118745000D01*
X156972000Y-120272998D02*
X156587002Y-119888000D01*
X156972000Y-121238000D02*
X156972000Y-120272998D01*
X156587002Y-119888000D02*
X154940000Y-119888000D01*
D22*
X152725000Y-117557002D02*
X152725000Y-116672000D01*
X152075000Y-118207002D02*
X152725000Y-117557002D01*
X152075000Y-121072000D02*
X152075000Y-118207002D01*
X152075000Y-122753000D02*
X151892000Y-122936000D01*
X152075000Y-121072000D02*
X152075000Y-122753000D01*
D20*
X159179000Y-125993000D02*
X159512000Y-126326000D01*
X157734000Y-125993000D02*
X159179000Y-125993000D01*
X135890000Y-120142000D02*
X136144000Y-119888000D01*
X135890000Y-121760000D02*
X135890000Y-120142000D01*
X148590000Y-139446000D02*
X148844000Y-139192000D01*
X148590000Y-140810000D02*
X148590000Y-139446000D01*
X138430000Y-158242000D02*
X138684000Y-157988000D01*
X138430000Y-159700000D02*
X138430000Y-158242000D01*
D22*
X156281000Y-164917000D02*
X156464000Y-165100000D01*
X156281000Y-163236000D02*
X156281000Y-164917000D01*
D20*
X161210000Y-118538000D02*
X161544000Y-118872000D01*
X157922000Y-118538000D02*
X161210000Y-118538000D01*
D22*
X152075000Y-115133000D02*
X152146000Y-115062000D01*
X152075000Y-116672000D02*
X152075000Y-115133000D01*
D20*
X152645000Y-125993000D02*
X152400000Y-126238000D01*
X154178000Y-125993000D02*
X152645000Y-125993000D01*
X135890000Y-165260000D02*
X132287000Y-165260000D01*
X130937000Y-163910000D02*
X130937000Y-162560000D01*
X132287000Y-165260000D02*
X130937000Y-163910000D01*
X128397000Y-125810000D02*
X128397000Y-124460000D01*
X129747000Y-127160000D02*
X128397000Y-125810000D01*
X133350000Y-127160000D02*
X129747000Y-127160000D01*
X146050000Y-146210000D02*
X142447000Y-146210000D01*
X141097000Y-144860000D02*
X141097000Y-143510000D01*
X142447000Y-146210000D02*
X141097000Y-144860000D01*
D21*
X160274000Y-162814000D02*
X160528000Y-163068000D01*
X160274000Y-161426000D02*
X160274000Y-162814000D01*
D22*
X159474000Y-161426000D02*
X160274000Y-161426000D01*
X156466000Y-161426000D02*
X159474000Y-161426000D01*
X155631000Y-162261000D02*
X156466000Y-161426000D01*
X155631000Y-163236000D02*
X155631000Y-162261000D01*
D20*
X149993372Y-161936628D02*
X151931372Y-161936628D01*
X149370000Y-162560000D02*
X149993372Y-161936628D01*
X161048507Y-152715010D02*
X161605010Y-152158507D01*
X158496000Y-152715010D02*
X161048507Y-152715010D01*
X159530000Y-143510000D02*
X161412020Y-143510000D01*
X161412020Y-143510000D02*
X161605010Y-143317010D01*
X161605010Y-152158507D02*
X161605010Y-143317010D01*
X147360000Y-124460000D02*
X146685000Y-124460000D01*
X147393517Y-124460000D02*
X147360000Y-124460000D01*
X148905010Y-125971493D02*
X147393517Y-124460000D01*
X148905010Y-131633010D02*
X148905010Y-125971493D01*
X161610020Y-142104980D02*
X161610020Y-134686020D01*
X161610020Y-134686020D02*
X161036000Y-134112000D01*
X161036000Y-134112000D02*
X151384000Y-134112000D01*
X151384000Y-134112000D02*
X148905010Y-131633010D01*
X161605010Y-142109990D02*
X161610020Y-142104980D01*
X161605010Y-143317010D02*
X161605010Y-142109990D01*
D22*
X155631000Y-158836000D02*
X155631000Y-155580010D01*
X155631000Y-159811000D02*
X155631000Y-158836000D01*
X153505372Y-161936628D02*
X155631000Y-159811000D01*
D20*
X151931372Y-161936628D02*
X153505372Y-161936628D01*
X158496000Y-152715010D02*
X155631000Y-155580010D01*
D22*
X158963999Y-159886001D02*
X159474000Y-159376000D01*
X156445999Y-159886001D02*
X158963999Y-159886001D01*
X156281000Y-159721002D02*
X156445999Y-159886001D01*
X159474000Y-159376000D02*
X160274000Y-159376000D01*
X156281000Y-158836000D02*
X156281000Y-159721002D01*
X154284000Y-118538000D02*
X155447000Y-118538000D01*
X152725000Y-120097000D02*
X154284000Y-118538000D01*
X155447000Y-118538000D02*
X156022000Y-118538000D01*
X152725000Y-121072000D02*
X152725000Y-120097000D01*
X156022000Y-118538000D02*
X156972000Y-118538000D01*
D23*
G36*
X212700000Y-177140000D02*
G01*
X109880000Y-177140000D01*
X109880000Y-168689872D01*
X115875000Y-168689872D01*
X115875000Y-169130128D01*
X115960890Y-169561925D01*
X116129369Y-169968669D01*
X116373962Y-170334729D01*
X116685271Y-170646038D01*
X117051331Y-170890631D01*
X117458075Y-171059110D01*
X117889872Y-171145000D01*
X118330128Y-171145000D01*
X118761925Y-171059110D01*
X119168669Y-170890631D01*
X119534729Y-170646038D01*
X119846038Y-170334729D01*
X120090631Y-169968669D01*
X120259110Y-169561925D01*
X120345000Y-169130128D01*
X120345000Y-168689872D01*
X120259110Y-168258075D01*
X120090631Y-167851331D01*
X119846038Y-167485271D01*
X119534729Y-167173962D01*
X119168669Y-166929369D01*
X118761925Y-166760890D01*
X118330128Y-166675000D01*
X117889872Y-166675000D01*
X117458075Y-166760890D01*
X117051331Y-166929369D01*
X116685271Y-167173962D01*
X116373962Y-167485271D01*
X116129369Y-167851331D01*
X115960890Y-168258075D01*
X115875000Y-168689872D01*
X109880000Y-168689872D01*
X109880000Y-148590000D01*
X117773461Y-148590000D01*
X117819510Y-149057542D01*
X117955887Y-149507116D01*
X118177351Y-149921446D01*
X118475391Y-150284609D01*
X118838554Y-150582649D01*
X119252884Y-150804113D01*
X119702458Y-150940490D01*
X120052843Y-150975000D01*
X123787157Y-150975000D01*
X124137542Y-150940490D01*
X124587116Y-150804113D01*
X125001446Y-150582649D01*
X125364609Y-150284609D01*
X125662649Y-149921446D01*
X125884113Y-149507116D01*
X126020490Y-149057542D01*
X126066539Y-148590000D01*
X126020490Y-148122458D01*
X125884113Y-147672884D01*
X125763375Y-147447000D01*
X126211871Y-147447000D01*
X126268691Y-147464236D01*
X126479508Y-147485000D01*
X127520492Y-147485000D01*
X127731309Y-147464236D01*
X127788129Y-147447000D01*
X129540000Y-147447000D01*
X129564776Y-147444560D01*
X129588601Y-147437333D01*
X129610557Y-147425597D01*
X129629803Y-147409803D01*
X129645597Y-147390557D01*
X129657333Y-147368601D01*
X129664560Y-147344776D01*
X129667000Y-147320000D01*
X129667000Y-140970000D01*
X129664560Y-140945224D01*
X129657333Y-140921399D01*
X129645597Y-140899443D01*
X129629803Y-140880197D01*
X129610557Y-140864403D01*
X129588601Y-140852667D01*
X129564776Y-140845440D01*
X129540000Y-140843000D01*
X124460000Y-140843000D01*
X124435224Y-140845440D01*
X124411399Y-140852667D01*
X124389443Y-140864403D01*
X124370197Y-140880197D01*
X124354403Y-140899443D01*
X124342667Y-140921399D01*
X124335440Y-140945224D01*
X124333000Y-140970000D01*
X124333000Y-146298802D01*
X124137542Y-146239510D01*
X123787157Y-146205000D01*
X120052843Y-146205000D01*
X119702458Y-146239510D01*
X119252884Y-146375887D01*
X118838554Y-146597351D01*
X118475391Y-146895391D01*
X118177351Y-147258554D01*
X117955887Y-147672884D01*
X117819510Y-148122458D01*
X117773461Y-148590000D01*
X109880000Y-148590000D01*
X109880000Y-138430000D01*
X117773461Y-138430000D01*
X117819510Y-138897542D01*
X117955887Y-139347116D01*
X118177351Y-139761446D01*
X118475391Y-140124609D01*
X118838554Y-140422649D01*
X119252884Y-140644113D01*
X119702458Y-140780490D01*
X120052843Y-140815000D01*
X123787157Y-140815000D01*
X124137542Y-140780490D01*
X124587116Y-140644113D01*
X125001446Y-140422649D01*
X125364609Y-140124609D01*
X125662649Y-139761446D01*
X125884113Y-139347116D01*
X126020490Y-138897542D01*
X126066539Y-138430000D01*
X126020490Y-137962458D01*
X125884113Y-137512884D01*
X125662649Y-137098554D01*
X125364609Y-136735391D01*
X125001446Y-136437351D01*
X124587116Y-136215887D01*
X124137542Y-136079510D01*
X123787157Y-136045000D01*
X120052843Y-136045000D01*
X119702458Y-136079510D01*
X119252884Y-136215887D01*
X118838554Y-136437351D01*
X118475391Y-136735391D01*
X118177351Y-137098554D01*
X117955887Y-137512884D01*
X117819510Y-137962458D01*
X117773461Y-138430000D01*
X109880000Y-138430000D01*
X109880000Y-117889872D01*
X115875000Y-117889872D01*
X115875000Y-118330128D01*
X115960890Y-118761925D01*
X116129369Y-119168669D01*
X116373962Y-119534729D01*
X116685271Y-119846038D01*
X117051331Y-120090631D01*
X117458075Y-120259110D01*
X117889872Y-120345000D01*
X118330128Y-120345000D01*
X118761925Y-120259110D01*
X119168669Y-120090631D01*
X119281859Y-120015000D01*
X123954509Y-120015000D01*
X123960000Y-120070752D01*
X123960001Y-128849239D01*
X123954509Y-128905000D01*
X123976423Y-129127498D01*
X124041324Y-129341446D01*
X124072119Y-129399059D01*
X124146717Y-129538623D01*
X124206000Y-129610859D01*
X124206000Y-130302000D01*
X124208440Y-130326776D01*
X124215667Y-130350601D01*
X124227403Y-130372557D01*
X124243197Y-130391803D01*
X124262443Y-130407597D01*
X124284399Y-130419333D01*
X124308224Y-130426560D01*
X124333000Y-130429000D01*
X125024139Y-130429000D01*
X125024482Y-130429281D01*
X125096377Y-130488284D01*
X125293553Y-130593676D01*
X125507501Y-130658577D01*
X125730000Y-130680491D01*
X125785752Y-130675000D01*
X130310000Y-130675000D01*
X130310001Y-132659239D01*
X130304509Y-132715000D01*
X130326423Y-132937499D01*
X130391324Y-133151447D01*
X130496716Y-133348623D01*
X130638551Y-133521449D01*
X130811377Y-133663284D01*
X131008553Y-133768676D01*
X131222501Y-133833577D01*
X131389248Y-133850000D01*
X131389249Y-133850000D01*
X131445000Y-133855491D01*
X131500752Y-133850000D01*
X147899248Y-133850000D01*
X147955000Y-133855491D01*
X148010751Y-133850000D01*
X148010752Y-133850000D01*
X148177499Y-133833577D01*
X148391447Y-133768676D01*
X148588623Y-133663284D01*
X148761449Y-133521449D01*
X148903284Y-133348623D01*
X149008676Y-133151447D01*
X149046658Y-133026237D01*
X150140421Y-134120000D01*
X144200752Y-134120000D01*
X144145000Y-134114509D01*
X144089249Y-134120000D01*
X144089248Y-134120000D01*
X143922501Y-134136423D01*
X143708553Y-134201324D01*
X143511377Y-134306716D01*
X143338551Y-134448551D01*
X143196716Y-134621377D01*
X143091324Y-134818553D01*
X143026423Y-135032501D01*
X143004509Y-135255000D01*
X143010001Y-135310761D01*
X143010000Y-137295000D01*
X138485752Y-137295000D01*
X138430000Y-137289509D01*
X138374248Y-137295000D01*
X138207501Y-137311423D01*
X137993553Y-137376324D01*
X137796377Y-137481716D01*
X137724139Y-137541000D01*
X137033000Y-137541000D01*
X137008224Y-137543440D01*
X136984399Y-137550667D01*
X136962443Y-137562403D01*
X136943197Y-137578197D01*
X136927403Y-137597443D01*
X136915667Y-137619399D01*
X136908440Y-137643224D01*
X136906000Y-137668000D01*
X136906000Y-138359139D01*
X136846716Y-138431377D01*
X136754721Y-138603490D01*
X136741324Y-138628554D01*
X136676423Y-138842502D01*
X136654509Y-139065000D01*
X136660000Y-139120752D01*
X136660001Y-147899239D01*
X136654509Y-147955000D01*
X136676423Y-148177498D01*
X136741324Y-148391446D01*
X136772119Y-148449059D01*
X136846717Y-148588623D01*
X136906000Y-148660859D01*
X136906000Y-149352000D01*
X136908440Y-149376776D01*
X136915667Y-149400601D01*
X136927403Y-149422557D01*
X136943197Y-149441803D01*
X136962443Y-149457597D01*
X136984399Y-149469333D01*
X137008224Y-149476560D01*
X137033000Y-149479000D01*
X137724139Y-149479000D01*
X137724482Y-149479281D01*
X137796377Y-149538284D01*
X137993553Y-149643676D01*
X138207501Y-149708577D01*
X138430000Y-149730491D01*
X138485752Y-149725000D01*
X143010000Y-149725000D01*
X143010001Y-151709239D01*
X143004509Y-151765000D01*
X143026423Y-151987499D01*
X143091324Y-152201447D01*
X143196716Y-152398623D01*
X143338551Y-152571449D01*
X143511377Y-152713284D01*
X143708553Y-152818676D01*
X143922501Y-152883577D01*
X144089248Y-152900000D01*
X144089249Y-152900000D01*
X144145000Y-152905491D01*
X144200752Y-152900000D01*
X157059431Y-152900000D01*
X154974468Y-154984964D01*
X154891590Y-155085951D01*
X154809412Y-155239697D01*
X154758805Y-155406520D01*
X154741719Y-155580010D01*
X154758805Y-155753500D01*
X154809412Y-155920323D01*
X154871001Y-156035549D01*
X154871000Y-157476000D01*
X154853998Y-157476000D01*
X154853998Y-157605748D01*
X154724250Y-157476000D01*
X154622004Y-157487156D01*
X154502873Y-157525285D01*
X154393469Y-157585922D01*
X154297997Y-157666737D01*
X154220126Y-157764625D01*
X154162849Y-157875825D01*
X154128366Y-157996061D01*
X154118002Y-158120715D01*
X154121000Y-158550250D01*
X154279750Y-158709000D01*
X154767928Y-158709000D01*
X154767928Y-158963000D01*
X154279750Y-158963000D01*
X154121000Y-159121750D01*
X154118002Y-159551285D01*
X154128366Y-159675939D01*
X154162849Y-159796175D01*
X154220126Y-159907375D01*
X154297997Y-160005263D01*
X154332624Y-160034574D01*
X153315571Y-161051628D01*
X151564245Y-161051628D01*
X151618587Y-160872489D01*
X151635010Y-160705742D01*
X151640501Y-160649990D01*
X151635010Y-160594238D01*
X151635010Y-154365753D01*
X151640500Y-154310009D01*
X151635010Y-154254265D01*
X151635010Y-154254258D01*
X151618587Y-154087511D01*
X151553686Y-153873563D01*
X151448294Y-153676387D01*
X151306459Y-153503561D01*
X151303707Y-153501303D01*
X151301449Y-153498551D01*
X151128623Y-153356716D01*
X150931447Y-153251324D01*
X150717499Y-153186423D01*
X150550752Y-153170000D01*
X150550751Y-153170000D01*
X150495000Y-153164509D01*
X150439249Y-153170000D01*
X134040752Y-153170000D01*
X133985000Y-153164509D01*
X133929249Y-153170000D01*
X133929248Y-153170000D01*
X133762501Y-153186423D01*
X133548553Y-153251324D01*
X133351377Y-153356716D01*
X133178551Y-153498551D01*
X133036716Y-153671377D01*
X132931324Y-153868553D01*
X132866423Y-154082501D01*
X132844509Y-154305000D01*
X132850001Y-154360761D01*
X132850000Y-156345000D01*
X128325752Y-156345000D01*
X128270000Y-156339509D01*
X128214248Y-156345000D01*
X128047501Y-156361423D01*
X127833553Y-156426324D01*
X127636377Y-156531716D01*
X127564139Y-156591000D01*
X126873000Y-156591000D01*
X126848224Y-156593440D01*
X126824399Y-156600667D01*
X126802443Y-156612403D01*
X126783197Y-156628197D01*
X126767403Y-156647443D01*
X126755667Y-156669399D01*
X126748440Y-156693224D01*
X126746000Y-156718000D01*
X126746000Y-157409139D01*
X126686716Y-157481377D01*
X126597823Y-157647687D01*
X126581324Y-157678554D01*
X126516423Y-157892502D01*
X126494509Y-158115000D01*
X126500000Y-158170752D01*
X126500001Y-166949239D01*
X126494509Y-167005000D01*
X126516423Y-167227498D01*
X126581324Y-167441446D01*
X126612119Y-167499059D01*
X126686717Y-167638623D01*
X126746000Y-167710859D01*
X126746000Y-168402000D01*
X126748440Y-168426776D01*
X126755667Y-168450601D01*
X126767403Y-168472557D01*
X126783197Y-168491803D01*
X126802443Y-168507597D01*
X126824399Y-168519333D01*
X126848224Y-168526560D01*
X126873000Y-168529000D01*
X127564139Y-168529000D01*
X127564482Y-168529281D01*
X127636377Y-168588284D01*
X127833553Y-168693676D01*
X128047501Y-168758577D01*
X128270000Y-168780491D01*
X128325752Y-168775000D01*
X132850000Y-168775000D01*
X132850001Y-170759239D01*
X132844509Y-170815000D01*
X132866423Y-171037499D01*
X132931324Y-171251447D01*
X133036716Y-171448623D01*
X133178551Y-171621449D01*
X133351377Y-171763284D01*
X133548553Y-171868676D01*
X133762501Y-171933577D01*
X133929248Y-171950000D01*
X133929249Y-171950000D01*
X133985000Y-171955491D01*
X134040752Y-171950000D01*
X150439248Y-171950000D01*
X150495000Y-171955491D01*
X150550751Y-171950000D01*
X150550752Y-171950000D01*
X150717499Y-171933577D01*
X150931447Y-171868676D01*
X151128623Y-171763284D01*
X151301449Y-171621449D01*
X151443284Y-171448623D01*
X151548676Y-171251447D01*
X151613577Y-171037499D01*
X151635491Y-170815000D01*
X151630000Y-170759248D01*
X151630000Y-164520752D01*
X151635491Y-164465000D01*
X151629608Y-164405263D01*
X151613577Y-164242501D01*
X151548676Y-164028553D01*
X151443284Y-163831377D01*
X151301449Y-163658551D01*
X151128623Y-163516716D01*
X150931447Y-163411324D01*
X150717499Y-163346423D01*
X150522342Y-163327202D01*
X150566008Y-163183255D01*
X150583072Y-163010001D01*
X150583072Y-162821628D01*
X153548849Y-162821628D01*
X153678862Y-162808823D01*
X153845685Y-162758217D01*
X153999431Y-162676039D01*
X154117928Y-162578790D01*
X154117928Y-163961000D01*
X154130188Y-164085482D01*
X154166498Y-164205180D01*
X154225463Y-164315494D01*
X154304815Y-164412185D01*
X154401506Y-164491537D01*
X154511820Y-164550502D01*
X154631518Y-164586812D01*
X154756000Y-164599072D01*
X155206000Y-164599072D01*
X155306000Y-164589223D01*
X155406000Y-164599072D01*
X155521001Y-164599072D01*
X155521001Y-164672016D01*
X155468774Y-164798102D01*
X155429000Y-164998061D01*
X155429000Y-165201939D01*
X155468774Y-165401898D01*
X155546795Y-165590256D01*
X155660063Y-165759774D01*
X155804226Y-165903937D01*
X155973744Y-166017205D01*
X156162102Y-166095226D01*
X156362061Y-166135000D01*
X156565939Y-166135000D01*
X156765898Y-166095226D01*
X156954256Y-166017205D01*
X157123774Y-165903937D01*
X157267937Y-165759774D01*
X157381205Y-165590256D01*
X157459226Y-165401898D01*
X157499000Y-165201939D01*
X157499000Y-164998061D01*
X157459226Y-164798102D01*
X157381205Y-164609744D01*
X157351429Y-164565182D01*
X157409127Y-164546715D01*
X157518531Y-164486078D01*
X157614003Y-164405263D01*
X157691874Y-164307375D01*
X157749151Y-164196175D01*
X157783634Y-164075939D01*
X157793998Y-163951285D01*
X157791000Y-163521750D01*
X157632250Y-163363000D01*
X157144072Y-163363000D01*
X157144072Y-163109000D01*
X157632250Y-163109000D01*
X157791000Y-162950250D01*
X157793998Y-162520715D01*
X157783634Y-162396061D01*
X157749151Y-162275825D01*
X157702884Y-162186000D01*
X159054386Y-162186000D01*
X159085595Y-162244387D01*
X159139000Y-162309461D01*
X159139000Y-162758249D01*
X159133509Y-162814000D01*
X159139000Y-162869751D01*
X159139000Y-162869752D01*
X159155423Y-163036499D01*
X159220324Y-163250447D01*
X159325717Y-163447623D01*
X159467552Y-163620449D01*
X159510860Y-163655991D01*
X159764857Y-163909988D01*
X159894377Y-164016283D01*
X160091554Y-164121675D01*
X160305500Y-164186576D01*
X160527999Y-164208490D01*
X160750498Y-164186576D01*
X160964446Y-164121675D01*
X161161622Y-164016283D01*
X161334448Y-163874448D01*
X161476283Y-163701622D01*
X161581675Y-163504446D01*
X161646576Y-163290498D01*
X161668490Y-163067999D01*
X161646576Y-162845500D01*
X161581675Y-162631554D01*
X161476283Y-162434377D01*
X161409000Y-162352393D01*
X161409000Y-162309461D01*
X161462405Y-162244387D01*
X161544472Y-162090851D01*
X161595008Y-161924255D01*
X161612072Y-161751001D01*
X161612072Y-161100999D01*
X161595008Y-160927745D01*
X161544472Y-160761149D01*
X161462405Y-160607613D01*
X161351962Y-160473038D01*
X161264184Y-160401000D01*
X161351962Y-160328962D01*
X161462405Y-160194387D01*
X161544472Y-160040851D01*
X161595008Y-159874255D01*
X161612072Y-159701001D01*
X161612072Y-159050999D01*
X161595008Y-158877745D01*
X161544472Y-158711149D01*
X161462405Y-158557613D01*
X161351962Y-158423038D01*
X161217387Y-158312595D01*
X161063851Y-158230528D01*
X160897255Y-158179992D01*
X160724001Y-158162928D01*
X159823999Y-158162928D01*
X159650745Y-158179992D01*
X159484149Y-158230528D01*
X159330613Y-158312595D01*
X159196038Y-158423038D01*
X159085595Y-158557613D01*
X159003528Y-158711149D01*
X158976148Y-158801408D01*
X158933999Y-158835999D01*
X158910196Y-158865003D01*
X158649198Y-159126001D01*
X157794072Y-159126001D01*
X157794072Y-158111000D01*
X157781812Y-157986518D01*
X157745502Y-157866820D01*
X157686537Y-157756506D01*
X157607185Y-157659815D01*
X157510494Y-157580463D01*
X157400180Y-157521498D01*
X157280482Y-157485188D01*
X157156000Y-157472928D01*
X156706000Y-157472928D01*
X156606000Y-157482777D01*
X156506000Y-157472928D01*
X156391000Y-157472928D01*
X156391000Y-156071588D01*
X158862579Y-153600010D01*
X161005038Y-153600010D01*
X161048507Y-153604291D01*
X161091976Y-153600010D01*
X161091984Y-153600010D01*
X161221997Y-153587205D01*
X161388820Y-153536599D01*
X161542566Y-153454421D01*
X161677324Y-153343827D01*
X161705041Y-153310054D01*
X162200055Y-152815040D01*
X162233827Y-152787324D01*
X162344421Y-152652566D01*
X162426599Y-152498820D01*
X162477205Y-152331997D01*
X162490010Y-152201984D01*
X162490010Y-152201974D01*
X162494291Y-152158508D01*
X162490010Y-152115042D01*
X162490010Y-143360477D01*
X162494291Y-143317011D01*
X162490010Y-143273544D01*
X162490010Y-142199325D01*
X162495020Y-142148457D01*
X162495020Y-142148447D01*
X162499301Y-142104981D01*
X162495020Y-142061515D01*
X162495020Y-134729489D01*
X162499301Y-134686020D01*
X162495020Y-134642551D01*
X162495020Y-134642543D01*
X162482215Y-134512530D01*
X162431609Y-134345707D01*
X162349431Y-134191961D01*
X162238837Y-134057203D01*
X162205064Y-134029486D01*
X161692534Y-133516956D01*
X161664817Y-133483183D01*
X161530059Y-133372589D01*
X161376313Y-133290411D01*
X161209490Y-133239805D01*
X161079477Y-133227000D01*
X161079469Y-133227000D01*
X161036000Y-133222719D01*
X160992531Y-133227000D01*
X158459009Y-133227000D01*
X158619252Y-133170157D01*
X158869355Y-133021178D01*
X159085588Y-132826269D01*
X159259641Y-132592920D01*
X159384825Y-132330099D01*
X159429476Y-132182890D01*
X159308155Y-131953000D01*
X158115000Y-131953000D01*
X158115000Y-131973000D01*
X157861000Y-131973000D01*
X157861000Y-131953000D01*
X156667845Y-131953000D01*
X156546524Y-132182890D01*
X156591175Y-132330099D01*
X156716359Y-132592920D01*
X156890412Y-132826269D01*
X157106645Y-133021178D01*
X157356748Y-133170157D01*
X157516991Y-133227000D01*
X153887009Y-133227000D01*
X154047252Y-133170157D01*
X154297355Y-133021178D01*
X154513588Y-132826269D01*
X154687641Y-132592920D01*
X154812825Y-132330099D01*
X154857476Y-132182890D01*
X154736155Y-131953000D01*
X153543000Y-131953000D01*
X153543000Y-131973000D01*
X153289000Y-131973000D01*
X153289000Y-131953000D01*
X152095845Y-131953000D01*
X151974524Y-132182890D01*
X152019175Y-132330099D01*
X152144359Y-132592920D01*
X152318412Y-132826269D01*
X152534645Y-133021178D01*
X152784748Y-133170157D01*
X152944991Y-133227000D01*
X151750579Y-133227000D01*
X149790010Y-131266432D01*
X149790010Y-128436000D01*
X151927928Y-128436000D01*
X151927928Y-130136000D01*
X151940188Y-130260482D01*
X151976498Y-130380180D01*
X152035463Y-130490494D01*
X152114815Y-130587185D01*
X152211506Y-130666537D01*
X152321820Y-130725502D01*
X152402466Y-130749966D01*
X152318412Y-130825731D01*
X152144359Y-131059080D01*
X152019175Y-131321901D01*
X151974524Y-131469110D01*
X152095845Y-131699000D01*
X153289000Y-131699000D01*
X153289000Y-131679000D01*
X153543000Y-131679000D01*
X153543000Y-131699000D01*
X154736155Y-131699000D01*
X154857476Y-131469110D01*
X154812825Y-131321901D01*
X154687641Y-131059080D01*
X154513588Y-130825731D01*
X154429534Y-130749966D01*
X154510180Y-130725502D01*
X154620494Y-130666537D01*
X154717185Y-130587185D01*
X154796537Y-130490494D01*
X154855502Y-130380180D01*
X154891812Y-130260482D01*
X154904072Y-130136000D01*
X154904072Y-128436000D01*
X156499928Y-128436000D01*
X156499928Y-130136000D01*
X156512188Y-130260482D01*
X156548498Y-130380180D01*
X156607463Y-130490494D01*
X156686815Y-130587185D01*
X156783506Y-130666537D01*
X156893820Y-130725502D01*
X156974466Y-130749966D01*
X156890412Y-130825731D01*
X156716359Y-131059080D01*
X156591175Y-131321901D01*
X156546524Y-131469110D01*
X156667845Y-131699000D01*
X157861000Y-131699000D01*
X157861000Y-131679000D01*
X158115000Y-131679000D01*
X158115000Y-131699000D01*
X159308155Y-131699000D01*
X159429476Y-131469110D01*
X159384825Y-131321901D01*
X159259641Y-131059080D01*
X159085588Y-130825731D01*
X159001534Y-130749966D01*
X159082180Y-130725502D01*
X159192494Y-130666537D01*
X159289185Y-130587185D01*
X159368537Y-130490494D01*
X159427502Y-130380180D01*
X159463812Y-130260482D01*
X159476072Y-130136000D01*
X159476072Y-128436000D01*
X159463812Y-128311518D01*
X159427502Y-128191820D01*
X159368537Y-128081506D01*
X159289185Y-127984815D01*
X159192494Y-127905463D01*
X159082180Y-127846498D01*
X158962482Y-127810188D01*
X158838000Y-127797928D01*
X157138000Y-127797928D01*
X157013518Y-127810188D01*
X156893820Y-127846498D01*
X156783506Y-127905463D01*
X156686815Y-127984815D01*
X156607463Y-128081506D01*
X156548498Y-128191820D01*
X156512188Y-128311518D01*
X156499928Y-128436000D01*
X154904072Y-128436000D01*
X154891812Y-128311518D01*
X154855502Y-128191820D01*
X154796537Y-128081506D01*
X154717185Y-127984815D01*
X154620494Y-127905463D01*
X154510180Y-127846498D01*
X154390482Y-127810188D01*
X154266000Y-127797928D01*
X152566000Y-127797928D01*
X152441518Y-127810188D01*
X152321820Y-127846498D01*
X152211506Y-127905463D01*
X152114815Y-127984815D01*
X152035463Y-128081506D01*
X151976498Y-128191820D01*
X151940188Y-128311518D01*
X151927928Y-128436000D01*
X149790010Y-128436000D01*
X149790010Y-126136061D01*
X151365000Y-126136061D01*
X151365000Y-126339939D01*
X151404774Y-126539898D01*
X151482795Y-126728256D01*
X151596063Y-126897774D01*
X151740226Y-127041937D01*
X151909744Y-127155205D01*
X152098102Y-127233226D01*
X152298061Y-127273000D01*
X152501939Y-127273000D01*
X152701898Y-127233226D01*
X152890256Y-127155205D01*
X153059774Y-127041937D01*
X153130637Y-126971074D01*
X153234613Y-127056405D01*
X153388149Y-127138472D01*
X153554745Y-127189008D01*
X153727999Y-127206072D01*
X154628001Y-127206072D01*
X154801255Y-127189008D01*
X154967851Y-127138472D01*
X155121387Y-127056405D01*
X155255962Y-126945962D01*
X155366405Y-126811387D01*
X155448472Y-126657851D01*
X155499008Y-126491255D01*
X155516072Y-126318001D01*
X155516072Y-125667999D01*
X155499008Y-125494745D01*
X155448472Y-125328149D01*
X155366405Y-125174613D01*
X155255962Y-125040038D01*
X155249406Y-125034658D01*
X155329185Y-124969185D01*
X155408537Y-124872494D01*
X155467502Y-124762180D01*
X155503812Y-124642482D01*
X155516072Y-124518000D01*
X156395928Y-124518000D01*
X156408188Y-124642482D01*
X156444498Y-124762180D01*
X156503463Y-124872494D01*
X156582815Y-124969185D01*
X156662594Y-125034658D01*
X156656038Y-125040038D01*
X156545595Y-125174613D01*
X156463528Y-125328149D01*
X156412992Y-125494745D01*
X156395928Y-125667999D01*
X156395928Y-126318001D01*
X156412992Y-126491255D01*
X156463528Y-126657851D01*
X156545595Y-126811387D01*
X156656038Y-126945962D01*
X156790613Y-127056405D01*
X156944149Y-127138472D01*
X157110745Y-127189008D01*
X157283999Y-127206072D01*
X158184001Y-127206072D01*
X158357255Y-127189008D01*
X158523851Y-127138472D01*
X158677387Y-127056405D01*
X158733029Y-127010740D01*
X158852226Y-127129937D01*
X159021744Y-127243205D01*
X159210102Y-127321226D01*
X159410061Y-127361000D01*
X159613939Y-127361000D01*
X159813898Y-127321226D01*
X160002256Y-127243205D01*
X160171774Y-127129937D01*
X160315937Y-126985774D01*
X160429205Y-126816256D01*
X160507226Y-126627898D01*
X160547000Y-126427939D01*
X160547000Y-126224061D01*
X160507226Y-126024102D01*
X160429205Y-125835744D01*
X160315937Y-125666226D01*
X160171774Y-125522063D01*
X160002256Y-125408795D01*
X159813898Y-125330774D01*
X159752140Y-125318490D01*
X159673059Y-125253589D01*
X159519313Y-125171411D01*
X159352490Y-125120805D01*
X159222477Y-125108000D01*
X159222469Y-125108000D01*
X159179000Y-125103719D01*
X159135531Y-125108000D01*
X158867737Y-125108000D01*
X158811962Y-125040038D01*
X158805406Y-125034658D01*
X158885185Y-124969185D01*
X158964537Y-124872494D01*
X159023502Y-124762180D01*
X159059812Y-124642482D01*
X159072072Y-124518000D01*
X159069000Y-124228750D01*
X158910250Y-124070000D01*
X157861000Y-124070000D01*
X157861000Y-124090000D01*
X157607000Y-124090000D01*
X157607000Y-124070000D01*
X156557750Y-124070000D01*
X156399000Y-124228750D01*
X156395928Y-124518000D01*
X155516072Y-124518000D01*
X155513000Y-124228750D01*
X155354250Y-124070000D01*
X154305000Y-124070000D01*
X154305000Y-124090000D01*
X154051000Y-124090000D01*
X154051000Y-124070000D01*
X153001750Y-124070000D01*
X152843000Y-124228750D01*
X152839928Y-124518000D01*
X152852188Y-124642482D01*
X152888498Y-124762180D01*
X152947463Y-124872494D01*
X153026815Y-124969185D01*
X153106594Y-125034658D01*
X153100038Y-125040038D01*
X153044263Y-125108000D01*
X152688465Y-125108000D01*
X152644999Y-125103719D01*
X152601533Y-125108000D01*
X152601523Y-125108000D01*
X152471510Y-125120805D01*
X152304687Y-125171411D01*
X152214486Y-125219624D01*
X152098102Y-125242774D01*
X151909744Y-125320795D01*
X151740226Y-125434063D01*
X151596063Y-125578226D01*
X151482795Y-125747744D01*
X151404774Y-125936102D01*
X151365000Y-126136061D01*
X149790010Y-126136061D01*
X149790010Y-126014962D01*
X149794291Y-125971493D01*
X149790010Y-125928024D01*
X149790010Y-125928016D01*
X149777205Y-125798003D01*
X149726599Y-125631180D01*
X149644421Y-125477434D01*
X149533827Y-125342676D01*
X149500059Y-125314963D01*
X148050051Y-123864956D01*
X148022334Y-123831183D01*
X147887576Y-123720589D01*
X147837683Y-123693921D01*
X147832840Y-123677956D01*
X147904258Y-123684990D01*
X147904259Y-123684990D01*
X147960010Y-123690481D01*
X148182509Y-123668567D01*
X148396457Y-123603666D01*
X148593633Y-123498274D01*
X148766459Y-123356439D01*
X148908294Y-123183613D01*
X149013686Y-122986437D01*
X149078587Y-122772489D01*
X149095010Y-122605742D01*
X149100501Y-122549990D01*
X149095010Y-122494238D01*
X149095010Y-120347000D01*
X150561928Y-120347000D01*
X150561928Y-121797000D01*
X150574188Y-121921482D01*
X150610498Y-122041180D01*
X150669463Y-122151494D01*
X150748815Y-122248185D01*
X150845506Y-122327537D01*
X150955820Y-122386502D01*
X151004510Y-122401272D01*
X150974795Y-122445744D01*
X150896774Y-122634102D01*
X150857000Y-122834061D01*
X150857000Y-123037939D01*
X150896774Y-123237898D01*
X150974795Y-123426256D01*
X151088063Y-123595774D01*
X151232226Y-123739937D01*
X151401744Y-123853205D01*
X151590102Y-123931226D01*
X151790061Y-123971000D01*
X151993939Y-123971000D01*
X152193898Y-123931226D01*
X152382256Y-123853205D01*
X152551774Y-123739937D01*
X152695937Y-123595774D01*
X152809205Y-123426256D01*
X152841984Y-123347120D01*
X152839928Y-123368000D01*
X152843000Y-123657250D01*
X153001750Y-123816000D01*
X154051000Y-123816000D01*
X154051000Y-122891750D01*
X154305000Y-122891750D01*
X154305000Y-123816000D01*
X155354250Y-123816000D01*
X155513000Y-123657250D01*
X155516072Y-123368000D01*
X156395928Y-123368000D01*
X156399000Y-123657250D01*
X156557750Y-123816000D01*
X157607000Y-123816000D01*
X157607000Y-122891750D01*
X157861000Y-122891750D01*
X157861000Y-123816000D01*
X158910250Y-123816000D01*
X159069000Y-123657250D01*
X159072072Y-123368000D01*
X159059812Y-123243518D01*
X159023502Y-123123820D01*
X158964537Y-123013506D01*
X158885185Y-122916815D01*
X158788494Y-122837463D01*
X158678180Y-122778498D01*
X158558482Y-122742188D01*
X158434000Y-122729928D01*
X158019750Y-122733000D01*
X157861000Y-122891750D01*
X157607000Y-122891750D01*
X157448250Y-122733000D01*
X157034000Y-122729928D01*
X156909518Y-122742188D01*
X156789820Y-122778498D01*
X156679506Y-122837463D01*
X156582815Y-122916815D01*
X156503463Y-123013506D01*
X156444498Y-123123820D01*
X156408188Y-123243518D01*
X156395928Y-123368000D01*
X155516072Y-123368000D01*
X155503812Y-123243518D01*
X155467502Y-123123820D01*
X155408537Y-123013506D01*
X155329185Y-122916815D01*
X155232494Y-122837463D01*
X155122180Y-122778498D01*
X155002482Y-122742188D01*
X154878000Y-122729928D01*
X154463750Y-122733000D01*
X154305000Y-122891750D01*
X154051000Y-122891750D01*
X153892250Y-122733000D01*
X153478000Y-122729928D01*
X153353518Y-122742188D01*
X153233820Y-122778498D01*
X153123506Y-122837463D01*
X153026815Y-122916815D01*
X152947463Y-123013506D01*
X152922612Y-123059998D01*
X152927000Y-123037939D01*
X152927000Y-122834061D01*
X152887226Y-122634102D01*
X152835000Y-122508018D01*
X152835000Y-122435072D01*
X152950000Y-122435072D01*
X153053227Y-122424905D01*
X153118250Y-122432000D01*
X153150497Y-122399753D01*
X153194180Y-122386502D01*
X153304494Y-122327537D01*
X153401185Y-122248185D01*
X153473000Y-122160678D01*
X153473000Y-122273250D01*
X153631750Y-122432000D01*
X153733996Y-122420844D01*
X153853127Y-122382715D01*
X153962531Y-122322078D01*
X154058003Y-122241263D01*
X154135874Y-122143375D01*
X154193151Y-122032175D01*
X154227634Y-121911939D01*
X154237998Y-121787285D01*
X154235000Y-121357750D01*
X154076250Y-121199000D01*
X153588072Y-121199000D01*
X153588072Y-120945000D01*
X154076250Y-120945000D01*
X154235000Y-120786250D01*
X154237998Y-120356715D01*
X154227634Y-120232061D01*
X154193151Y-120111825D01*
X154135874Y-120000625D01*
X154058003Y-119902737D01*
X154023376Y-119873426D01*
X154598802Y-119298000D01*
X155058928Y-119298000D01*
X155058928Y-119318000D01*
X155071188Y-119442482D01*
X155107498Y-119562180D01*
X155166463Y-119672494D01*
X155245815Y-119769185D01*
X155342506Y-119848537D01*
X155416335Y-119888000D01*
X155342506Y-119927463D01*
X155245815Y-120006815D01*
X155166463Y-120103506D01*
X155107498Y-120213820D01*
X155071188Y-120333518D01*
X155058928Y-120458000D01*
X155058928Y-122018000D01*
X155071188Y-122142482D01*
X155107498Y-122262180D01*
X155166463Y-122372494D01*
X155245815Y-122469185D01*
X155342506Y-122548537D01*
X155452820Y-122607502D01*
X155572518Y-122643812D01*
X155697000Y-122656072D01*
X156347000Y-122656072D01*
X156471482Y-122643812D01*
X156497000Y-122636071D01*
X156522518Y-122643812D01*
X156647000Y-122656072D01*
X156686250Y-122653000D01*
X156845000Y-122494250D01*
X156845000Y-122412141D01*
X156877537Y-122372494D01*
X156936502Y-122262180D01*
X156972000Y-122145159D01*
X157007498Y-122262180D01*
X157066463Y-122372494D01*
X157099000Y-122412141D01*
X157099000Y-122494250D01*
X157257750Y-122653000D01*
X157297000Y-122656072D01*
X157421482Y-122643812D01*
X157447000Y-122636071D01*
X157472518Y-122643812D01*
X157597000Y-122656072D01*
X158247000Y-122656072D01*
X158371482Y-122643812D01*
X158491180Y-122607502D01*
X158601494Y-122548537D01*
X158698185Y-122469185D01*
X158777537Y-122372494D01*
X158836502Y-122262180D01*
X158872812Y-122142482D01*
X158885072Y-122018000D01*
X158885072Y-121768890D01*
X160102524Y-121768890D01*
X160147175Y-121916099D01*
X160272359Y-122178920D01*
X160446412Y-122412269D01*
X160662645Y-122607178D01*
X160912748Y-122756157D01*
X161187109Y-122853481D01*
X161417000Y-122732814D01*
X161417000Y-121539000D01*
X161671000Y-121539000D01*
X161671000Y-122732814D01*
X161900891Y-122853481D01*
X162175252Y-122756157D01*
X162425355Y-122607178D01*
X162641588Y-122412269D01*
X162815641Y-122178920D01*
X162940825Y-121916099D01*
X162985476Y-121768890D01*
X162864155Y-121539000D01*
X161671000Y-121539000D01*
X161417000Y-121539000D01*
X160223845Y-121539000D01*
X160102524Y-121768890D01*
X158885072Y-121768890D01*
X158885072Y-120458000D01*
X158872812Y-120333518D01*
X158836502Y-120213820D01*
X158777537Y-120103506D01*
X158698185Y-120006815D01*
X158601494Y-119927463D01*
X158527665Y-119888000D01*
X158601494Y-119848537D01*
X158698185Y-119769185D01*
X158777537Y-119672494D01*
X158836502Y-119562180D01*
X158872812Y-119442482D01*
X158874731Y-119423000D01*
X160055928Y-119423000D01*
X160055928Y-119722000D01*
X160068188Y-119846482D01*
X160104498Y-119966180D01*
X160163463Y-120076494D01*
X160242815Y-120173185D01*
X160339506Y-120252537D01*
X160449820Y-120311502D01*
X160530466Y-120335966D01*
X160446412Y-120411731D01*
X160272359Y-120645080D01*
X160147175Y-120907901D01*
X160102524Y-121055110D01*
X160223845Y-121285000D01*
X161417000Y-121285000D01*
X161417000Y-121265000D01*
X161671000Y-121265000D01*
X161671000Y-121285000D01*
X162864155Y-121285000D01*
X162985476Y-121055110D01*
X162940825Y-120907901D01*
X162815641Y-120645080D01*
X162641588Y-120411731D01*
X162557534Y-120335966D01*
X162638180Y-120311502D01*
X162748494Y-120252537D01*
X162845185Y-120173185D01*
X162924537Y-120076494D01*
X162983502Y-119966180D01*
X163019812Y-119846482D01*
X163032072Y-119722000D01*
X163032072Y-118022000D01*
X163019812Y-117897518D01*
X162983502Y-117777820D01*
X162924537Y-117667506D01*
X162845185Y-117570815D01*
X162748494Y-117491463D01*
X162638180Y-117432498D01*
X162518482Y-117396188D01*
X162394000Y-117383928D01*
X160694000Y-117383928D01*
X160569518Y-117396188D01*
X160449820Y-117432498D01*
X160339506Y-117491463D01*
X160242815Y-117570815D01*
X160175368Y-117653000D01*
X158874731Y-117653000D01*
X158872812Y-117633518D01*
X158836502Y-117513820D01*
X158777537Y-117403506D01*
X158698185Y-117306815D01*
X158601494Y-117227463D01*
X158491180Y-117168498D01*
X158371482Y-117132188D01*
X158247000Y-117119928D01*
X157597000Y-117119928D01*
X157472518Y-117132188D01*
X157447000Y-117139929D01*
X157421482Y-117132188D01*
X157297000Y-117119928D01*
X156647000Y-117119928D01*
X156522518Y-117132188D01*
X156497000Y-117139929D01*
X156471482Y-117132188D01*
X156347000Y-117119928D01*
X155697000Y-117119928D01*
X155572518Y-117132188D01*
X155452820Y-117168498D01*
X155342506Y-117227463D01*
X155245815Y-117306815D01*
X155166463Y-117403506D01*
X155107498Y-117513820D01*
X155071188Y-117633518D01*
X155058928Y-117758000D01*
X155058928Y-117778000D01*
X154321323Y-117778000D01*
X154284000Y-117774324D01*
X154246677Y-117778000D01*
X154246667Y-117778000D01*
X154135014Y-117788997D01*
X154088074Y-117803236D01*
X154130537Y-117751494D01*
X154189502Y-117641180D01*
X154225812Y-117521482D01*
X154238072Y-117397000D01*
X154238072Y-115947000D01*
X154225812Y-115822518D01*
X154189502Y-115702820D01*
X154130537Y-115592506D01*
X154112067Y-115570000D01*
X163166807Y-115570000D01*
X163170001Y-115602430D01*
X163170000Y-171417581D01*
X163166807Y-171450000D01*
X163179550Y-171579383D01*
X163217290Y-171703793D01*
X163278575Y-171818450D01*
X163319795Y-171868676D01*
X163361052Y-171918948D01*
X163461550Y-172001425D01*
X163576207Y-172062710D01*
X163700617Y-172100450D01*
X163830000Y-172113193D01*
X163862419Y-172110000D01*
X193007581Y-172110000D01*
X193040000Y-172113193D01*
X193072419Y-172110000D01*
X193169383Y-172100450D01*
X193293793Y-172062710D01*
X193408450Y-172001425D01*
X193508948Y-171918948D01*
X193591425Y-171818450D01*
X193652710Y-171703793D01*
X193690450Y-171579383D01*
X193703193Y-171450000D01*
X193700000Y-171417581D01*
X193700000Y-168689872D01*
X202235000Y-168689872D01*
X202235000Y-169130128D01*
X202320890Y-169561925D01*
X202489369Y-169968669D01*
X202733962Y-170334729D01*
X203045271Y-170646038D01*
X203411331Y-170890631D01*
X203818075Y-171059110D01*
X204249872Y-171145000D01*
X204690128Y-171145000D01*
X205121925Y-171059110D01*
X205528669Y-170890631D01*
X205894729Y-170646038D01*
X206206038Y-170334729D01*
X206450631Y-169968669D01*
X206619110Y-169561925D01*
X206705000Y-169130128D01*
X206705000Y-168689872D01*
X206619110Y-168258075D01*
X206450631Y-167851331D01*
X206206038Y-167485271D01*
X205894729Y-167173962D01*
X205528669Y-166929369D01*
X205121925Y-166760890D01*
X204690128Y-166675000D01*
X204249872Y-166675000D01*
X203818075Y-166760890D01*
X203411331Y-166929369D01*
X203045271Y-167173962D01*
X202733962Y-167485271D01*
X202489369Y-167851331D01*
X202320890Y-168258075D01*
X202235000Y-168689872D01*
X193700000Y-168689872D01*
X193700000Y-148209000D01*
X196513461Y-148209000D01*
X196559510Y-148676542D01*
X196695887Y-149126116D01*
X196917351Y-149540446D01*
X197215391Y-149903609D01*
X197578554Y-150201649D01*
X197992884Y-150423113D01*
X198442458Y-150559490D01*
X198792843Y-150594000D01*
X202527157Y-150594000D01*
X202877542Y-150559490D01*
X203327116Y-150423113D01*
X203741446Y-150201649D01*
X204104609Y-149903609D01*
X204402649Y-149540446D01*
X204624113Y-149126116D01*
X204760490Y-148676542D01*
X204806539Y-148209000D01*
X204760490Y-147741458D01*
X204624113Y-147291884D01*
X204402649Y-146877554D01*
X204104609Y-146514391D01*
X203741446Y-146216351D01*
X203327116Y-145994887D01*
X202877542Y-145858510D01*
X202527157Y-145824000D01*
X198792843Y-145824000D01*
X198442458Y-145858510D01*
X197992884Y-145994887D01*
X197578554Y-146216351D01*
X197215391Y-146514391D01*
X196917351Y-146877554D01*
X196695887Y-147291884D01*
X196559510Y-147741458D01*
X196513461Y-148209000D01*
X193700000Y-148209000D01*
X193700000Y-143250257D01*
X193715764Y-143410309D01*
X193797818Y-143680808D01*
X193931068Y-143930101D01*
X194110392Y-144148608D01*
X194328899Y-144327932D01*
X194578192Y-144461182D01*
X194848691Y-144543236D01*
X195059508Y-144564000D01*
X196100492Y-144564000D01*
X196311309Y-144543236D01*
X196581808Y-144461182D01*
X196831101Y-144327932D01*
X197049608Y-144148608D01*
X197228932Y-143930101D01*
X197362182Y-143680808D01*
X197444236Y-143410309D01*
X197471943Y-143129000D01*
X197444236Y-142847691D01*
X197362182Y-142577192D01*
X197228932Y-142327899D01*
X197049608Y-142109392D01*
X196831101Y-141930068D01*
X196698142Y-141859000D01*
X196831101Y-141787932D01*
X197049608Y-141608608D01*
X197228932Y-141390101D01*
X197362182Y-141140808D01*
X197444236Y-140870309D01*
X197471943Y-140589000D01*
X197444236Y-140307691D01*
X197362182Y-140037192D01*
X197228932Y-139787899D01*
X197049608Y-139569392D01*
X196831101Y-139390068D01*
X196581808Y-139256818D01*
X196311309Y-139174764D01*
X196100492Y-139154000D01*
X195059508Y-139154000D01*
X194848691Y-139174764D01*
X194578192Y-139256818D01*
X194328899Y-139390068D01*
X194110392Y-139569392D01*
X193931068Y-139787899D01*
X193797818Y-140037192D01*
X193715764Y-140307691D01*
X193700000Y-140467743D01*
X193700000Y-138049000D01*
X196513461Y-138049000D01*
X196559510Y-138516542D01*
X196695887Y-138966116D01*
X196917351Y-139380446D01*
X197215391Y-139743609D01*
X197578554Y-140041649D01*
X197992884Y-140263113D01*
X198442458Y-140399490D01*
X198792843Y-140434000D01*
X202527157Y-140434000D01*
X202877542Y-140399490D01*
X203327116Y-140263113D01*
X203741446Y-140041649D01*
X204104609Y-139743609D01*
X204402649Y-139380446D01*
X204624113Y-138966116D01*
X204760490Y-138516542D01*
X204806539Y-138049000D01*
X204760490Y-137581458D01*
X204624113Y-137131884D01*
X204402649Y-136717554D01*
X204104609Y-136354391D01*
X203741446Y-136056351D01*
X203327116Y-135834887D01*
X202877542Y-135698510D01*
X202527157Y-135664000D01*
X198792843Y-135664000D01*
X198442458Y-135698510D01*
X197992884Y-135834887D01*
X197578554Y-136056351D01*
X197215391Y-136354391D01*
X196917351Y-136717554D01*
X196695887Y-137131884D01*
X196559510Y-137581458D01*
X196513461Y-138049000D01*
X193700000Y-138049000D01*
X193700000Y-117889872D01*
X202235000Y-117889872D01*
X202235000Y-118330128D01*
X202320890Y-118761925D01*
X202489369Y-119168669D01*
X202733962Y-119534729D01*
X203045271Y-119846038D01*
X203411331Y-120090631D01*
X203818075Y-120259110D01*
X204249872Y-120345000D01*
X204690128Y-120345000D01*
X205121925Y-120259110D01*
X205528669Y-120090631D01*
X205894729Y-119846038D01*
X206206038Y-119534729D01*
X206450631Y-119168669D01*
X206619110Y-118761925D01*
X206705000Y-118330128D01*
X206705000Y-117889872D01*
X206619110Y-117458075D01*
X206450631Y-117051331D01*
X206206038Y-116685271D01*
X205894729Y-116373962D01*
X205528669Y-116129369D01*
X205121925Y-115960890D01*
X204690128Y-115875000D01*
X204249872Y-115875000D01*
X203818075Y-115960890D01*
X203411331Y-116129369D01*
X203045271Y-116373962D01*
X202733962Y-116685271D01*
X202489369Y-117051331D01*
X202320890Y-117458075D01*
X202235000Y-117889872D01*
X193700000Y-117889872D01*
X193700000Y-115602419D01*
X193703193Y-115570000D01*
X193690450Y-115440617D01*
X193652710Y-115316207D01*
X193591425Y-115201550D01*
X193508948Y-115101052D01*
X193408450Y-115018575D01*
X193293793Y-114957290D01*
X193169383Y-114919550D01*
X193072419Y-114910000D01*
X193040000Y-114906807D01*
X193007581Y-114910000D01*
X163862419Y-114910000D01*
X163830000Y-114906807D01*
X163797581Y-114910000D01*
X163700617Y-114919550D01*
X163576207Y-114957290D01*
X163461550Y-115018575D01*
X163361052Y-115101052D01*
X163278575Y-115201550D01*
X163217290Y-115316207D01*
X163179550Y-115440617D01*
X163166807Y-115570000D01*
X154112067Y-115570000D01*
X154051185Y-115495815D01*
X153954494Y-115416463D01*
X153844180Y-115357498D01*
X153724482Y-115321188D01*
X153600000Y-115308928D01*
X153152160Y-115308928D01*
X153181000Y-115163939D01*
X153181000Y-114960061D01*
X153141226Y-114760102D01*
X153063205Y-114571744D01*
X152949937Y-114402226D01*
X152805774Y-114258063D01*
X152636256Y-114144795D01*
X152447898Y-114066774D01*
X152247939Y-114027000D01*
X152044061Y-114027000D01*
X151844102Y-114066774D01*
X151655744Y-114144795D01*
X151486226Y-114258063D01*
X151342063Y-114402226D01*
X151228795Y-114571744D01*
X151150774Y-114760102D01*
X151111000Y-114960061D01*
X151111000Y-115163939D01*
X151141041Y-115314969D01*
X151066004Y-115323156D01*
X150946873Y-115361285D01*
X150837469Y-115421922D01*
X150741997Y-115502737D01*
X150664126Y-115600625D01*
X150606849Y-115711825D01*
X150572366Y-115832061D01*
X150562002Y-115956715D01*
X150565000Y-116386250D01*
X150723750Y-116545000D01*
X151211928Y-116545000D01*
X151211928Y-116799000D01*
X150723750Y-116799000D01*
X150565000Y-116957750D01*
X150562002Y-117387285D01*
X150572366Y-117511939D01*
X150606849Y-117632175D01*
X150664126Y-117743375D01*
X150741997Y-117841263D01*
X150837469Y-117922078D01*
X150946873Y-117982715D01*
X151066004Y-118020844D01*
X151168250Y-118032000D01*
X151297998Y-117902252D01*
X151297998Y-118032000D01*
X151333890Y-118032000D01*
X151325998Y-118058017D01*
X151311324Y-118207002D01*
X151315001Y-118244334D01*
X151315000Y-119708928D01*
X151200000Y-119708928D01*
X151075518Y-119721188D01*
X150955820Y-119757498D01*
X150845506Y-119816463D01*
X150748815Y-119895815D01*
X150669463Y-119992506D01*
X150610498Y-120102820D01*
X150574188Y-120222518D01*
X150561928Y-120347000D01*
X149095010Y-120347000D01*
X149095010Y-116265753D01*
X149100500Y-116210009D01*
X149095010Y-116154265D01*
X149095010Y-116154258D01*
X149078587Y-115987511D01*
X149013686Y-115773563D01*
X148908294Y-115576387D01*
X148766459Y-115403561D01*
X148763707Y-115401303D01*
X148761449Y-115398551D01*
X148588623Y-115256716D01*
X148391447Y-115151324D01*
X148177499Y-115086423D01*
X148010752Y-115070000D01*
X148010751Y-115070000D01*
X147955000Y-115064509D01*
X147899249Y-115070000D01*
X131500752Y-115070000D01*
X131445000Y-115064509D01*
X131389249Y-115070000D01*
X131389248Y-115070000D01*
X131222501Y-115086423D01*
X131008553Y-115151324D01*
X130811377Y-115256716D01*
X130638551Y-115398551D01*
X130496716Y-115571377D01*
X130391324Y-115768553D01*
X130326423Y-115982501D01*
X130304509Y-116205000D01*
X130310001Y-116260761D01*
X130310000Y-118245000D01*
X125785752Y-118245000D01*
X125730000Y-118239509D01*
X125674248Y-118245000D01*
X125507501Y-118261423D01*
X125293553Y-118326324D01*
X125096377Y-118431716D01*
X125024139Y-118491000D01*
X124333000Y-118491000D01*
X124308224Y-118493440D01*
X124284399Y-118500667D01*
X124262443Y-118512403D01*
X124243197Y-118528197D01*
X124227403Y-118547443D01*
X124215667Y-118569399D01*
X124208440Y-118593224D01*
X124206000Y-118618000D01*
X124206000Y-119309139D01*
X124146716Y-119381377D01*
X124057823Y-119547687D01*
X124041324Y-119578554D01*
X123976423Y-119792502D01*
X123954509Y-120015000D01*
X119281859Y-120015000D01*
X119534729Y-119846038D01*
X119846038Y-119534729D01*
X120090631Y-119168669D01*
X120259110Y-118761925D01*
X120345000Y-118330128D01*
X120345000Y-117889872D01*
X120259110Y-117458075D01*
X120090631Y-117051331D01*
X119846038Y-116685271D01*
X119534729Y-116373962D01*
X119168669Y-116129369D01*
X118761925Y-115960890D01*
X118330128Y-115875000D01*
X117889872Y-115875000D01*
X117458075Y-115960890D01*
X117051331Y-116129369D01*
X116685271Y-116373962D01*
X116373962Y-116685271D01*
X116129369Y-117051331D01*
X115960890Y-117458075D01*
X115875000Y-117889872D01*
X109880000Y-117889872D01*
X109880000Y-109880000D01*
X212700001Y-109880000D01*
X212700000Y-177140000D01*
X212700000Y-177140000D01*
G37*
X212700000Y-177140000D02*
X109880000Y-177140000D01*
X109880000Y-168689872D01*
X115875000Y-168689872D01*
X115875000Y-169130128D01*
X115960890Y-169561925D01*
X116129369Y-169968669D01*
X116373962Y-170334729D01*
X116685271Y-170646038D01*
X117051331Y-170890631D01*
X117458075Y-171059110D01*
X117889872Y-171145000D01*
X118330128Y-171145000D01*
X118761925Y-171059110D01*
X119168669Y-170890631D01*
X119534729Y-170646038D01*
X119846038Y-170334729D01*
X120090631Y-169968669D01*
X120259110Y-169561925D01*
X120345000Y-169130128D01*
X120345000Y-168689872D01*
X120259110Y-168258075D01*
X120090631Y-167851331D01*
X119846038Y-167485271D01*
X119534729Y-167173962D01*
X119168669Y-166929369D01*
X118761925Y-166760890D01*
X118330128Y-166675000D01*
X117889872Y-166675000D01*
X117458075Y-166760890D01*
X117051331Y-166929369D01*
X116685271Y-167173962D01*
X116373962Y-167485271D01*
X116129369Y-167851331D01*
X115960890Y-168258075D01*
X115875000Y-168689872D01*
X109880000Y-168689872D01*
X109880000Y-148590000D01*
X117773461Y-148590000D01*
X117819510Y-149057542D01*
X117955887Y-149507116D01*
X118177351Y-149921446D01*
X118475391Y-150284609D01*
X118838554Y-150582649D01*
X119252884Y-150804113D01*
X119702458Y-150940490D01*
X120052843Y-150975000D01*
X123787157Y-150975000D01*
X124137542Y-150940490D01*
X124587116Y-150804113D01*
X125001446Y-150582649D01*
X125364609Y-150284609D01*
X125662649Y-149921446D01*
X125884113Y-149507116D01*
X126020490Y-149057542D01*
X126066539Y-148590000D01*
X126020490Y-148122458D01*
X125884113Y-147672884D01*
X125763375Y-147447000D01*
X126211871Y-147447000D01*
X126268691Y-147464236D01*
X126479508Y-147485000D01*
X127520492Y-147485000D01*
X127731309Y-147464236D01*
X127788129Y-147447000D01*
X129540000Y-147447000D01*
X129564776Y-147444560D01*
X129588601Y-147437333D01*
X129610557Y-147425597D01*
X129629803Y-147409803D01*
X129645597Y-147390557D01*
X129657333Y-147368601D01*
X129664560Y-147344776D01*
X129667000Y-147320000D01*
X129667000Y-140970000D01*
X129664560Y-140945224D01*
X129657333Y-140921399D01*
X129645597Y-140899443D01*
X129629803Y-140880197D01*
X129610557Y-140864403D01*
X129588601Y-140852667D01*
X129564776Y-140845440D01*
X129540000Y-140843000D01*
X124460000Y-140843000D01*
X124435224Y-140845440D01*
X124411399Y-140852667D01*
X124389443Y-140864403D01*
X124370197Y-140880197D01*
X124354403Y-140899443D01*
X124342667Y-140921399D01*
X124335440Y-140945224D01*
X124333000Y-140970000D01*
X124333000Y-146298802D01*
X124137542Y-146239510D01*
X123787157Y-146205000D01*
X120052843Y-146205000D01*
X119702458Y-146239510D01*
X119252884Y-146375887D01*
X118838554Y-146597351D01*
X118475391Y-146895391D01*
X118177351Y-147258554D01*
X117955887Y-147672884D01*
X117819510Y-148122458D01*
X117773461Y-148590000D01*
X109880000Y-148590000D01*
X109880000Y-138430000D01*
X117773461Y-138430000D01*
X117819510Y-138897542D01*
X117955887Y-139347116D01*
X118177351Y-139761446D01*
X118475391Y-140124609D01*
X118838554Y-140422649D01*
X119252884Y-140644113D01*
X119702458Y-140780490D01*
X120052843Y-140815000D01*
X123787157Y-140815000D01*
X124137542Y-140780490D01*
X124587116Y-140644113D01*
X125001446Y-140422649D01*
X125364609Y-140124609D01*
X125662649Y-139761446D01*
X125884113Y-139347116D01*
X126020490Y-138897542D01*
X126066539Y-138430000D01*
X126020490Y-137962458D01*
X125884113Y-137512884D01*
X125662649Y-137098554D01*
X125364609Y-136735391D01*
X125001446Y-136437351D01*
X124587116Y-136215887D01*
X124137542Y-136079510D01*
X123787157Y-136045000D01*
X120052843Y-136045000D01*
X119702458Y-136079510D01*
X119252884Y-136215887D01*
X118838554Y-136437351D01*
X118475391Y-136735391D01*
X118177351Y-137098554D01*
X117955887Y-137512884D01*
X117819510Y-137962458D01*
X117773461Y-138430000D01*
X109880000Y-138430000D01*
X109880000Y-117889872D01*
X115875000Y-117889872D01*
X115875000Y-118330128D01*
X115960890Y-118761925D01*
X116129369Y-119168669D01*
X116373962Y-119534729D01*
X116685271Y-119846038D01*
X117051331Y-120090631D01*
X117458075Y-120259110D01*
X117889872Y-120345000D01*
X118330128Y-120345000D01*
X118761925Y-120259110D01*
X119168669Y-120090631D01*
X119281859Y-120015000D01*
X123954509Y-120015000D01*
X123960000Y-120070752D01*
X123960001Y-128849239D01*
X123954509Y-128905000D01*
X123976423Y-129127498D01*
X124041324Y-129341446D01*
X124072119Y-129399059D01*
X124146717Y-129538623D01*
X124206000Y-129610859D01*
X124206000Y-130302000D01*
X124208440Y-130326776D01*
X124215667Y-130350601D01*
X124227403Y-130372557D01*
X124243197Y-130391803D01*
X124262443Y-130407597D01*
X124284399Y-130419333D01*
X124308224Y-130426560D01*
X124333000Y-130429000D01*
X125024139Y-130429000D01*
X125024482Y-130429281D01*
X125096377Y-130488284D01*
X125293553Y-130593676D01*
X125507501Y-130658577D01*
X125730000Y-130680491D01*
X125785752Y-130675000D01*
X130310000Y-130675000D01*
X130310001Y-132659239D01*
X130304509Y-132715000D01*
X130326423Y-132937499D01*
X130391324Y-133151447D01*
X130496716Y-133348623D01*
X130638551Y-133521449D01*
X130811377Y-133663284D01*
X131008553Y-133768676D01*
X131222501Y-133833577D01*
X131389248Y-133850000D01*
X131389249Y-133850000D01*
X131445000Y-133855491D01*
X131500752Y-133850000D01*
X147899248Y-133850000D01*
X147955000Y-133855491D01*
X148010751Y-133850000D01*
X148010752Y-133850000D01*
X148177499Y-133833577D01*
X148391447Y-133768676D01*
X148588623Y-133663284D01*
X148761449Y-133521449D01*
X148903284Y-133348623D01*
X149008676Y-133151447D01*
X149046658Y-133026237D01*
X150140421Y-134120000D01*
X144200752Y-134120000D01*
X144145000Y-134114509D01*
X144089249Y-134120000D01*
X144089248Y-134120000D01*
X143922501Y-134136423D01*
X143708553Y-134201324D01*
X143511377Y-134306716D01*
X143338551Y-134448551D01*
X143196716Y-134621377D01*
X143091324Y-134818553D01*
X143026423Y-135032501D01*
X143004509Y-135255000D01*
X143010001Y-135310761D01*
X143010000Y-137295000D01*
X138485752Y-137295000D01*
X138430000Y-137289509D01*
X138374248Y-137295000D01*
X138207501Y-137311423D01*
X137993553Y-137376324D01*
X137796377Y-137481716D01*
X137724139Y-137541000D01*
X137033000Y-137541000D01*
X137008224Y-137543440D01*
X136984399Y-137550667D01*
X136962443Y-137562403D01*
X136943197Y-137578197D01*
X136927403Y-137597443D01*
X136915667Y-137619399D01*
X136908440Y-137643224D01*
X136906000Y-137668000D01*
X136906000Y-138359139D01*
X136846716Y-138431377D01*
X136754721Y-138603490D01*
X136741324Y-138628554D01*
X136676423Y-138842502D01*
X136654509Y-139065000D01*
X136660000Y-139120752D01*
X136660001Y-147899239D01*
X136654509Y-147955000D01*
X136676423Y-148177498D01*
X136741324Y-148391446D01*
X136772119Y-148449059D01*
X136846717Y-148588623D01*
X136906000Y-148660859D01*
X136906000Y-149352000D01*
X136908440Y-149376776D01*
X136915667Y-149400601D01*
X136927403Y-149422557D01*
X136943197Y-149441803D01*
X136962443Y-149457597D01*
X136984399Y-149469333D01*
X137008224Y-149476560D01*
X137033000Y-149479000D01*
X137724139Y-149479000D01*
X137724482Y-149479281D01*
X137796377Y-149538284D01*
X137993553Y-149643676D01*
X138207501Y-149708577D01*
X138430000Y-149730491D01*
X138485752Y-149725000D01*
X143010000Y-149725000D01*
X143010001Y-151709239D01*
X143004509Y-151765000D01*
X143026423Y-151987499D01*
X143091324Y-152201447D01*
X143196716Y-152398623D01*
X143338551Y-152571449D01*
X143511377Y-152713284D01*
X143708553Y-152818676D01*
X143922501Y-152883577D01*
X144089248Y-152900000D01*
X144089249Y-152900000D01*
X144145000Y-152905491D01*
X144200752Y-152900000D01*
X157059431Y-152900000D01*
X154974468Y-154984964D01*
X154891590Y-155085951D01*
X154809412Y-155239697D01*
X154758805Y-155406520D01*
X154741719Y-155580010D01*
X154758805Y-155753500D01*
X154809412Y-155920323D01*
X154871001Y-156035549D01*
X154871000Y-157476000D01*
X154853998Y-157476000D01*
X154853998Y-157605748D01*
X154724250Y-157476000D01*
X154622004Y-157487156D01*
X154502873Y-157525285D01*
X154393469Y-157585922D01*
X154297997Y-157666737D01*
X154220126Y-157764625D01*
X154162849Y-157875825D01*
X154128366Y-157996061D01*
X154118002Y-158120715D01*
X154121000Y-158550250D01*
X154279750Y-158709000D01*
X154767928Y-158709000D01*
X154767928Y-158963000D01*
X154279750Y-158963000D01*
X154121000Y-159121750D01*
X154118002Y-159551285D01*
X154128366Y-159675939D01*
X154162849Y-159796175D01*
X154220126Y-159907375D01*
X154297997Y-160005263D01*
X154332624Y-160034574D01*
X153315571Y-161051628D01*
X151564245Y-161051628D01*
X151618587Y-160872489D01*
X151635010Y-160705742D01*
X151640501Y-160649990D01*
X151635010Y-160594238D01*
X151635010Y-154365753D01*
X151640500Y-154310009D01*
X151635010Y-154254265D01*
X151635010Y-154254258D01*
X151618587Y-154087511D01*
X151553686Y-153873563D01*
X151448294Y-153676387D01*
X151306459Y-153503561D01*
X151303707Y-153501303D01*
X151301449Y-153498551D01*
X151128623Y-153356716D01*
X150931447Y-153251324D01*
X150717499Y-153186423D01*
X150550752Y-153170000D01*
X150550751Y-153170000D01*
X150495000Y-153164509D01*
X150439249Y-153170000D01*
X134040752Y-153170000D01*
X133985000Y-153164509D01*
X133929249Y-153170000D01*
X133929248Y-153170000D01*
X133762501Y-153186423D01*
X133548553Y-153251324D01*
X133351377Y-153356716D01*
X133178551Y-153498551D01*
X133036716Y-153671377D01*
X132931324Y-153868553D01*
X132866423Y-154082501D01*
X132844509Y-154305000D01*
X132850001Y-154360761D01*
X132850000Y-156345000D01*
X128325752Y-156345000D01*
X128270000Y-156339509D01*
X128214248Y-156345000D01*
X128047501Y-156361423D01*
X127833553Y-156426324D01*
X127636377Y-156531716D01*
X127564139Y-156591000D01*
X126873000Y-156591000D01*
X126848224Y-156593440D01*
X126824399Y-156600667D01*
X126802443Y-156612403D01*
X126783197Y-156628197D01*
X126767403Y-156647443D01*
X126755667Y-156669399D01*
X126748440Y-156693224D01*
X126746000Y-156718000D01*
X126746000Y-157409139D01*
X126686716Y-157481377D01*
X126597823Y-157647687D01*
X126581324Y-157678554D01*
X126516423Y-157892502D01*
X126494509Y-158115000D01*
X126500000Y-158170752D01*
X126500001Y-166949239D01*
X126494509Y-167005000D01*
X126516423Y-167227498D01*
X126581324Y-167441446D01*
X126612119Y-167499059D01*
X126686717Y-167638623D01*
X126746000Y-167710859D01*
X126746000Y-168402000D01*
X126748440Y-168426776D01*
X126755667Y-168450601D01*
X126767403Y-168472557D01*
X126783197Y-168491803D01*
X126802443Y-168507597D01*
X126824399Y-168519333D01*
X126848224Y-168526560D01*
X126873000Y-168529000D01*
X127564139Y-168529000D01*
X127564482Y-168529281D01*
X127636377Y-168588284D01*
X127833553Y-168693676D01*
X128047501Y-168758577D01*
X128270000Y-168780491D01*
X128325752Y-168775000D01*
X132850000Y-168775000D01*
X132850001Y-170759239D01*
X132844509Y-170815000D01*
X132866423Y-171037499D01*
X132931324Y-171251447D01*
X133036716Y-171448623D01*
X133178551Y-171621449D01*
X133351377Y-171763284D01*
X133548553Y-171868676D01*
X133762501Y-171933577D01*
X133929248Y-171950000D01*
X133929249Y-171950000D01*
X133985000Y-171955491D01*
X134040752Y-171950000D01*
X150439248Y-171950000D01*
X150495000Y-171955491D01*
X150550751Y-171950000D01*
X150550752Y-171950000D01*
X150717499Y-171933577D01*
X150931447Y-171868676D01*
X151128623Y-171763284D01*
X151301449Y-171621449D01*
X151443284Y-171448623D01*
X151548676Y-171251447D01*
X151613577Y-171037499D01*
X151635491Y-170815000D01*
X151630000Y-170759248D01*
X151630000Y-164520752D01*
X151635491Y-164465000D01*
X151629608Y-164405263D01*
X151613577Y-164242501D01*
X151548676Y-164028553D01*
X151443284Y-163831377D01*
X151301449Y-163658551D01*
X151128623Y-163516716D01*
X150931447Y-163411324D01*
X150717499Y-163346423D01*
X150522342Y-163327202D01*
X150566008Y-163183255D01*
X150583072Y-163010001D01*
X150583072Y-162821628D01*
X153548849Y-162821628D01*
X153678862Y-162808823D01*
X153845685Y-162758217D01*
X153999431Y-162676039D01*
X154117928Y-162578790D01*
X154117928Y-163961000D01*
X154130188Y-164085482D01*
X154166498Y-164205180D01*
X154225463Y-164315494D01*
X154304815Y-164412185D01*
X154401506Y-164491537D01*
X154511820Y-164550502D01*
X154631518Y-164586812D01*
X154756000Y-164599072D01*
X155206000Y-164599072D01*
X155306000Y-164589223D01*
X155406000Y-164599072D01*
X155521001Y-164599072D01*
X155521001Y-164672016D01*
X155468774Y-164798102D01*
X155429000Y-164998061D01*
X155429000Y-165201939D01*
X155468774Y-165401898D01*
X155546795Y-165590256D01*
X155660063Y-165759774D01*
X155804226Y-165903937D01*
X155973744Y-166017205D01*
X156162102Y-166095226D01*
X156362061Y-166135000D01*
X156565939Y-166135000D01*
X156765898Y-166095226D01*
X156954256Y-166017205D01*
X157123774Y-165903937D01*
X157267937Y-165759774D01*
X157381205Y-165590256D01*
X157459226Y-165401898D01*
X157499000Y-165201939D01*
X157499000Y-164998061D01*
X157459226Y-164798102D01*
X157381205Y-164609744D01*
X157351429Y-164565182D01*
X157409127Y-164546715D01*
X157518531Y-164486078D01*
X157614003Y-164405263D01*
X157691874Y-164307375D01*
X157749151Y-164196175D01*
X157783634Y-164075939D01*
X157793998Y-163951285D01*
X157791000Y-163521750D01*
X157632250Y-163363000D01*
X157144072Y-163363000D01*
X157144072Y-163109000D01*
X157632250Y-163109000D01*
X157791000Y-162950250D01*
X157793998Y-162520715D01*
X157783634Y-162396061D01*
X157749151Y-162275825D01*
X157702884Y-162186000D01*
X159054386Y-162186000D01*
X159085595Y-162244387D01*
X159139000Y-162309461D01*
X159139000Y-162758249D01*
X159133509Y-162814000D01*
X159139000Y-162869751D01*
X159139000Y-162869752D01*
X159155423Y-163036499D01*
X159220324Y-163250447D01*
X159325717Y-163447623D01*
X159467552Y-163620449D01*
X159510860Y-163655991D01*
X159764857Y-163909988D01*
X159894377Y-164016283D01*
X160091554Y-164121675D01*
X160305500Y-164186576D01*
X160527999Y-164208490D01*
X160750498Y-164186576D01*
X160964446Y-164121675D01*
X161161622Y-164016283D01*
X161334448Y-163874448D01*
X161476283Y-163701622D01*
X161581675Y-163504446D01*
X161646576Y-163290498D01*
X161668490Y-163067999D01*
X161646576Y-162845500D01*
X161581675Y-162631554D01*
X161476283Y-162434377D01*
X161409000Y-162352393D01*
X161409000Y-162309461D01*
X161462405Y-162244387D01*
X161544472Y-162090851D01*
X161595008Y-161924255D01*
X161612072Y-161751001D01*
X161612072Y-161100999D01*
X161595008Y-160927745D01*
X161544472Y-160761149D01*
X161462405Y-160607613D01*
X161351962Y-160473038D01*
X161264184Y-160401000D01*
X161351962Y-160328962D01*
X161462405Y-160194387D01*
X161544472Y-160040851D01*
X161595008Y-159874255D01*
X161612072Y-159701001D01*
X161612072Y-159050999D01*
X161595008Y-158877745D01*
X161544472Y-158711149D01*
X161462405Y-158557613D01*
X161351962Y-158423038D01*
X161217387Y-158312595D01*
X161063851Y-158230528D01*
X160897255Y-158179992D01*
X160724001Y-158162928D01*
X159823999Y-158162928D01*
X159650745Y-158179992D01*
X159484149Y-158230528D01*
X159330613Y-158312595D01*
X159196038Y-158423038D01*
X159085595Y-158557613D01*
X159003528Y-158711149D01*
X158976148Y-158801408D01*
X158933999Y-158835999D01*
X158910196Y-158865003D01*
X158649198Y-159126001D01*
X157794072Y-159126001D01*
X157794072Y-158111000D01*
X157781812Y-157986518D01*
X157745502Y-157866820D01*
X157686537Y-157756506D01*
X157607185Y-157659815D01*
X157510494Y-157580463D01*
X157400180Y-157521498D01*
X157280482Y-157485188D01*
X157156000Y-157472928D01*
X156706000Y-157472928D01*
X156606000Y-157482777D01*
X156506000Y-157472928D01*
X156391000Y-157472928D01*
X156391000Y-156071588D01*
X158862579Y-153600010D01*
X161005038Y-153600010D01*
X161048507Y-153604291D01*
X161091976Y-153600010D01*
X161091984Y-153600010D01*
X161221997Y-153587205D01*
X161388820Y-153536599D01*
X161542566Y-153454421D01*
X161677324Y-153343827D01*
X161705041Y-153310054D01*
X162200055Y-152815040D01*
X162233827Y-152787324D01*
X162344421Y-152652566D01*
X162426599Y-152498820D01*
X162477205Y-152331997D01*
X162490010Y-152201984D01*
X162490010Y-152201974D01*
X162494291Y-152158508D01*
X162490010Y-152115042D01*
X162490010Y-143360477D01*
X162494291Y-143317011D01*
X162490010Y-143273544D01*
X162490010Y-142199325D01*
X162495020Y-142148457D01*
X162495020Y-142148447D01*
X162499301Y-142104981D01*
X162495020Y-142061515D01*
X162495020Y-134729489D01*
X162499301Y-134686020D01*
X162495020Y-134642551D01*
X162495020Y-134642543D01*
X162482215Y-134512530D01*
X162431609Y-134345707D01*
X162349431Y-134191961D01*
X162238837Y-134057203D01*
X162205064Y-134029486D01*
X161692534Y-133516956D01*
X161664817Y-133483183D01*
X161530059Y-133372589D01*
X161376313Y-133290411D01*
X161209490Y-133239805D01*
X161079477Y-133227000D01*
X161079469Y-133227000D01*
X161036000Y-133222719D01*
X160992531Y-133227000D01*
X158459009Y-133227000D01*
X158619252Y-133170157D01*
X158869355Y-133021178D01*
X159085588Y-132826269D01*
X159259641Y-132592920D01*
X159384825Y-132330099D01*
X159429476Y-132182890D01*
X159308155Y-131953000D01*
X158115000Y-131953000D01*
X158115000Y-131973000D01*
X157861000Y-131973000D01*
X157861000Y-131953000D01*
X156667845Y-131953000D01*
X156546524Y-132182890D01*
X156591175Y-132330099D01*
X156716359Y-132592920D01*
X156890412Y-132826269D01*
X157106645Y-133021178D01*
X157356748Y-133170157D01*
X157516991Y-133227000D01*
X153887009Y-133227000D01*
X154047252Y-133170157D01*
X154297355Y-133021178D01*
X154513588Y-132826269D01*
X154687641Y-132592920D01*
X154812825Y-132330099D01*
X154857476Y-132182890D01*
X154736155Y-131953000D01*
X153543000Y-131953000D01*
X153543000Y-131973000D01*
X153289000Y-131973000D01*
X153289000Y-131953000D01*
X152095845Y-131953000D01*
X151974524Y-132182890D01*
X152019175Y-132330099D01*
X152144359Y-132592920D01*
X152318412Y-132826269D01*
X152534645Y-133021178D01*
X152784748Y-133170157D01*
X152944991Y-133227000D01*
X151750579Y-133227000D01*
X149790010Y-131266432D01*
X149790010Y-128436000D01*
X151927928Y-128436000D01*
X151927928Y-130136000D01*
X151940188Y-130260482D01*
X151976498Y-130380180D01*
X152035463Y-130490494D01*
X152114815Y-130587185D01*
X152211506Y-130666537D01*
X152321820Y-130725502D01*
X152402466Y-130749966D01*
X152318412Y-130825731D01*
X152144359Y-131059080D01*
X152019175Y-131321901D01*
X151974524Y-131469110D01*
X152095845Y-131699000D01*
X153289000Y-131699000D01*
X153289000Y-131679000D01*
X153543000Y-131679000D01*
X153543000Y-131699000D01*
X154736155Y-131699000D01*
X154857476Y-131469110D01*
X154812825Y-131321901D01*
X154687641Y-131059080D01*
X154513588Y-130825731D01*
X154429534Y-130749966D01*
X154510180Y-130725502D01*
X154620494Y-130666537D01*
X154717185Y-130587185D01*
X154796537Y-130490494D01*
X154855502Y-130380180D01*
X154891812Y-130260482D01*
X154904072Y-130136000D01*
X154904072Y-128436000D01*
X156499928Y-128436000D01*
X156499928Y-130136000D01*
X156512188Y-130260482D01*
X156548498Y-130380180D01*
X156607463Y-130490494D01*
X156686815Y-130587185D01*
X156783506Y-130666537D01*
X156893820Y-130725502D01*
X156974466Y-130749966D01*
X156890412Y-130825731D01*
X156716359Y-131059080D01*
X156591175Y-131321901D01*
X156546524Y-131469110D01*
X156667845Y-131699000D01*
X157861000Y-131699000D01*
X157861000Y-131679000D01*
X158115000Y-131679000D01*
X158115000Y-131699000D01*
X159308155Y-131699000D01*
X159429476Y-131469110D01*
X159384825Y-131321901D01*
X159259641Y-131059080D01*
X159085588Y-130825731D01*
X159001534Y-130749966D01*
X159082180Y-130725502D01*
X159192494Y-130666537D01*
X159289185Y-130587185D01*
X159368537Y-130490494D01*
X159427502Y-130380180D01*
X159463812Y-130260482D01*
X159476072Y-130136000D01*
X159476072Y-128436000D01*
X159463812Y-128311518D01*
X159427502Y-128191820D01*
X159368537Y-128081506D01*
X159289185Y-127984815D01*
X159192494Y-127905463D01*
X159082180Y-127846498D01*
X158962482Y-127810188D01*
X158838000Y-127797928D01*
X157138000Y-127797928D01*
X157013518Y-127810188D01*
X156893820Y-127846498D01*
X156783506Y-127905463D01*
X156686815Y-127984815D01*
X156607463Y-128081506D01*
X156548498Y-128191820D01*
X156512188Y-128311518D01*
X156499928Y-128436000D01*
X154904072Y-128436000D01*
X154891812Y-128311518D01*
X154855502Y-128191820D01*
X154796537Y-128081506D01*
X154717185Y-127984815D01*
X154620494Y-127905463D01*
X154510180Y-127846498D01*
X154390482Y-127810188D01*
X154266000Y-127797928D01*
X152566000Y-127797928D01*
X152441518Y-127810188D01*
X152321820Y-127846498D01*
X152211506Y-127905463D01*
X152114815Y-127984815D01*
X152035463Y-128081506D01*
X151976498Y-128191820D01*
X151940188Y-128311518D01*
X151927928Y-128436000D01*
X149790010Y-128436000D01*
X149790010Y-126136061D01*
X151365000Y-126136061D01*
X151365000Y-126339939D01*
X151404774Y-126539898D01*
X151482795Y-126728256D01*
X151596063Y-126897774D01*
X151740226Y-127041937D01*
X151909744Y-127155205D01*
X152098102Y-127233226D01*
X152298061Y-127273000D01*
X152501939Y-127273000D01*
X152701898Y-127233226D01*
X152890256Y-127155205D01*
X153059774Y-127041937D01*
X153130637Y-126971074D01*
X153234613Y-127056405D01*
X153388149Y-127138472D01*
X153554745Y-127189008D01*
X153727999Y-127206072D01*
X154628001Y-127206072D01*
X154801255Y-127189008D01*
X154967851Y-127138472D01*
X155121387Y-127056405D01*
X155255962Y-126945962D01*
X155366405Y-126811387D01*
X155448472Y-126657851D01*
X155499008Y-126491255D01*
X155516072Y-126318001D01*
X155516072Y-125667999D01*
X155499008Y-125494745D01*
X155448472Y-125328149D01*
X155366405Y-125174613D01*
X155255962Y-125040038D01*
X155249406Y-125034658D01*
X155329185Y-124969185D01*
X155408537Y-124872494D01*
X155467502Y-124762180D01*
X155503812Y-124642482D01*
X155516072Y-124518000D01*
X156395928Y-124518000D01*
X156408188Y-124642482D01*
X156444498Y-124762180D01*
X156503463Y-124872494D01*
X156582815Y-124969185D01*
X156662594Y-125034658D01*
X156656038Y-125040038D01*
X156545595Y-125174613D01*
X156463528Y-125328149D01*
X156412992Y-125494745D01*
X156395928Y-125667999D01*
X156395928Y-126318001D01*
X156412992Y-126491255D01*
X156463528Y-126657851D01*
X156545595Y-126811387D01*
X156656038Y-126945962D01*
X156790613Y-127056405D01*
X156944149Y-127138472D01*
X157110745Y-127189008D01*
X157283999Y-127206072D01*
X158184001Y-127206072D01*
X158357255Y-127189008D01*
X158523851Y-127138472D01*
X158677387Y-127056405D01*
X158733029Y-127010740D01*
X158852226Y-127129937D01*
X159021744Y-127243205D01*
X159210102Y-127321226D01*
X159410061Y-127361000D01*
X159613939Y-127361000D01*
X159813898Y-127321226D01*
X160002256Y-127243205D01*
X160171774Y-127129937D01*
X160315937Y-126985774D01*
X160429205Y-126816256D01*
X160507226Y-126627898D01*
X160547000Y-126427939D01*
X160547000Y-126224061D01*
X160507226Y-126024102D01*
X160429205Y-125835744D01*
X160315937Y-125666226D01*
X160171774Y-125522063D01*
X160002256Y-125408795D01*
X159813898Y-125330774D01*
X159752140Y-125318490D01*
X159673059Y-125253589D01*
X159519313Y-125171411D01*
X159352490Y-125120805D01*
X159222477Y-125108000D01*
X159222469Y-125108000D01*
X159179000Y-125103719D01*
X159135531Y-125108000D01*
X158867737Y-125108000D01*
X158811962Y-125040038D01*
X158805406Y-125034658D01*
X158885185Y-124969185D01*
X158964537Y-124872494D01*
X159023502Y-124762180D01*
X159059812Y-124642482D01*
X159072072Y-124518000D01*
X159069000Y-124228750D01*
X158910250Y-124070000D01*
X157861000Y-124070000D01*
X157861000Y-124090000D01*
X157607000Y-124090000D01*
X157607000Y-124070000D01*
X156557750Y-124070000D01*
X156399000Y-124228750D01*
X156395928Y-124518000D01*
X155516072Y-124518000D01*
X155513000Y-124228750D01*
X155354250Y-124070000D01*
X154305000Y-124070000D01*
X154305000Y-124090000D01*
X154051000Y-124090000D01*
X154051000Y-124070000D01*
X153001750Y-124070000D01*
X152843000Y-124228750D01*
X152839928Y-124518000D01*
X152852188Y-124642482D01*
X152888498Y-124762180D01*
X152947463Y-124872494D01*
X153026815Y-124969185D01*
X153106594Y-125034658D01*
X153100038Y-125040038D01*
X153044263Y-125108000D01*
X152688465Y-125108000D01*
X152644999Y-125103719D01*
X152601533Y-125108000D01*
X152601523Y-125108000D01*
X152471510Y-125120805D01*
X152304687Y-125171411D01*
X152214486Y-125219624D01*
X152098102Y-125242774D01*
X151909744Y-125320795D01*
X151740226Y-125434063D01*
X151596063Y-125578226D01*
X151482795Y-125747744D01*
X151404774Y-125936102D01*
X151365000Y-126136061D01*
X149790010Y-126136061D01*
X149790010Y-126014962D01*
X149794291Y-125971493D01*
X149790010Y-125928024D01*
X149790010Y-125928016D01*
X149777205Y-125798003D01*
X149726599Y-125631180D01*
X149644421Y-125477434D01*
X149533827Y-125342676D01*
X149500059Y-125314963D01*
X148050051Y-123864956D01*
X148022334Y-123831183D01*
X147887576Y-123720589D01*
X147837683Y-123693921D01*
X147832840Y-123677956D01*
X147904258Y-123684990D01*
X147904259Y-123684990D01*
X147960010Y-123690481D01*
X148182509Y-123668567D01*
X148396457Y-123603666D01*
X148593633Y-123498274D01*
X148766459Y-123356439D01*
X148908294Y-123183613D01*
X149013686Y-122986437D01*
X149078587Y-122772489D01*
X149095010Y-122605742D01*
X149100501Y-122549990D01*
X149095010Y-122494238D01*
X149095010Y-120347000D01*
X150561928Y-120347000D01*
X150561928Y-121797000D01*
X150574188Y-121921482D01*
X150610498Y-122041180D01*
X150669463Y-122151494D01*
X150748815Y-122248185D01*
X150845506Y-122327537D01*
X150955820Y-122386502D01*
X151004510Y-122401272D01*
X150974795Y-122445744D01*
X150896774Y-122634102D01*
X150857000Y-122834061D01*
X150857000Y-123037939D01*
X150896774Y-123237898D01*
X150974795Y-123426256D01*
X151088063Y-123595774D01*
X151232226Y-123739937D01*
X151401744Y-123853205D01*
X151590102Y-123931226D01*
X151790061Y-123971000D01*
X151993939Y-123971000D01*
X152193898Y-123931226D01*
X152382256Y-123853205D01*
X152551774Y-123739937D01*
X152695937Y-123595774D01*
X152809205Y-123426256D01*
X152841984Y-123347120D01*
X152839928Y-123368000D01*
X152843000Y-123657250D01*
X153001750Y-123816000D01*
X154051000Y-123816000D01*
X154051000Y-122891750D01*
X154305000Y-122891750D01*
X154305000Y-123816000D01*
X155354250Y-123816000D01*
X155513000Y-123657250D01*
X155516072Y-123368000D01*
X156395928Y-123368000D01*
X156399000Y-123657250D01*
X156557750Y-123816000D01*
X157607000Y-123816000D01*
X157607000Y-122891750D01*
X157861000Y-122891750D01*
X157861000Y-123816000D01*
X158910250Y-123816000D01*
X159069000Y-123657250D01*
X159072072Y-123368000D01*
X159059812Y-123243518D01*
X159023502Y-123123820D01*
X158964537Y-123013506D01*
X158885185Y-122916815D01*
X158788494Y-122837463D01*
X158678180Y-122778498D01*
X158558482Y-122742188D01*
X158434000Y-122729928D01*
X158019750Y-122733000D01*
X157861000Y-122891750D01*
X157607000Y-122891750D01*
X157448250Y-122733000D01*
X157034000Y-122729928D01*
X156909518Y-122742188D01*
X156789820Y-122778498D01*
X156679506Y-122837463D01*
X156582815Y-122916815D01*
X156503463Y-123013506D01*
X156444498Y-123123820D01*
X156408188Y-123243518D01*
X156395928Y-123368000D01*
X155516072Y-123368000D01*
X155503812Y-123243518D01*
X155467502Y-123123820D01*
X155408537Y-123013506D01*
X155329185Y-122916815D01*
X155232494Y-122837463D01*
X155122180Y-122778498D01*
X155002482Y-122742188D01*
X154878000Y-122729928D01*
X154463750Y-122733000D01*
X154305000Y-122891750D01*
X154051000Y-122891750D01*
X153892250Y-122733000D01*
X153478000Y-122729928D01*
X153353518Y-122742188D01*
X153233820Y-122778498D01*
X153123506Y-122837463D01*
X153026815Y-122916815D01*
X152947463Y-123013506D01*
X152922612Y-123059998D01*
X152927000Y-123037939D01*
X152927000Y-122834061D01*
X152887226Y-122634102D01*
X152835000Y-122508018D01*
X152835000Y-122435072D01*
X152950000Y-122435072D01*
X153053227Y-122424905D01*
X153118250Y-122432000D01*
X153150497Y-122399753D01*
X153194180Y-122386502D01*
X153304494Y-122327537D01*
X153401185Y-122248185D01*
X153473000Y-122160678D01*
X153473000Y-122273250D01*
X153631750Y-122432000D01*
X153733996Y-122420844D01*
X153853127Y-122382715D01*
X153962531Y-122322078D01*
X154058003Y-122241263D01*
X154135874Y-122143375D01*
X154193151Y-122032175D01*
X154227634Y-121911939D01*
X154237998Y-121787285D01*
X154235000Y-121357750D01*
X154076250Y-121199000D01*
X153588072Y-121199000D01*
X153588072Y-120945000D01*
X154076250Y-120945000D01*
X154235000Y-120786250D01*
X154237998Y-120356715D01*
X154227634Y-120232061D01*
X154193151Y-120111825D01*
X154135874Y-120000625D01*
X154058003Y-119902737D01*
X154023376Y-119873426D01*
X154598802Y-119298000D01*
X155058928Y-119298000D01*
X155058928Y-119318000D01*
X155071188Y-119442482D01*
X155107498Y-119562180D01*
X155166463Y-119672494D01*
X155245815Y-119769185D01*
X155342506Y-119848537D01*
X155416335Y-119888000D01*
X155342506Y-119927463D01*
X155245815Y-120006815D01*
X155166463Y-120103506D01*
X155107498Y-120213820D01*
X155071188Y-120333518D01*
X155058928Y-120458000D01*
X155058928Y-122018000D01*
X155071188Y-122142482D01*
X155107498Y-122262180D01*
X155166463Y-122372494D01*
X155245815Y-122469185D01*
X155342506Y-122548537D01*
X155452820Y-122607502D01*
X155572518Y-122643812D01*
X155697000Y-122656072D01*
X156347000Y-122656072D01*
X156471482Y-122643812D01*
X156497000Y-122636071D01*
X156522518Y-122643812D01*
X156647000Y-122656072D01*
X156686250Y-122653000D01*
X156845000Y-122494250D01*
X156845000Y-122412141D01*
X156877537Y-122372494D01*
X156936502Y-122262180D01*
X156972000Y-122145159D01*
X157007498Y-122262180D01*
X157066463Y-122372494D01*
X157099000Y-122412141D01*
X157099000Y-122494250D01*
X157257750Y-122653000D01*
X157297000Y-122656072D01*
X157421482Y-122643812D01*
X157447000Y-122636071D01*
X157472518Y-122643812D01*
X157597000Y-122656072D01*
X158247000Y-122656072D01*
X158371482Y-122643812D01*
X158491180Y-122607502D01*
X158601494Y-122548537D01*
X158698185Y-122469185D01*
X158777537Y-122372494D01*
X158836502Y-122262180D01*
X158872812Y-122142482D01*
X158885072Y-122018000D01*
X158885072Y-121768890D01*
X160102524Y-121768890D01*
X160147175Y-121916099D01*
X160272359Y-122178920D01*
X160446412Y-122412269D01*
X160662645Y-122607178D01*
X160912748Y-122756157D01*
X161187109Y-122853481D01*
X161417000Y-122732814D01*
X161417000Y-121539000D01*
X161671000Y-121539000D01*
X161671000Y-122732814D01*
X161900891Y-122853481D01*
X162175252Y-122756157D01*
X162425355Y-122607178D01*
X162641588Y-122412269D01*
X162815641Y-122178920D01*
X162940825Y-121916099D01*
X162985476Y-121768890D01*
X162864155Y-121539000D01*
X161671000Y-121539000D01*
X161417000Y-121539000D01*
X160223845Y-121539000D01*
X160102524Y-121768890D01*
X158885072Y-121768890D01*
X158885072Y-120458000D01*
X158872812Y-120333518D01*
X158836502Y-120213820D01*
X158777537Y-120103506D01*
X158698185Y-120006815D01*
X158601494Y-119927463D01*
X158527665Y-119888000D01*
X158601494Y-119848537D01*
X158698185Y-119769185D01*
X158777537Y-119672494D01*
X158836502Y-119562180D01*
X158872812Y-119442482D01*
X158874731Y-119423000D01*
X160055928Y-119423000D01*
X160055928Y-119722000D01*
X160068188Y-119846482D01*
X160104498Y-119966180D01*
X160163463Y-120076494D01*
X160242815Y-120173185D01*
X160339506Y-120252537D01*
X160449820Y-120311502D01*
X160530466Y-120335966D01*
X160446412Y-120411731D01*
X160272359Y-120645080D01*
X160147175Y-120907901D01*
X160102524Y-121055110D01*
X160223845Y-121285000D01*
X161417000Y-121285000D01*
X161417000Y-121265000D01*
X161671000Y-121265000D01*
X161671000Y-121285000D01*
X162864155Y-121285000D01*
X162985476Y-121055110D01*
X162940825Y-120907901D01*
X162815641Y-120645080D01*
X162641588Y-120411731D01*
X162557534Y-120335966D01*
X162638180Y-120311502D01*
X162748494Y-120252537D01*
X162845185Y-120173185D01*
X162924537Y-120076494D01*
X162983502Y-119966180D01*
X163019812Y-119846482D01*
X163032072Y-119722000D01*
X163032072Y-118022000D01*
X163019812Y-117897518D01*
X162983502Y-117777820D01*
X162924537Y-117667506D01*
X162845185Y-117570815D01*
X162748494Y-117491463D01*
X162638180Y-117432498D01*
X162518482Y-117396188D01*
X162394000Y-117383928D01*
X160694000Y-117383928D01*
X160569518Y-117396188D01*
X160449820Y-117432498D01*
X160339506Y-117491463D01*
X160242815Y-117570815D01*
X160175368Y-117653000D01*
X158874731Y-117653000D01*
X158872812Y-117633518D01*
X158836502Y-117513820D01*
X158777537Y-117403506D01*
X158698185Y-117306815D01*
X158601494Y-117227463D01*
X158491180Y-117168498D01*
X158371482Y-117132188D01*
X158247000Y-117119928D01*
X157597000Y-117119928D01*
X157472518Y-117132188D01*
X157447000Y-117139929D01*
X157421482Y-117132188D01*
X157297000Y-117119928D01*
X156647000Y-117119928D01*
X156522518Y-117132188D01*
X156497000Y-117139929D01*
X156471482Y-117132188D01*
X156347000Y-117119928D01*
X155697000Y-117119928D01*
X155572518Y-117132188D01*
X155452820Y-117168498D01*
X155342506Y-117227463D01*
X155245815Y-117306815D01*
X155166463Y-117403506D01*
X155107498Y-117513820D01*
X155071188Y-117633518D01*
X155058928Y-117758000D01*
X155058928Y-117778000D01*
X154321323Y-117778000D01*
X154284000Y-117774324D01*
X154246677Y-117778000D01*
X154246667Y-117778000D01*
X154135014Y-117788997D01*
X154088074Y-117803236D01*
X154130537Y-117751494D01*
X154189502Y-117641180D01*
X154225812Y-117521482D01*
X154238072Y-117397000D01*
X154238072Y-115947000D01*
X154225812Y-115822518D01*
X154189502Y-115702820D01*
X154130537Y-115592506D01*
X154112067Y-115570000D01*
X163166807Y-115570000D01*
X163170001Y-115602430D01*
X163170000Y-171417581D01*
X163166807Y-171450000D01*
X163179550Y-171579383D01*
X163217290Y-171703793D01*
X163278575Y-171818450D01*
X163319795Y-171868676D01*
X163361052Y-171918948D01*
X163461550Y-172001425D01*
X163576207Y-172062710D01*
X163700617Y-172100450D01*
X163830000Y-172113193D01*
X163862419Y-172110000D01*
X193007581Y-172110000D01*
X193040000Y-172113193D01*
X193072419Y-172110000D01*
X193169383Y-172100450D01*
X193293793Y-172062710D01*
X193408450Y-172001425D01*
X193508948Y-171918948D01*
X193591425Y-171818450D01*
X193652710Y-171703793D01*
X193690450Y-171579383D01*
X193703193Y-171450000D01*
X193700000Y-171417581D01*
X193700000Y-168689872D01*
X202235000Y-168689872D01*
X202235000Y-169130128D01*
X202320890Y-169561925D01*
X202489369Y-169968669D01*
X202733962Y-170334729D01*
X203045271Y-170646038D01*
X203411331Y-170890631D01*
X203818075Y-171059110D01*
X204249872Y-171145000D01*
X204690128Y-171145000D01*
X205121925Y-171059110D01*
X205528669Y-170890631D01*
X205894729Y-170646038D01*
X206206038Y-170334729D01*
X206450631Y-169968669D01*
X206619110Y-169561925D01*
X206705000Y-169130128D01*
X206705000Y-168689872D01*
X206619110Y-168258075D01*
X206450631Y-167851331D01*
X206206038Y-167485271D01*
X205894729Y-167173962D01*
X205528669Y-166929369D01*
X205121925Y-166760890D01*
X204690128Y-166675000D01*
X204249872Y-166675000D01*
X203818075Y-166760890D01*
X203411331Y-166929369D01*
X203045271Y-167173962D01*
X202733962Y-167485271D01*
X202489369Y-167851331D01*
X202320890Y-168258075D01*
X202235000Y-168689872D01*
X193700000Y-168689872D01*
X193700000Y-148209000D01*
X196513461Y-148209000D01*
X196559510Y-148676542D01*
X196695887Y-149126116D01*
X196917351Y-149540446D01*
X197215391Y-149903609D01*
X197578554Y-150201649D01*
X197992884Y-150423113D01*
X198442458Y-150559490D01*
X198792843Y-150594000D01*
X202527157Y-150594000D01*
X202877542Y-150559490D01*
X203327116Y-150423113D01*
X203741446Y-150201649D01*
X204104609Y-149903609D01*
X204402649Y-149540446D01*
X204624113Y-149126116D01*
X204760490Y-148676542D01*
X204806539Y-148209000D01*
X204760490Y-147741458D01*
X204624113Y-147291884D01*
X204402649Y-146877554D01*
X204104609Y-146514391D01*
X203741446Y-146216351D01*
X203327116Y-145994887D01*
X202877542Y-145858510D01*
X202527157Y-145824000D01*
X198792843Y-145824000D01*
X198442458Y-145858510D01*
X197992884Y-145994887D01*
X197578554Y-146216351D01*
X197215391Y-146514391D01*
X196917351Y-146877554D01*
X196695887Y-147291884D01*
X196559510Y-147741458D01*
X196513461Y-148209000D01*
X193700000Y-148209000D01*
X193700000Y-143250257D01*
X193715764Y-143410309D01*
X193797818Y-143680808D01*
X193931068Y-143930101D01*
X194110392Y-144148608D01*
X194328899Y-144327932D01*
X194578192Y-144461182D01*
X194848691Y-144543236D01*
X195059508Y-144564000D01*
X196100492Y-144564000D01*
X196311309Y-144543236D01*
X196581808Y-144461182D01*
X196831101Y-144327932D01*
X197049608Y-144148608D01*
X197228932Y-143930101D01*
X197362182Y-143680808D01*
X197444236Y-143410309D01*
X197471943Y-143129000D01*
X197444236Y-142847691D01*
X197362182Y-142577192D01*
X197228932Y-142327899D01*
X197049608Y-142109392D01*
X196831101Y-141930068D01*
X196698142Y-141859000D01*
X196831101Y-141787932D01*
X197049608Y-141608608D01*
X197228932Y-141390101D01*
X197362182Y-141140808D01*
X197444236Y-140870309D01*
X197471943Y-140589000D01*
X197444236Y-140307691D01*
X197362182Y-140037192D01*
X197228932Y-139787899D01*
X197049608Y-139569392D01*
X196831101Y-139390068D01*
X196581808Y-139256818D01*
X196311309Y-139174764D01*
X196100492Y-139154000D01*
X195059508Y-139154000D01*
X194848691Y-139174764D01*
X194578192Y-139256818D01*
X194328899Y-139390068D01*
X194110392Y-139569392D01*
X193931068Y-139787899D01*
X193797818Y-140037192D01*
X193715764Y-140307691D01*
X193700000Y-140467743D01*
X193700000Y-138049000D01*
X196513461Y-138049000D01*
X196559510Y-138516542D01*
X196695887Y-138966116D01*
X196917351Y-139380446D01*
X197215391Y-139743609D01*
X197578554Y-140041649D01*
X197992884Y-140263113D01*
X198442458Y-140399490D01*
X198792843Y-140434000D01*
X202527157Y-140434000D01*
X202877542Y-140399490D01*
X203327116Y-140263113D01*
X203741446Y-140041649D01*
X204104609Y-139743609D01*
X204402649Y-139380446D01*
X204624113Y-138966116D01*
X204760490Y-138516542D01*
X204806539Y-138049000D01*
X204760490Y-137581458D01*
X204624113Y-137131884D01*
X204402649Y-136717554D01*
X204104609Y-136354391D01*
X203741446Y-136056351D01*
X203327116Y-135834887D01*
X202877542Y-135698510D01*
X202527157Y-135664000D01*
X198792843Y-135664000D01*
X198442458Y-135698510D01*
X197992884Y-135834887D01*
X197578554Y-136056351D01*
X197215391Y-136354391D01*
X196917351Y-136717554D01*
X196695887Y-137131884D01*
X196559510Y-137581458D01*
X196513461Y-138049000D01*
X193700000Y-138049000D01*
X193700000Y-117889872D01*
X202235000Y-117889872D01*
X202235000Y-118330128D01*
X202320890Y-118761925D01*
X202489369Y-119168669D01*
X202733962Y-119534729D01*
X203045271Y-119846038D01*
X203411331Y-120090631D01*
X203818075Y-120259110D01*
X204249872Y-120345000D01*
X204690128Y-120345000D01*
X205121925Y-120259110D01*
X205528669Y-120090631D01*
X205894729Y-119846038D01*
X206206038Y-119534729D01*
X206450631Y-119168669D01*
X206619110Y-118761925D01*
X206705000Y-118330128D01*
X206705000Y-117889872D01*
X206619110Y-117458075D01*
X206450631Y-117051331D01*
X206206038Y-116685271D01*
X205894729Y-116373962D01*
X205528669Y-116129369D01*
X205121925Y-115960890D01*
X204690128Y-115875000D01*
X204249872Y-115875000D01*
X203818075Y-115960890D01*
X203411331Y-116129369D01*
X203045271Y-116373962D01*
X202733962Y-116685271D01*
X202489369Y-117051331D01*
X202320890Y-117458075D01*
X202235000Y-117889872D01*
X193700000Y-117889872D01*
X193700000Y-115602419D01*
X193703193Y-115570000D01*
X193690450Y-115440617D01*
X193652710Y-115316207D01*
X193591425Y-115201550D01*
X193508948Y-115101052D01*
X193408450Y-115018575D01*
X193293793Y-114957290D01*
X193169383Y-114919550D01*
X193072419Y-114910000D01*
X193040000Y-114906807D01*
X193007581Y-114910000D01*
X163862419Y-114910000D01*
X163830000Y-114906807D01*
X163797581Y-114910000D01*
X163700617Y-114919550D01*
X163576207Y-114957290D01*
X163461550Y-115018575D01*
X163361052Y-115101052D01*
X163278575Y-115201550D01*
X163217290Y-115316207D01*
X163179550Y-115440617D01*
X163166807Y-115570000D01*
X154112067Y-115570000D01*
X154051185Y-115495815D01*
X153954494Y-115416463D01*
X153844180Y-115357498D01*
X153724482Y-115321188D01*
X153600000Y-115308928D01*
X153152160Y-115308928D01*
X153181000Y-115163939D01*
X153181000Y-114960061D01*
X153141226Y-114760102D01*
X153063205Y-114571744D01*
X152949937Y-114402226D01*
X152805774Y-114258063D01*
X152636256Y-114144795D01*
X152447898Y-114066774D01*
X152247939Y-114027000D01*
X152044061Y-114027000D01*
X151844102Y-114066774D01*
X151655744Y-114144795D01*
X151486226Y-114258063D01*
X151342063Y-114402226D01*
X151228795Y-114571744D01*
X151150774Y-114760102D01*
X151111000Y-114960061D01*
X151111000Y-115163939D01*
X151141041Y-115314969D01*
X151066004Y-115323156D01*
X150946873Y-115361285D01*
X150837469Y-115421922D01*
X150741997Y-115502737D01*
X150664126Y-115600625D01*
X150606849Y-115711825D01*
X150572366Y-115832061D01*
X150562002Y-115956715D01*
X150565000Y-116386250D01*
X150723750Y-116545000D01*
X151211928Y-116545000D01*
X151211928Y-116799000D01*
X150723750Y-116799000D01*
X150565000Y-116957750D01*
X150562002Y-117387285D01*
X150572366Y-117511939D01*
X150606849Y-117632175D01*
X150664126Y-117743375D01*
X150741997Y-117841263D01*
X150837469Y-117922078D01*
X150946873Y-117982715D01*
X151066004Y-118020844D01*
X151168250Y-118032000D01*
X151297998Y-117902252D01*
X151297998Y-118032000D01*
X151333890Y-118032000D01*
X151325998Y-118058017D01*
X151311324Y-118207002D01*
X151315001Y-118244334D01*
X151315000Y-119708928D01*
X151200000Y-119708928D01*
X151075518Y-119721188D01*
X150955820Y-119757498D01*
X150845506Y-119816463D01*
X150748815Y-119895815D01*
X150669463Y-119992506D01*
X150610498Y-120102820D01*
X150574188Y-120222518D01*
X150561928Y-120347000D01*
X149095010Y-120347000D01*
X149095010Y-116265753D01*
X149100500Y-116210009D01*
X149095010Y-116154265D01*
X149095010Y-116154258D01*
X149078587Y-115987511D01*
X149013686Y-115773563D01*
X148908294Y-115576387D01*
X148766459Y-115403561D01*
X148763707Y-115401303D01*
X148761449Y-115398551D01*
X148588623Y-115256716D01*
X148391447Y-115151324D01*
X148177499Y-115086423D01*
X148010752Y-115070000D01*
X148010751Y-115070000D01*
X147955000Y-115064509D01*
X147899249Y-115070000D01*
X131500752Y-115070000D01*
X131445000Y-115064509D01*
X131389249Y-115070000D01*
X131389248Y-115070000D01*
X131222501Y-115086423D01*
X131008553Y-115151324D01*
X130811377Y-115256716D01*
X130638551Y-115398551D01*
X130496716Y-115571377D01*
X130391324Y-115768553D01*
X130326423Y-115982501D01*
X130304509Y-116205000D01*
X130310001Y-116260761D01*
X130310000Y-118245000D01*
X125785752Y-118245000D01*
X125730000Y-118239509D01*
X125674248Y-118245000D01*
X125507501Y-118261423D01*
X125293553Y-118326324D01*
X125096377Y-118431716D01*
X125024139Y-118491000D01*
X124333000Y-118491000D01*
X124308224Y-118493440D01*
X124284399Y-118500667D01*
X124262443Y-118512403D01*
X124243197Y-118528197D01*
X124227403Y-118547443D01*
X124215667Y-118569399D01*
X124208440Y-118593224D01*
X124206000Y-118618000D01*
X124206000Y-119309139D01*
X124146716Y-119381377D01*
X124057823Y-119547687D01*
X124041324Y-119578554D01*
X123976423Y-119792502D01*
X123954509Y-120015000D01*
X119281859Y-120015000D01*
X119534729Y-119846038D01*
X119846038Y-119534729D01*
X120090631Y-119168669D01*
X120259110Y-118761925D01*
X120345000Y-118330128D01*
X120345000Y-117889872D01*
X120259110Y-117458075D01*
X120090631Y-117051331D01*
X119846038Y-116685271D01*
X119534729Y-116373962D01*
X119168669Y-116129369D01*
X118761925Y-115960890D01*
X118330128Y-115875000D01*
X117889872Y-115875000D01*
X117458075Y-115960890D01*
X117051331Y-116129369D01*
X116685271Y-116373962D01*
X116373962Y-116685271D01*
X116129369Y-117051331D01*
X115960890Y-117458075D01*
X115875000Y-117889872D01*
X109880000Y-117889872D01*
X109880000Y-109880000D01*
X212700001Y-109880000D01*
X212700000Y-177140000D01*
G36*
X148417038Y-163637962D02*
G01*
X148551613Y-163748405D01*
X148705149Y-163830472D01*
X148871745Y-163881008D01*
X149044999Y-163898072D01*
X149511067Y-163898072D01*
X149441324Y-164028553D01*
X149376423Y-164242501D01*
X149354509Y-164465000D01*
X149360001Y-164520762D01*
X149360000Y-169680000D01*
X135120000Y-169680000D01*
X135120000Y-168529000D01*
X136377147Y-168529000D01*
X136380000Y-168529281D01*
X136382853Y-168529000D01*
X137922000Y-168529000D01*
X137946776Y-168526560D01*
X137970601Y-168519333D01*
X137992557Y-168507597D01*
X138011803Y-168491803D01*
X138027597Y-168472557D01*
X138039333Y-168450601D01*
X138046560Y-168426776D01*
X138049000Y-168402000D01*
X138049000Y-166862853D01*
X138049281Y-166860000D01*
X138049000Y-166857147D01*
X138049000Y-166830094D01*
X138130000Y-166838072D01*
X138144250Y-166835000D01*
X138303000Y-166676250D01*
X138303000Y-165227000D01*
X138283000Y-165227000D01*
X138283000Y-164973000D01*
X138303000Y-164973000D01*
X138303000Y-164953000D01*
X138557000Y-164953000D01*
X138557000Y-164973000D01*
X138577000Y-164973000D01*
X138577000Y-165227000D01*
X138557000Y-165227000D01*
X138557000Y-166676250D01*
X138715750Y-166835000D01*
X138730000Y-166838072D01*
X138854482Y-166825812D01*
X138928195Y-166803451D01*
X138960590Y-166864059D01*
X139043468Y-166965046D01*
X139043471Y-166965049D01*
X139071184Y-166998817D01*
X139104951Y-167026529D01*
X139678470Y-167600049D01*
X139706183Y-167633817D01*
X139739951Y-167661530D01*
X139739953Y-167661532D01*
X139840941Y-167744411D01*
X139994686Y-167826589D01*
X140161510Y-167877195D01*
X140291523Y-167890000D01*
X140291531Y-167890000D01*
X140335000Y-167894281D01*
X140378469Y-167890000D01*
X141741263Y-167890000D01*
X141797038Y-167957962D01*
X141931613Y-168068405D01*
X142085149Y-168150472D01*
X142251745Y-168201008D01*
X142424999Y-168218072D01*
X143325001Y-168218072D01*
X143498255Y-168201008D01*
X143664851Y-168150472D01*
X143818387Y-168068405D01*
X143952962Y-167957962D01*
X144008737Y-167890000D01*
X144281263Y-167890000D01*
X144337038Y-167957962D01*
X144471613Y-168068405D01*
X144625149Y-168150472D01*
X144791745Y-168201008D01*
X144964999Y-168218072D01*
X145865001Y-168218072D01*
X146038255Y-168201008D01*
X146204851Y-168150472D01*
X146358387Y-168068405D01*
X146492962Y-167957962D01*
X146603405Y-167823387D01*
X146674189Y-167690960D01*
X146743817Y-167633817D01*
X146771534Y-167600044D01*
X147770049Y-166601530D01*
X147803817Y-166573817D01*
X147855419Y-166510941D01*
X147914410Y-166439060D01*
X147914411Y-166439059D01*
X147996589Y-166285313D01*
X148047195Y-166118490D01*
X148060000Y-165988477D01*
X148060000Y-165988467D01*
X148064281Y-165945001D01*
X148060000Y-165901535D01*
X148060000Y-163790304D01*
X148138387Y-163748405D01*
X148272962Y-163637962D01*
X148345000Y-163550184D01*
X148417038Y-163637962D01*
X148417038Y-163637962D01*
G37*
X148417038Y-163637962D02*
X148551613Y-163748405D01*
X148705149Y-163830472D01*
X148871745Y-163881008D01*
X149044999Y-163898072D01*
X149511067Y-163898072D01*
X149441324Y-164028553D01*
X149376423Y-164242501D01*
X149354509Y-164465000D01*
X149360001Y-164520762D01*
X149360000Y-169680000D01*
X135120000Y-169680000D01*
X135120000Y-168529000D01*
X136377147Y-168529000D01*
X136380000Y-168529281D01*
X136382853Y-168529000D01*
X137922000Y-168529000D01*
X137946776Y-168526560D01*
X137970601Y-168519333D01*
X137992557Y-168507597D01*
X138011803Y-168491803D01*
X138027597Y-168472557D01*
X138039333Y-168450601D01*
X138046560Y-168426776D01*
X138049000Y-168402000D01*
X138049000Y-166862853D01*
X138049281Y-166860000D01*
X138049000Y-166857147D01*
X138049000Y-166830094D01*
X138130000Y-166838072D01*
X138144250Y-166835000D01*
X138303000Y-166676250D01*
X138303000Y-165227000D01*
X138283000Y-165227000D01*
X138283000Y-164973000D01*
X138303000Y-164973000D01*
X138303000Y-164953000D01*
X138557000Y-164953000D01*
X138557000Y-164973000D01*
X138577000Y-164973000D01*
X138577000Y-165227000D01*
X138557000Y-165227000D01*
X138557000Y-166676250D01*
X138715750Y-166835000D01*
X138730000Y-166838072D01*
X138854482Y-166825812D01*
X138928195Y-166803451D01*
X138960590Y-166864059D01*
X139043468Y-166965046D01*
X139043471Y-166965049D01*
X139071184Y-166998817D01*
X139104951Y-167026529D01*
X139678470Y-167600049D01*
X139706183Y-167633817D01*
X139739951Y-167661530D01*
X139739953Y-167661532D01*
X139840941Y-167744411D01*
X139994686Y-167826589D01*
X140161510Y-167877195D01*
X140291523Y-167890000D01*
X140291531Y-167890000D01*
X140335000Y-167894281D01*
X140378469Y-167890000D01*
X141741263Y-167890000D01*
X141797038Y-167957962D01*
X141931613Y-168068405D01*
X142085149Y-168150472D01*
X142251745Y-168201008D01*
X142424999Y-168218072D01*
X143325001Y-168218072D01*
X143498255Y-168201008D01*
X143664851Y-168150472D01*
X143818387Y-168068405D01*
X143952962Y-167957962D01*
X144008737Y-167890000D01*
X144281263Y-167890000D01*
X144337038Y-167957962D01*
X144471613Y-168068405D01*
X144625149Y-168150472D01*
X144791745Y-168201008D01*
X144964999Y-168218072D01*
X145865001Y-168218072D01*
X146038255Y-168201008D01*
X146204851Y-168150472D01*
X146358387Y-168068405D01*
X146492962Y-167957962D01*
X146603405Y-167823387D01*
X146674189Y-167690960D01*
X146743817Y-167633817D01*
X146771534Y-167600044D01*
X147770049Y-166601530D01*
X147803817Y-166573817D01*
X147855419Y-166510941D01*
X147914410Y-166439060D01*
X147914411Y-166439059D01*
X147996589Y-166285313D01*
X148047195Y-166118490D01*
X148060000Y-165988477D01*
X148060000Y-165988467D01*
X148064281Y-165945001D01*
X148060000Y-165901535D01*
X148060000Y-163790304D01*
X148138387Y-163748405D01*
X148272962Y-163637962D01*
X148345000Y-163550184D01*
X148417038Y-163637962D01*
G36*
X158577038Y-144587962D02*
G01*
X158711613Y-144698405D01*
X158865149Y-144780472D01*
X159031745Y-144831008D01*
X159204999Y-144848072D01*
X159671067Y-144848072D01*
X159601324Y-144978553D01*
X159536423Y-145192501D01*
X159514509Y-145415000D01*
X159520001Y-145470762D01*
X159520000Y-150630000D01*
X145280000Y-150630000D01*
X145280000Y-149479000D01*
X146537147Y-149479000D01*
X146540000Y-149479281D01*
X146542853Y-149479000D01*
X148082000Y-149479000D01*
X148106776Y-149476560D01*
X148130601Y-149469333D01*
X148152557Y-149457597D01*
X148171803Y-149441803D01*
X148187597Y-149422557D01*
X148199333Y-149400601D01*
X148206560Y-149376776D01*
X148209000Y-149352000D01*
X148209000Y-147940094D01*
X148290000Y-147948072D01*
X148304250Y-147945000D01*
X148463000Y-147786250D01*
X148463000Y-146337000D01*
X148443000Y-146337000D01*
X148443000Y-146083000D01*
X148463000Y-146083000D01*
X148463000Y-146063000D01*
X148717000Y-146063000D01*
X148717000Y-146083000D01*
X148737000Y-146083000D01*
X148737000Y-146337000D01*
X148717000Y-146337000D01*
X148717000Y-147786250D01*
X148875750Y-147945000D01*
X148890000Y-147948072D01*
X149014482Y-147935812D01*
X149134180Y-147899502D01*
X149173474Y-147878498D01*
X149203468Y-147915046D01*
X149203471Y-147915049D01*
X149231184Y-147948817D01*
X149264951Y-147976529D01*
X149838470Y-148550049D01*
X149866183Y-148583817D01*
X149899951Y-148611530D01*
X149899953Y-148611532D01*
X150000941Y-148694411D01*
X150154686Y-148776589D01*
X150321510Y-148827195D01*
X150451523Y-148840000D01*
X150451531Y-148840000D01*
X150495000Y-148844281D01*
X150538469Y-148840000D01*
X151809507Y-148840000D01*
X151846595Y-148909387D01*
X151957038Y-149043962D01*
X152091613Y-149154405D01*
X152245149Y-149236472D01*
X152411745Y-149287008D01*
X152584999Y-149304072D01*
X153485001Y-149304072D01*
X153658255Y-149287008D01*
X153824851Y-149236472D01*
X153978387Y-149154405D01*
X154112962Y-149043962D01*
X154223405Y-148909387D01*
X154260493Y-148840000D01*
X154344696Y-148840000D01*
X154386595Y-148918387D01*
X154497038Y-149052962D01*
X154631613Y-149163405D01*
X154785149Y-149245472D01*
X154951745Y-149296008D01*
X155124999Y-149313072D01*
X156025001Y-149313072D01*
X156198255Y-149296008D01*
X156364851Y-149245472D01*
X156518387Y-149163405D01*
X156652962Y-149052962D01*
X156763405Y-148918387D01*
X156845472Y-148764851D01*
X156896008Y-148598255D01*
X156896868Y-148589520D01*
X156903817Y-148583817D01*
X156931534Y-148550044D01*
X157930049Y-147551530D01*
X157963817Y-147523817D01*
X158012715Y-147464236D01*
X158057387Y-147409803D01*
X158074411Y-147389059D01*
X158156589Y-147235313D01*
X158207195Y-147068490D01*
X158220000Y-146938477D01*
X158220000Y-146938467D01*
X158224281Y-146895001D01*
X158220000Y-146851535D01*
X158220000Y-144740304D01*
X158298387Y-144698405D01*
X158432962Y-144587962D01*
X158505000Y-144500184D01*
X158577038Y-144587962D01*
X158577038Y-144587962D01*
G37*
X158577038Y-144587962D02*
X158711613Y-144698405D01*
X158865149Y-144780472D01*
X159031745Y-144831008D01*
X159204999Y-144848072D01*
X159671067Y-144848072D01*
X159601324Y-144978553D01*
X159536423Y-145192501D01*
X159514509Y-145415000D01*
X159520001Y-145470762D01*
X159520000Y-150630000D01*
X145280000Y-150630000D01*
X145280000Y-149479000D01*
X146537147Y-149479000D01*
X146540000Y-149479281D01*
X146542853Y-149479000D01*
X148082000Y-149479000D01*
X148106776Y-149476560D01*
X148130601Y-149469333D01*
X148152557Y-149457597D01*
X148171803Y-149441803D01*
X148187597Y-149422557D01*
X148199333Y-149400601D01*
X148206560Y-149376776D01*
X148209000Y-149352000D01*
X148209000Y-147940094D01*
X148290000Y-147948072D01*
X148304250Y-147945000D01*
X148463000Y-147786250D01*
X148463000Y-146337000D01*
X148443000Y-146337000D01*
X148443000Y-146083000D01*
X148463000Y-146083000D01*
X148463000Y-146063000D01*
X148717000Y-146063000D01*
X148717000Y-146083000D01*
X148737000Y-146083000D01*
X148737000Y-146337000D01*
X148717000Y-146337000D01*
X148717000Y-147786250D01*
X148875750Y-147945000D01*
X148890000Y-147948072D01*
X149014482Y-147935812D01*
X149134180Y-147899502D01*
X149173474Y-147878498D01*
X149203468Y-147915046D01*
X149203471Y-147915049D01*
X149231184Y-147948817D01*
X149264951Y-147976529D01*
X149838470Y-148550049D01*
X149866183Y-148583817D01*
X149899951Y-148611530D01*
X149899953Y-148611532D01*
X150000941Y-148694411D01*
X150154686Y-148776589D01*
X150321510Y-148827195D01*
X150451523Y-148840000D01*
X150451531Y-148840000D01*
X150495000Y-148844281D01*
X150538469Y-148840000D01*
X151809507Y-148840000D01*
X151846595Y-148909387D01*
X151957038Y-149043962D01*
X152091613Y-149154405D01*
X152245149Y-149236472D01*
X152411745Y-149287008D01*
X152584999Y-149304072D01*
X153485001Y-149304072D01*
X153658255Y-149287008D01*
X153824851Y-149236472D01*
X153978387Y-149154405D01*
X154112962Y-149043962D01*
X154223405Y-148909387D01*
X154260493Y-148840000D01*
X154344696Y-148840000D01*
X154386595Y-148918387D01*
X154497038Y-149052962D01*
X154631613Y-149163405D01*
X154785149Y-149245472D01*
X154951745Y-149296008D01*
X155124999Y-149313072D01*
X156025001Y-149313072D01*
X156198255Y-149296008D01*
X156364851Y-149245472D01*
X156518387Y-149163405D01*
X156652962Y-149052962D01*
X156763405Y-148918387D01*
X156845472Y-148764851D01*
X156896008Y-148598255D01*
X156896868Y-148589520D01*
X156903817Y-148583817D01*
X156931534Y-148550044D01*
X157930049Y-147551530D01*
X157963817Y-147523817D01*
X158012715Y-147464236D01*
X158057387Y-147409803D01*
X158074411Y-147389059D01*
X158156589Y-147235313D01*
X158207195Y-147068490D01*
X158220000Y-146938477D01*
X158220000Y-146938467D01*
X158224281Y-146895001D01*
X158220000Y-146851535D01*
X158220000Y-144740304D01*
X158298387Y-144698405D01*
X158432962Y-144587962D01*
X158505000Y-144500184D01*
X158577038Y-144587962D01*
G36*
X145732038Y-125537962D02*
G01*
X145866613Y-125648405D01*
X146020149Y-125730472D01*
X146186745Y-125781008D01*
X146359999Y-125798072D01*
X146971068Y-125798072D01*
X146901325Y-125928553D01*
X146836424Y-126142501D01*
X146820001Y-126309248D01*
X146820000Y-131580000D01*
X132580000Y-131580000D01*
X132580000Y-130429000D01*
X133837147Y-130429000D01*
X133840000Y-130429281D01*
X133842853Y-130429000D01*
X135382000Y-130429000D01*
X135406776Y-130426560D01*
X135430601Y-130419333D01*
X135452557Y-130407597D01*
X135471803Y-130391803D01*
X135487597Y-130372557D01*
X135499333Y-130350601D01*
X135506560Y-130326776D01*
X135509000Y-130302000D01*
X135509000Y-128890094D01*
X135590000Y-128898072D01*
X135604250Y-128895000D01*
X135763000Y-128736250D01*
X135763000Y-127287000D01*
X135743000Y-127287000D01*
X135743000Y-127033000D01*
X135763000Y-127033000D01*
X135763000Y-127013000D01*
X136017000Y-127013000D01*
X136017000Y-127033000D01*
X136037000Y-127033000D01*
X136037000Y-127287000D01*
X136017000Y-127287000D01*
X136017000Y-128736250D01*
X136175750Y-128895000D01*
X136190000Y-128898072D01*
X136314482Y-128885812D01*
X136434180Y-128849502D01*
X136473474Y-128828498D01*
X136503468Y-128865046D01*
X136503471Y-128865049D01*
X136531184Y-128898817D01*
X136564951Y-128926529D01*
X137138470Y-129500049D01*
X137166183Y-129533817D01*
X137199951Y-129561530D01*
X137199953Y-129561532D01*
X137300941Y-129644411D01*
X137454686Y-129726589D01*
X137621510Y-129777195D01*
X137751523Y-129790000D01*
X137751531Y-129790000D01*
X137795000Y-129794281D01*
X137838469Y-129790000D01*
X139201263Y-129790000D01*
X139257038Y-129857962D01*
X139391613Y-129968405D01*
X139545149Y-130050472D01*
X139711745Y-130101008D01*
X139884999Y-130118072D01*
X140785001Y-130118072D01*
X140958255Y-130101008D01*
X141124851Y-130050472D01*
X141278387Y-129968405D01*
X141412962Y-129857962D01*
X141468737Y-129790000D01*
X141741263Y-129790000D01*
X141797038Y-129857962D01*
X141931613Y-129968405D01*
X142085149Y-130050472D01*
X142251745Y-130101008D01*
X142424999Y-130118072D01*
X143325001Y-130118072D01*
X143498255Y-130101008D01*
X143664851Y-130050472D01*
X143818387Y-129968405D01*
X143952962Y-129857962D01*
X144063405Y-129723387D01*
X144134189Y-129590960D01*
X144203817Y-129533817D01*
X144231534Y-129500044D01*
X145230049Y-128501530D01*
X145263817Y-128473817D01*
X145315419Y-128410941D01*
X145374410Y-128339060D01*
X145374411Y-128339059D01*
X145456589Y-128185313D01*
X145507195Y-128018490D01*
X145520000Y-127888477D01*
X145520000Y-127888467D01*
X145524281Y-127845001D01*
X145520000Y-127801535D01*
X145520000Y-125593737D01*
X145587962Y-125537962D01*
X145660000Y-125450184D01*
X145732038Y-125537962D01*
X145732038Y-125537962D01*
G37*
X145732038Y-125537962D02*
X145866613Y-125648405D01*
X146020149Y-125730472D01*
X146186745Y-125781008D01*
X146359999Y-125798072D01*
X146971068Y-125798072D01*
X146901325Y-125928553D01*
X146836424Y-126142501D01*
X146820001Y-126309248D01*
X146820000Y-131580000D01*
X132580000Y-131580000D01*
X132580000Y-130429000D01*
X133837147Y-130429000D01*
X133840000Y-130429281D01*
X133842853Y-130429000D01*
X135382000Y-130429000D01*
X135406776Y-130426560D01*
X135430601Y-130419333D01*
X135452557Y-130407597D01*
X135471803Y-130391803D01*
X135487597Y-130372557D01*
X135499333Y-130350601D01*
X135506560Y-130326776D01*
X135509000Y-130302000D01*
X135509000Y-128890094D01*
X135590000Y-128898072D01*
X135604250Y-128895000D01*
X135763000Y-128736250D01*
X135763000Y-127287000D01*
X135743000Y-127287000D01*
X135743000Y-127033000D01*
X135763000Y-127033000D01*
X135763000Y-127013000D01*
X136017000Y-127013000D01*
X136017000Y-127033000D01*
X136037000Y-127033000D01*
X136037000Y-127287000D01*
X136017000Y-127287000D01*
X136017000Y-128736250D01*
X136175750Y-128895000D01*
X136190000Y-128898072D01*
X136314482Y-128885812D01*
X136434180Y-128849502D01*
X136473474Y-128828498D01*
X136503468Y-128865046D01*
X136503471Y-128865049D01*
X136531184Y-128898817D01*
X136564951Y-128926529D01*
X137138470Y-129500049D01*
X137166183Y-129533817D01*
X137199951Y-129561530D01*
X137199953Y-129561532D01*
X137300941Y-129644411D01*
X137454686Y-129726589D01*
X137621510Y-129777195D01*
X137751523Y-129790000D01*
X137751531Y-129790000D01*
X137795000Y-129794281D01*
X137838469Y-129790000D01*
X139201263Y-129790000D01*
X139257038Y-129857962D01*
X139391613Y-129968405D01*
X139545149Y-130050472D01*
X139711745Y-130101008D01*
X139884999Y-130118072D01*
X140785001Y-130118072D01*
X140958255Y-130101008D01*
X141124851Y-130050472D01*
X141278387Y-129968405D01*
X141412962Y-129857962D01*
X141468737Y-129790000D01*
X141741263Y-129790000D01*
X141797038Y-129857962D01*
X141931613Y-129968405D01*
X142085149Y-130050472D01*
X142251745Y-130101008D01*
X142424999Y-130118072D01*
X143325001Y-130118072D01*
X143498255Y-130101008D01*
X143664851Y-130050472D01*
X143818387Y-129968405D01*
X143952962Y-129857962D01*
X144063405Y-129723387D01*
X144134189Y-129590960D01*
X144203817Y-129533817D01*
X144231534Y-129500044D01*
X145230049Y-128501530D01*
X145263817Y-128473817D01*
X145315419Y-128410941D01*
X145374410Y-128339060D01*
X145374411Y-128339059D01*
X145456589Y-128185313D01*
X145507195Y-128018490D01*
X145520000Y-127888477D01*
X145520000Y-127888467D01*
X145524281Y-127845001D01*
X145520000Y-127801535D01*
X145520000Y-125593737D01*
X145587962Y-125537962D01*
X145660000Y-125450184D01*
X145732038Y-125537962D01*
G36*
X156844998Y-119981748D02*
G01*
X156819322Y-119956072D01*
X156844998Y-119956072D01*
X156844998Y-119981748D01*
X156844998Y-119981748D01*
G37*
X156844998Y-119981748D02*
X156819322Y-119956072D01*
X156844998Y-119956072D01*
X156844998Y-119981748D01*
M02*
