G04 #@! TF.GenerationSoftware,KiCad,Pcbnew,(5.1.0-0)*
G04 #@! TF.CreationDate,2021-05-05T21:59:45-07:00*
G04 #@! TF.ProjectId,voltage_preamp,766f6c74-6167-4655-9f70-7265616d702e,rev?*
G04 #@! TF.SameCoordinates,Original*
G04 #@! TF.FileFunction,Copper,L4,Bot*
G04 #@! TF.FilePolarity,Positive*
%FSLAX46Y46*%
G04 Gerber Fmt 4.6, Leading zero omitted, Abs format (unit mm)*
G04 Created by KiCad (PCBNEW (5.1.0-0)) date 2021-05-05 21:59:45*
%MOMM*%
%LPD*%
G04 APERTURE LIST*
%ADD10O,1.700000X1.700000*%
%ADD11R,1.700000X1.700000*%
%ADD12O,2.500000X1.600000*%
%ADD13O,7.000000X3.500000*%
%ADD14C,0.800000*%
%ADD15C,1.000000*%
%ADD16C,0.250000*%
%ADD17C,0.500000*%
%ADD18C,0.254000*%
G04 APERTURE END LIST*
D10*
X161544000Y-121412000D03*
D11*
X161544000Y-118872000D03*
D12*
X195580000Y-140589000D03*
X195580000Y-143129000D03*
D13*
X200660000Y-148209000D03*
X200660000Y-138049000D03*
D11*
X130937000Y-162560000D03*
X140970000Y-143510000D03*
X128397000Y-124460000D03*
D12*
X127000000Y-146050000D03*
X127000000Y-143510000D03*
D13*
X121920000Y-138430000D03*
X121920000Y-148590000D03*
D10*
X157988000Y-131826000D03*
D11*
X157988000Y-129286000D03*
D10*
X153416000Y-131826000D03*
D11*
X153416000Y-129286000D03*
D14*
X136144000Y-129540000D03*
X148844000Y-148336000D03*
X138684000Y-167132000D03*
X146304000Y-127000000D03*
X146304000Y-130556000D03*
X159004000Y-145796000D03*
X159004000Y-149860000D03*
X148844000Y-164592000D03*
X148844000Y-169164000D03*
X111760000Y-111760000D03*
X114300000Y-111760000D03*
X116840000Y-111760000D03*
X119380000Y-111760000D03*
X121920000Y-111760000D03*
X124460000Y-111760000D03*
X127000000Y-111760000D03*
X129540000Y-111760000D03*
X132080000Y-111760000D03*
X134620000Y-111760000D03*
X137160000Y-111760000D03*
X139700000Y-111760000D03*
X142240000Y-111760000D03*
X144780000Y-111760000D03*
X147320000Y-111760000D03*
X149860000Y-111760000D03*
X152400000Y-111760000D03*
X154940000Y-111760000D03*
X157480000Y-111760000D03*
X160020000Y-111760000D03*
X162560000Y-111760000D03*
X165100000Y-111760000D03*
X167640000Y-111760000D03*
X170180000Y-111760000D03*
X172720000Y-111760000D03*
X175260000Y-111760000D03*
X177800000Y-111760000D03*
X180340000Y-111760000D03*
X182880000Y-111760000D03*
X185420000Y-111760000D03*
X187960000Y-111760000D03*
X190500000Y-111760000D03*
X193040000Y-111760000D03*
X195580000Y-111760000D03*
X198120000Y-111760000D03*
X200660000Y-111760000D03*
X203200000Y-111760000D03*
X205740000Y-111760000D03*
X208280000Y-111760000D03*
X210820000Y-111760000D03*
X210820000Y-114300000D03*
X210820000Y-116840000D03*
X210820000Y-119380000D03*
X210820000Y-121920000D03*
X210820000Y-124460000D03*
X210820000Y-127000000D03*
X210820000Y-129540000D03*
X210820000Y-132080000D03*
X210820000Y-134620000D03*
X210820000Y-137160000D03*
X210820000Y-139700000D03*
X210820000Y-142240000D03*
X210820000Y-144780000D03*
X210820000Y-147320000D03*
X210820000Y-149860000D03*
X210820000Y-152400000D03*
X210820000Y-154940000D03*
X210820000Y-157480000D03*
X210820000Y-160020000D03*
X210820000Y-162560000D03*
X210820000Y-165100000D03*
X210820000Y-167640000D03*
X210820000Y-170180000D03*
X210820000Y-172720000D03*
X210820000Y-175260000D03*
X208280000Y-175260000D03*
X205740000Y-175260000D03*
X203200000Y-175260000D03*
X200660000Y-175260000D03*
X198120000Y-175260000D03*
X195580000Y-175260000D03*
X193040000Y-175260000D03*
X190500000Y-175260000D03*
X187960000Y-175260000D03*
X185420000Y-175260000D03*
X182880000Y-175260000D03*
X180340000Y-175260000D03*
X177800000Y-175260000D03*
X175260000Y-175260000D03*
X172720000Y-175260000D03*
X170180000Y-175260000D03*
X167640000Y-175260000D03*
X165100000Y-175260000D03*
X162560000Y-175260000D03*
X160020000Y-175260000D03*
X157480000Y-175260000D03*
X154940000Y-175260000D03*
X152400000Y-175260000D03*
X149860000Y-175260000D03*
X147320000Y-175260000D03*
X144780000Y-175260000D03*
X142240000Y-175260000D03*
X139700000Y-175260000D03*
X137160000Y-175260000D03*
X134620000Y-175260000D03*
X132080000Y-175260000D03*
X129540000Y-175260000D03*
X127000000Y-175260000D03*
X124460000Y-175260000D03*
X121920000Y-175260000D03*
X119380000Y-175260000D03*
X116840000Y-175260000D03*
X114300000Y-175260000D03*
X111760000Y-175260000D03*
X111760000Y-172720000D03*
X111760000Y-170180000D03*
X111760000Y-167640000D03*
X111760000Y-165100000D03*
X111760000Y-162560000D03*
X111760000Y-160020000D03*
X111760000Y-157480000D03*
X111760000Y-154940000D03*
X111760000Y-152400000D03*
X111760000Y-149860000D03*
X111760000Y-147320000D03*
X111760000Y-144780000D03*
X111760000Y-142240000D03*
X111760000Y-139700000D03*
X111760000Y-137160000D03*
X111760000Y-134620000D03*
X111760000Y-132080000D03*
X111760000Y-129540000D03*
X111760000Y-127000000D03*
X111760000Y-124460000D03*
X111760000Y-121920000D03*
X111760000Y-119380000D03*
X111760000Y-116840000D03*
X111760000Y-114300000D03*
X116840000Y-121920000D03*
X116840000Y-127000000D03*
X116840000Y-132080000D03*
X116840000Y-137160000D03*
X116840000Y-142240000D03*
X116840000Y-147320000D03*
X116840000Y-152400000D03*
X116840000Y-157480000D03*
X116840000Y-162560000D03*
X121920000Y-162560000D03*
X121920000Y-157480000D03*
X121920000Y-152400000D03*
X121920000Y-167640000D03*
X121920000Y-142240000D03*
X121920000Y-132080000D03*
X121920000Y-127000000D03*
X121920000Y-121920000D03*
X121920000Y-116840000D03*
X121920000Y-171450000D03*
X127000000Y-171450000D03*
X132080000Y-171450000D03*
X152400000Y-171450000D03*
X157480000Y-171450000D03*
X152400000Y-167640000D03*
X157480000Y-167640000D03*
X127000000Y-152400000D03*
X127000000Y-137160000D03*
X127000000Y-132080000D03*
X127000000Y-116840000D03*
X132080000Y-137160000D03*
X132080000Y-142240000D03*
X132080000Y-147320000D03*
X132080000Y-152400000D03*
X149860000Y-116840000D03*
X149860000Y-121920000D03*
X195580000Y-137160000D03*
X195580000Y-132080000D03*
X195580000Y-127000000D03*
X195580000Y-121920000D03*
X200660000Y-116840000D03*
X205740000Y-132080000D03*
X205740000Y-127000000D03*
X205740000Y-121920000D03*
X205740000Y-137160000D03*
X205740000Y-142240000D03*
X205740000Y-147320000D03*
X205740000Y-152400000D03*
X205740000Y-157480000D03*
X205740000Y-162560000D03*
X200660000Y-162560000D03*
X200660000Y-157480000D03*
X200660000Y-152400000D03*
X200660000Y-167640000D03*
X200660000Y-171450000D03*
X152908000Y-156972000D03*
X162052000Y-156972000D03*
X153416000Y-137160000D03*
X143256000Y-156464000D03*
X140716000Y-118364000D03*
X151892000Y-122936000D03*
X159512000Y-126326000D03*
X136144000Y-119888000D03*
X148844000Y-139192000D03*
X138684000Y-157988000D03*
X156464000Y-165100000D03*
X152146000Y-115062000D03*
X152400000Y-126238000D03*
X160528000Y-163068000D03*
D15*
X160660010Y-145409990D02*
X160655000Y-145415000D01*
X150500010Y-164459990D02*
X150495000Y-164465000D01*
D16*
X157988000Y-165100000D02*
X156464000Y-163576000D01*
D17*
X153416000Y-137160000D02*
X142748000Y-147828000D01*
X159512000Y-125476000D02*
X162082001Y-122905999D01*
D18*
G36*
X212700000Y-177140000D02*
G01*
X109880000Y-177140000D01*
X109880000Y-168689872D01*
X115875000Y-168689872D01*
X115875000Y-169130128D01*
X115960890Y-169561925D01*
X116129369Y-169968669D01*
X116373962Y-170334729D01*
X116685271Y-170646038D01*
X117051331Y-170890631D01*
X117458075Y-171059110D01*
X117889872Y-171145000D01*
X118330128Y-171145000D01*
X118761925Y-171059110D01*
X119168669Y-170890631D01*
X119534729Y-170646038D01*
X119846038Y-170334729D01*
X120090631Y-169968669D01*
X120259110Y-169561925D01*
X120345000Y-169130128D01*
X120345000Y-168689872D01*
X120259110Y-168258075D01*
X120090631Y-167851331D01*
X119846038Y-167485271D01*
X119534729Y-167173962D01*
X119168669Y-166929369D01*
X118761925Y-166760890D01*
X118330128Y-166675000D01*
X117889872Y-166675000D01*
X117458075Y-166760890D01*
X117051331Y-166929369D01*
X116685271Y-167173962D01*
X116373962Y-167485271D01*
X116129369Y-167851331D01*
X115960890Y-168258075D01*
X115875000Y-168689872D01*
X109880000Y-168689872D01*
X109880000Y-164465000D01*
X149354509Y-164465000D01*
X149376423Y-164687498D01*
X149441324Y-164901446D01*
X149546717Y-165098622D01*
X149688552Y-165271448D01*
X149861378Y-165413283D01*
X150058554Y-165518676D01*
X150272502Y-165583577D01*
X150495000Y-165605491D01*
X150717498Y-165583577D01*
X150931446Y-165518676D01*
X151128622Y-165413283D01*
X151258143Y-165306988D01*
X151341998Y-165223133D01*
X151448293Y-165093612D01*
X151499365Y-164998061D01*
X155429000Y-164998061D01*
X155429000Y-165201939D01*
X155468774Y-165401898D01*
X155546795Y-165590256D01*
X155660063Y-165759774D01*
X155804226Y-165903937D01*
X155973744Y-166017205D01*
X156162102Y-166095226D01*
X156362061Y-166135000D01*
X156565939Y-166135000D01*
X156765898Y-166095226D01*
X156954256Y-166017205D01*
X157123774Y-165903937D01*
X157267937Y-165759774D01*
X157381205Y-165590256D01*
X157459226Y-165401898D01*
X157499000Y-165201939D01*
X157499000Y-164998061D01*
X157459226Y-164798102D01*
X157381205Y-164609744D01*
X157267937Y-164440226D01*
X157123774Y-164296063D01*
X156954256Y-164182795D01*
X156765898Y-164104774D01*
X156565939Y-164065000D01*
X156362061Y-164065000D01*
X156162102Y-164104774D01*
X155973744Y-164182795D01*
X155804226Y-164296063D01*
X155660063Y-164440226D01*
X155546795Y-164609744D01*
X155468774Y-164798102D01*
X155429000Y-164998061D01*
X151499365Y-164998061D01*
X151553685Y-164896436D01*
X151618587Y-164682489D01*
X151640500Y-164459991D01*
X151618587Y-164237492D01*
X151553685Y-164023544D01*
X151448293Y-163826368D01*
X151306458Y-163653542D01*
X151133632Y-163511707D01*
X150936456Y-163406315D01*
X150722508Y-163341413D01*
X150500009Y-163319500D01*
X150277511Y-163341413D01*
X150063564Y-163406315D01*
X149866388Y-163511707D01*
X149736867Y-163618002D01*
X149653012Y-163701857D01*
X149546717Y-163831378D01*
X149441324Y-164028554D01*
X149376423Y-164242502D01*
X149354509Y-164465000D01*
X109880000Y-164465000D01*
X109880000Y-161710000D01*
X129448928Y-161710000D01*
X129448928Y-163410000D01*
X129461188Y-163534482D01*
X129497498Y-163654180D01*
X129556463Y-163764494D01*
X129635815Y-163861185D01*
X129732506Y-163940537D01*
X129842820Y-163999502D01*
X129962518Y-164035812D01*
X130087000Y-164048072D01*
X131787000Y-164048072D01*
X131911482Y-164035812D01*
X132031180Y-163999502D01*
X132141494Y-163940537D01*
X132238185Y-163861185D01*
X132317537Y-163764494D01*
X132376502Y-163654180D01*
X132412812Y-163534482D01*
X132425072Y-163410000D01*
X132425072Y-162966061D01*
X159493000Y-162966061D01*
X159493000Y-163169939D01*
X159532774Y-163369898D01*
X159610795Y-163558256D01*
X159724063Y-163727774D01*
X159868226Y-163871937D01*
X160037744Y-163985205D01*
X160226102Y-164063226D01*
X160426061Y-164103000D01*
X160629939Y-164103000D01*
X160829898Y-164063226D01*
X161018256Y-163985205D01*
X161187774Y-163871937D01*
X161331937Y-163727774D01*
X161445205Y-163558256D01*
X161523226Y-163369898D01*
X161563000Y-163169939D01*
X161563000Y-162966061D01*
X161523226Y-162766102D01*
X161445205Y-162577744D01*
X161331937Y-162408226D01*
X161187774Y-162264063D01*
X161018256Y-162150795D01*
X160829898Y-162072774D01*
X160629939Y-162033000D01*
X160426061Y-162033000D01*
X160226102Y-162072774D01*
X160037744Y-162150795D01*
X159868226Y-162264063D01*
X159724063Y-162408226D01*
X159610795Y-162577744D01*
X159532774Y-162766102D01*
X159493000Y-162966061D01*
X132425072Y-162966061D01*
X132425072Y-161710000D01*
X132412812Y-161585518D01*
X132376502Y-161465820D01*
X132317537Y-161355506D01*
X132238185Y-161258815D01*
X132141494Y-161179463D01*
X132031180Y-161120498D01*
X131911482Y-161084188D01*
X131787000Y-161071928D01*
X130087000Y-161071928D01*
X129962518Y-161084188D01*
X129842820Y-161120498D01*
X129732506Y-161179463D01*
X129635815Y-161258815D01*
X129556463Y-161355506D01*
X129497498Y-161465820D01*
X129461188Y-161585518D01*
X129448928Y-161710000D01*
X109880000Y-161710000D01*
X109880000Y-157886061D01*
X137649000Y-157886061D01*
X137649000Y-158089939D01*
X137688774Y-158289898D01*
X137766795Y-158478256D01*
X137880063Y-158647774D01*
X138024226Y-158791937D01*
X138193744Y-158905205D01*
X138382102Y-158983226D01*
X138582061Y-159023000D01*
X138785939Y-159023000D01*
X138985898Y-158983226D01*
X139174256Y-158905205D01*
X139343774Y-158791937D01*
X139487937Y-158647774D01*
X139601205Y-158478256D01*
X139679226Y-158289898D01*
X139719000Y-158089939D01*
X139719000Y-157886061D01*
X139679226Y-157686102D01*
X139601205Y-157497744D01*
X139487937Y-157328226D01*
X139343774Y-157184063D01*
X139174256Y-157070795D01*
X138985898Y-156992774D01*
X138785939Y-156953000D01*
X138582061Y-156953000D01*
X138382102Y-156992774D01*
X138193744Y-157070795D01*
X138024226Y-157184063D01*
X137880063Y-157328226D01*
X137766795Y-157497744D01*
X137688774Y-157686102D01*
X137649000Y-157886061D01*
X109880000Y-157886061D01*
X109880000Y-156362061D01*
X142221000Y-156362061D01*
X142221000Y-156565939D01*
X142260774Y-156765898D01*
X142338795Y-156954256D01*
X142452063Y-157123774D01*
X142596226Y-157267937D01*
X142765744Y-157381205D01*
X142954102Y-157459226D01*
X143154061Y-157499000D01*
X143357939Y-157499000D01*
X143557898Y-157459226D01*
X143746256Y-157381205D01*
X143915774Y-157267937D01*
X144059937Y-157123774D01*
X144173205Y-156954256D01*
X144251226Y-156765898D01*
X144291000Y-156565939D01*
X144291000Y-156362061D01*
X144251226Y-156162102D01*
X144173205Y-155973744D01*
X144059937Y-155804226D01*
X143915774Y-155660063D01*
X143746256Y-155546795D01*
X143557898Y-155468774D01*
X143357939Y-155429000D01*
X143154061Y-155429000D01*
X142954102Y-155468774D01*
X142765744Y-155546795D01*
X142596226Y-155660063D01*
X142452063Y-155804226D01*
X142338795Y-155973744D01*
X142260774Y-156162102D01*
X142221000Y-156362061D01*
X109880000Y-156362061D01*
X109880000Y-148590000D01*
X117773461Y-148590000D01*
X117819510Y-149057542D01*
X117955887Y-149507116D01*
X118177351Y-149921446D01*
X118475391Y-150284609D01*
X118838554Y-150582649D01*
X119252884Y-150804113D01*
X119702458Y-150940490D01*
X120052843Y-150975000D01*
X123787157Y-150975000D01*
X124137542Y-150940490D01*
X124587116Y-150804113D01*
X125001446Y-150582649D01*
X125364609Y-150284609D01*
X125662649Y-149921446D01*
X125884113Y-149507116D01*
X126020490Y-149057542D01*
X126066539Y-148590000D01*
X126020490Y-148122458D01*
X125931167Y-147828000D01*
X141858719Y-147828000D01*
X141875805Y-148001490D01*
X141926412Y-148168313D01*
X142008590Y-148322059D01*
X142119183Y-148456817D01*
X142253941Y-148567410D01*
X142407687Y-148649588D01*
X142574510Y-148700195D01*
X142748000Y-148717281D01*
X142921490Y-148700195D01*
X143088313Y-148649588D01*
X143242059Y-148567410D01*
X143343046Y-148484532D01*
X146412578Y-145415000D01*
X159514509Y-145415000D01*
X159536423Y-145637498D01*
X159601324Y-145851446D01*
X159706717Y-146048622D01*
X159848552Y-146221448D01*
X160021378Y-146363283D01*
X160218554Y-146468676D01*
X160432502Y-146533577D01*
X160655000Y-146555491D01*
X160877498Y-146533577D01*
X161091446Y-146468676D01*
X161288622Y-146363283D01*
X161418143Y-146256988D01*
X161501998Y-146173133D01*
X161608293Y-146043612D01*
X161713685Y-145846436D01*
X161778587Y-145632489D01*
X161800500Y-145409991D01*
X161778587Y-145187492D01*
X161713685Y-144973544D01*
X161608293Y-144776368D01*
X161466458Y-144603542D01*
X161293632Y-144461707D01*
X161096456Y-144356315D01*
X160882508Y-144291413D01*
X160660009Y-144269500D01*
X160437511Y-144291413D01*
X160223564Y-144356315D01*
X160026388Y-144461707D01*
X159896867Y-144568002D01*
X159813012Y-144651857D01*
X159706717Y-144781378D01*
X159601324Y-144978554D01*
X159536423Y-145192502D01*
X159514509Y-145415000D01*
X146412578Y-145415000D01*
X153661044Y-138166535D01*
X153717898Y-138155226D01*
X153906256Y-138077205D01*
X154075774Y-137963937D01*
X154219937Y-137819774D01*
X154333205Y-137650256D01*
X154411226Y-137461898D01*
X154451000Y-137261939D01*
X154451000Y-137058061D01*
X154411226Y-136858102D01*
X154333205Y-136669744D01*
X154219937Y-136500226D01*
X154075774Y-136356063D01*
X153906256Y-136242795D01*
X153717898Y-136164774D01*
X153517939Y-136125000D01*
X153314061Y-136125000D01*
X153114102Y-136164774D01*
X152925744Y-136242795D01*
X152756226Y-136356063D01*
X152612063Y-136500226D01*
X152498795Y-136669744D01*
X152420774Y-136858102D01*
X152409465Y-136914956D01*
X149841387Y-139483034D01*
X149879000Y-139293939D01*
X149879000Y-139090061D01*
X149839226Y-138890102D01*
X149761205Y-138701744D01*
X149647937Y-138532226D01*
X149503774Y-138388063D01*
X149334256Y-138274795D01*
X149145898Y-138196774D01*
X148945939Y-138157000D01*
X148742061Y-138157000D01*
X148542102Y-138196774D01*
X148353744Y-138274795D01*
X148184226Y-138388063D01*
X148040063Y-138532226D01*
X147926795Y-138701744D01*
X147848774Y-138890102D01*
X147809000Y-139090061D01*
X147809000Y-139293939D01*
X147848774Y-139493898D01*
X147926795Y-139682256D01*
X148040063Y-139851774D01*
X148184226Y-139995937D01*
X148353744Y-140109205D01*
X148542102Y-140187226D01*
X148742061Y-140227000D01*
X148945939Y-140227000D01*
X149135034Y-140189387D01*
X142091468Y-147232954D01*
X142008590Y-147333941D01*
X141926412Y-147487687D01*
X141875805Y-147654510D01*
X141858719Y-147828000D01*
X125931167Y-147828000D01*
X125884113Y-147672884D01*
X125763375Y-147447000D01*
X126211871Y-147447000D01*
X126268691Y-147464236D01*
X126479508Y-147485000D01*
X127520492Y-147485000D01*
X127731309Y-147464236D01*
X127788129Y-147447000D01*
X129540000Y-147447000D01*
X129564776Y-147444560D01*
X129588601Y-147437333D01*
X129610557Y-147425597D01*
X129629803Y-147409803D01*
X129645597Y-147390557D01*
X129657333Y-147368601D01*
X129664560Y-147344776D01*
X129667000Y-147320000D01*
X129667000Y-142660000D01*
X139481928Y-142660000D01*
X139481928Y-144360000D01*
X139494188Y-144484482D01*
X139530498Y-144604180D01*
X139589463Y-144714494D01*
X139668815Y-144811185D01*
X139765506Y-144890537D01*
X139875820Y-144949502D01*
X139995518Y-144985812D01*
X140120000Y-144998072D01*
X141820000Y-144998072D01*
X141944482Y-144985812D01*
X142064180Y-144949502D01*
X142174494Y-144890537D01*
X142271185Y-144811185D01*
X142350537Y-144714494D01*
X142409502Y-144604180D01*
X142445812Y-144484482D01*
X142458072Y-144360000D01*
X142458072Y-142660000D01*
X142445812Y-142535518D01*
X142409502Y-142415820D01*
X142350537Y-142305506D01*
X142271185Y-142208815D01*
X142174494Y-142129463D01*
X142064180Y-142070498D01*
X141944482Y-142034188D01*
X141820000Y-142021928D01*
X140120000Y-142021928D01*
X139995518Y-142034188D01*
X139875820Y-142070498D01*
X139765506Y-142129463D01*
X139668815Y-142208815D01*
X139589463Y-142305506D01*
X139530498Y-142415820D01*
X139494188Y-142535518D01*
X139481928Y-142660000D01*
X129667000Y-142660000D01*
X129667000Y-140970000D01*
X129664560Y-140945224D01*
X129657333Y-140921399D01*
X129645597Y-140899443D01*
X129629803Y-140880197D01*
X129610557Y-140864403D01*
X129588601Y-140852667D01*
X129564776Y-140845440D01*
X129540000Y-140843000D01*
X124460000Y-140843000D01*
X124435224Y-140845440D01*
X124411399Y-140852667D01*
X124389443Y-140864403D01*
X124370197Y-140880197D01*
X124354403Y-140899443D01*
X124342667Y-140921399D01*
X124335440Y-140945224D01*
X124333000Y-140970000D01*
X124333000Y-146298802D01*
X124137542Y-146239510D01*
X123787157Y-146205000D01*
X120052843Y-146205000D01*
X119702458Y-146239510D01*
X119252884Y-146375887D01*
X118838554Y-146597351D01*
X118475391Y-146895391D01*
X118177351Y-147258554D01*
X117955887Y-147672884D01*
X117819510Y-148122458D01*
X117773461Y-148590000D01*
X109880000Y-148590000D01*
X109880000Y-138430000D01*
X117773461Y-138430000D01*
X117819510Y-138897542D01*
X117955887Y-139347116D01*
X118177351Y-139761446D01*
X118475391Y-140124609D01*
X118838554Y-140422649D01*
X119252884Y-140644113D01*
X119702458Y-140780490D01*
X120052843Y-140815000D01*
X123787157Y-140815000D01*
X124137542Y-140780490D01*
X124587116Y-140644113D01*
X125001446Y-140422649D01*
X125364609Y-140124609D01*
X125662649Y-139761446D01*
X125884113Y-139347116D01*
X126020490Y-138897542D01*
X126066539Y-138430000D01*
X126020490Y-137962458D01*
X125884113Y-137512884D01*
X125662649Y-137098554D01*
X125364609Y-136735391D01*
X125001446Y-136437351D01*
X124587116Y-136215887D01*
X124137542Y-136079510D01*
X123787157Y-136045000D01*
X120052843Y-136045000D01*
X119702458Y-136079510D01*
X119252884Y-136215887D01*
X118838554Y-136437351D01*
X118475391Y-136735391D01*
X118177351Y-137098554D01*
X117955887Y-137512884D01*
X117819510Y-137962458D01*
X117773461Y-138430000D01*
X109880000Y-138430000D01*
X109880000Y-132182890D01*
X151974524Y-132182890D01*
X152019175Y-132330099D01*
X152144359Y-132592920D01*
X152318412Y-132826269D01*
X152534645Y-133021178D01*
X152784748Y-133170157D01*
X153059109Y-133267481D01*
X153289000Y-133146814D01*
X153289000Y-131953000D01*
X153543000Y-131953000D01*
X153543000Y-133146814D01*
X153772891Y-133267481D01*
X154047252Y-133170157D01*
X154297355Y-133021178D01*
X154513588Y-132826269D01*
X154687641Y-132592920D01*
X154812825Y-132330099D01*
X154857476Y-132182890D01*
X156546524Y-132182890D01*
X156591175Y-132330099D01*
X156716359Y-132592920D01*
X156890412Y-132826269D01*
X157106645Y-133021178D01*
X157356748Y-133170157D01*
X157631109Y-133267481D01*
X157861000Y-133146814D01*
X157861000Y-131953000D01*
X158115000Y-131953000D01*
X158115000Y-133146814D01*
X158344891Y-133267481D01*
X158619252Y-133170157D01*
X158869355Y-133021178D01*
X159085588Y-132826269D01*
X159259641Y-132592920D01*
X159384825Y-132330099D01*
X159429476Y-132182890D01*
X159308155Y-131953000D01*
X158115000Y-131953000D01*
X157861000Y-131953000D01*
X156667845Y-131953000D01*
X156546524Y-132182890D01*
X154857476Y-132182890D01*
X154736155Y-131953000D01*
X153543000Y-131953000D01*
X153289000Y-131953000D01*
X152095845Y-131953000D01*
X151974524Y-132182890D01*
X109880000Y-132182890D01*
X109880000Y-128436000D01*
X151927928Y-128436000D01*
X151927928Y-130136000D01*
X151940188Y-130260482D01*
X151976498Y-130380180D01*
X152035463Y-130490494D01*
X152114815Y-130587185D01*
X152211506Y-130666537D01*
X152321820Y-130725502D01*
X152402466Y-130749966D01*
X152318412Y-130825731D01*
X152144359Y-131059080D01*
X152019175Y-131321901D01*
X151974524Y-131469110D01*
X152095845Y-131699000D01*
X153289000Y-131699000D01*
X153289000Y-131679000D01*
X153543000Y-131679000D01*
X153543000Y-131699000D01*
X154736155Y-131699000D01*
X154857476Y-131469110D01*
X154812825Y-131321901D01*
X154687641Y-131059080D01*
X154513588Y-130825731D01*
X154429534Y-130749966D01*
X154510180Y-130725502D01*
X154620494Y-130666537D01*
X154717185Y-130587185D01*
X154796537Y-130490494D01*
X154855502Y-130380180D01*
X154891812Y-130260482D01*
X154904072Y-130136000D01*
X154904072Y-128436000D01*
X156499928Y-128436000D01*
X156499928Y-130136000D01*
X156512188Y-130260482D01*
X156548498Y-130380180D01*
X156607463Y-130490494D01*
X156686815Y-130587185D01*
X156783506Y-130666537D01*
X156893820Y-130725502D01*
X156974466Y-130749966D01*
X156890412Y-130825731D01*
X156716359Y-131059080D01*
X156591175Y-131321901D01*
X156546524Y-131469110D01*
X156667845Y-131699000D01*
X157861000Y-131699000D01*
X157861000Y-131679000D01*
X158115000Y-131679000D01*
X158115000Y-131699000D01*
X159308155Y-131699000D01*
X159429476Y-131469110D01*
X159384825Y-131321901D01*
X159259641Y-131059080D01*
X159085588Y-130825731D01*
X159001534Y-130749966D01*
X159082180Y-130725502D01*
X159192494Y-130666537D01*
X159289185Y-130587185D01*
X159368537Y-130490494D01*
X159427502Y-130380180D01*
X159463812Y-130260482D01*
X159476072Y-130136000D01*
X159476072Y-128436000D01*
X159463812Y-128311518D01*
X159427502Y-128191820D01*
X159368537Y-128081506D01*
X159289185Y-127984815D01*
X159192494Y-127905463D01*
X159082180Y-127846498D01*
X158962482Y-127810188D01*
X158838000Y-127797928D01*
X157138000Y-127797928D01*
X157013518Y-127810188D01*
X156893820Y-127846498D01*
X156783506Y-127905463D01*
X156686815Y-127984815D01*
X156607463Y-128081506D01*
X156548498Y-128191820D01*
X156512188Y-128311518D01*
X156499928Y-128436000D01*
X154904072Y-128436000D01*
X154891812Y-128311518D01*
X154855502Y-128191820D01*
X154796537Y-128081506D01*
X154717185Y-127984815D01*
X154620494Y-127905463D01*
X154510180Y-127846498D01*
X154390482Y-127810188D01*
X154266000Y-127797928D01*
X152566000Y-127797928D01*
X152441518Y-127810188D01*
X152321820Y-127846498D01*
X152211506Y-127905463D01*
X152114815Y-127984815D01*
X152035463Y-128081506D01*
X151976498Y-128191820D01*
X151940188Y-128311518D01*
X151927928Y-128436000D01*
X109880000Y-128436000D01*
X109880000Y-126136061D01*
X151365000Y-126136061D01*
X151365000Y-126339939D01*
X151404774Y-126539898D01*
X151482795Y-126728256D01*
X151596063Y-126897774D01*
X151740226Y-127041937D01*
X151909744Y-127155205D01*
X152098102Y-127233226D01*
X152298061Y-127273000D01*
X152501939Y-127273000D01*
X152701898Y-127233226D01*
X152890256Y-127155205D01*
X153059774Y-127041937D01*
X153203937Y-126897774D01*
X153317205Y-126728256D01*
X153395226Y-126539898D01*
X153435000Y-126339939D01*
X153435000Y-126224061D01*
X158477000Y-126224061D01*
X158477000Y-126427939D01*
X158516774Y-126627898D01*
X158594795Y-126816256D01*
X158708063Y-126985774D01*
X158852226Y-127129937D01*
X159021744Y-127243205D01*
X159210102Y-127321226D01*
X159410061Y-127361000D01*
X159613939Y-127361000D01*
X159813898Y-127321226D01*
X160002256Y-127243205D01*
X160171774Y-127129937D01*
X160315937Y-126985774D01*
X160429205Y-126816256D01*
X160507226Y-126627898D01*
X160547000Y-126427939D01*
X160547000Y-126224061D01*
X160507226Y-126024102D01*
X160429205Y-125835744D01*
X160315937Y-125666226D01*
X160171774Y-125522063D01*
X160002256Y-125408795D01*
X159813898Y-125330774D01*
X159613939Y-125291000D01*
X159410061Y-125291000D01*
X159210102Y-125330774D01*
X159021744Y-125408795D01*
X158852226Y-125522063D01*
X158708063Y-125666226D01*
X158594795Y-125835744D01*
X158516774Y-126024102D01*
X158477000Y-126224061D01*
X153435000Y-126224061D01*
X153435000Y-126136061D01*
X153395226Y-125936102D01*
X153317205Y-125747744D01*
X153203937Y-125578226D01*
X153059774Y-125434063D01*
X152890256Y-125320795D01*
X152701898Y-125242774D01*
X152501939Y-125203000D01*
X152298061Y-125203000D01*
X152098102Y-125242774D01*
X151909744Y-125320795D01*
X151740226Y-125434063D01*
X151596063Y-125578226D01*
X151482795Y-125747744D01*
X151404774Y-125936102D01*
X151365000Y-126136061D01*
X109880000Y-126136061D01*
X109880000Y-123610000D01*
X126908928Y-123610000D01*
X126908928Y-125310000D01*
X126921188Y-125434482D01*
X126957498Y-125554180D01*
X127016463Y-125664494D01*
X127095815Y-125761185D01*
X127192506Y-125840537D01*
X127302820Y-125899502D01*
X127422518Y-125935812D01*
X127547000Y-125948072D01*
X129247000Y-125948072D01*
X129371482Y-125935812D01*
X129491180Y-125899502D01*
X129601494Y-125840537D01*
X129698185Y-125761185D01*
X129777537Y-125664494D01*
X129836502Y-125554180D01*
X129872812Y-125434482D01*
X129885072Y-125310000D01*
X129885072Y-123610000D01*
X129872812Y-123485518D01*
X129836502Y-123365820D01*
X129777537Y-123255506D01*
X129698185Y-123158815D01*
X129601494Y-123079463D01*
X129491180Y-123020498D01*
X129371482Y-122984188D01*
X129247000Y-122971928D01*
X127547000Y-122971928D01*
X127422518Y-122984188D01*
X127302820Y-123020498D01*
X127192506Y-123079463D01*
X127095815Y-123158815D01*
X127016463Y-123255506D01*
X126957498Y-123365820D01*
X126921188Y-123485518D01*
X126908928Y-123610000D01*
X109880000Y-123610000D01*
X109880000Y-122834061D01*
X150857000Y-122834061D01*
X150857000Y-123037939D01*
X150896774Y-123237898D01*
X150974795Y-123426256D01*
X151088063Y-123595774D01*
X151232226Y-123739937D01*
X151401744Y-123853205D01*
X151590102Y-123931226D01*
X151790061Y-123971000D01*
X151993939Y-123971000D01*
X152193898Y-123931226D01*
X152382256Y-123853205D01*
X152551774Y-123739937D01*
X152695937Y-123595774D01*
X152809205Y-123426256D01*
X152887226Y-123237898D01*
X152927000Y-123037939D01*
X152927000Y-122834061D01*
X152887226Y-122634102D01*
X152809205Y-122445744D01*
X152695937Y-122276226D01*
X152551774Y-122132063D01*
X152382256Y-122018795D01*
X152193898Y-121940774D01*
X151993939Y-121901000D01*
X151790061Y-121901000D01*
X151590102Y-121940774D01*
X151401744Y-122018795D01*
X151232226Y-122132063D01*
X151088063Y-122276226D01*
X150974795Y-122445744D01*
X150896774Y-122634102D01*
X150857000Y-122834061D01*
X109880000Y-122834061D01*
X109880000Y-121768890D01*
X160102524Y-121768890D01*
X160147175Y-121916099D01*
X160272359Y-122178920D01*
X160446412Y-122412269D01*
X160662645Y-122607178D01*
X160912748Y-122756157D01*
X161187109Y-122853481D01*
X161417000Y-122732814D01*
X161417000Y-121539000D01*
X161671000Y-121539000D01*
X161671000Y-122732814D01*
X161900891Y-122853481D01*
X162175252Y-122756157D01*
X162425355Y-122607178D01*
X162641588Y-122412269D01*
X162815641Y-122178920D01*
X162940825Y-121916099D01*
X162985476Y-121768890D01*
X162864155Y-121539000D01*
X161671000Y-121539000D01*
X161417000Y-121539000D01*
X160223845Y-121539000D01*
X160102524Y-121768890D01*
X109880000Y-121768890D01*
X109880000Y-117889872D01*
X115875000Y-117889872D01*
X115875000Y-118330128D01*
X115960890Y-118761925D01*
X116129369Y-119168669D01*
X116373962Y-119534729D01*
X116685271Y-119846038D01*
X117051331Y-120090631D01*
X117458075Y-120259110D01*
X117889872Y-120345000D01*
X118330128Y-120345000D01*
X118761925Y-120259110D01*
X119168669Y-120090631D01*
X119534729Y-119846038D01*
X119594706Y-119786061D01*
X135109000Y-119786061D01*
X135109000Y-119989939D01*
X135148774Y-120189898D01*
X135226795Y-120378256D01*
X135340063Y-120547774D01*
X135484226Y-120691937D01*
X135653744Y-120805205D01*
X135842102Y-120883226D01*
X136042061Y-120923000D01*
X136245939Y-120923000D01*
X136445898Y-120883226D01*
X136634256Y-120805205D01*
X136803774Y-120691937D01*
X136947937Y-120547774D01*
X137061205Y-120378256D01*
X137139226Y-120189898D01*
X137179000Y-119989939D01*
X137179000Y-119786061D01*
X137139226Y-119586102D01*
X137061205Y-119397744D01*
X136947937Y-119228226D01*
X136803774Y-119084063D01*
X136634256Y-118970795D01*
X136445898Y-118892774D01*
X136245939Y-118853000D01*
X136042061Y-118853000D01*
X135842102Y-118892774D01*
X135653744Y-118970795D01*
X135484226Y-119084063D01*
X135340063Y-119228226D01*
X135226795Y-119397744D01*
X135148774Y-119586102D01*
X135109000Y-119786061D01*
X119594706Y-119786061D01*
X119846038Y-119534729D01*
X120090631Y-119168669D01*
X120259110Y-118761925D01*
X120345000Y-118330128D01*
X120345000Y-118262061D01*
X139681000Y-118262061D01*
X139681000Y-118465939D01*
X139720774Y-118665898D01*
X139798795Y-118854256D01*
X139912063Y-119023774D01*
X140056226Y-119167937D01*
X140225744Y-119281205D01*
X140414102Y-119359226D01*
X140614061Y-119399000D01*
X140817939Y-119399000D01*
X141017898Y-119359226D01*
X141206256Y-119281205D01*
X141375774Y-119167937D01*
X141519937Y-119023774D01*
X141633205Y-118854256D01*
X141711226Y-118665898D01*
X141751000Y-118465939D01*
X141751000Y-118262061D01*
X141711226Y-118062102D01*
X141694616Y-118022000D01*
X160055928Y-118022000D01*
X160055928Y-119722000D01*
X160068188Y-119846482D01*
X160104498Y-119966180D01*
X160163463Y-120076494D01*
X160242815Y-120173185D01*
X160339506Y-120252537D01*
X160449820Y-120311502D01*
X160530466Y-120335966D01*
X160446412Y-120411731D01*
X160272359Y-120645080D01*
X160147175Y-120907901D01*
X160102524Y-121055110D01*
X160223845Y-121285000D01*
X161417000Y-121285000D01*
X161417000Y-121265000D01*
X161671000Y-121265000D01*
X161671000Y-121285000D01*
X162864155Y-121285000D01*
X162985476Y-121055110D01*
X162940825Y-120907901D01*
X162815641Y-120645080D01*
X162641588Y-120411731D01*
X162557534Y-120335966D01*
X162638180Y-120311502D01*
X162748494Y-120252537D01*
X162845185Y-120173185D01*
X162924537Y-120076494D01*
X162983502Y-119966180D01*
X163019812Y-119846482D01*
X163032072Y-119722000D01*
X163032072Y-118022000D01*
X163019812Y-117897518D01*
X162983502Y-117777820D01*
X162924537Y-117667506D01*
X162845185Y-117570815D01*
X162748494Y-117491463D01*
X162638180Y-117432498D01*
X162518482Y-117396188D01*
X162394000Y-117383928D01*
X160694000Y-117383928D01*
X160569518Y-117396188D01*
X160449820Y-117432498D01*
X160339506Y-117491463D01*
X160242815Y-117570815D01*
X160163463Y-117667506D01*
X160104498Y-117777820D01*
X160068188Y-117897518D01*
X160055928Y-118022000D01*
X141694616Y-118022000D01*
X141633205Y-117873744D01*
X141519937Y-117704226D01*
X141375774Y-117560063D01*
X141206256Y-117446795D01*
X141017898Y-117368774D01*
X140817939Y-117329000D01*
X140614061Y-117329000D01*
X140414102Y-117368774D01*
X140225744Y-117446795D01*
X140056226Y-117560063D01*
X139912063Y-117704226D01*
X139798795Y-117873744D01*
X139720774Y-118062102D01*
X139681000Y-118262061D01*
X120345000Y-118262061D01*
X120345000Y-117889872D01*
X120259110Y-117458075D01*
X120090631Y-117051331D01*
X119846038Y-116685271D01*
X119534729Y-116373962D01*
X119168669Y-116129369D01*
X118761925Y-115960890D01*
X118330128Y-115875000D01*
X117889872Y-115875000D01*
X117458075Y-115960890D01*
X117051331Y-116129369D01*
X116685271Y-116373962D01*
X116373962Y-116685271D01*
X116129369Y-117051331D01*
X115960890Y-117458075D01*
X115875000Y-117889872D01*
X109880000Y-117889872D01*
X109880000Y-114960061D01*
X151111000Y-114960061D01*
X151111000Y-115163939D01*
X151150774Y-115363898D01*
X151228795Y-115552256D01*
X151342063Y-115721774D01*
X151486226Y-115865937D01*
X151655744Y-115979205D01*
X151844102Y-116057226D01*
X152044061Y-116097000D01*
X152247939Y-116097000D01*
X152447898Y-116057226D01*
X152636256Y-115979205D01*
X152805774Y-115865937D01*
X152949937Y-115721774D01*
X153051348Y-115570000D01*
X163166807Y-115570000D01*
X163170001Y-115602430D01*
X163170000Y-171417581D01*
X163166807Y-171450000D01*
X163179550Y-171579383D01*
X163217290Y-171703793D01*
X163278575Y-171818450D01*
X163361052Y-171918948D01*
X163461550Y-172001425D01*
X163576207Y-172062710D01*
X163700617Y-172100450D01*
X163830000Y-172113193D01*
X163862419Y-172110000D01*
X193007581Y-172110000D01*
X193040000Y-172113193D01*
X193072419Y-172110000D01*
X193169383Y-172100450D01*
X193293793Y-172062710D01*
X193408450Y-172001425D01*
X193508948Y-171918948D01*
X193591425Y-171818450D01*
X193652710Y-171703793D01*
X193690450Y-171579383D01*
X193703193Y-171450000D01*
X193700000Y-171417581D01*
X193700000Y-168689872D01*
X202235000Y-168689872D01*
X202235000Y-169130128D01*
X202320890Y-169561925D01*
X202489369Y-169968669D01*
X202733962Y-170334729D01*
X203045271Y-170646038D01*
X203411331Y-170890631D01*
X203818075Y-171059110D01*
X204249872Y-171145000D01*
X204690128Y-171145000D01*
X205121925Y-171059110D01*
X205528669Y-170890631D01*
X205894729Y-170646038D01*
X206206038Y-170334729D01*
X206450631Y-169968669D01*
X206619110Y-169561925D01*
X206705000Y-169130128D01*
X206705000Y-168689872D01*
X206619110Y-168258075D01*
X206450631Y-167851331D01*
X206206038Y-167485271D01*
X205894729Y-167173962D01*
X205528669Y-166929369D01*
X205121925Y-166760890D01*
X204690128Y-166675000D01*
X204249872Y-166675000D01*
X203818075Y-166760890D01*
X203411331Y-166929369D01*
X203045271Y-167173962D01*
X202733962Y-167485271D01*
X202489369Y-167851331D01*
X202320890Y-168258075D01*
X202235000Y-168689872D01*
X193700000Y-168689872D01*
X193700000Y-148209000D01*
X196513461Y-148209000D01*
X196559510Y-148676542D01*
X196695887Y-149126116D01*
X196917351Y-149540446D01*
X197215391Y-149903609D01*
X197578554Y-150201649D01*
X197992884Y-150423113D01*
X198442458Y-150559490D01*
X198792843Y-150594000D01*
X202527157Y-150594000D01*
X202877542Y-150559490D01*
X203327116Y-150423113D01*
X203741446Y-150201649D01*
X204104609Y-149903609D01*
X204402649Y-149540446D01*
X204624113Y-149126116D01*
X204760490Y-148676542D01*
X204806539Y-148209000D01*
X204760490Y-147741458D01*
X204624113Y-147291884D01*
X204402649Y-146877554D01*
X204104609Y-146514391D01*
X203741446Y-146216351D01*
X203327116Y-145994887D01*
X202877542Y-145858510D01*
X202527157Y-145824000D01*
X198792843Y-145824000D01*
X198442458Y-145858510D01*
X197992884Y-145994887D01*
X197578554Y-146216351D01*
X197215391Y-146514391D01*
X196917351Y-146877554D01*
X196695887Y-147291884D01*
X196559510Y-147741458D01*
X196513461Y-148209000D01*
X193700000Y-148209000D01*
X193700000Y-143250257D01*
X193715764Y-143410309D01*
X193797818Y-143680808D01*
X193931068Y-143930101D01*
X194110392Y-144148608D01*
X194328899Y-144327932D01*
X194578192Y-144461182D01*
X194848691Y-144543236D01*
X195059508Y-144564000D01*
X196100492Y-144564000D01*
X196311309Y-144543236D01*
X196581808Y-144461182D01*
X196831101Y-144327932D01*
X197049608Y-144148608D01*
X197228932Y-143930101D01*
X197362182Y-143680808D01*
X197444236Y-143410309D01*
X197471943Y-143129000D01*
X197444236Y-142847691D01*
X197362182Y-142577192D01*
X197228932Y-142327899D01*
X197049608Y-142109392D01*
X196831101Y-141930068D01*
X196698142Y-141859000D01*
X196831101Y-141787932D01*
X197049608Y-141608608D01*
X197228932Y-141390101D01*
X197362182Y-141140808D01*
X197444236Y-140870309D01*
X197471943Y-140589000D01*
X197444236Y-140307691D01*
X197362182Y-140037192D01*
X197228932Y-139787899D01*
X197049608Y-139569392D01*
X196831101Y-139390068D01*
X196581808Y-139256818D01*
X196311309Y-139174764D01*
X196100492Y-139154000D01*
X195059508Y-139154000D01*
X194848691Y-139174764D01*
X194578192Y-139256818D01*
X194328899Y-139390068D01*
X194110392Y-139569392D01*
X193931068Y-139787899D01*
X193797818Y-140037192D01*
X193715764Y-140307691D01*
X193700000Y-140467743D01*
X193700000Y-138049000D01*
X196513461Y-138049000D01*
X196559510Y-138516542D01*
X196695887Y-138966116D01*
X196917351Y-139380446D01*
X197215391Y-139743609D01*
X197578554Y-140041649D01*
X197992884Y-140263113D01*
X198442458Y-140399490D01*
X198792843Y-140434000D01*
X202527157Y-140434000D01*
X202877542Y-140399490D01*
X203327116Y-140263113D01*
X203741446Y-140041649D01*
X204104609Y-139743609D01*
X204402649Y-139380446D01*
X204624113Y-138966116D01*
X204760490Y-138516542D01*
X204806539Y-138049000D01*
X204760490Y-137581458D01*
X204624113Y-137131884D01*
X204402649Y-136717554D01*
X204104609Y-136354391D01*
X203741446Y-136056351D01*
X203327116Y-135834887D01*
X202877542Y-135698510D01*
X202527157Y-135664000D01*
X198792843Y-135664000D01*
X198442458Y-135698510D01*
X197992884Y-135834887D01*
X197578554Y-136056351D01*
X197215391Y-136354391D01*
X196917351Y-136717554D01*
X196695887Y-137131884D01*
X196559510Y-137581458D01*
X196513461Y-138049000D01*
X193700000Y-138049000D01*
X193700000Y-117889872D01*
X202235000Y-117889872D01*
X202235000Y-118330128D01*
X202320890Y-118761925D01*
X202489369Y-119168669D01*
X202733962Y-119534729D01*
X203045271Y-119846038D01*
X203411331Y-120090631D01*
X203818075Y-120259110D01*
X204249872Y-120345000D01*
X204690128Y-120345000D01*
X205121925Y-120259110D01*
X205528669Y-120090631D01*
X205894729Y-119846038D01*
X206206038Y-119534729D01*
X206450631Y-119168669D01*
X206619110Y-118761925D01*
X206705000Y-118330128D01*
X206705000Y-117889872D01*
X206619110Y-117458075D01*
X206450631Y-117051331D01*
X206206038Y-116685271D01*
X205894729Y-116373962D01*
X205528669Y-116129369D01*
X205121925Y-115960890D01*
X204690128Y-115875000D01*
X204249872Y-115875000D01*
X203818075Y-115960890D01*
X203411331Y-116129369D01*
X203045271Y-116373962D01*
X202733962Y-116685271D01*
X202489369Y-117051331D01*
X202320890Y-117458075D01*
X202235000Y-117889872D01*
X193700000Y-117889872D01*
X193700000Y-115602419D01*
X193703193Y-115570000D01*
X193690450Y-115440617D01*
X193652710Y-115316207D01*
X193591425Y-115201550D01*
X193508948Y-115101052D01*
X193408450Y-115018575D01*
X193293793Y-114957290D01*
X193169383Y-114919550D01*
X193072419Y-114910000D01*
X193040000Y-114906807D01*
X193007581Y-114910000D01*
X163862419Y-114910000D01*
X163830000Y-114906807D01*
X163797581Y-114910000D01*
X163700617Y-114919550D01*
X163576207Y-114957290D01*
X163461550Y-115018575D01*
X163361052Y-115101052D01*
X163278575Y-115201550D01*
X163217290Y-115316207D01*
X163179550Y-115440617D01*
X163166807Y-115570000D01*
X153051348Y-115570000D01*
X153063205Y-115552256D01*
X153141226Y-115363898D01*
X153181000Y-115163939D01*
X153181000Y-114960061D01*
X153141226Y-114760102D01*
X153063205Y-114571744D01*
X152949937Y-114402226D01*
X152805774Y-114258063D01*
X152636256Y-114144795D01*
X152447898Y-114066774D01*
X152247939Y-114027000D01*
X152044061Y-114027000D01*
X151844102Y-114066774D01*
X151655744Y-114144795D01*
X151486226Y-114258063D01*
X151342063Y-114402226D01*
X151228795Y-114571744D01*
X151150774Y-114760102D01*
X151111000Y-114960061D01*
X109880000Y-114960061D01*
X109880000Y-109880000D01*
X212700001Y-109880000D01*
X212700000Y-177140000D01*
X212700000Y-177140000D01*
G37*
X212700000Y-177140000D02*
X109880000Y-177140000D01*
X109880000Y-168689872D01*
X115875000Y-168689872D01*
X115875000Y-169130128D01*
X115960890Y-169561925D01*
X116129369Y-169968669D01*
X116373962Y-170334729D01*
X116685271Y-170646038D01*
X117051331Y-170890631D01*
X117458075Y-171059110D01*
X117889872Y-171145000D01*
X118330128Y-171145000D01*
X118761925Y-171059110D01*
X119168669Y-170890631D01*
X119534729Y-170646038D01*
X119846038Y-170334729D01*
X120090631Y-169968669D01*
X120259110Y-169561925D01*
X120345000Y-169130128D01*
X120345000Y-168689872D01*
X120259110Y-168258075D01*
X120090631Y-167851331D01*
X119846038Y-167485271D01*
X119534729Y-167173962D01*
X119168669Y-166929369D01*
X118761925Y-166760890D01*
X118330128Y-166675000D01*
X117889872Y-166675000D01*
X117458075Y-166760890D01*
X117051331Y-166929369D01*
X116685271Y-167173962D01*
X116373962Y-167485271D01*
X116129369Y-167851331D01*
X115960890Y-168258075D01*
X115875000Y-168689872D01*
X109880000Y-168689872D01*
X109880000Y-164465000D01*
X149354509Y-164465000D01*
X149376423Y-164687498D01*
X149441324Y-164901446D01*
X149546717Y-165098622D01*
X149688552Y-165271448D01*
X149861378Y-165413283D01*
X150058554Y-165518676D01*
X150272502Y-165583577D01*
X150495000Y-165605491D01*
X150717498Y-165583577D01*
X150931446Y-165518676D01*
X151128622Y-165413283D01*
X151258143Y-165306988D01*
X151341998Y-165223133D01*
X151448293Y-165093612D01*
X151499365Y-164998061D01*
X155429000Y-164998061D01*
X155429000Y-165201939D01*
X155468774Y-165401898D01*
X155546795Y-165590256D01*
X155660063Y-165759774D01*
X155804226Y-165903937D01*
X155973744Y-166017205D01*
X156162102Y-166095226D01*
X156362061Y-166135000D01*
X156565939Y-166135000D01*
X156765898Y-166095226D01*
X156954256Y-166017205D01*
X157123774Y-165903937D01*
X157267937Y-165759774D01*
X157381205Y-165590256D01*
X157459226Y-165401898D01*
X157499000Y-165201939D01*
X157499000Y-164998061D01*
X157459226Y-164798102D01*
X157381205Y-164609744D01*
X157267937Y-164440226D01*
X157123774Y-164296063D01*
X156954256Y-164182795D01*
X156765898Y-164104774D01*
X156565939Y-164065000D01*
X156362061Y-164065000D01*
X156162102Y-164104774D01*
X155973744Y-164182795D01*
X155804226Y-164296063D01*
X155660063Y-164440226D01*
X155546795Y-164609744D01*
X155468774Y-164798102D01*
X155429000Y-164998061D01*
X151499365Y-164998061D01*
X151553685Y-164896436D01*
X151618587Y-164682489D01*
X151640500Y-164459991D01*
X151618587Y-164237492D01*
X151553685Y-164023544D01*
X151448293Y-163826368D01*
X151306458Y-163653542D01*
X151133632Y-163511707D01*
X150936456Y-163406315D01*
X150722508Y-163341413D01*
X150500009Y-163319500D01*
X150277511Y-163341413D01*
X150063564Y-163406315D01*
X149866388Y-163511707D01*
X149736867Y-163618002D01*
X149653012Y-163701857D01*
X149546717Y-163831378D01*
X149441324Y-164028554D01*
X149376423Y-164242502D01*
X149354509Y-164465000D01*
X109880000Y-164465000D01*
X109880000Y-161710000D01*
X129448928Y-161710000D01*
X129448928Y-163410000D01*
X129461188Y-163534482D01*
X129497498Y-163654180D01*
X129556463Y-163764494D01*
X129635815Y-163861185D01*
X129732506Y-163940537D01*
X129842820Y-163999502D01*
X129962518Y-164035812D01*
X130087000Y-164048072D01*
X131787000Y-164048072D01*
X131911482Y-164035812D01*
X132031180Y-163999502D01*
X132141494Y-163940537D01*
X132238185Y-163861185D01*
X132317537Y-163764494D01*
X132376502Y-163654180D01*
X132412812Y-163534482D01*
X132425072Y-163410000D01*
X132425072Y-162966061D01*
X159493000Y-162966061D01*
X159493000Y-163169939D01*
X159532774Y-163369898D01*
X159610795Y-163558256D01*
X159724063Y-163727774D01*
X159868226Y-163871937D01*
X160037744Y-163985205D01*
X160226102Y-164063226D01*
X160426061Y-164103000D01*
X160629939Y-164103000D01*
X160829898Y-164063226D01*
X161018256Y-163985205D01*
X161187774Y-163871937D01*
X161331937Y-163727774D01*
X161445205Y-163558256D01*
X161523226Y-163369898D01*
X161563000Y-163169939D01*
X161563000Y-162966061D01*
X161523226Y-162766102D01*
X161445205Y-162577744D01*
X161331937Y-162408226D01*
X161187774Y-162264063D01*
X161018256Y-162150795D01*
X160829898Y-162072774D01*
X160629939Y-162033000D01*
X160426061Y-162033000D01*
X160226102Y-162072774D01*
X160037744Y-162150795D01*
X159868226Y-162264063D01*
X159724063Y-162408226D01*
X159610795Y-162577744D01*
X159532774Y-162766102D01*
X159493000Y-162966061D01*
X132425072Y-162966061D01*
X132425072Y-161710000D01*
X132412812Y-161585518D01*
X132376502Y-161465820D01*
X132317537Y-161355506D01*
X132238185Y-161258815D01*
X132141494Y-161179463D01*
X132031180Y-161120498D01*
X131911482Y-161084188D01*
X131787000Y-161071928D01*
X130087000Y-161071928D01*
X129962518Y-161084188D01*
X129842820Y-161120498D01*
X129732506Y-161179463D01*
X129635815Y-161258815D01*
X129556463Y-161355506D01*
X129497498Y-161465820D01*
X129461188Y-161585518D01*
X129448928Y-161710000D01*
X109880000Y-161710000D01*
X109880000Y-157886061D01*
X137649000Y-157886061D01*
X137649000Y-158089939D01*
X137688774Y-158289898D01*
X137766795Y-158478256D01*
X137880063Y-158647774D01*
X138024226Y-158791937D01*
X138193744Y-158905205D01*
X138382102Y-158983226D01*
X138582061Y-159023000D01*
X138785939Y-159023000D01*
X138985898Y-158983226D01*
X139174256Y-158905205D01*
X139343774Y-158791937D01*
X139487937Y-158647774D01*
X139601205Y-158478256D01*
X139679226Y-158289898D01*
X139719000Y-158089939D01*
X139719000Y-157886061D01*
X139679226Y-157686102D01*
X139601205Y-157497744D01*
X139487937Y-157328226D01*
X139343774Y-157184063D01*
X139174256Y-157070795D01*
X138985898Y-156992774D01*
X138785939Y-156953000D01*
X138582061Y-156953000D01*
X138382102Y-156992774D01*
X138193744Y-157070795D01*
X138024226Y-157184063D01*
X137880063Y-157328226D01*
X137766795Y-157497744D01*
X137688774Y-157686102D01*
X137649000Y-157886061D01*
X109880000Y-157886061D01*
X109880000Y-156362061D01*
X142221000Y-156362061D01*
X142221000Y-156565939D01*
X142260774Y-156765898D01*
X142338795Y-156954256D01*
X142452063Y-157123774D01*
X142596226Y-157267937D01*
X142765744Y-157381205D01*
X142954102Y-157459226D01*
X143154061Y-157499000D01*
X143357939Y-157499000D01*
X143557898Y-157459226D01*
X143746256Y-157381205D01*
X143915774Y-157267937D01*
X144059937Y-157123774D01*
X144173205Y-156954256D01*
X144251226Y-156765898D01*
X144291000Y-156565939D01*
X144291000Y-156362061D01*
X144251226Y-156162102D01*
X144173205Y-155973744D01*
X144059937Y-155804226D01*
X143915774Y-155660063D01*
X143746256Y-155546795D01*
X143557898Y-155468774D01*
X143357939Y-155429000D01*
X143154061Y-155429000D01*
X142954102Y-155468774D01*
X142765744Y-155546795D01*
X142596226Y-155660063D01*
X142452063Y-155804226D01*
X142338795Y-155973744D01*
X142260774Y-156162102D01*
X142221000Y-156362061D01*
X109880000Y-156362061D01*
X109880000Y-148590000D01*
X117773461Y-148590000D01*
X117819510Y-149057542D01*
X117955887Y-149507116D01*
X118177351Y-149921446D01*
X118475391Y-150284609D01*
X118838554Y-150582649D01*
X119252884Y-150804113D01*
X119702458Y-150940490D01*
X120052843Y-150975000D01*
X123787157Y-150975000D01*
X124137542Y-150940490D01*
X124587116Y-150804113D01*
X125001446Y-150582649D01*
X125364609Y-150284609D01*
X125662649Y-149921446D01*
X125884113Y-149507116D01*
X126020490Y-149057542D01*
X126066539Y-148590000D01*
X126020490Y-148122458D01*
X125931167Y-147828000D01*
X141858719Y-147828000D01*
X141875805Y-148001490D01*
X141926412Y-148168313D01*
X142008590Y-148322059D01*
X142119183Y-148456817D01*
X142253941Y-148567410D01*
X142407687Y-148649588D01*
X142574510Y-148700195D01*
X142748000Y-148717281D01*
X142921490Y-148700195D01*
X143088313Y-148649588D01*
X143242059Y-148567410D01*
X143343046Y-148484532D01*
X146412578Y-145415000D01*
X159514509Y-145415000D01*
X159536423Y-145637498D01*
X159601324Y-145851446D01*
X159706717Y-146048622D01*
X159848552Y-146221448D01*
X160021378Y-146363283D01*
X160218554Y-146468676D01*
X160432502Y-146533577D01*
X160655000Y-146555491D01*
X160877498Y-146533577D01*
X161091446Y-146468676D01*
X161288622Y-146363283D01*
X161418143Y-146256988D01*
X161501998Y-146173133D01*
X161608293Y-146043612D01*
X161713685Y-145846436D01*
X161778587Y-145632489D01*
X161800500Y-145409991D01*
X161778587Y-145187492D01*
X161713685Y-144973544D01*
X161608293Y-144776368D01*
X161466458Y-144603542D01*
X161293632Y-144461707D01*
X161096456Y-144356315D01*
X160882508Y-144291413D01*
X160660009Y-144269500D01*
X160437511Y-144291413D01*
X160223564Y-144356315D01*
X160026388Y-144461707D01*
X159896867Y-144568002D01*
X159813012Y-144651857D01*
X159706717Y-144781378D01*
X159601324Y-144978554D01*
X159536423Y-145192502D01*
X159514509Y-145415000D01*
X146412578Y-145415000D01*
X153661044Y-138166535D01*
X153717898Y-138155226D01*
X153906256Y-138077205D01*
X154075774Y-137963937D01*
X154219937Y-137819774D01*
X154333205Y-137650256D01*
X154411226Y-137461898D01*
X154451000Y-137261939D01*
X154451000Y-137058061D01*
X154411226Y-136858102D01*
X154333205Y-136669744D01*
X154219937Y-136500226D01*
X154075774Y-136356063D01*
X153906256Y-136242795D01*
X153717898Y-136164774D01*
X153517939Y-136125000D01*
X153314061Y-136125000D01*
X153114102Y-136164774D01*
X152925744Y-136242795D01*
X152756226Y-136356063D01*
X152612063Y-136500226D01*
X152498795Y-136669744D01*
X152420774Y-136858102D01*
X152409465Y-136914956D01*
X149841387Y-139483034D01*
X149879000Y-139293939D01*
X149879000Y-139090061D01*
X149839226Y-138890102D01*
X149761205Y-138701744D01*
X149647937Y-138532226D01*
X149503774Y-138388063D01*
X149334256Y-138274795D01*
X149145898Y-138196774D01*
X148945939Y-138157000D01*
X148742061Y-138157000D01*
X148542102Y-138196774D01*
X148353744Y-138274795D01*
X148184226Y-138388063D01*
X148040063Y-138532226D01*
X147926795Y-138701744D01*
X147848774Y-138890102D01*
X147809000Y-139090061D01*
X147809000Y-139293939D01*
X147848774Y-139493898D01*
X147926795Y-139682256D01*
X148040063Y-139851774D01*
X148184226Y-139995937D01*
X148353744Y-140109205D01*
X148542102Y-140187226D01*
X148742061Y-140227000D01*
X148945939Y-140227000D01*
X149135034Y-140189387D01*
X142091468Y-147232954D01*
X142008590Y-147333941D01*
X141926412Y-147487687D01*
X141875805Y-147654510D01*
X141858719Y-147828000D01*
X125931167Y-147828000D01*
X125884113Y-147672884D01*
X125763375Y-147447000D01*
X126211871Y-147447000D01*
X126268691Y-147464236D01*
X126479508Y-147485000D01*
X127520492Y-147485000D01*
X127731309Y-147464236D01*
X127788129Y-147447000D01*
X129540000Y-147447000D01*
X129564776Y-147444560D01*
X129588601Y-147437333D01*
X129610557Y-147425597D01*
X129629803Y-147409803D01*
X129645597Y-147390557D01*
X129657333Y-147368601D01*
X129664560Y-147344776D01*
X129667000Y-147320000D01*
X129667000Y-142660000D01*
X139481928Y-142660000D01*
X139481928Y-144360000D01*
X139494188Y-144484482D01*
X139530498Y-144604180D01*
X139589463Y-144714494D01*
X139668815Y-144811185D01*
X139765506Y-144890537D01*
X139875820Y-144949502D01*
X139995518Y-144985812D01*
X140120000Y-144998072D01*
X141820000Y-144998072D01*
X141944482Y-144985812D01*
X142064180Y-144949502D01*
X142174494Y-144890537D01*
X142271185Y-144811185D01*
X142350537Y-144714494D01*
X142409502Y-144604180D01*
X142445812Y-144484482D01*
X142458072Y-144360000D01*
X142458072Y-142660000D01*
X142445812Y-142535518D01*
X142409502Y-142415820D01*
X142350537Y-142305506D01*
X142271185Y-142208815D01*
X142174494Y-142129463D01*
X142064180Y-142070498D01*
X141944482Y-142034188D01*
X141820000Y-142021928D01*
X140120000Y-142021928D01*
X139995518Y-142034188D01*
X139875820Y-142070498D01*
X139765506Y-142129463D01*
X139668815Y-142208815D01*
X139589463Y-142305506D01*
X139530498Y-142415820D01*
X139494188Y-142535518D01*
X139481928Y-142660000D01*
X129667000Y-142660000D01*
X129667000Y-140970000D01*
X129664560Y-140945224D01*
X129657333Y-140921399D01*
X129645597Y-140899443D01*
X129629803Y-140880197D01*
X129610557Y-140864403D01*
X129588601Y-140852667D01*
X129564776Y-140845440D01*
X129540000Y-140843000D01*
X124460000Y-140843000D01*
X124435224Y-140845440D01*
X124411399Y-140852667D01*
X124389443Y-140864403D01*
X124370197Y-140880197D01*
X124354403Y-140899443D01*
X124342667Y-140921399D01*
X124335440Y-140945224D01*
X124333000Y-140970000D01*
X124333000Y-146298802D01*
X124137542Y-146239510D01*
X123787157Y-146205000D01*
X120052843Y-146205000D01*
X119702458Y-146239510D01*
X119252884Y-146375887D01*
X118838554Y-146597351D01*
X118475391Y-146895391D01*
X118177351Y-147258554D01*
X117955887Y-147672884D01*
X117819510Y-148122458D01*
X117773461Y-148590000D01*
X109880000Y-148590000D01*
X109880000Y-138430000D01*
X117773461Y-138430000D01*
X117819510Y-138897542D01*
X117955887Y-139347116D01*
X118177351Y-139761446D01*
X118475391Y-140124609D01*
X118838554Y-140422649D01*
X119252884Y-140644113D01*
X119702458Y-140780490D01*
X120052843Y-140815000D01*
X123787157Y-140815000D01*
X124137542Y-140780490D01*
X124587116Y-140644113D01*
X125001446Y-140422649D01*
X125364609Y-140124609D01*
X125662649Y-139761446D01*
X125884113Y-139347116D01*
X126020490Y-138897542D01*
X126066539Y-138430000D01*
X126020490Y-137962458D01*
X125884113Y-137512884D01*
X125662649Y-137098554D01*
X125364609Y-136735391D01*
X125001446Y-136437351D01*
X124587116Y-136215887D01*
X124137542Y-136079510D01*
X123787157Y-136045000D01*
X120052843Y-136045000D01*
X119702458Y-136079510D01*
X119252884Y-136215887D01*
X118838554Y-136437351D01*
X118475391Y-136735391D01*
X118177351Y-137098554D01*
X117955887Y-137512884D01*
X117819510Y-137962458D01*
X117773461Y-138430000D01*
X109880000Y-138430000D01*
X109880000Y-132182890D01*
X151974524Y-132182890D01*
X152019175Y-132330099D01*
X152144359Y-132592920D01*
X152318412Y-132826269D01*
X152534645Y-133021178D01*
X152784748Y-133170157D01*
X153059109Y-133267481D01*
X153289000Y-133146814D01*
X153289000Y-131953000D01*
X153543000Y-131953000D01*
X153543000Y-133146814D01*
X153772891Y-133267481D01*
X154047252Y-133170157D01*
X154297355Y-133021178D01*
X154513588Y-132826269D01*
X154687641Y-132592920D01*
X154812825Y-132330099D01*
X154857476Y-132182890D01*
X156546524Y-132182890D01*
X156591175Y-132330099D01*
X156716359Y-132592920D01*
X156890412Y-132826269D01*
X157106645Y-133021178D01*
X157356748Y-133170157D01*
X157631109Y-133267481D01*
X157861000Y-133146814D01*
X157861000Y-131953000D01*
X158115000Y-131953000D01*
X158115000Y-133146814D01*
X158344891Y-133267481D01*
X158619252Y-133170157D01*
X158869355Y-133021178D01*
X159085588Y-132826269D01*
X159259641Y-132592920D01*
X159384825Y-132330099D01*
X159429476Y-132182890D01*
X159308155Y-131953000D01*
X158115000Y-131953000D01*
X157861000Y-131953000D01*
X156667845Y-131953000D01*
X156546524Y-132182890D01*
X154857476Y-132182890D01*
X154736155Y-131953000D01*
X153543000Y-131953000D01*
X153289000Y-131953000D01*
X152095845Y-131953000D01*
X151974524Y-132182890D01*
X109880000Y-132182890D01*
X109880000Y-128436000D01*
X151927928Y-128436000D01*
X151927928Y-130136000D01*
X151940188Y-130260482D01*
X151976498Y-130380180D01*
X152035463Y-130490494D01*
X152114815Y-130587185D01*
X152211506Y-130666537D01*
X152321820Y-130725502D01*
X152402466Y-130749966D01*
X152318412Y-130825731D01*
X152144359Y-131059080D01*
X152019175Y-131321901D01*
X151974524Y-131469110D01*
X152095845Y-131699000D01*
X153289000Y-131699000D01*
X153289000Y-131679000D01*
X153543000Y-131679000D01*
X153543000Y-131699000D01*
X154736155Y-131699000D01*
X154857476Y-131469110D01*
X154812825Y-131321901D01*
X154687641Y-131059080D01*
X154513588Y-130825731D01*
X154429534Y-130749966D01*
X154510180Y-130725502D01*
X154620494Y-130666537D01*
X154717185Y-130587185D01*
X154796537Y-130490494D01*
X154855502Y-130380180D01*
X154891812Y-130260482D01*
X154904072Y-130136000D01*
X154904072Y-128436000D01*
X156499928Y-128436000D01*
X156499928Y-130136000D01*
X156512188Y-130260482D01*
X156548498Y-130380180D01*
X156607463Y-130490494D01*
X156686815Y-130587185D01*
X156783506Y-130666537D01*
X156893820Y-130725502D01*
X156974466Y-130749966D01*
X156890412Y-130825731D01*
X156716359Y-131059080D01*
X156591175Y-131321901D01*
X156546524Y-131469110D01*
X156667845Y-131699000D01*
X157861000Y-131699000D01*
X157861000Y-131679000D01*
X158115000Y-131679000D01*
X158115000Y-131699000D01*
X159308155Y-131699000D01*
X159429476Y-131469110D01*
X159384825Y-131321901D01*
X159259641Y-131059080D01*
X159085588Y-130825731D01*
X159001534Y-130749966D01*
X159082180Y-130725502D01*
X159192494Y-130666537D01*
X159289185Y-130587185D01*
X159368537Y-130490494D01*
X159427502Y-130380180D01*
X159463812Y-130260482D01*
X159476072Y-130136000D01*
X159476072Y-128436000D01*
X159463812Y-128311518D01*
X159427502Y-128191820D01*
X159368537Y-128081506D01*
X159289185Y-127984815D01*
X159192494Y-127905463D01*
X159082180Y-127846498D01*
X158962482Y-127810188D01*
X158838000Y-127797928D01*
X157138000Y-127797928D01*
X157013518Y-127810188D01*
X156893820Y-127846498D01*
X156783506Y-127905463D01*
X156686815Y-127984815D01*
X156607463Y-128081506D01*
X156548498Y-128191820D01*
X156512188Y-128311518D01*
X156499928Y-128436000D01*
X154904072Y-128436000D01*
X154891812Y-128311518D01*
X154855502Y-128191820D01*
X154796537Y-128081506D01*
X154717185Y-127984815D01*
X154620494Y-127905463D01*
X154510180Y-127846498D01*
X154390482Y-127810188D01*
X154266000Y-127797928D01*
X152566000Y-127797928D01*
X152441518Y-127810188D01*
X152321820Y-127846498D01*
X152211506Y-127905463D01*
X152114815Y-127984815D01*
X152035463Y-128081506D01*
X151976498Y-128191820D01*
X151940188Y-128311518D01*
X151927928Y-128436000D01*
X109880000Y-128436000D01*
X109880000Y-126136061D01*
X151365000Y-126136061D01*
X151365000Y-126339939D01*
X151404774Y-126539898D01*
X151482795Y-126728256D01*
X151596063Y-126897774D01*
X151740226Y-127041937D01*
X151909744Y-127155205D01*
X152098102Y-127233226D01*
X152298061Y-127273000D01*
X152501939Y-127273000D01*
X152701898Y-127233226D01*
X152890256Y-127155205D01*
X153059774Y-127041937D01*
X153203937Y-126897774D01*
X153317205Y-126728256D01*
X153395226Y-126539898D01*
X153435000Y-126339939D01*
X153435000Y-126224061D01*
X158477000Y-126224061D01*
X158477000Y-126427939D01*
X158516774Y-126627898D01*
X158594795Y-126816256D01*
X158708063Y-126985774D01*
X158852226Y-127129937D01*
X159021744Y-127243205D01*
X159210102Y-127321226D01*
X159410061Y-127361000D01*
X159613939Y-127361000D01*
X159813898Y-127321226D01*
X160002256Y-127243205D01*
X160171774Y-127129937D01*
X160315937Y-126985774D01*
X160429205Y-126816256D01*
X160507226Y-126627898D01*
X160547000Y-126427939D01*
X160547000Y-126224061D01*
X160507226Y-126024102D01*
X160429205Y-125835744D01*
X160315937Y-125666226D01*
X160171774Y-125522063D01*
X160002256Y-125408795D01*
X159813898Y-125330774D01*
X159613939Y-125291000D01*
X159410061Y-125291000D01*
X159210102Y-125330774D01*
X159021744Y-125408795D01*
X158852226Y-125522063D01*
X158708063Y-125666226D01*
X158594795Y-125835744D01*
X158516774Y-126024102D01*
X158477000Y-126224061D01*
X153435000Y-126224061D01*
X153435000Y-126136061D01*
X153395226Y-125936102D01*
X153317205Y-125747744D01*
X153203937Y-125578226D01*
X153059774Y-125434063D01*
X152890256Y-125320795D01*
X152701898Y-125242774D01*
X152501939Y-125203000D01*
X152298061Y-125203000D01*
X152098102Y-125242774D01*
X151909744Y-125320795D01*
X151740226Y-125434063D01*
X151596063Y-125578226D01*
X151482795Y-125747744D01*
X151404774Y-125936102D01*
X151365000Y-126136061D01*
X109880000Y-126136061D01*
X109880000Y-123610000D01*
X126908928Y-123610000D01*
X126908928Y-125310000D01*
X126921188Y-125434482D01*
X126957498Y-125554180D01*
X127016463Y-125664494D01*
X127095815Y-125761185D01*
X127192506Y-125840537D01*
X127302820Y-125899502D01*
X127422518Y-125935812D01*
X127547000Y-125948072D01*
X129247000Y-125948072D01*
X129371482Y-125935812D01*
X129491180Y-125899502D01*
X129601494Y-125840537D01*
X129698185Y-125761185D01*
X129777537Y-125664494D01*
X129836502Y-125554180D01*
X129872812Y-125434482D01*
X129885072Y-125310000D01*
X129885072Y-123610000D01*
X129872812Y-123485518D01*
X129836502Y-123365820D01*
X129777537Y-123255506D01*
X129698185Y-123158815D01*
X129601494Y-123079463D01*
X129491180Y-123020498D01*
X129371482Y-122984188D01*
X129247000Y-122971928D01*
X127547000Y-122971928D01*
X127422518Y-122984188D01*
X127302820Y-123020498D01*
X127192506Y-123079463D01*
X127095815Y-123158815D01*
X127016463Y-123255506D01*
X126957498Y-123365820D01*
X126921188Y-123485518D01*
X126908928Y-123610000D01*
X109880000Y-123610000D01*
X109880000Y-122834061D01*
X150857000Y-122834061D01*
X150857000Y-123037939D01*
X150896774Y-123237898D01*
X150974795Y-123426256D01*
X151088063Y-123595774D01*
X151232226Y-123739937D01*
X151401744Y-123853205D01*
X151590102Y-123931226D01*
X151790061Y-123971000D01*
X151993939Y-123971000D01*
X152193898Y-123931226D01*
X152382256Y-123853205D01*
X152551774Y-123739937D01*
X152695937Y-123595774D01*
X152809205Y-123426256D01*
X152887226Y-123237898D01*
X152927000Y-123037939D01*
X152927000Y-122834061D01*
X152887226Y-122634102D01*
X152809205Y-122445744D01*
X152695937Y-122276226D01*
X152551774Y-122132063D01*
X152382256Y-122018795D01*
X152193898Y-121940774D01*
X151993939Y-121901000D01*
X151790061Y-121901000D01*
X151590102Y-121940774D01*
X151401744Y-122018795D01*
X151232226Y-122132063D01*
X151088063Y-122276226D01*
X150974795Y-122445744D01*
X150896774Y-122634102D01*
X150857000Y-122834061D01*
X109880000Y-122834061D01*
X109880000Y-121768890D01*
X160102524Y-121768890D01*
X160147175Y-121916099D01*
X160272359Y-122178920D01*
X160446412Y-122412269D01*
X160662645Y-122607178D01*
X160912748Y-122756157D01*
X161187109Y-122853481D01*
X161417000Y-122732814D01*
X161417000Y-121539000D01*
X161671000Y-121539000D01*
X161671000Y-122732814D01*
X161900891Y-122853481D01*
X162175252Y-122756157D01*
X162425355Y-122607178D01*
X162641588Y-122412269D01*
X162815641Y-122178920D01*
X162940825Y-121916099D01*
X162985476Y-121768890D01*
X162864155Y-121539000D01*
X161671000Y-121539000D01*
X161417000Y-121539000D01*
X160223845Y-121539000D01*
X160102524Y-121768890D01*
X109880000Y-121768890D01*
X109880000Y-117889872D01*
X115875000Y-117889872D01*
X115875000Y-118330128D01*
X115960890Y-118761925D01*
X116129369Y-119168669D01*
X116373962Y-119534729D01*
X116685271Y-119846038D01*
X117051331Y-120090631D01*
X117458075Y-120259110D01*
X117889872Y-120345000D01*
X118330128Y-120345000D01*
X118761925Y-120259110D01*
X119168669Y-120090631D01*
X119534729Y-119846038D01*
X119594706Y-119786061D01*
X135109000Y-119786061D01*
X135109000Y-119989939D01*
X135148774Y-120189898D01*
X135226795Y-120378256D01*
X135340063Y-120547774D01*
X135484226Y-120691937D01*
X135653744Y-120805205D01*
X135842102Y-120883226D01*
X136042061Y-120923000D01*
X136245939Y-120923000D01*
X136445898Y-120883226D01*
X136634256Y-120805205D01*
X136803774Y-120691937D01*
X136947937Y-120547774D01*
X137061205Y-120378256D01*
X137139226Y-120189898D01*
X137179000Y-119989939D01*
X137179000Y-119786061D01*
X137139226Y-119586102D01*
X137061205Y-119397744D01*
X136947937Y-119228226D01*
X136803774Y-119084063D01*
X136634256Y-118970795D01*
X136445898Y-118892774D01*
X136245939Y-118853000D01*
X136042061Y-118853000D01*
X135842102Y-118892774D01*
X135653744Y-118970795D01*
X135484226Y-119084063D01*
X135340063Y-119228226D01*
X135226795Y-119397744D01*
X135148774Y-119586102D01*
X135109000Y-119786061D01*
X119594706Y-119786061D01*
X119846038Y-119534729D01*
X120090631Y-119168669D01*
X120259110Y-118761925D01*
X120345000Y-118330128D01*
X120345000Y-118262061D01*
X139681000Y-118262061D01*
X139681000Y-118465939D01*
X139720774Y-118665898D01*
X139798795Y-118854256D01*
X139912063Y-119023774D01*
X140056226Y-119167937D01*
X140225744Y-119281205D01*
X140414102Y-119359226D01*
X140614061Y-119399000D01*
X140817939Y-119399000D01*
X141017898Y-119359226D01*
X141206256Y-119281205D01*
X141375774Y-119167937D01*
X141519937Y-119023774D01*
X141633205Y-118854256D01*
X141711226Y-118665898D01*
X141751000Y-118465939D01*
X141751000Y-118262061D01*
X141711226Y-118062102D01*
X141694616Y-118022000D01*
X160055928Y-118022000D01*
X160055928Y-119722000D01*
X160068188Y-119846482D01*
X160104498Y-119966180D01*
X160163463Y-120076494D01*
X160242815Y-120173185D01*
X160339506Y-120252537D01*
X160449820Y-120311502D01*
X160530466Y-120335966D01*
X160446412Y-120411731D01*
X160272359Y-120645080D01*
X160147175Y-120907901D01*
X160102524Y-121055110D01*
X160223845Y-121285000D01*
X161417000Y-121285000D01*
X161417000Y-121265000D01*
X161671000Y-121265000D01*
X161671000Y-121285000D01*
X162864155Y-121285000D01*
X162985476Y-121055110D01*
X162940825Y-120907901D01*
X162815641Y-120645080D01*
X162641588Y-120411731D01*
X162557534Y-120335966D01*
X162638180Y-120311502D01*
X162748494Y-120252537D01*
X162845185Y-120173185D01*
X162924537Y-120076494D01*
X162983502Y-119966180D01*
X163019812Y-119846482D01*
X163032072Y-119722000D01*
X163032072Y-118022000D01*
X163019812Y-117897518D01*
X162983502Y-117777820D01*
X162924537Y-117667506D01*
X162845185Y-117570815D01*
X162748494Y-117491463D01*
X162638180Y-117432498D01*
X162518482Y-117396188D01*
X162394000Y-117383928D01*
X160694000Y-117383928D01*
X160569518Y-117396188D01*
X160449820Y-117432498D01*
X160339506Y-117491463D01*
X160242815Y-117570815D01*
X160163463Y-117667506D01*
X160104498Y-117777820D01*
X160068188Y-117897518D01*
X160055928Y-118022000D01*
X141694616Y-118022000D01*
X141633205Y-117873744D01*
X141519937Y-117704226D01*
X141375774Y-117560063D01*
X141206256Y-117446795D01*
X141017898Y-117368774D01*
X140817939Y-117329000D01*
X140614061Y-117329000D01*
X140414102Y-117368774D01*
X140225744Y-117446795D01*
X140056226Y-117560063D01*
X139912063Y-117704226D01*
X139798795Y-117873744D01*
X139720774Y-118062102D01*
X139681000Y-118262061D01*
X120345000Y-118262061D01*
X120345000Y-117889872D01*
X120259110Y-117458075D01*
X120090631Y-117051331D01*
X119846038Y-116685271D01*
X119534729Y-116373962D01*
X119168669Y-116129369D01*
X118761925Y-115960890D01*
X118330128Y-115875000D01*
X117889872Y-115875000D01*
X117458075Y-115960890D01*
X117051331Y-116129369D01*
X116685271Y-116373962D01*
X116373962Y-116685271D01*
X116129369Y-117051331D01*
X115960890Y-117458075D01*
X115875000Y-117889872D01*
X109880000Y-117889872D01*
X109880000Y-114960061D01*
X151111000Y-114960061D01*
X151111000Y-115163939D01*
X151150774Y-115363898D01*
X151228795Y-115552256D01*
X151342063Y-115721774D01*
X151486226Y-115865937D01*
X151655744Y-115979205D01*
X151844102Y-116057226D01*
X152044061Y-116097000D01*
X152247939Y-116097000D01*
X152447898Y-116057226D01*
X152636256Y-115979205D01*
X152805774Y-115865937D01*
X152949937Y-115721774D01*
X153051348Y-115570000D01*
X163166807Y-115570000D01*
X163170001Y-115602430D01*
X163170000Y-171417581D01*
X163166807Y-171450000D01*
X163179550Y-171579383D01*
X163217290Y-171703793D01*
X163278575Y-171818450D01*
X163361052Y-171918948D01*
X163461550Y-172001425D01*
X163576207Y-172062710D01*
X163700617Y-172100450D01*
X163830000Y-172113193D01*
X163862419Y-172110000D01*
X193007581Y-172110000D01*
X193040000Y-172113193D01*
X193072419Y-172110000D01*
X193169383Y-172100450D01*
X193293793Y-172062710D01*
X193408450Y-172001425D01*
X193508948Y-171918948D01*
X193591425Y-171818450D01*
X193652710Y-171703793D01*
X193690450Y-171579383D01*
X193703193Y-171450000D01*
X193700000Y-171417581D01*
X193700000Y-168689872D01*
X202235000Y-168689872D01*
X202235000Y-169130128D01*
X202320890Y-169561925D01*
X202489369Y-169968669D01*
X202733962Y-170334729D01*
X203045271Y-170646038D01*
X203411331Y-170890631D01*
X203818075Y-171059110D01*
X204249872Y-171145000D01*
X204690128Y-171145000D01*
X205121925Y-171059110D01*
X205528669Y-170890631D01*
X205894729Y-170646038D01*
X206206038Y-170334729D01*
X206450631Y-169968669D01*
X206619110Y-169561925D01*
X206705000Y-169130128D01*
X206705000Y-168689872D01*
X206619110Y-168258075D01*
X206450631Y-167851331D01*
X206206038Y-167485271D01*
X205894729Y-167173962D01*
X205528669Y-166929369D01*
X205121925Y-166760890D01*
X204690128Y-166675000D01*
X204249872Y-166675000D01*
X203818075Y-166760890D01*
X203411331Y-166929369D01*
X203045271Y-167173962D01*
X202733962Y-167485271D01*
X202489369Y-167851331D01*
X202320890Y-168258075D01*
X202235000Y-168689872D01*
X193700000Y-168689872D01*
X193700000Y-148209000D01*
X196513461Y-148209000D01*
X196559510Y-148676542D01*
X196695887Y-149126116D01*
X196917351Y-149540446D01*
X197215391Y-149903609D01*
X197578554Y-150201649D01*
X197992884Y-150423113D01*
X198442458Y-150559490D01*
X198792843Y-150594000D01*
X202527157Y-150594000D01*
X202877542Y-150559490D01*
X203327116Y-150423113D01*
X203741446Y-150201649D01*
X204104609Y-149903609D01*
X204402649Y-149540446D01*
X204624113Y-149126116D01*
X204760490Y-148676542D01*
X204806539Y-148209000D01*
X204760490Y-147741458D01*
X204624113Y-147291884D01*
X204402649Y-146877554D01*
X204104609Y-146514391D01*
X203741446Y-146216351D01*
X203327116Y-145994887D01*
X202877542Y-145858510D01*
X202527157Y-145824000D01*
X198792843Y-145824000D01*
X198442458Y-145858510D01*
X197992884Y-145994887D01*
X197578554Y-146216351D01*
X197215391Y-146514391D01*
X196917351Y-146877554D01*
X196695887Y-147291884D01*
X196559510Y-147741458D01*
X196513461Y-148209000D01*
X193700000Y-148209000D01*
X193700000Y-143250257D01*
X193715764Y-143410309D01*
X193797818Y-143680808D01*
X193931068Y-143930101D01*
X194110392Y-144148608D01*
X194328899Y-144327932D01*
X194578192Y-144461182D01*
X194848691Y-144543236D01*
X195059508Y-144564000D01*
X196100492Y-144564000D01*
X196311309Y-144543236D01*
X196581808Y-144461182D01*
X196831101Y-144327932D01*
X197049608Y-144148608D01*
X197228932Y-143930101D01*
X197362182Y-143680808D01*
X197444236Y-143410309D01*
X197471943Y-143129000D01*
X197444236Y-142847691D01*
X197362182Y-142577192D01*
X197228932Y-142327899D01*
X197049608Y-142109392D01*
X196831101Y-141930068D01*
X196698142Y-141859000D01*
X196831101Y-141787932D01*
X197049608Y-141608608D01*
X197228932Y-141390101D01*
X197362182Y-141140808D01*
X197444236Y-140870309D01*
X197471943Y-140589000D01*
X197444236Y-140307691D01*
X197362182Y-140037192D01*
X197228932Y-139787899D01*
X197049608Y-139569392D01*
X196831101Y-139390068D01*
X196581808Y-139256818D01*
X196311309Y-139174764D01*
X196100492Y-139154000D01*
X195059508Y-139154000D01*
X194848691Y-139174764D01*
X194578192Y-139256818D01*
X194328899Y-139390068D01*
X194110392Y-139569392D01*
X193931068Y-139787899D01*
X193797818Y-140037192D01*
X193715764Y-140307691D01*
X193700000Y-140467743D01*
X193700000Y-138049000D01*
X196513461Y-138049000D01*
X196559510Y-138516542D01*
X196695887Y-138966116D01*
X196917351Y-139380446D01*
X197215391Y-139743609D01*
X197578554Y-140041649D01*
X197992884Y-140263113D01*
X198442458Y-140399490D01*
X198792843Y-140434000D01*
X202527157Y-140434000D01*
X202877542Y-140399490D01*
X203327116Y-140263113D01*
X203741446Y-140041649D01*
X204104609Y-139743609D01*
X204402649Y-139380446D01*
X204624113Y-138966116D01*
X204760490Y-138516542D01*
X204806539Y-138049000D01*
X204760490Y-137581458D01*
X204624113Y-137131884D01*
X204402649Y-136717554D01*
X204104609Y-136354391D01*
X203741446Y-136056351D01*
X203327116Y-135834887D01*
X202877542Y-135698510D01*
X202527157Y-135664000D01*
X198792843Y-135664000D01*
X198442458Y-135698510D01*
X197992884Y-135834887D01*
X197578554Y-136056351D01*
X197215391Y-136354391D01*
X196917351Y-136717554D01*
X196695887Y-137131884D01*
X196559510Y-137581458D01*
X196513461Y-138049000D01*
X193700000Y-138049000D01*
X193700000Y-117889872D01*
X202235000Y-117889872D01*
X202235000Y-118330128D01*
X202320890Y-118761925D01*
X202489369Y-119168669D01*
X202733962Y-119534729D01*
X203045271Y-119846038D01*
X203411331Y-120090631D01*
X203818075Y-120259110D01*
X204249872Y-120345000D01*
X204690128Y-120345000D01*
X205121925Y-120259110D01*
X205528669Y-120090631D01*
X205894729Y-119846038D01*
X206206038Y-119534729D01*
X206450631Y-119168669D01*
X206619110Y-118761925D01*
X206705000Y-118330128D01*
X206705000Y-117889872D01*
X206619110Y-117458075D01*
X206450631Y-117051331D01*
X206206038Y-116685271D01*
X205894729Y-116373962D01*
X205528669Y-116129369D01*
X205121925Y-115960890D01*
X204690128Y-115875000D01*
X204249872Y-115875000D01*
X203818075Y-115960890D01*
X203411331Y-116129369D01*
X203045271Y-116373962D01*
X202733962Y-116685271D01*
X202489369Y-117051331D01*
X202320890Y-117458075D01*
X202235000Y-117889872D01*
X193700000Y-117889872D01*
X193700000Y-115602419D01*
X193703193Y-115570000D01*
X193690450Y-115440617D01*
X193652710Y-115316207D01*
X193591425Y-115201550D01*
X193508948Y-115101052D01*
X193408450Y-115018575D01*
X193293793Y-114957290D01*
X193169383Y-114919550D01*
X193072419Y-114910000D01*
X193040000Y-114906807D01*
X193007581Y-114910000D01*
X163862419Y-114910000D01*
X163830000Y-114906807D01*
X163797581Y-114910000D01*
X163700617Y-114919550D01*
X163576207Y-114957290D01*
X163461550Y-115018575D01*
X163361052Y-115101052D01*
X163278575Y-115201550D01*
X163217290Y-115316207D01*
X163179550Y-115440617D01*
X163166807Y-115570000D01*
X153051348Y-115570000D01*
X153063205Y-115552256D01*
X153141226Y-115363898D01*
X153181000Y-115163939D01*
X153181000Y-114960061D01*
X153141226Y-114760102D01*
X153063205Y-114571744D01*
X152949937Y-114402226D01*
X152805774Y-114258063D01*
X152636256Y-114144795D01*
X152447898Y-114066774D01*
X152247939Y-114027000D01*
X152044061Y-114027000D01*
X151844102Y-114066774D01*
X151655744Y-114144795D01*
X151486226Y-114258063D01*
X151342063Y-114402226D01*
X151228795Y-114571744D01*
X151150774Y-114760102D01*
X151111000Y-114960061D01*
X109880000Y-114960061D01*
X109880000Y-109880000D01*
X212700001Y-109880000D01*
X212700000Y-177140000D01*
M02*
