M48
; DRILL file {KiCad (5.1.0-0)} date Wednesday, May 05, 2021 at 09:59:51 PM
; FORMAT={-:-/ absolute / inch / decimal}
; #@! TF.CreationDate,2021-05-05T21:59:51-07:00
; #@! TF.GenerationSoftware,Kicad,Pcbnew,(5.1.0-0)
FMAT,2
INCH
T1C0.0157
T2C0.0350
T3C0.0394
T4C0.0791
T5C0.1260
%
G90
G05
T1
X4.4Y-4.4
X4.4Y-4.5
X4.4Y-4.6
X4.4Y-4.7
X4.4Y-4.8
X4.4Y-4.9
X4.4Y-5.0
X4.4Y-5.1
X4.4Y-5.2
X4.4Y-5.3
X4.4Y-5.4
X4.4Y-5.5
X4.4Y-5.6
X4.4Y-5.7
X4.4Y-5.8
X4.4Y-5.9
X4.4Y-6.0
X4.4Y-6.1
X4.4Y-6.2
X4.4Y-6.3
X4.4Y-6.4
X4.4Y-6.5
X4.4Y-6.6
X4.4Y-6.7
X4.4Y-6.8
X4.4Y-6.9
X4.5Y-4.4
X4.5Y-6.9
X4.6Y-4.4
X4.6Y-4.8
X4.6Y-5.0
X4.6Y-5.2
X4.6Y-5.4
X4.6Y-5.6
X4.6Y-5.8
X4.6Y-6.0
X4.6Y-6.2
X4.6Y-6.4
X4.6Y-6.9
X4.7Y-4.4
X4.7Y-6.9
X4.8Y-4.4
X4.8Y-4.6
X4.8Y-4.8
X4.8Y-5.0
X4.8Y-5.2
X4.8Y-5.6
X4.8Y-6.0
X4.8Y-6.2
X4.8Y-6.4
X4.8Y-6.6
X4.8Y-6.75
X4.8Y-6.9
X4.9Y-4.4
X4.9Y-6.9
X5.0Y-4.4
X5.0Y-4.6
X5.0Y-5.2
X5.0Y-5.4
X5.0Y-6.0
X5.0Y-6.75
X5.0Y-6.9
X5.1Y-4.4
X5.1Y-6.9
X5.2Y-4.4
X5.2Y-5.4
X5.2Y-5.6
X5.2Y-5.8
X5.2Y-6.0
X5.2Y-6.75
X5.2Y-6.9
X5.3Y-4.4
X5.3Y-6.9
X5.36Y-4.72
X5.36Y-5.1
X5.4Y-4.4
X5.4Y-6.9
X5.46Y-6.22
X5.46Y-6.58
X5.5Y-4.4
X5.5Y-6.9
X5.54Y-4.66
X5.6Y-4.4
X5.6Y-6.9
X5.64Y-6.16
X5.7Y-4.4
X5.7Y-6.9
X5.76Y-5.0
X5.76Y-5.14
X5.8Y-4.4
X5.8Y-6.9
X5.86Y-5.48
X5.86Y-5.84
X5.86Y-6.48
X5.86Y-6.66
X5.9Y-4.4
X5.9Y-4.6
X5.9Y-4.8
X5.9Y-6.9
X5.98Y-4.84
X5.99Y-4.53
X6.0Y-4.4
X6.0Y-4.97
X6.0Y-6.6
X6.0Y-6.75
X6.0Y-6.9
X6.02Y-6.18
X6.04Y-5.4
X6.1Y-4.4
X6.1Y-6.9
X6.16Y-6.5
X6.2Y-4.4
X6.2Y-6.6
X6.2Y-6.75
X6.2Y-6.9
X6.26Y-5.74
X6.26Y-5.9
X6.28Y-4.9735
X6.3Y-4.4
X6.3Y-6.9
X6.32Y-6.42
X6.38Y-6.18
X6.4Y-4.4
X6.4Y-6.9
X6.5Y-4.4
X6.5Y-6.9
X6.6Y-4.4
X6.6Y-6.9
X6.7Y-4.4
X6.7Y-6.9
X6.8Y-4.4
X6.8Y-6.9
X6.9Y-4.4
X6.9Y-6.9
X7.0Y-4.4
X7.0Y-6.9
X7.1Y-4.4
X7.1Y-6.9
X7.2Y-4.4
X7.2Y-6.9
X7.3Y-4.4
X7.3Y-6.9
X7.4Y-4.4
X7.4Y-6.9
X7.5Y-4.4
X7.5Y-6.9
X7.6Y-4.4
X7.6Y-6.9
X7.7Y-4.4
X7.7Y-4.8
X7.7Y-5.0
X7.7Y-5.2
X7.7Y-5.4
X7.7Y-6.9
X7.8Y-4.4
X7.8Y-6.9
X7.9Y-4.4
X7.9Y-4.6
X7.9Y-6.0
X7.9Y-6.2
X7.9Y-6.4
X7.9Y-6.6
X7.9Y-6.75
X7.9Y-6.9
X8.0Y-4.4
X8.0Y-6.9
X8.1Y-4.4
X8.1Y-4.8
X8.1Y-5.0
X8.1Y-5.2
X8.1Y-5.4
X8.1Y-5.6
X8.1Y-5.8
X8.1Y-6.0
X8.1Y-6.2
X8.1Y-6.4
X8.1Y-6.9
X8.2Y-4.4
X8.2Y-6.9
X8.3Y-4.4
X8.3Y-4.5
X8.3Y-4.6
X8.3Y-4.7
X8.3Y-4.8
X8.3Y-4.9
X8.3Y-5.0
X8.3Y-5.1
X8.3Y-5.2
X8.3Y-5.3
X8.3Y-5.4
X8.3Y-5.5
X8.3Y-5.6
X8.3Y-5.7
X8.3Y-5.8
X8.3Y-5.9
X8.3Y-6.0
X8.3Y-6.1
X8.3Y-6.2
X8.3Y-6.3
X8.3Y-6.4
X8.3Y-6.5
X8.3Y-6.6
X8.3Y-6.7
X8.3Y-6.8
X8.3Y-6.9
T2
X7.7Y-5.535
X7.7Y-5.635
X5.0Y-5.65
X5.0Y-5.75
T3
X5.155Y-6.4
X6.36Y-4.68
X6.36Y-4.78
X5.55Y-5.65
X5.055Y-4.9
X6.04Y-5.09
X6.04Y-5.19
X6.22Y-5.09
X6.22Y-5.19
T4
X7.9Y-5.435
X7.9Y-5.835
X4.8Y-5.45
X4.8Y-5.85
T5
X4.65Y-6.65
X4.65Y-4.65
X8.05Y-6.65
X8.05Y-4.65
T0
M30
