G04 #@! TF.GenerationSoftware,KiCad,Pcbnew,(5.1.0-0)*
G04 #@! TF.CreationDate,2021-05-05T21:59:45-07:00*
G04 #@! TF.ProjectId,voltage_preamp,766f6c74-6167-4655-9f70-7265616d702e,rev?*
G04 #@! TF.SameCoordinates,Original*
G04 #@! TF.FileFunction,Soldermask,Top*
G04 #@! TF.FilePolarity,Negative*
%FSLAX46Y46*%
G04 Gerber Fmt 4.6, Leading zero omitted, Abs format (unit mm)*
G04 Created by KiCad (PCBNEW (5.1.0-0)) date 2021-05-05 21:59:45*
%MOMM*%
%LPD*%
G04 APERTURE LIST*
%ADD10C,0.100000*%
%ADD11C,5.000000*%
%ADD12C,1.000000*%
G04 APERTURE END LIST*
D10*
G36*
X129540000Y-147320000D02*
G01*
X124460000Y-147320000D01*
X124460000Y-140970000D01*
X129540000Y-140970000D01*
X129540000Y-147320000D01*
G37*
X129540000Y-147320000D02*
X124460000Y-147320000D01*
X124460000Y-140970000D01*
X129540000Y-140970000D01*
X129540000Y-147320000D01*
D11*
X111760000Y-111760000D02*
X210820000Y-111760000D01*
X111760000Y-175260000D02*
X111760000Y-111760000D01*
X210820000Y-175260000D02*
X111760000Y-175260000D01*
X210820000Y-111760000D02*
X210820000Y-175260000D01*
D12*
X150495000Y-154305000D02*
X150495000Y-160655000D01*
X133985000Y-154305000D02*
X150495000Y-154305000D01*
X150495000Y-164465000D02*
X150495000Y-170815000D01*
X150495000Y-170815000D02*
X133985000Y-170815000D01*
X133985000Y-154305000D02*
X133985000Y-156845000D01*
X133985000Y-168275000D02*
X133985000Y-170815000D01*
D10*
G36*
X137795000Y-168275000D02*
G01*
X127000000Y-168275000D01*
X127000000Y-156845000D01*
X137795000Y-156845000D01*
X137795000Y-168275000D01*
G37*
X137795000Y-168275000D02*
X127000000Y-168275000D01*
X127000000Y-156845000D01*
X137795000Y-156845000D01*
X137795000Y-168275000D01*
D12*
X160655000Y-135255000D02*
X160655000Y-141605000D01*
X144145000Y-135255000D02*
X160655000Y-135255000D01*
X160655000Y-145415000D02*
X160655000Y-151765000D01*
X160655000Y-151765000D02*
X144145000Y-151765000D01*
X144145000Y-135255000D02*
X144145000Y-137795000D01*
X144145000Y-149225000D02*
X144145000Y-151765000D01*
D10*
G36*
X147955000Y-149225000D02*
G01*
X137160000Y-149225000D01*
X137160000Y-137795000D01*
X147955000Y-137795000D01*
X147955000Y-149225000D01*
G37*
X147955000Y-149225000D02*
X137160000Y-149225000D01*
X137160000Y-137795000D01*
X147955000Y-137795000D01*
X147955000Y-149225000D01*
G36*
X135255000Y-130175000D02*
G01*
X124460000Y-130175000D01*
X124460000Y-118745000D01*
X135255000Y-118745000D01*
X135255000Y-130175000D01*
G37*
X135255000Y-130175000D02*
X124460000Y-130175000D01*
X124460000Y-118745000D01*
X135255000Y-118745000D01*
X135255000Y-130175000D01*
D12*
X131445000Y-130175000D02*
X131445000Y-132715000D01*
X147955000Y-132715000D02*
X131445000Y-132715000D01*
X147955000Y-126365000D02*
X147955000Y-132715000D01*
X147955000Y-116205000D02*
X147955000Y-122555000D01*
X131445000Y-116205000D02*
X131445000Y-118745000D01*
X131445000Y-116205000D02*
X147955000Y-116205000D01*
D10*
G36*
X204845256Y-167301298D02*
G01*
X204951579Y-167322447D01*
X205252042Y-167446903D01*
X205522451Y-167627585D01*
X205752415Y-167857549D01*
X205933097Y-168127958D01*
X206057553Y-168428421D01*
X206121000Y-168747391D01*
X206121000Y-169072609D01*
X206057553Y-169391579D01*
X205933097Y-169692042D01*
X205752415Y-169962451D01*
X205522451Y-170192415D01*
X205252042Y-170373097D01*
X204951579Y-170497553D01*
X204845256Y-170518702D01*
X204632611Y-170561000D01*
X204307389Y-170561000D01*
X204094744Y-170518702D01*
X203988421Y-170497553D01*
X203687958Y-170373097D01*
X203417549Y-170192415D01*
X203187585Y-169962451D01*
X203006903Y-169692042D01*
X202882447Y-169391579D01*
X202819000Y-169072609D01*
X202819000Y-168747391D01*
X202882447Y-168428421D01*
X203006903Y-168127958D01*
X203187585Y-167857549D01*
X203417549Y-167627585D01*
X203687958Y-167446903D01*
X203988421Y-167322447D01*
X204094744Y-167301298D01*
X204307389Y-167259000D01*
X204632611Y-167259000D01*
X204845256Y-167301298D01*
X204845256Y-167301298D01*
G37*
G36*
X118485256Y-167301298D02*
G01*
X118591579Y-167322447D01*
X118892042Y-167446903D01*
X119162451Y-167627585D01*
X119392415Y-167857549D01*
X119573097Y-168127958D01*
X119697553Y-168428421D01*
X119761000Y-168747391D01*
X119761000Y-169072609D01*
X119697553Y-169391579D01*
X119573097Y-169692042D01*
X119392415Y-169962451D01*
X119162451Y-170192415D01*
X118892042Y-170373097D01*
X118591579Y-170497553D01*
X118485256Y-170518702D01*
X118272611Y-170561000D01*
X117947389Y-170561000D01*
X117734744Y-170518702D01*
X117628421Y-170497553D01*
X117327958Y-170373097D01*
X117057549Y-170192415D01*
X116827585Y-169962451D01*
X116646903Y-169692042D01*
X116522447Y-169391579D01*
X116459000Y-169072609D01*
X116459000Y-168747391D01*
X116522447Y-168428421D01*
X116646903Y-168127958D01*
X116827585Y-167857549D01*
X117057549Y-167627585D01*
X117327958Y-167446903D01*
X117628421Y-167322447D01*
X117734744Y-167301298D01*
X117947389Y-167259000D01*
X118272611Y-167259000D01*
X118485256Y-167301298D01*
X118485256Y-167301298D01*
G37*
G36*
X146003674Y-166383465D02*
G01*
X146041367Y-166394899D01*
X146076103Y-166413466D01*
X146106548Y-166438452D01*
X146131534Y-166468897D01*
X146150101Y-166503633D01*
X146161535Y-166541326D01*
X146166000Y-166586661D01*
X146166000Y-167423339D01*
X146161535Y-167468674D01*
X146150101Y-167506367D01*
X146131534Y-167541103D01*
X146106548Y-167571548D01*
X146076103Y-167596534D01*
X146041367Y-167615101D01*
X146003674Y-167626535D01*
X145958339Y-167631000D01*
X144871661Y-167631000D01*
X144826326Y-167626535D01*
X144788633Y-167615101D01*
X144753897Y-167596534D01*
X144723452Y-167571548D01*
X144698466Y-167541103D01*
X144679899Y-167506367D01*
X144668465Y-167468674D01*
X144664000Y-167423339D01*
X144664000Y-166586661D01*
X144668465Y-166541326D01*
X144679899Y-166503633D01*
X144698466Y-166468897D01*
X144723452Y-166438452D01*
X144753897Y-166413466D01*
X144788633Y-166394899D01*
X144826326Y-166383465D01*
X144871661Y-166379000D01*
X145958339Y-166379000D01*
X146003674Y-166383465D01*
X146003674Y-166383465D01*
G37*
G36*
X143463674Y-166383465D02*
G01*
X143501367Y-166394899D01*
X143536103Y-166413466D01*
X143566548Y-166438452D01*
X143591534Y-166468897D01*
X143610101Y-166503633D01*
X143621535Y-166541326D01*
X143626000Y-166586661D01*
X143626000Y-167423339D01*
X143621535Y-167468674D01*
X143610101Y-167506367D01*
X143591534Y-167541103D01*
X143566548Y-167571548D01*
X143536103Y-167596534D01*
X143501367Y-167615101D01*
X143463674Y-167626535D01*
X143418339Y-167631000D01*
X142331661Y-167631000D01*
X142286326Y-167626535D01*
X142248633Y-167615101D01*
X142213897Y-167596534D01*
X142183452Y-167571548D01*
X142158466Y-167541103D01*
X142139899Y-167506367D01*
X142128465Y-167468674D01*
X142124000Y-167423339D01*
X142124000Y-166586661D01*
X142128465Y-166541326D01*
X142139899Y-166503633D01*
X142158466Y-166468897D01*
X142183452Y-166438452D01*
X142213897Y-166413466D01*
X142248633Y-166394899D01*
X142286326Y-166383465D01*
X142331661Y-166379000D01*
X143418339Y-166379000D01*
X143463674Y-166383465D01*
X143463674Y-166383465D01*
G37*
G36*
X140051000Y-166251000D02*
G01*
X139349000Y-166251000D01*
X139349000Y-163949000D01*
X140051000Y-163949000D01*
X140051000Y-166251000D01*
X140051000Y-166251000D01*
G37*
G36*
X138781000Y-166251000D02*
G01*
X138079000Y-166251000D01*
X138079000Y-163949000D01*
X138781000Y-163949000D01*
X138781000Y-166251000D01*
X138781000Y-166251000D01*
G37*
G36*
X137511000Y-166251000D02*
G01*
X136809000Y-166251000D01*
X136809000Y-163949000D01*
X137511000Y-163949000D01*
X137511000Y-166251000D01*
X137511000Y-166251000D01*
G37*
G36*
X136241000Y-166251000D02*
G01*
X135539000Y-166251000D01*
X135539000Y-163949000D01*
X136241000Y-163949000D01*
X136241000Y-166251000D01*
X136241000Y-166251000D01*
G37*
G36*
X146003674Y-164333465D02*
G01*
X146041367Y-164344899D01*
X146076103Y-164363466D01*
X146106548Y-164388452D01*
X146131534Y-164418897D01*
X146150101Y-164453633D01*
X146161535Y-164491326D01*
X146166000Y-164536661D01*
X146166000Y-165373339D01*
X146161535Y-165418674D01*
X146150101Y-165456367D01*
X146131534Y-165491103D01*
X146106548Y-165521548D01*
X146076103Y-165546534D01*
X146041367Y-165565101D01*
X146003674Y-165576535D01*
X145958339Y-165581000D01*
X144871661Y-165581000D01*
X144826326Y-165576535D01*
X144788633Y-165565101D01*
X144753897Y-165546534D01*
X144723452Y-165521548D01*
X144698466Y-165491103D01*
X144679899Y-165456367D01*
X144668465Y-165418674D01*
X144664000Y-165373339D01*
X144664000Y-164536661D01*
X144668465Y-164491326D01*
X144679899Y-164453633D01*
X144698466Y-164418897D01*
X144723452Y-164388452D01*
X144753897Y-164363466D01*
X144788633Y-164344899D01*
X144826326Y-164333465D01*
X144871661Y-164329000D01*
X145958339Y-164329000D01*
X146003674Y-164333465D01*
X146003674Y-164333465D01*
G37*
G36*
X143463674Y-164333465D02*
G01*
X143501367Y-164344899D01*
X143536103Y-164363466D01*
X143566548Y-164388452D01*
X143591534Y-164418897D01*
X143610101Y-164453633D01*
X143621535Y-164491326D01*
X143626000Y-164536661D01*
X143626000Y-165373339D01*
X143621535Y-165418674D01*
X143610101Y-165456367D01*
X143591534Y-165491103D01*
X143566548Y-165521548D01*
X143536103Y-165546534D01*
X143501367Y-165565101D01*
X143463674Y-165576535D01*
X143418339Y-165581000D01*
X142331661Y-165581000D01*
X142286326Y-165576535D01*
X142248633Y-165565101D01*
X142213897Y-165546534D01*
X142183452Y-165521548D01*
X142158466Y-165491103D01*
X142139899Y-165456367D01*
X142128465Y-165418674D01*
X142124000Y-165373339D01*
X142124000Y-164536661D01*
X142128465Y-164491326D01*
X142139899Y-164453633D01*
X142158466Y-164418897D01*
X142183452Y-164388452D01*
X142213897Y-164363466D01*
X142248633Y-164344899D01*
X142286326Y-164333465D01*
X142331661Y-164329000D01*
X143418339Y-164329000D01*
X143463674Y-164333465D01*
X143463674Y-164333465D01*
G37*
G36*
X157207000Y-164012000D02*
G01*
X154705000Y-164012000D01*
X154705000Y-162460000D01*
X157207000Y-162460000D01*
X157207000Y-164012000D01*
X157207000Y-164012000D01*
G37*
G36*
X131838000Y-163461000D02*
G01*
X130036000Y-163461000D01*
X130036000Y-161659000D01*
X131838000Y-161659000D01*
X131838000Y-163461000D01*
X131838000Y-163461000D01*
G37*
G36*
X149833674Y-161813465D02*
G01*
X149871367Y-161824899D01*
X149906103Y-161843466D01*
X149936548Y-161868452D01*
X149961534Y-161898897D01*
X149980101Y-161933633D01*
X149991535Y-161971326D01*
X149996000Y-162016661D01*
X149996000Y-163103339D01*
X149991535Y-163148674D01*
X149980101Y-163186367D01*
X149961534Y-163221103D01*
X149936548Y-163251548D01*
X149906103Y-163276534D01*
X149871367Y-163295101D01*
X149833674Y-163306535D01*
X149788339Y-163311000D01*
X148951661Y-163311000D01*
X148906326Y-163306535D01*
X148868633Y-163295101D01*
X148833897Y-163276534D01*
X148803452Y-163251548D01*
X148778466Y-163221103D01*
X148759899Y-163186367D01*
X148748465Y-163148674D01*
X148744000Y-163103339D01*
X148744000Y-162016661D01*
X148748465Y-161971326D01*
X148759899Y-161933633D01*
X148778466Y-161898897D01*
X148803452Y-161868452D01*
X148833897Y-161843466D01*
X148868633Y-161824899D01*
X148906326Y-161813465D01*
X148951661Y-161809000D01*
X149788339Y-161809000D01*
X149833674Y-161813465D01*
X149833674Y-161813465D01*
G37*
G36*
X147783674Y-161813465D02*
G01*
X147821367Y-161824899D01*
X147856103Y-161843466D01*
X147886548Y-161868452D01*
X147911534Y-161898897D01*
X147930101Y-161933633D01*
X147941535Y-161971326D01*
X147946000Y-162016661D01*
X147946000Y-163103339D01*
X147941535Y-163148674D01*
X147930101Y-163186367D01*
X147911534Y-163221103D01*
X147886548Y-163251548D01*
X147856103Y-163276534D01*
X147821367Y-163295101D01*
X147783674Y-163306535D01*
X147738339Y-163311000D01*
X146901661Y-163311000D01*
X146856326Y-163306535D01*
X146818633Y-163295101D01*
X146783897Y-163276534D01*
X146753452Y-163251548D01*
X146728466Y-163221103D01*
X146709899Y-163186367D01*
X146698465Y-163148674D01*
X146694000Y-163103339D01*
X146694000Y-162016661D01*
X146698465Y-161971326D01*
X146709899Y-161933633D01*
X146728466Y-161898897D01*
X146753452Y-161868452D01*
X146783897Y-161843466D01*
X146818633Y-161824899D01*
X146856326Y-161813465D01*
X146901661Y-161809000D01*
X147738339Y-161809000D01*
X147783674Y-161813465D01*
X147783674Y-161813465D01*
G37*
G36*
X160862674Y-160804465D02*
G01*
X160900367Y-160815899D01*
X160935103Y-160834466D01*
X160965548Y-160859452D01*
X160990534Y-160889897D01*
X161009101Y-160924633D01*
X161020535Y-160962326D01*
X161025000Y-161007661D01*
X161025000Y-161844339D01*
X161020535Y-161889674D01*
X161009101Y-161927367D01*
X160990534Y-161962103D01*
X160965548Y-161992548D01*
X160935103Y-162017534D01*
X160900367Y-162036101D01*
X160862674Y-162047535D01*
X160817339Y-162052000D01*
X159730661Y-162052000D01*
X159685326Y-162047535D01*
X159647633Y-162036101D01*
X159612897Y-162017534D01*
X159582452Y-161992548D01*
X159557466Y-161962103D01*
X159538899Y-161927367D01*
X159527465Y-161889674D01*
X159523000Y-161844339D01*
X159523000Y-161007661D01*
X159527465Y-160962326D01*
X159538899Y-160924633D01*
X159557466Y-160889897D01*
X159582452Y-160859452D01*
X159612897Y-160834466D01*
X159647633Y-160815899D01*
X159685326Y-160804465D01*
X159730661Y-160800000D01*
X160817339Y-160800000D01*
X160862674Y-160804465D01*
X160862674Y-160804465D01*
G37*
G36*
X136241000Y-160851000D02*
G01*
X135539000Y-160851000D01*
X135539000Y-158549000D01*
X136241000Y-158549000D01*
X136241000Y-160851000D01*
X136241000Y-160851000D01*
G37*
G36*
X137511000Y-160851000D02*
G01*
X136809000Y-160851000D01*
X136809000Y-158549000D01*
X137511000Y-158549000D01*
X137511000Y-160851000D01*
X137511000Y-160851000D01*
G37*
G36*
X140051000Y-160851000D02*
G01*
X139349000Y-160851000D01*
X139349000Y-158549000D01*
X140051000Y-158549000D01*
X140051000Y-160851000D01*
X140051000Y-160851000D01*
G37*
G36*
X138781000Y-160851000D02*
G01*
X138079000Y-160851000D01*
X138079000Y-158549000D01*
X138781000Y-158549000D01*
X138781000Y-160851000D01*
X138781000Y-160851000D01*
G37*
G36*
X143463674Y-159153465D02*
G01*
X143501367Y-159164899D01*
X143536103Y-159183466D01*
X143566548Y-159208452D01*
X143591534Y-159238897D01*
X143610101Y-159273633D01*
X143621535Y-159311326D01*
X143626000Y-159356661D01*
X143626000Y-160193339D01*
X143621535Y-160238674D01*
X143610101Y-160276367D01*
X143591534Y-160311103D01*
X143566548Y-160341548D01*
X143536103Y-160366534D01*
X143501367Y-160385101D01*
X143463674Y-160396535D01*
X143418339Y-160401000D01*
X142331661Y-160401000D01*
X142286326Y-160396535D01*
X142248633Y-160385101D01*
X142213897Y-160366534D01*
X142183452Y-160341548D01*
X142158466Y-160311103D01*
X142139899Y-160276367D01*
X142128465Y-160238674D01*
X142124000Y-160193339D01*
X142124000Y-159356661D01*
X142128465Y-159311326D01*
X142139899Y-159273633D01*
X142158466Y-159238897D01*
X142183452Y-159208452D01*
X142213897Y-159183466D01*
X142248633Y-159164899D01*
X142286326Y-159153465D01*
X142331661Y-159149000D01*
X143418339Y-159149000D01*
X143463674Y-159153465D01*
X143463674Y-159153465D01*
G37*
G36*
X160862674Y-158754465D02*
G01*
X160900367Y-158765899D01*
X160935103Y-158784466D01*
X160965548Y-158809452D01*
X160990534Y-158839897D01*
X161009101Y-158874633D01*
X161020535Y-158912326D01*
X161025000Y-158957661D01*
X161025000Y-159794339D01*
X161020535Y-159839674D01*
X161009101Y-159877367D01*
X160990534Y-159912103D01*
X160965548Y-159942548D01*
X160935103Y-159967534D01*
X160900367Y-159986101D01*
X160862674Y-159997535D01*
X160817339Y-160002000D01*
X159730661Y-160002000D01*
X159685326Y-159997535D01*
X159647633Y-159986101D01*
X159612897Y-159967534D01*
X159582452Y-159942548D01*
X159557466Y-159912103D01*
X159538899Y-159877367D01*
X159527465Y-159839674D01*
X159523000Y-159794339D01*
X159523000Y-158957661D01*
X159527465Y-158912326D01*
X159538899Y-158874633D01*
X159557466Y-158839897D01*
X159582452Y-158809452D01*
X159612897Y-158784466D01*
X159647633Y-158765899D01*
X159685326Y-158754465D01*
X159730661Y-158750000D01*
X160817339Y-158750000D01*
X160862674Y-158754465D01*
X160862674Y-158754465D01*
G37*
G36*
X157207000Y-159612000D02*
G01*
X154705000Y-159612000D01*
X154705000Y-158060000D01*
X157207000Y-158060000D01*
X157207000Y-159612000D01*
X157207000Y-159612000D01*
G37*
G36*
X143463674Y-157103465D02*
G01*
X143501367Y-157114899D01*
X143536103Y-157133466D01*
X143566548Y-157158452D01*
X143591534Y-157188897D01*
X143610101Y-157223633D01*
X143621535Y-157261326D01*
X143626000Y-157306661D01*
X143626000Y-158143339D01*
X143621535Y-158188674D01*
X143610101Y-158226367D01*
X143591534Y-158261103D01*
X143566548Y-158291548D01*
X143536103Y-158316534D01*
X143501367Y-158335101D01*
X143463674Y-158346535D01*
X143418339Y-158351000D01*
X142331661Y-158351000D01*
X142286326Y-158346535D01*
X142248633Y-158335101D01*
X142213897Y-158316534D01*
X142183452Y-158291548D01*
X142158466Y-158261103D01*
X142139899Y-158226367D01*
X142128465Y-158188674D01*
X142124000Y-158143339D01*
X142124000Y-157306661D01*
X142128465Y-157261326D01*
X142139899Y-157223633D01*
X142158466Y-157188897D01*
X142183452Y-157158452D01*
X142213897Y-157133466D01*
X142248633Y-157114899D01*
X142286326Y-157103465D01*
X142331661Y-157099000D01*
X143418339Y-157099000D01*
X143463674Y-157103465D01*
X143463674Y-157103465D01*
G37*
G36*
X123846669Y-146797686D02*
G01*
X124023058Y-146815059D01*
X124362548Y-146918042D01*
X124362550Y-146918043D01*
X124675422Y-147085277D01*
X124949661Y-147310339D01*
X125174723Y-147584578D01*
X125341957Y-147897450D01*
X125341958Y-147897452D01*
X125444941Y-148236942D01*
X125479714Y-148590000D01*
X125444941Y-148943058D01*
X125362623Y-149214423D01*
X125341957Y-149282550D01*
X125174723Y-149595422D01*
X124949661Y-149869661D01*
X124675422Y-150094723D01*
X124362550Y-150261957D01*
X124362548Y-150261958D01*
X124023058Y-150364941D01*
X123846669Y-150382314D01*
X123758476Y-150391000D01*
X120081524Y-150391000D01*
X119993331Y-150382314D01*
X119816942Y-150364941D01*
X119477452Y-150261958D01*
X119477450Y-150261957D01*
X119164578Y-150094723D01*
X118890339Y-149869661D01*
X118665277Y-149595422D01*
X118498043Y-149282550D01*
X118477377Y-149214423D01*
X118395059Y-148943058D01*
X118360286Y-148590000D01*
X118395059Y-148236942D01*
X118498042Y-147897452D01*
X118498043Y-147897450D01*
X118665277Y-147584578D01*
X118890339Y-147310339D01*
X119164578Y-147085277D01*
X119477450Y-146918043D01*
X119477452Y-146918042D01*
X119816942Y-146815059D01*
X119993331Y-146797686D01*
X120081524Y-146789000D01*
X123758476Y-146789000D01*
X123846669Y-146797686D01*
X123846669Y-146797686D01*
G37*
G36*
X202586669Y-146416686D02*
G01*
X202763058Y-146434059D01*
X203102548Y-146537042D01*
X203102550Y-146537043D01*
X203415422Y-146704277D01*
X203689661Y-146929339D01*
X203914723Y-147203578D01*
X204065530Y-147485718D01*
X204081958Y-147516452D01*
X204184941Y-147855942D01*
X204219714Y-148209000D01*
X204184941Y-148562058D01*
X204081958Y-148901548D01*
X204081957Y-148901550D01*
X203914723Y-149214422D01*
X203689661Y-149488661D01*
X203415422Y-149713723D01*
X203123683Y-149869661D01*
X203102548Y-149880958D01*
X202763058Y-149983941D01*
X202586669Y-150001314D01*
X202498476Y-150010000D01*
X198821524Y-150010000D01*
X198733331Y-150001314D01*
X198556942Y-149983941D01*
X198217452Y-149880958D01*
X198196317Y-149869661D01*
X197904578Y-149713723D01*
X197630339Y-149488661D01*
X197405277Y-149214422D01*
X197238043Y-148901550D01*
X197238042Y-148901548D01*
X197135059Y-148562058D01*
X197100286Y-148209000D01*
X197135059Y-147855942D01*
X197238042Y-147516452D01*
X197254470Y-147485718D01*
X197405277Y-147203578D01*
X197630339Y-146929339D01*
X197904578Y-146704277D01*
X198217450Y-146537043D01*
X198217452Y-146537042D01*
X198556942Y-146434059D01*
X198733331Y-146416686D01*
X198821524Y-146408000D01*
X202498476Y-146408000D01*
X202586669Y-146416686D01*
X202586669Y-146416686D01*
G37*
G36*
X156163674Y-147478465D02*
G01*
X156201367Y-147489899D01*
X156236103Y-147508466D01*
X156266548Y-147533452D01*
X156291534Y-147563897D01*
X156310101Y-147598633D01*
X156321535Y-147636326D01*
X156326000Y-147681661D01*
X156326000Y-148518339D01*
X156321535Y-148563674D01*
X156310101Y-148601367D01*
X156291534Y-148636103D01*
X156266548Y-148666548D01*
X156236103Y-148691534D01*
X156201367Y-148710101D01*
X156163674Y-148721535D01*
X156118339Y-148726000D01*
X155031661Y-148726000D01*
X154986326Y-148721535D01*
X154948633Y-148710101D01*
X154913897Y-148691534D01*
X154883452Y-148666548D01*
X154858466Y-148636103D01*
X154839899Y-148601367D01*
X154828465Y-148563674D01*
X154824000Y-148518339D01*
X154824000Y-147681661D01*
X154828465Y-147636326D01*
X154839899Y-147598633D01*
X154858466Y-147563897D01*
X154883452Y-147533452D01*
X154913897Y-147508466D01*
X154948633Y-147489899D01*
X154986326Y-147478465D01*
X155031661Y-147474000D01*
X156118339Y-147474000D01*
X156163674Y-147478465D01*
X156163674Y-147478465D01*
G37*
G36*
X153623674Y-147469465D02*
G01*
X153661367Y-147480899D01*
X153696103Y-147499466D01*
X153726548Y-147524452D01*
X153751534Y-147554897D01*
X153770101Y-147589633D01*
X153781535Y-147627326D01*
X153786000Y-147672661D01*
X153786000Y-148509339D01*
X153781535Y-148554674D01*
X153770101Y-148592367D01*
X153751534Y-148627103D01*
X153726548Y-148657548D01*
X153696103Y-148682534D01*
X153661367Y-148701101D01*
X153623674Y-148712535D01*
X153578339Y-148717000D01*
X152491661Y-148717000D01*
X152446326Y-148712535D01*
X152408633Y-148701101D01*
X152373897Y-148682534D01*
X152343452Y-148657548D01*
X152318466Y-148627103D01*
X152299899Y-148592367D01*
X152288465Y-148554674D01*
X152284000Y-148509339D01*
X152284000Y-147672661D01*
X152288465Y-147627326D01*
X152299899Y-147589633D01*
X152318466Y-147554897D01*
X152343452Y-147524452D01*
X152373897Y-147499466D01*
X152408633Y-147480899D01*
X152446326Y-147469465D01*
X152491661Y-147465000D01*
X153578339Y-147465000D01*
X153623674Y-147469465D01*
X153623674Y-147469465D01*
G37*
G36*
X148941000Y-147361000D02*
G01*
X148239000Y-147361000D01*
X148239000Y-145059000D01*
X148941000Y-145059000D01*
X148941000Y-147361000D01*
X148941000Y-147361000D01*
G37*
G36*
X150211000Y-147361000D02*
G01*
X149509000Y-147361000D01*
X149509000Y-145059000D01*
X150211000Y-145059000D01*
X150211000Y-147361000D01*
X150211000Y-147361000D01*
G37*
G36*
X147671000Y-147361000D02*
G01*
X146969000Y-147361000D01*
X146969000Y-145059000D01*
X147671000Y-145059000D01*
X147671000Y-147361000D01*
X147671000Y-147361000D01*
G37*
G36*
X146401000Y-147361000D02*
G01*
X145699000Y-147361000D01*
X145699000Y-145059000D01*
X146401000Y-145059000D01*
X146401000Y-147361000D01*
X146401000Y-147361000D01*
G37*
G36*
X127616823Y-145211313D02*
G01*
X127777242Y-145259976D01*
X127909906Y-145330886D01*
X127925078Y-145338996D01*
X128054659Y-145445341D01*
X128161004Y-145574922D01*
X128161005Y-145574924D01*
X128240024Y-145722758D01*
X128288687Y-145883177D01*
X128305117Y-146050000D01*
X128288687Y-146216823D01*
X128240024Y-146377242D01*
X128174952Y-146498983D01*
X128161004Y-146525078D01*
X128054659Y-146654659D01*
X127925078Y-146761004D01*
X127925076Y-146761005D01*
X127777242Y-146840024D01*
X127616823Y-146888687D01*
X127491804Y-146901000D01*
X126508196Y-146901000D01*
X126383177Y-146888687D01*
X126222758Y-146840024D01*
X126074924Y-146761005D01*
X126074922Y-146761004D01*
X125945341Y-146654659D01*
X125838996Y-146525078D01*
X125825048Y-146498983D01*
X125759976Y-146377242D01*
X125711313Y-146216823D01*
X125694883Y-146050000D01*
X125711313Y-145883177D01*
X125759976Y-145722758D01*
X125838995Y-145574924D01*
X125838996Y-145574922D01*
X125945341Y-145445341D01*
X126074922Y-145338996D01*
X126090094Y-145330886D01*
X126222758Y-145259976D01*
X126383177Y-145211313D01*
X126508196Y-145199000D01*
X127491804Y-145199000D01*
X127616823Y-145211313D01*
X127616823Y-145211313D01*
G37*
G36*
X156163674Y-145428465D02*
G01*
X156201367Y-145439899D01*
X156236103Y-145458466D01*
X156266548Y-145483452D01*
X156291534Y-145513897D01*
X156310101Y-145548633D01*
X156321535Y-145586326D01*
X156326000Y-145631661D01*
X156326000Y-146468339D01*
X156321535Y-146513674D01*
X156310101Y-146551367D01*
X156291534Y-146586103D01*
X156266548Y-146616548D01*
X156236103Y-146641534D01*
X156201367Y-146660101D01*
X156163674Y-146671535D01*
X156118339Y-146676000D01*
X155031661Y-146676000D01*
X154986326Y-146671535D01*
X154948633Y-146660101D01*
X154913897Y-146641534D01*
X154883452Y-146616548D01*
X154858466Y-146586103D01*
X154839899Y-146551367D01*
X154828465Y-146513674D01*
X154824000Y-146468339D01*
X154824000Y-145631661D01*
X154828465Y-145586326D01*
X154839899Y-145548633D01*
X154858466Y-145513897D01*
X154883452Y-145483452D01*
X154913897Y-145458466D01*
X154948633Y-145439899D01*
X154986326Y-145428465D01*
X155031661Y-145424000D01*
X156118339Y-145424000D01*
X156163674Y-145428465D01*
X156163674Y-145428465D01*
G37*
G36*
X153623674Y-145419465D02*
G01*
X153661367Y-145430899D01*
X153696103Y-145449466D01*
X153726548Y-145474452D01*
X153751534Y-145504897D01*
X153770101Y-145539633D01*
X153781535Y-145577326D01*
X153786000Y-145622661D01*
X153786000Y-146459339D01*
X153781535Y-146504674D01*
X153770101Y-146542367D01*
X153751534Y-146577103D01*
X153726548Y-146607548D01*
X153696103Y-146632534D01*
X153661367Y-146651101D01*
X153623674Y-146662535D01*
X153578339Y-146667000D01*
X152491661Y-146667000D01*
X152446326Y-146662535D01*
X152408633Y-146651101D01*
X152373897Y-146632534D01*
X152343452Y-146607548D01*
X152318466Y-146577103D01*
X152299899Y-146542367D01*
X152288465Y-146504674D01*
X152284000Y-146459339D01*
X152284000Y-145622661D01*
X152288465Y-145577326D01*
X152299899Y-145539633D01*
X152318466Y-145504897D01*
X152343452Y-145474452D01*
X152373897Y-145449466D01*
X152408633Y-145430899D01*
X152446326Y-145419465D01*
X152491661Y-145415000D01*
X153578339Y-145415000D01*
X153623674Y-145419465D01*
X153623674Y-145419465D01*
G37*
G36*
X141871000Y-144411000D02*
G01*
X140069000Y-144411000D01*
X140069000Y-142609000D01*
X141871000Y-142609000D01*
X141871000Y-144411000D01*
X141871000Y-144411000D01*
G37*
G36*
X127616823Y-142671313D02*
G01*
X127777242Y-142719976D01*
X127889011Y-142779718D01*
X127925078Y-142798996D01*
X128054659Y-142905341D01*
X128161004Y-143034922D01*
X128161005Y-143034924D01*
X128240024Y-143182758D01*
X128288687Y-143343177D01*
X128305117Y-143510000D01*
X128288687Y-143676823D01*
X128240024Y-143837242D01*
X128196310Y-143919025D01*
X128161004Y-143985078D01*
X128054659Y-144114659D01*
X127925078Y-144221004D01*
X127925076Y-144221005D01*
X127777242Y-144300024D01*
X127616823Y-144348687D01*
X127491804Y-144361000D01*
X126508196Y-144361000D01*
X126383177Y-144348687D01*
X126222758Y-144300024D01*
X126074924Y-144221005D01*
X126074922Y-144221004D01*
X125945341Y-144114659D01*
X125838996Y-143985078D01*
X125803690Y-143919025D01*
X125759976Y-143837242D01*
X125711313Y-143676823D01*
X125694883Y-143510000D01*
X125711313Y-143343177D01*
X125759976Y-143182758D01*
X125838995Y-143034924D01*
X125838996Y-143034922D01*
X125945341Y-142905341D01*
X126074922Y-142798996D01*
X126110989Y-142779718D01*
X126222758Y-142719976D01*
X126383177Y-142671313D01*
X126508196Y-142659000D01*
X127491804Y-142659000D01*
X127616823Y-142671313D01*
X127616823Y-142671313D01*
G37*
G36*
X159993674Y-142763465D02*
G01*
X160031367Y-142774899D01*
X160066103Y-142793466D01*
X160096548Y-142818452D01*
X160121534Y-142848897D01*
X160140101Y-142883633D01*
X160151535Y-142921326D01*
X160156000Y-142966661D01*
X160156000Y-144053339D01*
X160151535Y-144098674D01*
X160140101Y-144136367D01*
X160121534Y-144171103D01*
X160096548Y-144201548D01*
X160066103Y-144226534D01*
X160031367Y-144245101D01*
X159993674Y-144256535D01*
X159948339Y-144261000D01*
X159111661Y-144261000D01*
X159066326Y-144256535D01*
X159028633Y-144245101D01*
X158993897Y-144226534D01*
X158963452Y-144201548D01*
X158938466Y-144171103D01*
X158919899Y-144136367D01*
X158908465Y-144098674D01*
X158904000Y-144053339D01*
X158904000Y-142966661D01*
X158908465Y-142921326D01*
X158919899Y-142883633D01*
X158938466Y-142848897D01*
X158963452Y-142818452D01*
X158993897Y-142793466D01*
X159028633Y-142774899D01*
X159066326Y-142763465D01*
X159111661Y-142759000D01*
X159948339Y-142759000D01*
X159993674Y-142763465D01*
X159993674Y-142763465D01*
G37*
G36*
X157943674Y-142763465D02*
G01*
X157981367Y-142774899D01*
X158016103Y-142793466D01*
X158046548Y-142818452D01*
X158071534Y-142848897D01*
X158090101Y-142883633D01*
X158101535Y-142921326D01*
X158106000Y-142966661D01*
X158106000Y-144053339D01*
X158101535Y-144098674D01*
X158090101Y-144136367D01*
X158071534Y-144171103D01*
X158046548Y-144201548D01*
X158016103Y-144226534D01*
X157981367Y-144245101D01*
X157943674Y-144256535D01*
X157898339Y-144261000D01*
X157061661Y-144261000D01*
X157016326Y-144256535D01*
X156978633Y-144245101D01*
X156943897Y-144226534D01*
X156913452Y-144201548D01*
X156888466Y-144171103D01*
X156869899Y-144136367D01*
X156858465Y-144098674D01*
X156854000Y-144053339D01*
X156854000Y-142966661D01*
X156858465Y-142921326D01*
X156869899Y-142883633D01*
X156888466Y-142848897D01*
X156913452Y-142818452D01*
X156943897Y-142793466D01*
X156978633Y-142774899D01*
X157016326Y-142763465D01*
X157061661Y-142759000D01*
X157898339Y-142759000D01*
X157943674Y-142763465D01*
X157943674Y-142763465D01*
G37*
G36*
X196196823Y-142290313D02*
G01*
X196357242Y-142338976D01*
X196489906Y-142409886D01*
X196505078Y-142417996D01*
X196634659Y-142524341D01*
X196741004Y-142653922D01*
X196741005Y-142653924D01*
X196820024Y-142801758D01*
X196868687Y-142962177D01*
X196885117Y-143129000D01*
X196868687Y-143295823D01*
X196820024Y-143456242D01*
X196749114Y-143588906D01*
X196741004Y-143604078D01*
X196634659Y-143733659D01*
X196505078Y-143840004D01*
X196505076Y-143840005D01*
X196357242Y-143919024D01*
X196196823Y-143967687D01*
X196071804Y-143980000D01*
X195088196Y-143980000D01*
X194963177Y-143967687D01*
X194802758Y-143919024D01*
X194654924Y-143840005D01*
X194654922Y-143840004D01*
X194525341Y-143733659D01*
X194418996Y-143604078D01*
X194410886Y-143588906D01*
X194339976Y-143456242D01*
X194291313Y-143295823D01*
X194274883Y-143129000D01*
X194291313Y-142962177D01*
X194339976Y-142801758D01*
X194418995Y-142653924D01*
X194418996Y-142653922D01*
X194525341Y-142524341D01*
X194654922Y-142417996D01*
X194670094Y-142409886D01*
X194802758Y-142338976D01*
X194963177Y-142290313D01*
X195088196Y-142278000D01*
X196071804Y-142278000D01*
X196196823Y-142290313D01*
X196196823Y-142290313D01*
G37*
G36*
X150211000Y-141961000D02*
G01*
X149509000Y-141961000D01*
X149509000Y-139659000D01*
X150211000Y-139659000D01*
X150211000Y-141961000D01*
X150211000Y-141961000D01*
G37*
G36*
X147671000Y-141961000D02*
G01*
X146969000Y-141961000D01*
X146969000Y-139659000D01*
X147671000Y-139659000D01*
X147671000Y-141961000D01*
X147671000Y-141961000D01*
G37*
G36*
X146401000Y-141961000D02*
G01*
X145699000Y-141961000D01*
X145699000Y-139659000D01*
X146401000Y-139659000D01*
X146401000Y-141961000D01*
X146401000Y-141961000D01*
G37*
G36*
X148941000Y-141961000D02*
G01*
X148239000Y-141961000D01*
X148239000Y-139659000D01*
X148941000Y-139659000D01*
X148941000Y-141961000D01*
X148941000Y-141961000D01*
G37*
G36*
X196196823Y-139750313D02*
G01*
X196357242Y-139798976D01*
X196468538Y-139858465D01*
X196505078Y-139877996D01*
X196634659Y-139984341D01*
X196741004Y-140113922D01*
X196741005Y-140113924D01*
X196820024Y-140261758D01*
X196868687Y-140422177D01*
X196885117Y-140589000D01*
X196868687Y-140755823D01*
X196820024Y-140916242D01*
X196766647Y-141016103D01*
X196741004Y-141064078D01*
X196634659Y-141193659D01*
X196505078Y-141300004D01*
X196505076Y-141300005D01*
X196357242Y-141379024D01*
X196196823Y-141427687D01*
X196071804Y-141440000D01*
X195088196Y-141440000D01*
X194963177Y-141427687D01*
X194802758Y-141379024D01*
X194654924Y-141300005D01*
X194654922Y-141300004D01*
X194525341Y-141193659D01*
X194418996Y-141064078D01*
X194393353Y-141016103D01*
X194339976Y-140916242D01*
X194291313Y-140755823D01*
X194274883Y-140589000D01*
X194291313Y-140422177D01*
X194339976Y-140261758D01*
X194418995Y-140113924D01*
X194418996Y-140113922D01*
X194525341Y-139984341D01*
X194654922Y-139877996D01*
X194691462Y-139858465D01*
X194802758Y-139798976D01*
X194963177Y-139750313D01*
X195088196Y-139738000D01*
X196071804Y-139738000D01*
X196196823Y-139750313D01*
X196196823Y-139750313D01*
G37*
G36*
X153623674Y-139858465D02*
G01*
X153661367Y-139869899D01*
X153696103Y-139888466D01*
X153726548Y-139913452D01*
X153751534Y-139943897D01*
X153770101Y-139978633D01*
X153781535Y-140016326D01*
X153786000Y-140061661D01*
X153786000Y-140898339D01*
X153781535Y-140943674D01*
X153770101Y-140981367D01*
X153751534Y-141016103D01*
X153726548Y-141046548D01*
X153696103Y-141071534D01*
X153661367Y-141090101D01*
X153623674Y-141101535D01*
X153578339Y-141106000D01*
X152491661Y-141106000D01*
X152446326Y-141101535D01*
X152408633Y-141090101D01*
X152373897Y-141071534D01*
X152343452Y-141046548D01*
X152318466Y-141016103D01*
X152299899Y-140981367D01*
X152288465Y-140943674D01*
X152284000Y-140898339D01*
X152284000Y-140061661D01*
X152288465Y-140016326D01*
X152299899Y-139978633D01*
X152318466Y-139943897D01*
X152343452Y-139913452D01*
X152373897Y-139888466D01*
X152408633Y-139869899D01*
X152446326Y-139858465D01*
X152491661Y-139854000D01*
X153578339Y-139854000D01*
X153623674Y-139858465D01*
X153623674Y-139858465D01*
G37*
G36*
X123846669Y-136637686D02*
G01*
X124023058Y-136655059D01*
X124362548Y-136758042D01*
X124362550Y-136758043D01*
X124675422Y-136925277D01*
X124949661Y-137150339D01*
X125174723Y-137424578D01*
X125341957Y-137737450D01*
X125341958Y-137737452D01*
X125444941Y-138076942D01*
X125479714Y-138430000D01*
X125444941Y-138783058D01*
X125362623Y-139054423D01*
X125341957Y-139122550D01*
X125174723Y-139435422D01*
X124949661Y-139709661D01*
X124675422Y-139934723D01*
X124437938Y-140061661D01*
X124362548Y-140101958D01*
X124023058Y-140204941D01*
X123846669Y-140222314D01*
X123758476Y-140231000D01*
X120081524Y-140231000D01*
X119993331Y-140222314D01*
X119816942Y-140204941D01*
X119477452Y-140101958D01*
X119402062Y-140061661D01*
X119164578Y-139934723D01*
X118890339Y-139709661D01*
X118665277Y-139435422D01*
X118498043Y-139122550D01*
X118477377Y-139054423D01*
X118395059Y-138783058D01*
X118360286Y-138430000D01*
X118395059Y-138076942D01*
X118498042Y-137737452D01*
X118498043Y-137737450D01*
X118665277Y-137424578D01*
X118890339Y-137150339D01*
X119164578Y-136925277D01*
X119477450Y-136758043D01*
X119477452Y-136758042D01*
X119816942Y-136655059D01*
X119993331Y-136637686D01*
X120081524Y-136629000D01*
X123758476Y-136629000D01*
X123846669Y-136637686D01*
X123846669Y-136637686D01*
G37*
G36*
X202586669Y-136256686D02*
G01*
X202763058Y-136274059D01*
X203102548Y-136377042D01*
X203102550Y-136377043D01*
X203415422Y-136544277D01*
X203415424Y-136544278D01*
X203415423Y-136544278D01*
X203689661Y-136769339D01*
X203914722Y-137043577D01*
X204081958Y-137356452D01*
X204184941Y-137695942D01*
X204219714Y-138049000D01*
X204184941Y-138402058D01*
X204081958Y-138741548D01*
X204081957Y-138741550D01*
X203914723Y-139054422D01*
X203689661Y-139328661D01*
X203415422Y-139553723D01*
X203218463Y-139659000D01*
X203102548Y-139720958D01*
X202763058Y-139823941D01*
X202586669Y-139841314D01*
X202498476Y-139850000D01*
X198821524Y-139850000D01*
X198733331Y-139841314D01*
X198556942Y-139823941D01*
X198217452Y-139720958D01*
X198101537Y-139659000D01*
X197904578Y-139553723D01*
X197630339Y-139328661D01*
X197405277Y-139054422D01*
X197238043Y-138741550D01*
X197238042Y-138741548D01*
X197135059Y-138402058D01*
X197100286Y-138049000D01*
X197135059Y-137695942D01*
X197238042Y-137356452D01*
X197405278Y-137043577D01*
X197630339Y-136769339D01*
X197904577Y-136544278D01*
X197904576Y-136544278D01*
X197904578Y-136544277D01*
X198217450Y-136377043D01*
X198217452Y-136377042D01*
X198556942Y-136274059D01*
X198733331Y-136256686D01*
X198821524Y-136248000D01*
X202498476Y-136248000D01*
X202586669Y-136256686D01*
X202586669Y-136256686D01*
G37*
G36*
X153623674Y-137808465D02*
G01*
X153661367Y-137819899D01*
X153696103Y-137838466D01*
X153726548Y-137863452D01*
X153751534Y-137893897D01*
X153770101Y-137928633D01*
X153781535Y-137966326D01*
X153786000Y-138011661D01*
X153786000Y-138848339D01*
X153781535Y-138893674D01*
X153770101Y-138931367D01*
X153751534Y-138966103D01*
X153726548Y-138996548D01*
X153696103Y-139021534D01*
X153661367Y-139040101D01*
X153623674Y-139051535D01*
X153578339Y-139056000D01*
X152491661Y-139056000D01*
X152446326Y-139051535D01*
X152408633Y-139040101D01*
X152373897Y-139021534D01*
X152343452Y-138996548D01*
X152318466Y-138966103D01*
X152299899Y-138931367D01*
X152288465Y-138893674D01*
X152284000Y-138848339D01*
X152284000Y-138011661D01*
X152288465Y-137966326D01*
X152299899Y-137928633D01*
X152318466Y-137893897D01*
X152343452Y-137863452D01*
X152373897Y-137838466D01*
X152408633Y-137819899D01*
X152446326Y-137808465D01*
X152491661Y-137804000D01*
X153578339Y-137804000D01*
X153623674Y-137808465D01*
X153623674Y-137808465D01*
G37*
G36*
X158098443Y-130931519D02*
G01*
X158164627Y-130938037D01*
X158334466Y-130989557D01*
X158490991Y-131073222D01*
X158526729Y-131102552D01*
X158628186Y-131185814D01*
X158711448Y-131287271D01*
X158740778Y-131323009D01*
X158824443Y-131479534D01*
X158875963Y-131649373D01*
X158893359Y-131826000D01*
X158875963Y-132002627D01*
X158824443Y-132172466D01*
X158740778Y-132328991D01*
X158711448Y-132364729D01*
X158628186Y-132466186D01*
X158526729Y-132549448D01*
X158490991Y-132578778D01*
X158334466Y-132662443D01*
X158164627Y-132713963D01*
X158098443Y-132720481D01*
X158032260Y-132727000D01*
X157943740Y-132727000D01*
X157877557Y-132720481D01*
X157811373Y-132713963D01*
X157641534Y-132662443D01*
X157485009Y-132578778D01*
X157449271Y-132549448D01*
X157347814Y-132466186D01*
X157264552Y-132364729D01*
X157235222Y-132328991D01*
X157151557Y-132172466D01*
X157100037Y-132002627D01*
X157082641Y-131826000D01*
X157100037Y-131649373D01*
X157151557Y-131479534D01*
X157235222Y-131323009D01*
X157264552Y-131287271D01*
X157347814Y-131185814D01*
X157449271Y-131102552D01*
X157485009Y-131073222D01*
X157641534Y-130989557D01*
X157811373Y-130938037D01*
X157877557Y-130931519D01*
X157943740Y-130925000D01*
X158032260Y-130925000D01*
X158098443Y-130931519D01*
X158098443Y-130931519D01*
G37*
G36*
X153526443Y-130931519D02*
G01*
X153592627Y-130938037D01*
X153762466Y-130989557D01*
X153918991Y-131073222D01*
X153954729Y-131102552D01*
X154056186Y-131185814D01*
X154139448Y-131287271D01*
X154168778Y-131323009D01*
X154252443Y-131479534D01*
X154303963Y-131649373D01*
X154321359Y-131826000D01*
X154303963Y-132002627D01*
X154252443Y-132172466D01*
X154168778Y-132328991D01*
X154139448Y-132364729D01*
X154056186Y-132466186D01*
X153954729Y-132549448D01*
X153918991Y-132578778D01*
X153762466Y-132662443D01*
X153592627Y-132713963D01*
X153526443Y-132720481D01*
X153460260Y-132727000D01*
X153371740Y-132727000D01*
X153305557Y-132720481D01*
X153239373Y-132713963D01*
X153069534Y-132662443D01*
X152913009Y-132578778D01*
X152877271Y-132549448D01*
X152775814Y-132466186D01*
X152692552Y-132364729D01*
X152663222Y-132328991D01*
X152579557Y-132172466D01*
X152528037Y-132002627D01*
X152510641Y-131826000D01*
X152528037Y-131649373D01*
X152579557Y-131479534D01*
X152663222Y-131323009D01*
X152692552Y-131287271D01*
X152775814Y-131185814D01*
X152877271Y-131102552D01*
X152913009Y-131073222D01*
X153069534Y-130989557D01*
X153239373Y-130938037D01*
X153305557Y-130931519D01*
X153371740Y-130925000D01*
X153460260Y-130925000D01*
X153526443Y-130931519D01*
X153526443Y-130931519D01*
G37*
G36*
X158889000Y-130187000D02*
G01*
X157087000Y-130187000D01*
X157087000Y-128385000D01*
X158889000Y-128385000D01*
X158889000Y-130187000D01*
X158889000Y-130187000D01*
G37*
G36*
X154317000Y-130187000D02*
G01*
X152515000Y-130187000D01*
X152515000Y-128385000D01*
X154317000Y-128385000D01*
X154317000Y-130187000D01*
X154317000Y-130187000D01*
G37*
G36*
X143463674Y-128283465D02*
G01*
X143501367Y-128294899D01*
X143536103Y-128313466D01*
X143566548Y-128338452D01*
X143591534Y-128368897D01*
X143610101Y-128403633D01*
X143621535Y-128441326D01*
X143626000Y-128486661D01*
X143626000Y-129323339D01*
X143621535Y-129368674D01*
X143610101Y-129406367D01*
X143591534Y-129441103D01*
X143566548Y-129471548D01*
X143536103Y-129496534D01*
X143501367Y-129515101D01*
X143463674Y-129526535D01*
X143418339Y-129531000D01*
X142331661Y-129531000D01*
X142286326Y-129526535D01*
X142248633Y-129515101D01*
X142213897Y-129496534D01*
X142183452Y-129471548D01*
X142158466Y-129441103D01*
X142139899Y-129406367D01*
X142128465Y-129368674D01*
X142124000Y-129323339D01*
X142124000Y-128486661D01*
X142128465Y-128441326D01*
X142139899Y-128403633D01*
X142158466Y-128368897D01*
X142183452Y-128338452D01*
X142213897Y-128313466D01*
X142248633Y-128294899D01*
X142286326Y-128283465D01*
X142331661Y-128279000D01*
X143418339Y-128279000D01*
X143463674Y-128283465D01*
X143463674Y-128283465D01*
G37*
G36*
X140923674Y-128283465D02*
G01*
X140961367Y-128294899D01*
X140996103Y-128313466D01*
X141026548Y-128338452D01*
X141051534Y-128368897D01*
X141070101Y-128403633D01*
X141081535Y-128441326D01*
X141086000Y-128486661D01*
X141086000Y-129323339D01*
X141081535Y-129368674D01*
X141070101Y-129406367D01*
X141051534Y-129441103D01*
X141026548Y-129471548D01*
X140996103Y-129496534D01*
X140961367Y-129515101D01*
X140923674Y-129526535D01*
X140878339Y-129531000D01*
X139791661Y-129531000D01*
X139746326Y-129526535D01*
X139708633Y-129515101D01*
X139673897Y-129496534D01*
X139643452Y-129471548D01*
X139618466Y-129441103D01*
X139599899Y-129406367D01*
X139588465Y-129368674D01*
X139584000Y-129323339D01*
X139584000Y-128486661D01*
X139588465Y-128441326D01*
X139599899Y-128403633D01*
X139618466Y-128368897D01*
X139643452Y-128338452D01*
X139673897Y-128313466D01*
X139708633Y-128294899D01*
X139746326Y-128283465D01*
X139791661Y-128279000D01*
X140878339Y-128279000D01*
X140923674Y-128283465D01*
X140923674Y-128283465D01*
G37*
G36*
X134971000Y-128311000D02*
G01*
X134269000Y-128311000D01*
X134269000Y-126009000D01*
X134971000Y-126009000D01*
X134971000Y-128311000D01*
X134971000Y-128311000D01*
G37*
G36*
X133701000Y-128311000D02*
G01*
X132999000Y-128311000D01*
X132999000Y-126009000D01*
X133701000Y-126009000D01*
X133701000Y-128311000D01*
X133701000Y-128311000D01*
G37*
G36*
X136241000Y-128311000D02*
G01*
X135539000Y-128311000D01*
X135539000Y-126009000D01*
X136241000Y-126009000D01*
X136241000Y-128311000D01*
X136241000Y-128311000D01*
G37*
G36*
X137511000Y-128311000D02*
G01*
X136809000Y-128311000D01*
X136809000Y-126009000D01*
X137511000Y-126009000D01*
X137511000Y-128311000D01*
X137511000Y-128311000D01*
G37*
G36*
X143463674Y-126233465D02*
G01*
X143501367Y-126244899D01*
X143536103Y-126263466D01*
X143566548Y-126288452D01*
X143591534Y-126318897D01*
X143610101Y-126353633D01*
X143621535Y-126391326D01*
X143626000Y-126436661D01*
X143626000Y-127273339D01*
X143621535Y-127318674D01*
X143610101Y-127356367D01*
X143591534Y-127391103D01*
X143566548Y-127421548D01*
X143536103Y-127446534D01*
X143501367Y-127465101D01*
X143463674Y-127476535D01*
X143418339Y-127481000D01*
X142331661Y-127481000D01*
X142286326Y-127476535D01*
X142248633Y-127465101D01*
X142213897Y-127446534D01*
X142183452Y-127421548D01*
X142158466Y-127391103D01*
X142139899Y-127356367D01*
X142128465Y-127318674D01*
X142124000Y-127273339D01*
X142124000Y-126436661D01*
X142128465Y-126391326D01*
X142139899Y-126353633D01*
X142158466Y-126318897D01*
X142183452Y-126288452D01*
X142213897Y-126263466D01*
X142248633Y-126244899D01*
X142286326Y-126233465D01*
X142331661Y-126229000D01*
X143418339Y-126229000D01*
X143463674Y-126233465D01*
X143463674Y-126233465D01*
G37*
G36*
X140923674Y-126233465D02*
G01*
X140961367Y-126244899D01*
X140996103Y-126263466D01*
X141026548Y-126288452D01*
X141051534Y-126318897D01*
X141070101Y-126353633D01*
X141081535Y-126391326D01*
X141086000Y-126436661D01*
X141086000Y-127273339D01*
X141081535Y-127318674D01*
X141070101Y-127356367D01*
X141051534Y-127391103D01*
X141026548Y-127421548D01*
X140996103Y-127446534D01*
X140961367Y-127465101D01*
X140923674Y-127476535D01*
X140878339Y-127481000D01*
X139791661Y-127481000D01*
X139746326Y-127476535D01*
X139708633Y-127465101D01*
X139673897Y-127446534D01*
X139643452Y-127421548D01*
X139618466Y-127391103D01*
X139599899Y-127356367D01*
X139588465Y-127318674D01*
X139584000Y-127273339D01*
X139584000Y-126436661D01*
X139588465Y-126391326D01*
X139599899Y-126353633D01*
X139618466Y-126318897D01*
X139643452Y-126288452D01*
X139673897Y-126263466D01*
X139708633Y-126244899D01*
X139746326Y-126233465D01*
X139791661Y-126229000D01*
X140878339Y-126229000D01*
X140923674Y-126233465D01*
X140923674Y-126233465D01*
G37*
G36*
X158322674Y-125371465D02*
G01*
X158360367Y-125382899D01*
X158395103Y-125401466D01*
X158425548Y-125426452D01*
X158450534Y-125456897D01*
X158469101Y-125491633D01*
X158480535Y-125529326D01*
X158485000Y-125574661D01*
X158485000Y-126411339D01*
X158480535Y-126456674D01*
X158469101Y-126494367D01*
X158450534Y-126529103D01*
X158425548Y-126559548D01*
X158395103Y-126584534D01*
X158360367Y-126603101D01*
X158322674Y-126614535D01*
X158277339Y-126619000D01*
X157190661Y-126619000D01*
X157145326Y-126614535D01*
X157107633Y-126603101D01*
X157072897Y-126584534D01*
X157042452Y-126559548D01*
X157017466Y-126529103D01*
X156998899Y-126494367D01*
X156987465Y-126456674D01*
X156983000Y-126411339D01*
X156983000Y-125574661D01*
X156987465Y-125529326D01*
X156998899Y-125491633D01*
X157017466Y-125456897D01*
X157042452Y-125426452D01*
X157072897Y-125401466D01*
X157107633Y-125382899D01*
X157145326Y-125371465D01*
X157190661Y-125367000D01*
X158277339Y-125367000D01*
X158322674Y-125371465D01*
X158322674Y-125371465D01*
G37*
G36*
X154766674Y-125371465D02*
G01*
X154804367Y-125382899D01*
X154839103Y-125401466D01*
X154869548Y-125426452D01*
X154894534Y-125456897D01*
X154913101Y-125491633D01*
X154924535Y-125529326D01*
X154929000Y-125574661D01*
X154929000Y-126411339D01*
X154924535Y-126456674D01*
X154913101Y-126494367D01*
X154894534Y-126529103D01*
X154869548Y-126559548D01*
X154839103Y-126584534D01*
X154804367Y-126603101D01*
X154766674Y-126614535D01*
X154721339Y-126619000D01*
X153634661Y-126619000D01*
X153589326Y-126614535D01*
X153551633Y-126603101D01*
X153516897Y-126584534D01*
X153486452Y-126559548D01*
X153461466Y-126529103D01*
X153442899Y-126494367D01*
X153431465Y-126456674D01*
X153427000Y-126411339D01*
X153427000Y-125574661D01*
X153431465Y-125529326D01*
X153442899Y-125491633D01*
X153461466Y-125456897D01*
X153486452Y-125426452D01*
X153516897Y-125401466D01*
X153551633Y-125382899D01*
X153589326Y-125371465D01*
X153634661Y-125367000D01*
X154721339Y-125367000D01*
X154766674Y-125371465D01*
X154766674Y-125371465D01*
G37*
G36*
X129298000Y-125361000D02*
G01*
X127496000Y-125361000D01*
X127496000Y-123559000D01*
X129298000Y-123559000D01*
X129298000Y-125361000D01*
X129298000Y-125361000D01*
G37*
G36*
X147148674Y-123713465D02*
G01*
X147186367Y-123724899D01*
X147221103Y-123743466D01*
X147251548Y-123768452D01*
X147276534Y-123798897D01*
X147295101Y-123833633D01*
X147306535Y-123871326D01*
X147311000Y-123916661D01*
X147311000Y-125003339D01*
X147306535Y-125048674D01*
X147295101Y-125086367D01*
X147276534Y-125121103D01*
X147251548Y-125151548D01*
X147221103Y-125176534D01*
X147186367Y-125195101D01*
X147148674Y-125206535D01*
X147103339Y-125211000D01*
X146266661Y-125211000D01*
X146221326Y-125206535D01*
X146183633Y-125195101D01*
X146148897Y-125176534D01*
X146118452Y-125151548D01*
X146093466Y-125121103D01*
X146074899Y-125086367D01*
X146063465Y-125048674D01*
X146059000Y-125003339D01*
X146059000Y-123916661D01*
X146063465Y-123871326D01*
X146074899Y-123833633D01*
X146093466Y-123798897D01*
X146118452Y-123768452D01*
X146148897Y-123743466D01*
X146183633Y-123724899D01*
X146221326Y-123713465D01*
X146266661Y-123709000D01*
X147103339Y-123709000D01*
X147148674Y-123713465D01*
X147148674Y-123713465D01*
G37*
G36*
X145098674Y-123713465D02*
G01*
X145136367Y-123724899D01*
X145171103Y-123743466D01*
X145201548Y-123768452D01*
X145226534Y-123798897D01*
X145245101Y-123833633D01*
X145256535Y-123871326D01*
X145261000Y-123916661D01*
X145261000Y-125003339D01*
X145256535Y-125048674D01*
X145245101Y-125086367D01*
X145226534Y-125121103D01*
X145201548Y-125151548D01*
X145171103Y-125176534D01*
X145136367Y-125195101D01*
X145098674Y-125206535D01*
X145053339Y-125211000D01*
X144216661Y-125211000D01*
X144171326Y-125206535D01*
X144133633Y-125195101D01*
X144098897Y-125176534D01*
X144068452Y-125151548D01*
X144043466Y-125121103D01*
X144024899Y-125086367D01*
X144013465Y-125048674D01*
X144009000Y-125003339D01*
X144009000Y-123916661D01*
X144013465Y-123871326D01*
X144024899Y-123833633D01*
X144043466Y-123798897D01*
X144068452Y-123768452D01*
X144098897Y-123743466D01*
X144133633Y-123724899D01*
X144171326Y-123713465D01*
X144216661Y-123709000D01*
X145053339Y-123709000D01*
X145098674Y-123713465D01*
X145098674Y-123713465D01*
G37*
G36*
X154766674Y-123321465D02*
G01*
X154804367Y-123332899D01*
X154839103Y-123351466D01*
X154869548Y-123376452D01*
X154894534Y-123406897D01*
X154913101Y-123441633D01*
X154924535Y-123479326D01*
X154929000Y-123524661D01*
X154929000Y-124361339D01*
X154924535Y-124406674D01*
X154913101Y-124444367D01*
X154894534Y-124479103D01*
X154869548Y-124509548D01*
X154839103Y-124534534D01*
X154804367Y-124553101D01*
X154766674Y-124564535D01*
X154721339Y-124569000D01*
X153634661Y-124569000D01*
X153589326Y-124564535D01*
X153551633Y-124553101D01*
X153516897Y-124534534D01*
X153486452Y-124509548D01*
X153461466Y-124479103D01*
X153442899Y-124444367D01*
X153431465Y-124406674D01*
X153427000Y-124361339D01*
X153427000Y-123524661D01*
X153431465Y-123479326D01*
X153442899Y-123441633D01*
X153461466Y-123406897D01*
X153486452Y-123376452D01*
X153516897Y-123351466D01*
X153551633Y-123332899D01*
X153589326Y-123321465D01*
X153634661Y-123317000D01*
X154721339Y-123317000D01*
X154766674Y-123321465D01*
X154766674Y-123321465D01*
G37*
G36*
X158322674Y-123321465D02*
G01*
X158360367Y-123332899D01*
X158395103Y-123351466D01*
X158425548Y-123376452D01*
X158450534Y-123406897D01*
X158469101Y-123441633D01*
X158480535Y-123479326D01*
X158485000Y-123524661D01*
X158485000Y-124361339D01*
X158480535Y-124406674D01*
X158469101Y-124444367D01*
X158450534Y-124479103D01*
X158425548Y-124509548D01*
X158395103Y-124534534D01*
X158360367Y-124553101D01*
X158322674Y-124564535D01*
X158277339Y-124569000D01*
X157190661Y-124569000D01*
X157145326Y-124564535D01*
X157107633Y-124553101D01*
X157072897Y-124534534D01*
X157042452Y-124509548D01*
X157017466Y-124479103D01*
X156998899Y-124444367D01*
X156987465Y-124406674D01*
X156983000Y-124361339D01*
X156983000Y-123524661D01*
X156987465Y-123479326D01*
X156998899Y-123441633D01*
X157017466Y-123406897D01*
X157042452Y-123376452D01*
X157072897Y-123351466D01*
X157107633Y-123332899D01*
X157145326Y-123321465D01*
X157190661Y-123317000D01*
X158277339Y-123317000D01*
X158322674Y-123321465D01*
X158322674Y-123321465D01*
G37*
G36*
X137511000Y-122911000D02*
G01*
X136809000Y-122911000D01*
X136809000Y-120609000D01*
X137511000Y-120609000D01*
X137511000Y-122911000D01*
X137511000Y-122911000D01*
G37*
G36*
X136241000Y-122911000D02*
G01*
X135539000Y-122911000D01*
X135539000Y-120609000D01*
X136241000Y-120609000D01*
X136241000Y-122911000D01*
X136241000Y-122911000D01*
G37*
G36*
X134971000Y-122911000D02*
G01*
X134269000Y-122911000D01*
X134269000Y-120609000D01*
X134971000Y-120609000D01*
X134971000Y-122911000D01*
X134971000Y-122911000D01*
G37*
G36*
X133701000Y-122911000D02*
G01*
X132999000Y-122911000D01*
X132999000Y-120609000D01*
X133701000Y-120609000D01*
X133701000Y-122911000D01*
X133701000Y-122911000D01*
G37*
G36*
X161654442Y-120517518D02*
G01*
X161720627Y-120524037D01*
X161890466Y-120575557D01*
X162046991Y-120659222D01*
X162082729Y-120688552D01*
X162184186Y-120771814D01*
X162267448Y-120873271D01*
X162296778Y-120909009D01*
X162380443Y-121065534D01*
X162431963Y-121235373D01*
X162449359Y-121412000D01*
X162431963Y-121588627D01*
X162380443Y-121758466D01*
X162296778Y-121914991D01*
X162267448Y-121950729D01*
X162184186Y-122052186D01*
X162085733Y-122132983D01*
X162046991Y-122164778D01*
X161890466Y-122248443D01*
X161720627Y-122299963D01*
X161654442Y-122306482D01*
X161588260Y-122313000D01*
X161499740Y-122313000D01*
X161433558Y-122306482D01*
X161367373Y-122299963D01*
X161197534Y-122248443D01*
X161041009Y-122164778D01*
X161002267Y-122132983D01*
X160903814Y-122052186D01*
X160820552Y-121950729D01*
X160791222Y-121914991D01*
X160707557Y-121758466D01*
X160656037Y-121588627D01*
X160638641Y-121412000D01*
X160656037Y-121235373D01*
X160707557Y-121065534D01*
X160791222Y-120909009D01*
X160820552Y-120873271D01*
X160903814Y-120771814D01*
X161005271Y-120688552D01*
X161041009Y-120659222D01*
X161197534Y-120575557D01*
X161367373Y-120524037D01*
X161433558Y-120517518D01*
X161499740Y-120511000D01*
X161588260Y-120511000D01*
X161654442Y-120517518D01*
X161654442Y-120517518D01*
G37*
G36*
X140923674Y-121053465D02*
G01*
X140961367Y-121064899D01*
X140996103Y-121083466D01*
X141026548Y-121108452D01*
X141051534Y-121138897D01*
X141070101Y-121173633D01*
X141081535Y-121211326D01*
X141086000Y-121256661D01*
X141086000Y-122093339D01*
X141081535Y-122138674D01*
X141070101Y-122176367D01*
X141051534Y-122211103D01*
X141026548Y-122241548D01*
X140996103Y-122266534D01*
X140961367Y-122285101D01*
X140923674Y-122296535D01*
X140878339Y-122301000D01*
X139791661Y-122301000D01*
X139746326Y-122296535D01*
X139708633Y-122285101D01*
X139673897Y-122266534D01*
X139643452Y-122241548D01*
X139618466Y-122211103D01*
X139599899Y-122176367D01*
X139588465Y-122138674D01*
X139584000Y-122093339D01*
X139584000Y-121256661D01*
X139588465Y-121211326D01*
X139599899Y-121173633D01*
X139618466Y-121138897D01*
X139643452Y-121108452D01*
X139673897Y-121083466D01*
X139708633Y-121064899D01*
X139746326Y-121053465D01*
X139791661Y-121049000D01*
X140878339Y-121049000D01*
X140923674Y-121053465D01*
X140923674Y-121053465D01*
G37*
G36*
X158298000Y-122069000D02*
G01*
X155646000Y-122069000D01*
X155646000Y-120407000D01*
X158298000Y-120407000D01*
X158298000Y-122069000D01*
X158298000Y-122069000D01*
G37*
G36*
X153651000Y-121848000D02*
G01*
X151149000Y-121848000D01*
X151149000Y-120296000D01*
X153651000Y-120296000D01*
X153651000Y-121848000D01*
X153651000Y-121848000D01*
G37*
G36*
X140923674Y-119003465D02*
G01*
X140961367Y-119014899D01*
X140996103Y-119033466D01*
X141026548Y-119058452D01*
X141051534Y-119088897D01*
X141070101Y-119123633D01*
X141081535Y-119161326D01*
X141086000Y-119206661D01*
X141086000Y-120043339D01*
X141081535Y-120088674D01*
X141070101Y-120126367D01*
X141051534Y-120161103D01*
X141026548Y-120191548D01*
X140996103Y-120216534D01*
X140961367Y-120235101D01*
X140923674Y-120246535D01*
X140878339Y-120251000D01*
X139791661Y-120251000D01*
X139746326Y-120246535D01*
X139708633Y-120235101D01*
X139673897Y-120216534D01*
X139643452Y-120191548D01*
X139618466Y-120161103D01*
X139599899Y-120126367D01*
X139588465Y-120088674D01*
X139584000Y-120043339D01*
X139584000Y-119206661D01*
X139588465Y-119161326D01*
X139599899Y-119123633D01*
X139618466Y-119088897D01*
X139643452Y-119058452D01*
X139673897Y-119033466D01*
X139708633Y-119014899D01*
X139746326Y-119003465D01*
X139791661Y-118999000D01*
X140878339Y-118999000D01*
X140923674Y-119003465D01*
X140923674Y-119003465D01*
G37*
G36*
X162445000Y-119773000D02*
G01*
X160643000Y-119773000D01*
X160643000Y-117971000D01*
X162445000Y-117971000D01*
X162445000Y-119773000D01*
X162445000Y-119773000D01*
G37*
G36*
X118485256Y-116501298D02*
G01*
X118591579Y-116522447D01*
X118892042Y-116646903D01*
X119162451Y-116827585D01*
X119392415Y-117057549D01*
X119573097Y-117327958D01*
X119697553Y-117628421D01*
X119761000Y-117947391D01*
X119761000Y-118272609D01*
X119697553Y-118591579D01*
X119573097Y-118892042D01*
X119392415Y-119162451D01*
X119162451Y-119392415D01*
X118892042Y-119573097D01*
X118591579Y-119697553D01*
X118485256Y-119718702D01*
X118272611Y-119761000D01*
X117947389Y-119761000D01*
X117734744Y-119718702D01*
X117628421Y-119697553D01*
X117327958Y-119573097D01*
X117057549Y-119392415D01*
X116827585Y-119162451D01*
X116646903Y-118892042D01*
X116522447Y-118591579D01*
X116459000Y-118272609D01*
X116459000Y-117947391D01*
X116522447Y-117628421D01*
X116646903Y-117327958D01*
X116827585Y-117057549D01*
X117057549Y-116827585D01*
X117327958Y-116646903D01*
X117628421Y-116522447D01*
X117734744Y-116501298D01*
X117947389Y-116459000D01*
X118272611Y-116459000D01*
X118485256Y-116501298D01*
X118485256Y-116501298D01*
G37*
G36*
X204845256Y-116501298D02*
G01*
X204951579Y-116522447D01*
X205252042Y-116646903D01*
X205522451Y-116827585D01*
X205752415Y-117057549D01*
X205933097Y-117327958D01*
X206057553Y-117628421D01*
X206121000Y-117947391D01*
X206121000Y-118272609D01*
X206057553Y-118591579D01*
X205933097Y-118892042D01*
X205752415Y-119162451D01*
X205522451Y-119392415D01*
X205252042Y-119573097D01*
X204951579Y-119697553D01*
X204845256Y-119718702D01*
X204632611Y-119761000D01*
X204307389Y-119761000D01*
X204094744Y-119718702D01*
X203988421Y-119697553D01*
X203687958Y-119573097D01*
X203417549Y-119392415D01*
X203187585Y-119162451D01*
X203006903Y-118892042D01*
X202882447Y-118591579D01*
X202819000Y-118272609D01*
X202819000Y-117947391D01*
X202882447Y-117628421D01*
X203006903Y-117327958D01*
X203187585Y-117057549D01*
X203417549Y-116827585D01*
X203687958Y-116646903D01*
X203988421Y-116522447D01*
X204094744Y-116501298D01*
X204307389Y-116459000D01*
X204632611Y-116459000D01*
X204845256Y-116501298D01*
X204845256Y-116501298D01*
G37*
G36*
X158298000Y-119369000D02*
G01*
X155646000Y-119369000D01*
X155646000Y-117707000D01*
X158298000Y-117707000D01*
X158298000Y-119369000D01*
X158298000Y-119369000D01*
G37*
G36*
X153651000Y-117448000D02*
G01*
X151149000Y-117448000D01*
X151149000Y-115896000D01*
X153651000Y-115896000D01*
X153651000Y-117448000D01*
X153651000Y-117448000D01*
G37*
M02*
