G04 #@! TF.GenerationSoftware,KiCad,Pcbnew,(5.1.0-0)*
G04 #@! TF.CreationDate,2021-05-05T21:59:45-07:00*
G04 #@! TF.ProjectId,voltage_preamp,766f6c74-6167-4655-9f70-7265616d702e,rev?*
G04 #@! TF.SameCoordinates,Original*
G04 #@! TF.FileFunction,Paste,Top*
G04 #@! TF.FilePolarity,Positive*
%FSLAX46Y46*%
G04 Gerber Fmt 4.6, Leading zero omitted, Abs format (unit mm)*
G04 Created by KiCad (PCBNEW (5.1.0-0)) date 2021-05-05 21:59:45*
%MOMM*%
%LPD*%
G04 APERTURE LIST*
%ADD10R,0.450000X1.450000*%
%ADD11R,0.650000X1.560000*%
%ADD12R,0.600000X2.200000*%
%ADD13C,0.100000*%
%ADD14C,1.150000*%
G04 APERTURE END LIST*
D10*
X151425000Y-116672000D03*
X152075000Y-116672000D03*
X152725000Y-116672000D03*
X153375000Y-116672000D03*
X153375000Y-121072000D03*
X152725000Y-121072000D03*
X152075000Y-121072000D03*
X151425000Y-121072000D03*
X156931000Y-163236000D03*
X156281000Y-163236000D03*
X155631000Y-163236000D03*
X154981000Y-163236000D03*
X154981000Y-158836000D03*
X155631000Y-158836000D03*
X156281000Y-158836000D03*
X156931000Y-158836000D03*
D11*
X156972000Y-118538000D03*
X156022000Y-118538000D03*
X157922000Y-118538000D03*
X157922000Y-121238000D03*
X156972000Y-121238000D03*
X156022000Y-121238000D03*
D12*
X139700000Y-165100000D03*
X139700000Y-159700000D03*
X138430000Y-165100000D03*
X138430000Y-159700000D03*
X137160000Y-165100000D03*
X137160000Y-159700000D03*
X135890000Y-165100000D03*
X135890000Y-159700000D03*
X149860000Y-146210000D03*
X149860000Y-140810000D03*
X148590000Y-146210000D03*
X148590000Y-140810000D03*
X147320000Y-146210000D03*
X147320000Y-140810000D03*
X146050000Y-146210000D03*
X146050000Y-140810000D03*
X137160000Y-127160000D03*
X137160000Y-121760000D03*
X135890000Y-127160000D03*
X135890000Y-121760000D03*
X134620000Y-127160000D03*
X134620000Y-121760000D03*
X133350000Y-127160000D03*
X133350000Y-121760000D03*
D13*
G36*
X160748505Y-158802204D02*
G01*
X160772773Y-158805804D01*
X160796572Y-158811765D01*
X160819671Y-158820030D01*
X160841850Y-158830520D01*
X160862893Y-158843132D01*
X160882599Y-158857747D01*
X160900777Y-158874223D01*
X160917253Y-158892401D01*
X160931868Y-158912107D01*
X160944480Y-158933150D01*
X160954970Y-158955329D01*
X160963235Y-158978428D01*
X160969196Y-159002227D01*
X160972796Y-159026495D01*
X160974000Y-159050999D01*
X160974000Y-159701001D01*
X160972796Y-159725505D01*
X160969196Y-159749773D01*
X160963235Y-159773572D01*
X160954970Y-159796671D01*
X160944480Y-159818850D01*
X160931868Y-159839893D01*
X160917253Y-159859599D01*
X160900777Y-159877777D01*
X160882599Y-159894253D01*
X160862893Y-159908868D01*
X160841850Y-159921480D01*
X160819671Y-159931970D01*
X160796572Y-159940235D01*
X160772773Y-159946196D01*
X160748505Y-159949796D01*
X160724001Y-159951000D01*
X159823999Y-159951000D01*
X159799495Y-159949796D01*
X159775227Y-159946196D01*
X159751428Y-159940235D01*
X159728329Y-159931970D01*
X159706150Y-159921480D01*
X159685107Y-159908868D01*
X159665401Y-159894253D01*
X159647223Y-159877777D01*
X159630747Y-159859599D01*
X159616132Y-159839893D01*
X159603520Y-159818850D01*
X159593030Y-159796671D01*
X159584765Y-159773572D01*
X159578804Y-159749773D01*
X159575204Y-159725505D01*
X159574000Y-159701001D01*
X159574000Y-159050999D01*
X159575204Y-159026495D01*
X159578804Y-159002227D01*
X159584765Y-158978428D01*
X159593030Y-158955329D01*
X159603520Y-158933150D01*
X159616132Y-158912107D01*
X159630747Y-158892401D01*
X159647223Y-158874223D01*
X159665401Y-158857747D01*
X159685107Y-158843132D01*
X159706150Y-158830520D01*
X159728329Y-158820030D01*
X159751428Y-158811765D01*
X159775227Y-158805804D01*
X159799495Y-158802204D01*
X159823999Y-158801000D01*
X160724001Y-158801000D01*
X160748505Y-158802204D01*
X160748505Y-158802204D01*
G37*
D14*
X160274000Y-159376000D03*
D13*
G36*
X160748505Y-160852204D02*
G01*
X160772773Y-160855804D01*
X160796572Y-160861765D01*
X160819671Y-160870030D01*
X160841850Y-160880520D01*
X160862893Y-160893132D01*
X160882599Y-160907747D01*
X160900777Y-160924223D01*
X160917253Y-160942401D01*
X160931868Y-160962107D01*
X160944480Y-160983150D01*
X160954970Y-161005329D01*
X160963235Y-161028428D01*
X160969196Y-161052227D01*
X160972796Y-161076495D01*
X160974000Y-161100999D01*
X160974000Y-161751001D01*
X160972796Y-161775505D01*
X160969196Y-161799773D01*
X160963235Y-161823572D01*
X160954970Y-161846671D01*
X160944480Y-161868850D01*
X160931868Y-161889893D01*
X160917253Y-161909599D01*
X160900777Y-161927777D01*
X160882599Y-161944253D01*
X160862893Y-161958868D01*
X160841850Y-161971480D01*
X160819671Y-161981970D01*
X160796572Y-161990235D01*
X160772773Y-161996196D01*
X160748505Y-161999796D01*
X160724001Y-162001000D01*
X159823999Y-162001000D01*
X159799495Y-161999796D01*
X159775227Y-161996196D01*
X159751428Y-161990235D01*
X159728329Y-161981970D01*
X159706150Y-161971480D01*
X159685107Y-161958868D01*
X159665401Y-161944253D01*
X159647223Y-161927777D01*
X159630747Y-161909599D01*
X159616132Y-161889893D01*
X159603520Y-161868850D01*
X159593030Y-161846671D01*
X159584765Y-161823572D01*
X159578804Y-161799773D01*
X159575204Y-161775505D01*
X159574000Y-161751001D01*
X159574000Y-161100999D01*
X159575204Y-161076495D01*
X159578804Y-161052227D01*
X159584765Y-161028428D01*
X159593030Y-161005329D01*
X159603520Y-160983150D01*
X159616132Y-160962107D01*
X159630747Y-160942401D01*
X159647223Y-160924223D01*
X159665401Y-160907747D01*
X159685107Y-160893132D01*
X159706150Y-160880520D01*
X159728329Y-160870030D01*
X159751428Y-160861765D01*
X159775227Y-160855804D01*
X159799495Y-160852204D01*
X159823999Y-160851000D01*
X160724001Y-160851000D01*
X160748505Y-160852204D01*
X160748505Y-160852204D01*
G37*
D14*
X160274000Y-161426000D03*
D13*
G36*
X147669505Y-161861204D02*
G01*
X147693773Y-161864804D01*
X147717572Y-161870765D01*
X147740671Y-161879030D01*
X147762850Y-161889520D01*
X147783893Y-161902132D01*
X147803599Y-161916747D01*
X147821777Y-161933223D01*
X147838253Y-161951401D01*
X147852868Y-161971107D01*
X147865480Y-161992150D01*
X147875970Y-162014329D01*
X147884235Y-162037428D01*
X147890196Y-162061227D01*
X147893796Y-162085495D01*
X147895000Y-162109999D01*
X147895000Y-163010001D01*
X147893796Y-163034505D01*
X147890196Y-163058773D01*
X147884235Y-163082572D01*
X147875970Y-163105671D01*
X147865480Y-163127850D01*
X147852868Y-163148893D01*
X147838253Y-163168599D01*
X147821777Y-163186777D01*
X147803599Y-163203253D01*
X147783893Y-163217868D01*
X147762850Y-163230480D01*
X147740671Y-163240970D01*
X147717572Y-163249235D01*
X147693773Y-163255196D01*
X147669505Y-163258796D01*
X147645001Y-163260000D01*
X146994999Y-163260000D01*
X146970495Y-163258796D01*
X146946227Y-163255196D01*
X146922428Y-163249235D01*
X146899329Y-163240970D01*
X146877150Y-163230480D01*
X146856107Y-163217868D01*
X146836401Y-163203253D01*
X146818223Y-163186777D01*
X146801747Y-163168599D01*
X146787132Y-163148893D01*
X146774520Y-163127850D01*
X146764030Y-163105671D01*
X146755765Y-163082572D01*
X146749804Y-163058773D01*
X146746204Y-163034505D01*
X146745000Y-163010001D01*
X146745000Y-162109999D01*
X146746204Y-162085495D01*
X146749804Y-162061227D01*
X146755765Y-162037428D01*
X146764030Y-162014329D01*
X146774520Y-161992150D01*
X146787132Y-161971107D01*
X146801747Y-161951401D01*
X146818223Y-161933223D01*
X146836401Y-161916747D01*
X146856107Y-161902132D01*
X146877150Y-161889520D01*
X146899329Y-161879030D01*
X146922428Y-161870765D01*
X146946227Y-161864804D01*
X146970495Y-161861204D01*
X146994999Y-161860000D01*
X147645001Y-161860000D01*
X147669505Y-161861204D01*
X147669505Y-161861204D01*
G37*
D14*
X147320000Y-162560000D03*
D13*
G36*
X149719505Y-161861204D02*
G01*
X149743773Y-161864804D01*
X149767572Y-161870765D01*
X149790671Y-161879030D01*
X149812850Y-161889520D01*
X149833893Y-161902132D01*
X149853599Y-161916747D01*
X149871777Y-161933223D01*
X149888253Y-161951401D01*
X149902868Y-161971107D01*
X149915480Y-161992150D01*
X149925970Y-162014329D01*
X149934235Y-162037428D01*
X149940196Y-162061227D01*
X149943796Y-162085495D01*
X149945000Y-162109999D01*
X149945000Y-163010001D01*
X149943796Y-163034505D01*
X149940196Y-163058773D01*
X149934235Y-163082572D01*
X149925970Y-163105671D01*
X149915480Y-163127850D01*
X149902868Y-163148893D01*
X149888253Y-163168599D01*
X149871777Y-163186777D01*
X149853599Y-163203253D01*
X149833893Y-163217868D01*
X149812850Y-163230480D01*
X149790671Y-163240970D01*
X149767572Y-163249235D01*
X149743773Y-163255196D01*
X149719505Y-163258796D01*
X149695001Y-163260000D01*
X149044999Y-163260000D01*
X149020495Y-163258796D01*
X148996227Y-163255196D01*
X148972428Y-163249235D01*
X148949329Y-163240970D01*
X148927150Y-163230480D01*
X148906107Y-163217868D01*
X148886401Y-163203253D01*
X148868223Y-163186777D01*
X148851747Y-163168599D01*
X148837132Y-163148893D01*
X148824520Y-163127850D01*
X148814030Y-163105671D01*
X148805765Y-163082572D01*
X148799804Y-163058773D01*
X148796204Y-163034505D01*
X148795000Y-163010001D01*
X148795000Y-162109999D01*
X148796204Y-162085495D01*
X148799804Y-162061227D01*
X148805765Y-162037428D01*
X148814030Y-162014329D01*
X148824520Y-161992150D01*
X148837132Y-161971107D01*
X148851747Y-161951401D01*
X148868223Y-161933223D01*
X148886401Y-161916747D01*
X148906107Y-161902132D01*
X148927150Y-161889520D01*
X148949329Y-161879030D01*
X148972428Y-161870765D01*
X148996227Y-161864804D01*
X149020495Y-161861204D01*
X149044999Y-161860000D01*
X149695001Y-161860000D01*
X149719505Y-161861204D01*
X149719505Y-161861204D01*
G37*
D14*
X149370000Y-162560000D03*
D13*
G36*
X157829505Y-142811204D02*
G01*
X157853773Y-142814804D01*
X157877572Y-142820765D01*
X157900671Y-142829030D01*
X157922850Y-142839520D01*
X157943893Y-142852132D01*
X157963599Y-142866747D01*
X157981777Y-142883223D01*
X157998253Y-142901401D01*
X158012868Y-142921107D01*
X158025480Y-142942150D01*
X158035970Y-142964329D01*
X158044235Y-142987428D01*
X158050196Y-143011227D01*
X158053796Y-143035495D01*
X158055000Y-143059999D01*
X158055000Y-143960001D01*
X158053796Y-143984505D01*
X158050196Y-144008773D01*
X158044235Y-144032572D01*
X158035970Y-144055671D01*
X158025480Y-144077850D01*
X158012868Y-144098893D01*
X157998253Y-144118599D01*
X157981777Y-144136777D01*
X157963599Y-144153253D01*
X157943893Y-144167868D01*
X157922850Y-144180480D01*
X157900671Y-144190970D01*
X157877572Y-144199235D01*
X157853773Y-144205196D01*
X157829505Y-144208796D01*
X157805001Y-144210000D01*
X157154999Y-144210000D01*
X157130495Y-144208796D01*
X157106227Y-144205196D01*
X157082428Y-144199235D01*
X157059329Y-144190970D01*
X157037150Y-144180480D01*
X157016107Y-144167868D01*
X156996401Y-144153253D01*
X156978223Y-144136777D01*
X156961747Y-144118599D01*
X156947132Y-144098893D01*
X156934520Y-144077850D01*
X156924030Y-144055671D01*
X156915765Y-144032572D01*
X156909804Y-144008773D01*
X156906204Y-143984505D01*
X156905000Y-143960001D01*
X156905000Y-143059999D01*
X156906204Y-143035495D01*
X156909804Y-143011227D01*
X156915765Y-142987428D01*
X156924030Y-142964329D01*
X156934520Y-142942150D01*
X156947132Y-142921107D01*
X156961747Y-142901401D01*
X156978223Y-142883223D01*
X156996401Y-142866747D01*
X157016107Y-142852132D01*
X157037150Y-142839520D01*
X157059329Y-142829030D01*
X157082428Y-142820765D01*
X157106227Y-142814804D01*
X157130495Y-142811204D01*
X157154999Y-142810000D01*
X157805001Y-142810000D01*
X157829505Y-142811204D01*
X157829505Y-142811204D01*
G37*
D14*
X157480000Y-143510000D03*
D13*
G36*
X159879505Y-142811204D02*
G01*
X159903773Y-142814804D01*
X159927572Y-142820765D01*
X159950671Y-142829030D01*
X159972850Y-142839520D01*
X159993893Y-142852132D01*
X160013599Y-142866747D01*
X160031777Y-142883223D01*
X160048253Y-142901401D01*
X160062868Y-142921107D01*
X160075480Y-142942150D01*
X160085970Y-142964329D01*
X160094235Y-142987428D01*
X160100196Y-143011227D01*
X160103796Y-143035495D01*
X160105000Y-143059999D01*
X160105000Y-143960001D01*
X160103796Y-143984505D01*
X160100196Y-144008773D01*
X160094235Y-144032572D01*
X160085970Y-144055671D01*
X160075480Y-144077850D01*
X160062868Y-144098893D01*
X160048253Y-144118599D01*
X160031777Y-144136777D01*
X160013599Y-144153253D01*
X159993893Y-144167868D01*
X159972850Y-144180480D01*
X159950671Y-144190970D01*
X159927572Y-144199235D01*
X159903773Y-144205196D01*
X159879505Y-144208796D01*
X159855001Y-144210000D01*
X159204999Y-144210000D01*
X159180495Y-144208796D01*
X159156227Y-144205196D01*
X159132428Y-144199235D01*
X159109329Y-144190970D01*
X159087150Y-144180480D01*
X159066107Y-144167868D01*
X159046401Y-144153253D01*
X159028223Y-144136777D01*
X159011747Y-144118599D01*
X158997132Y-144098893D01*
X158984520Y-144077850D01*
X158974030Y-144055671D01*
X158965765Y-144032572D01*
X158959804Y-144008773D01*
X158956204Y-143984505D01*
X158955000Y-143960001D01*
X158955000Y-143059999D01*
X158956204Y-143035495D01*
X158959804Y-143011227D01*
X158965765Y-142987428D01*
X158974030Y-142964329D01*
X158984520Y-142942150D01*
X158997132Y-142921107D01*
X159011747Y-142901401D01*
X159028223Y-142883223D01*
X159046401Y-142866747D01*
X159066107Y-142852132D01*
X159087150Y-142839520D01*
X159109329Y-142829030D01*
X159132428Y-142820765D01*
X159156227Y-142814804D01*
X159180495Y-142811204D01*
X159204999Y-142810000D01*
X159855001Y-142810000D01*
X159879505Y-142811204D01*
X159879505Y-142811204D01*
G37*
D14*
X159530000Y-143510000D03*
D13*
G36*
X144984505Y-123761204D02*
G01*
X145008773Y-123764804D01*
X145032572Y-123770765D01*
X145055671Y-123779030D01*
X145077850Y-123789520D01*
X145098893Y-123802132D01*
X145118599Y-123816747D01*
X145136777Y-123833223D01*
X145153253Y-123851401D01*
X145167868Y-123871107D01*
X145180480Y-123892150D01*
X145190970Y-123914329D01*
X145199235Y-123937428D01*
X145205196Y-123961227D01*
X145208796Y-123985495D01*
X145210000Y-124009999D01*
X145210000Y-124910001D01*
X145208796Y-124934505D01*
X145205196Y-124958773D01*
X145199235Y-124982572D01*
X145190970Y-125005671D01*
X145180480Y-125027850D01*
X145167868Y-125048893D01*
X145153253Y-125068599D01*
X145136777Y-125086777D01*
X145118599Y-125103253D01*
X145098893Y-125117868D01*
X145077850Y-125130480D01*
X145055671Y-125140970D01*
X145032572Y-125149235D01*
X145008773Y-125155196D01*
X144984505Y-125158796D01*
X144960001Y-125160000D01*
X144309999Y-125160000D01*
X144285495Y-125158796D01*
X144261227Y-125155196D01*
X144237428Y-125149235D01*
X144214329Y-125140970D01*
X144192150Y-125130480D01*
X144171107Y-125117868D01*
X144151401Y-125103253D01*
X144133223Y-125086777D01*
X144116747Y-125068599D01*
X144102132Y-125048893D01*
X144089520Y-125027850D01*
X144079030Y-125005671D01*
X144070765Y-124982572D01*
X144064804Y-124958773D01*
X144061204Y-124934505D01*
X144060000Y-124910001D01*
X144060000Y-124009999D01*
X144061204Y-123985495D01*
X144064804Y-123961227D01*
X144070765Y-123937428D01*
X144079030Y-123914329D01*
X144089520Y-123892150D01*
X144102132Y-123871107D01*
X144116747Y-123851401D01*
X144133223Y-123833223D01*
X144151401Y-123816747D01*
X144171107Y-123802132D01*
X144192150Y-123789520D01*
X144214329Y-123779030D01*
X144237428Y-123770765D01*
X144261227Y-123764804D01*
X144285495Y-123761204D01*
X144309999Y-123760000D01*
X144960001Y-123760000D01*
X144984505Y-123761204D01*
X144984505Y-123761204D01*
G37*
D14*
X144635000Y-124460000D03*
D13*
G36*
X147034505Y-123761204D02*
G01*
X147058773Y-123764804D01*
X147082572Y-123770765D01*
X147105671Y-123779030D01*
X147127850Y-123789520D01*
X147148893Y-123802132D01*
X147168599Y-123816747D01*
X147186777Y-123833223D01*
X147203253Y-123851401D01*
X147217868Y-123871107D01*
X147230480Y-123892150D01*
X147240970Y-123914329D01*
X147249235Y-123937428D01*
X147255196Y-123961227D01*
X147258796Y-123985495D01*
X147260000Y-124009999D01*
X147260000Y-124910001D01*
X147258796Y-124934505D01*
X147255196Y-124958773D01*
X147249235Y-124982572D01*
X147240970Y-125005671D01*
X147230480Y-125027850D01*
X147217868Y-125048893D01*
X147203253Y-125068599D01*
X147186777Y-125086777D01*
X147168599Y-125103253D01*
X147148893Y-125117868D01*
X147127850Y-125130480D01*
X147105671Y-125140970D01*
X147082572Y-125149235D01*
X147058773Y-125155196D01*
X147034505Y-125158796D01*
X147010001Y-125160000D01*
X146359999Y-125160000D01*
X146335495Y-125158796D01*
X146311227Y-125155196D01*
X146287428Y-125149235D01*
X146264329Y-125140970D01*
X146242150Y-125130480D01*
X146221107Y-125117868D01*
X146201401Y-125103253D01*
X146183223Y-125086777D01*
X146166747Y-125068599D01*
X146152132Y-125048893D01*
X146139520Y-125027850D01*
X146129030Y-125005671D01*
X146120765Y-124982572D01*
X146114804Y-124958773D01*
X146111204Y-124934505D01*
X146110000Y-124910001D01*
X146110000Y-124009999D01*
X146111204Y-123985495D01*
X146114804Y-123961227D01*
X146120765Y-123937428D01*
X146129030Y-123914329D01*
X146139520Y-123892150D01*
X146152132Y-123871107D01*
X146166747Y-123851401D01*
X146183223Y-123833223D01*
X146201401Y-123816747D01*
X146221107Y-123802132D01*
X146242150Y-123789520D01*
X146264329Y-123779030D01*
X146287428Y-123770765D01*
X146311227Y-123764804D01*
X146335495Y-123761204D01*
X146359999Y-123760000D01*
X147010001Y-123760000D01*
X147034505Y-123761204D01*
X147034505Y-123761204D01*
G37*
D14*
X146685000Y-124460000D03*
D13*
G36*
X143349505Y-166431204D02*
G01*
X143373773Y-166434804D01*
X143397572Y-166440765D01*
X143420671Y-166449030D01*
X143442850Y-166459520D01*
X143463893Y-166472132D01*
X143483599Y-166486747D01*
X143501777Y-166503223D01*
X143518253Y-166521401D01*
X143532868Y-166541107D01*
X143545480Y-166562150D01*
X143555970Y-166584329D01*
X143564235Y-166607428D01*
X143570196Y-166631227D01*
X143573796Y-166655495D01*
X143575000Y-166679999D01*
X143575000Y-167330001D01*
X143573796Y-167354505D01*
X143570196Y-167378773D01*
X143564235Y-167402572D01*
X143555970Y-167425671D01*
X143545480Y-167447850D01*
X143532868Y-167468893D01*
X143518253Y-167488599D01*
X143501777Y-167506777D01*
X143483599Y-167523253D01*
X143463893Y-167537868D01*
X143442850Y-167550480D01*
X143420671Y-167560970D01*
X143397572Y-167569235D01*
X143373773Y-167575196D01*
X143349505Y-167578796D01*
X143325001Y-167580000D01*
X142424999Y-167580000D01*
X142400495Y-167578796D01*
X142376227Y-167575196D01*
X142352428Y-167569235D01*
X142329329Y-167560970D01*
X142307150Y-167550480D01*
X142286107Y-167537868D01*
X142266401Y-167523253D01*
X142248223Y-167506777D01*
X142231747Y-167488599D01*
X142217132Y-167468893D01*
X142204520Y-167447850D01*
X142194030Y-167425671D01*
X142185765Y-167402572D01*
X142179804Y-167378773D01*
X142176204Y-167354505D01*
X142175000Y-167330001D01*
X142175000Y-166679999D01*
X142176204Y-166655495D01*
X142179804Y-166631227D01*
X142185765Y-166607428D01*
X142194030Y-166584329D01*
X142204520Y-166562150D01*
X142217132Y-166541107D01*
X142231747Y-166521401D01*
X142248223Y-166503223D01*
X142266401Y-166486747D01*
X142286107Y-166472132D01*
X142307150Y-166459520D01*
X142329329Y-166449030D01*
X142352428Y-166440765D01*
X142376227Y-166434804D01*
X142400495Y-166431204D01*
X142424999Y-166430000D01*
X143325001Y-166430000D01*
X143349505Y-166431204D01*
X143349505Y-166431204D01*
G37*
D14*
X142875000Y-167005000D03*
D13*
G36*
X143349505Y-164381204D02*
G01*
X143373773Y-164384804D01*
X143397572Y-164390765D01*
X143420671Y-164399030D01*
X143442850Y-164409520D01*
X143463893Y-164422132D01*
X143483599Y-164436747D01*
X143501777Y-164453223D01*
X143518253Y-164471401D01*
X143532868Y-164491107D01*
X143545480Y-164512150D01*
X143555970Y-164534329D01*
X143564235Y-164557428D01*
X143570196Y-164581227D01*
X143573796Y-164605495D01*
X143575000Y-164629999D01*
X143575000Y-165280001D01*
X143573796Y-165304505D01*
X143570196Y-165328773D01*
X143564235Y-165352572D01*
X143555970Y-165375671D01*
X143545480Y-165397850D01*
X143532868Y-165418893D01*
X143518253Y-165438599D01*
X143501777Y-165456777D01*
X143483599Y-165473253D01*
X143463893Y-165487868D01*
X143442850Y-165500480D01*
X143420671Y-165510970D01*
X143397572Y-165519235D01*
X143373773Y-165525196D01*
X143349505Y-165528796D01*
X143325001Y-165530000D01*
X142424999Y-165530000D01*
X142400495Y-165528796D01*
X142376227Y-165525196D01*
X142352428Y-165519235D01*
X142329329Y-165510970D01*
X142307150Y-165500480D01*
X142286107Y-165487868D01*
X142266401Y-165473253D01*
X142248223Y-165456777D01*
X142231747Y-165438599D01*
X142217132Y-165418893D01*
X142204520Y-165397850D01*
X142194030Y-165375671D01*
X142185765Y-165352572D01*
X142179804Y-165328773D01*
X142176204Y-165304505D01*
X142175000Y-165280001D01*
X142175000Y-164629999D01*
X142176204Y-164605495D01*
X142179804Y-164581227D01*
X142185765Y-164557428D01*
X142194030Y-164534329D01*
X142204520Y-164512150D01*
X142217132Y-164491107D01*
X142231747Y-164471401D01*
X142248223Y-164453223D01*
X142266401Y-164436747D01*
X142286107Y-164422132D01*
X142307150Y-164409520D01*
X142329329Y-164399030D01*
X142352428Y-164390765D01*
X142376227Y-164384804D01*
X142400495Y-164381204D01*
X142424999Y-164380000D01*
X143325001Y-164380000D01*
X143349505Y-164381204D01*
X143349505Y-164381204D01*
G37*
D14*
X142875000Y-164955000D03*
D13*
G36*
X153509505Y-147517204D02*
G01*
X153533773Y-147520804D01*
X153557572Y-147526765D01*
X153580671Y-147535030D01*
X153602850Y-147545520D01*
X153623893Y-147558132D01*
X153643599Y-147572747D01*
X153661777Y-147589223D01*
X153678253Y-147607401D01*
X153692868Y-147627107D01*
X153705480Y-147648150D01*
X153715970Y-147670329D01*
X153724235Y-147693428D01*
X153730196Y-147717227D01*
X153733796Y-147741495D01*
X153735000Y-147765999D01*
X153735000Y-148416001D01*
X153733796Y-148440505D01*
X153730196Y-148464773D01*
X153724235Y-148488572D01*
X153715970Y-148511671D01*
X153705480Y-148533850D01*
X153692868Y-148554893D01*
X153678253Y-148574599D01*
X153661777Y-148592777D01*
X153643599Y-148609253D01*
X153623893Y-148623868D01*
X153602850Y-148636480D01*
X153580671Y-148646970D01*
X153557572Y-148655235D01*
X153533773Y-148661196D01*
X153509505Y-148664796D01*
X153485001Y-148666000D01*
X152584999Y-148666000D01*
X152560495Y-148664796D01*
X152536227Y-148661196D01*
X152512428Y-148655235D01*
X152489329Y-148646970D01*
X152467150Y-148636480D01*
X152446107Y-148623868D01*
X152426401Y-148609253D01*
X152408223Y-148592777D01*
X152391747Y-148574599D01*
X152377132Y-148554893D01*
X152364520Y-148533850D01*
X152354030Y-148511671D01*
X152345765Y-148488572D01*
X152339804Y-148464773D01*
X152336204Y-148440505D01*
X152335000Y-148416001D01*
X152335000Y-147765999D01*
X152336204Y-147741495D01*
X152339804Y-147717227D01*
X152345765Y-147693428D01*
X152354030Y-147670329D01*
X152364520Y-147648150D01*
X152377132Y-147627107D01*
X152391747Y-147607401D01*
X152408223Y-147589223D01*
X152426401Y-147572747D01*
X152446107Y-147558132D01*
X152467150Y-147545520D01*
X152489329Y-147535030D01*
X152512428Y-147526765D01*
X152536227Y-147520804D01*
X152560495Y-147517204D01*
X152584999Y-147516000D01*
X153485001Y-147516000D01*
X153509505Y-147517204D01*
X153509505Y-147517204D01*
G37*
D14*
X153035000Y-148091000D03*
D13*
G36*
X153509505Y-145467204D02*
G01*
X153533773Y-145470804D01*
X153557572Y-145476765D01*
X153580671Y-145485030D01*
X153602850Y-145495520D01*
X153623893Y-145508132D01*
X153643599Y-145522747D01*
X153661777Y-145539223D01*
X153678253Y-145557401D01*
X153692868Y-145577107D01*
X153705480Y-145598150D01*
X153715970Y-145620329D01*
X153724235Y-145643428D01*
X153730196Y-145667227D01*
X153733796Y-145691495D01*
X153735000Y-145715999D01*
X153735000Y-146366001D01*
X153733796Y-146390505D01*
X153730196Y-146414773D01*
X153724235Y-146438572D01*
X153715970Y-146461671D01*
X153705480Y-146483850D01*
X153692868Y-146504893D01*
X153678253Y-146524599D01*
X153661777Y-146542777D01*
X153643599Y-146559253D01*
X153623893Y-146573868D01*
X153602850Y-146586480D01*
X153580671Y-146596970D01*
X153557572Y-146605235D01*
X153533773Y-146611196D01*
X153509505Y-146614796D01*
X153485001Y-146616000D01*
X152584999Y-146616000D01*
X152560495Y-146614796D01*
X152536227Y-146611196D01*
X152512428Y-146605235D01*
X152489329Y-146596970D01*
X152467150Y-146586480D01*
X152446107Y-146573868D01*
X152426401Y-146559253D01*
X152408223Y-146542777D01*
X152391747Y-146524599D01*
X152377132Y-146504893D01*
X152364520Y-146483850D01*
X152354030Y-146461671D01*
X152345765Y-146438572D01*
X152339804Y-146414773D01*
X152336204Y-146390505D01*
X152335000Y-146366001D01*
X152335000Y-145715999D01*
X152336204Y-145691495D01*
X152339804Y-145667227D01*
X152345765Y-145643428D01*
X152354030Y-145620329D01*
X152364520Y-145598150D01*
X152377132Y-145577107D01*
X152391747Y-145557401D01*
X152408223Y-145539223D01*
X152426401Y-145522747D01*
X152446107Y-145508132D01*
X152467150Y-145495520D01*
X152489329Y-145485030D01*
X152512428Y-145476765D01*
X152536227Y-145470804D01*
X152560495Y-145467204D01*
X152584999Y-145466000D01*
X153485001Y-145466000D01*
X153509505Y-145467204D01*
X153509505Y-145467204D01*
G37*
D14*
X153035000Y-146041000D03*
D13*
G36*
X140809505Y-128331204D02*
G01*
X140833773Y-128334804D01*
X140857572Y-128340765D01*
X140880671Y-128349030D01*
X140902850Y-128359520D01*
X140923893Y-128372132D01*
X140943599Y-128386747D01*
X140961777Y-128403223D01*
X140978253Y-128421401D01*
X140992868Y-128441107D01*
X141005480Y-128462150D01*
X141015970Y-128484329D01*
X141024235Y-128507428D01*
X141030196Y-128531227D01*
X141033796Y-128555495D01*
X141035000Y-128579999D01*
X141035000Y-129230001D01*
X141033796Y-129254505D01*
X141030196Y-129278773D01*
X141024235Y-129302572D01*
X141015970Y-129325671D01*
X141005480Y-129347850D01*
X140992868Y-129368893D01*
X140978253Y-129388599D01*
X140961777Y-129406777D01*
X140943599Y-129423253D01*
X140923893Y-129437868D01*
X140902850Y-129450480D01*
X140880671Y-129460970D01*
X140857572Y-129469235D01*
X140833773Y-129475196D01*
X140809505Y-129478796D01*
X140785001Y-129480000D01*
X139884999Y-129480000D01*
X139860495Y-129478796D01*
X139836227Y-129475196D01*
X139812428Y-129469235D01*
X139789329Y-129460970D01*
X139767150Y-129450480D01*
X139746107Y-129437868D01*
X139726401Y-129423253D01*
X139708223Y-129406777D01*
X139691747Y-129388599D01*
X139677132Y-129368893D01*
X139664520Y-129347850D01*
X139654030Y-129325671D01*
X139645765Y-129302572D01*
X139639804Y-129278773D01*
X139636204Y-129254505D01*
X139635000Y-129230001D01*
X139635000Y-128579999D01*
X139636204Y-128555495D01*
X139639804Y-128531227D01*
X139645765Y-128507428D01*
X139654030Y-128484329D01*
X139664520Y-128462150D01*
X139677132Y-128441107D01*
X139691747Y-128421401D01*
X139708223Y-128403223D01*
X139726401Y-128386747D01*
X139746107Y-128372132D01*
X139767150Y-128359520D01*
X139789329Y-128349030D01*
X139812428Y-128340765D01*
X139836227Y-128334804D01*
X139860495Y-128331204D01*
X139884999Y-128330000D01*
X140785001Y-128330000D01*
X140809505Y-128331204D01*
X140809505Y-128331204D01*
G37*
D14*
X140335000Y-128905000D03*
D13*
G36*
X140809505Y-126281204D02*
G01*
X140833773Y-126284804D01*
X140857572Y-126290765D01*
X140880671Y-126299030D01*
X140902850Y-126309520D01*
X140923893Y-126322132D01*
X140943599Y-126336747D01*
X140961777Y-126353223D01*
X140978253Y-126371401D01*
X140992868Y-126391107D01*
X141005480Y-126412150D01*
X141015970Y-126434329D01*
X141024235Y-126457428D01*
X141030196Y-126481227D01*
X141033796Y-126505495D01*
X141035000Y-126529999D01*
X141035000Y-127180001D01*
X141033796Y-127204505D01*
X141030196Y-127228773D01*
X141024235Y-127252572D01*
X141015970Y-127275671D01*
X141005480Y-127297850D01*
X140992868Y-127318893D01*
X140978253Y-127338599D01*
X140961777Y-127356777D01*
X140943599Y-127373253D01*
X140923893Y-127387868D01*
X140902850Y-127400480D01*
X140880671Y-127410970D01*
X140857572Y-127419235D01*
X140833773Y-127425196D01*
X140809505Y-127428796D01*
X140785001Y-127430000D01*
X139884999Y-127430000D01*
X139860495Y-127428796D01*
X139836227Y-127425196D01*
X139812428Y-127419235D01*
X139789329Y-127410970D01*
X139767150Y-127400480D01*
X139746107Y-127387868D01*
X139726401Y-127373253D01*
X139708223Y-127356777D01*
X139691747Y-127338599D01*
X139677132Y-127318893D01*
X139664520Y-127297850D01*
X139654030Y-127275671D01*
X139645765Y-127252572D01*
X139639804Y-127228773D01*
X139636204Y-127204505D01*
X139635000Y-127180001D01*
X139635000Y-126529999D01*
X139636204Y-126505495D01*
X139639804Y-126481227D01*
X139645765Y-126457428D01*
X139654030Y-126434329D01*
X139664520Y-126412150D01*
X139677132Y-126391107D01*
X139691747Y-126371401D01*
X139708223Y-126353223D01*
X139726401Y-126336747D01*
X139746107Y-126322132D01*
X139767150Y-126309520D01*
X139789329Y-126299030D01*
X139812428Y-126290765D01*
X139836227Y-126284804D01*
X139860495Y-126281204D01*
X139884999Y-126280000D01*
X140785001Y-126280000D01*
X140809505Y-126281204D01*
X140809505Y-126281204D01*
G37*
D14*
X140335000Y-126855000D03*
D13*
G36*
X143349505Y-159201204D02*
G01*
X143373773Y-159204804D01*
X143397572Y-159210765D01*
X143420671Y-159219030D01*
X143442850Y-159229520D01*
X143463893Y-159242132D01*
X143483599Y-159256747D01*
X143501777Y-159273223D01*
X143518253Y-159291401D01*
X143532868Y-159311107D01*
X143545480Y-159332150D01*
X143555970Y-159354329D01*
X143564235Y-159377428D01*
X143570196Y-159401227D01*
X143573796Y-159425495D01*
X143575000Y-159449999D01*
X143575000Y-160100001D01*
X143573796Y-160124505D01*
X143570196Y-160148773D01*
X143564235Y-160172572D01*
X143555970Y-160195671D01*
X143545480Y-160217850D01*
X143532868Y-160238893D01*
X143518253Y-160258599D01*
X143501777Y-160276777D01*
X143483599Y-160293253D01*
X143463893Y-160307868D01*
X143442850Y-160320480D01*
X143420671Y-160330970D01*
X143397572Y-160339235D01*
X143373773Y-160345196D01*
X143349505Y-160348796D01*
X143325001Y-160350000D01*
X142424999Y-160350000D01*
X142400495Y-160348796D01*
X142376227Y-160345196D01*
X142352428Y-160339235D01*
X142329329Y-160330970D01*
X142307150Y-160320480D01*
X142286107Y-160307868D01*
X142266401Y-160293253D01*
X142248223Y-160276777D01*
X142231747Y-160258599D01*
X142217132Y-160238893D01*
X142204520Y-160217850D01*
X142194030Y-160195671D01*
X142185765Y-160172572D01*
X142179804Y-160148773D01*
X142176204Y-160124505D01*
X142175000Y-160100001D01*
X142175000Y-159449999D01*
X142176204Y-159425495D01*
X142179804Y-159401227D01*
X142185765Y-159377428D01*
X142194030Y-159354329D01*
X142204520Y-159332150D01*
X142217132Y-159311107D01*
X142231747Y-159291401D01*
X142248223Y-159273223D01*
X142266401Y-159256747D01*
X142286107Y-159242132D01*
X142307150Y-159229520D01*
X142329329Y-159219030D01*
X142352428Y-159210765D01*
X142376227Y-159204804D01*
X142400495Y-159201204D01*
X142424999Y-159200000D01*
X143325001Y-159200000D01*
X143349505Y-159201204D01*
X143349505Y-159201204D01*
G37*
D14*
X142875000Y-159775000D03*
D13*
G36*
X143349505Y-157151204D02*
G01*
X143373773Y-157154804D01*
X143397572Y-157160765D01*
X143420671Y-157169030D01*
X143442850Y-157179520D01*
X143463893Y-157192132D01*
X143483599Y-157206747D01*
X143501777Y-157223223D01*
X143518253Y-157241401D01*
X143532868Y-157261107D01*
X143545480Y-157282150D01*
X143555970Y-157304329D01*
X143564235Y-157327428D01*
X143570196Y-157351227D01*
X143573796Y-157375495D01*
X143575000Y-157399999D01*
X143575000Y-158050001D01*
X143573796Y-158074505D01*
X143570196Y-158098773D01*
X143564235Y-158122572D01*
X143555970Y-158145671D01*
X143545480Y-158167850D01*
X143532868Y-158188893D01*
X143518253Y-158208599D01*
X143501777Y-158226777D01*
X143483599Y-158243253D01*
X143463893Y-158257868D01*
X143442850Y-158270480D01*
X143420671Y-158280970D01*
X143397572Y-158289235D01*
X143373773Y-158295196D01*
X143349505Y-158298796D01*
X143325001Y-158300000D01*
X142424999Y-158300000D01*
X142400495Y-158298796D01*
X142376227Y-158295196D01*
X142352428Y-158289235D01*
X142329329Y-158280970D01*
X142307150Y-158270480D01*
X142286107Y-158257868D01*
X142266401Y-158243253D01*
X142248223Y-158226777D01*
X142231747Y-158208599D01*
X142217132Y-158188893D01*
X142204520Y-158167850D01*
X142194030Y-158145671D01*
X142185765Y-158122572D01*
X142179804Y-158098773D01*
X142176204Y-158074505D01*
X142175000Y-158050001D01*
X142175000Y-157399999D01*
X142176204Y-157375495D01*
X142179804Y-157351227D01*
X142185765Y-157327428D01*
X142194030Y-157304329D01*
X142204520Y-157282150D01*
X142217132Y-157261107D01*
X142231747Y-157241401D01*
X142248223Y-157223223D01*
X142266401Y-157206747D01*
X142286107Y-157192132D01*
X142307150Y-157179520D01*
X142329329Y-157169030D01*
X142352428Y-157160765D01*
X142376227Y-157154804D01*
X142400495Y-157151204D01*
X142424999Y-157150000D01*
X143325001Y-157150000D01*
X143349505Y-157151204D01*
X143349505Y-157151204D01*
G37*
D14*
X142875000Y-157725000D03*
D13*
G36*
X153509505Y-139906204D02*
G01*
X153533773Y-139909804D01*
X153557572Y-139915765D01*
X153580671Y-139924030D01*
X153602850Y-139934520D01*
X153623893Y-139947132D01*
X153643599Y-139961747D01*
X153661777Y-139978223D01*
X153678253Y-139996401D01*
X153692868Y-140016107D01*
X153705480Y-140037150D01*
X153715970Y-140059329D01*
X153724235Y-140082428D01*
X153730196Y-140106227D01*
X153733796Y-140130495D01*
X153735000Y-140154999D01*
X153735000Y-140805001D01*
X153733796Y-140829505D01*
X153730196Y-140853773D01*
X153724235Y-140877572D01*
X153715970Y-140900671D01*
X153705480Y-140922850D01*
X153692868Y-140943893D01*
X153678253Y-140963599D01*
X153661777Y-140981777D01*
X153643599Y-140998253D01*
X153623893Y-141012868D01*
X153602850Y-141025480D01*
X153580671Y-141035970D01*
X153557572Y-141044235D01*
X153533773Y-141050196D01*
X153509505Y-141053796D01*
X153485001Y-141055000D01*
X152584999Y-141055000D01*
X152560495Y-141053796D01*
X152536227Y-141050196D01*
X152512428Y-141044235D01*
X152489329Y-141035970D01*
X152467150Y-141025480D01*
X152446107Y-141012868D01*
X152426401Y-140998253D01*
X152408223Y-140981777D01*
X152391747Y-140963599D01*
X152377132Y-140943893D01*
X152364520Y-140922850D01*
X152354030Y-140900671D01*
X152345765Y-140877572D01*
X152339804Y-140853773D01*
X152336204Y-140829505D01*
X152335000Y-140805001D01*
X152335000Y-140154999D01*
X152336204Y-140130495D01*
X152339804Y-140106227D01*
X152345765Y-140082428D01*
X152354030Y-140059329D01*
X152364520Y-140037150D01*
X152377132Y-140016107D01*
X152391747Y-139996401D01*
X152408223Y-139978223D01*
X152426401Y-139961747D01*
X152446107Y-139947132D01*
X152467150Y-139934520D01*
X152489329Y-139924030D01*
X152512428Y-139915765D01*
X152536227Y-139909804D01*
X152560495Y-139906204D01*
X152584999Y-139905000D01*
X153485001Y-139905000D01*
X153509505Y-139906204D01*
X153509505Y-139906204D01*
G37*
D14*
X153035000Y-140480000D03*
D13*
G36*
X153509505Y-137856204D02*
G01*
X153533773Y-137859804D01*
X153557572Y-137865765D01*
X153580671Y-137874030D01*
X153602850Y-137884520D01*
X153623893Y-137897132D01*
X153643599Y-137911747D01*
X153661777Y-137928223D01*
X153678253Y-137946401D01*
X153692868Y-137966107D01*
X153705480Y-137987150D01*
X153715970Y-138009329D01*
X153724235Y-138032428D01*
X153730196Y-138056227D01*
X153733796Y-138080495D01*
X153735000Y-138104999D01*
X153735000Y-138755001D01*
X153733796Y-138779505D01*
X153730196Y-138803773D01*
X153724235Y-138827572D01*
X153715970Y-138850671D01*
X153705480Y-138872850D01*
X153692868Y-138893893D01*
X153678253Y-138913599D01*
X153661777Y-138931777D01*
X153643599Y-138948253D01*
X153623893Y-138962868D01*
X153602850Y-138975480D01*
X153580671Y-138985970D01*
X153557572Y-138994235D01*
X153533773Y-139000196D01*
X153509505Y-139003796D01*
X153485001Y-139005000D01*
X152584999Y-139005000D01*
X152560495Y-139003796D01*
X152536227Y-139000196D01*
X152512428Y-138994235D01*
X152489329Y-138985970D01*
X152467150Y-138975480D01*
X152446107Y-138962868D01*
X152426401Y-138948253D01*
X152408223Y-138931777D01*
X152391747Y-138913599D01*
X152377132Y-138893893D01*
X152364520Y-138872850D01*
X152354030Y-138850671D01*
X152345765Y-138827572D01*
X152339804Y-138803773D01*
X152336204Y-138779505D01*
X152335000Y-138755001D01*
X152335000Y-138104999D01*
X152336204Y-138080495D01*
X152339804Y-138056227D01*
X152345765Y-138032428D01*
X152354030Y-138009329D01*
X152364520Y-137987150D01*
X152377132Y-137966107D01*
X152391747Y-137946401D01*
X152408223Y-137928223D01*
X152426401Y-137911747D01*
X152446107Y-137897132D01*
X152467150Y-137884520D01*
X152489329Y-137874030D01*
X152512428Y-137865765D01*
X152536227Y-137859804D01*
X152560495Y-137856204D01*
X152584999Y-137855000D01*
X153485001Y-137855000D01*
X153509505Y-137856204D01*
X153509505Y-137856204D01*
G37*
D14*
X153035000Y-138430000D03*
D13*
G36*
X140809505Y-121101204D02*
G01*
X140833773Y-121104804D01*
X140857572Y-121110765D01*
X140880671Y-121119030D01*
X140902850Y-121129520D01*
X140923893Y-121142132D01*
X140943599Y-121156747D01*
X140961777Y-121173223D01*
X140978253Y-121191401D01*
X140992868Y-121211107D01*
X141005480Y-121232150D01*
X141015970Y-121254329D01*
X141024235Y-121277428D01*
X141030196Y-121301227D01*
X141033796Y-121325495D01*
X141035000Y-121349999D01*
X141035000Y-122000001D01*
X141033796Y-122024505D01*
X141030196Y-122048773D01*
X141024235Y-122072572D01*
X141015970Y-122095671D01*
X141005480Y-122117850D01*
X140992868Y-122138893D01*
X140978253Y-122158599D01*
X140961777Y-122176777D01*
X140943599Y-122193253D01*
X140923893Y-122207868D01*
X140902850Y-122220480D01*
X140880671Y-122230970D01*
X140857572Y-122239235D01*
X140833773Y-122245196D01*
X140809505Y-122248796D01*
X140785001Y-122250000D01*
X139884999Y-122250000D01*
X139860495Y-122248796D01*
X139836227Y-122245196D01*
X139812428Y-122239235D01*
X139789329Y-122230970D01*
X139767150Y-122220480D01*
X139746107Y-122207868D01*
X139726401Y-122193253D01*
X139708223Y-122176777D01*
X139691747Y-122158599D01*
X139677132Y-122138893D01*
X139664520Y-122117850D01*
X139654030Y-122095671D01*
X139645765Y-122072572D01*
X139639804Y-122048773D01*
X139636204Y-122024505D01*
X139635000Y-122000001D01*
X139635000Y-121349999D01*
X139636204Y-121325495D01*
X139639804Y-121301227D01*
X139645765Y-121277428D01*
X139654030Y-121254329D01*
X139664520Y-121232150D01*
X139677132Y-121211107D01*
X139691747Y-121191401D01*
X139708223Y-121173223D01*
X139726401Y-121156747D01*
X139746107Y-121142132D01*
X139767150Y-121129520D01*
X139789329Y-121119030D01*
X139812428Y-121110765D01*
X139836227Y-121104804D01*
X139860495Y-121101204D01*
X139884999Y-121100000D01*
X140785001Y-121100000D01*
X140809505Y-121101204D01*
X140809505Y-121101204D01*
G37*
D14*
X140335000Y-121675000D03*
D13*
G36*
X140809505Y-119051204D02*
G01*
X140833773Y-119054804D01*
X140857572Y-119060765D01*
X140880671Y-119069030D01*
X140902850Y-119079520D01*
X140923893Y-119092132D01*
X140943599Y-119106747D01*
X140961777Y-119123223D01*
X140978253Y-119141401D01*
X140992868Y-119161107D01*
X141005480Y-119182150D01*
X141015970Y-119204329D01*
X141024235Y-119227428D01*
X141030196Y-119251227D01*
X141033796Y-119275495D01*
X141035000Y-119299999D01*
X141035000Y-119950001D01*
X141033796Y-119974505D01*
X141030196Y-119998773D01*
X141024235Y-120022572D01*
X141015970Y-120045671D01*
X141005480Y-120067850D01*
X140992868Y-120088893D01*
X140978253Y-120108599D01*
X140961777Y-120126777D01*
X140943599Y-120143253D01*
X140923893Y-120157868D01*
X140902850Y-120170480D01*
X140880671Y-120180970D01*
X140857572Y-120189235D01*
X140833773Y-120195196D01*
X140809505Y-120198796D01*
X140785001Y-120200000D01*
X139884999Y-120200000D01*
X139860495Y-120198796D01*
X139836227Y-120195196D01*
X139812428Y-120189235D01*
X139789329Y-120180970D01*
X139767150Y-120170480D01*
X139746107Y-120157868D01*
X139726401Y-120143253D01*
X139708223Y-120126777D01*
X139691747Y-120108599D01*
X139677132Y-120088893D01*
X139664520Y-120067850D01*
X139654030Y-120045671D01*
X139645765Y-120022572D01*
X139639804Y-119998773D01*
X139636204Y-119974505D01*
X139635000Y-119950001D01*
X139635000Y-119299999D01*
X139636204Y-119275495D01*
X139639804Y-119251227D01*
X139645765Y-119227428D01*
X139654030Y-119204329D01*
X139664520Y-119182150D01*
X139677132Y-119161107D01*
X139691747Y-119141401D01*
X139708223Y-119123223D01*
X139726401Y-119106747D01*
X139746107Y-119092132D01*
X139767150Y-119079520D01*
X139789329Y-119069030D01*
X139812428Y-119060765D01*
X139836227Y-119054804D01*
X139860495Y-119051204D01*
X139884999Y-119050000D01*
X140785001Y-119050000D01*
X140809505Y-119051204D01*
X140809505Y-119051204D01*
G37*
D14*
X140335000Y-119625000D03*
D13*
G36*
X154652505Y-123369204D02*
G01*
X154676773Y-123372804D01*
X154700572Y-123378765D01*
X154723671Y-123387030D01*
X154745850Y-123397520D01*
X154766893Y-123410132D01*
X154786599Y-123424747D01*
X154804777Y-123441223D01*
X154821253Y-123459401D01*
X154835868Y-123479107D01*
X154848480Y-123500150D01*
X154858970Y-123522329D01*
X154867235Y-123545428D01*
X154873196Y-123569227D01*
X154876796Y-123593495D01*
X154878000Y-123617999D01*
X154878000Y-124268001D01*
X154876796Y-124292505D01*
X154873196Y-124316773D01*
X154867235Y-124340572D01*
X154858970Y-124363671D01*
X154848480Y-124385850D01*
X154835868Y-124406893D01*
X154821253Y-124426599D01*
X154804777Y-124444777D01*
X154786599Y-124461253D01*
X154766893Y-124475868D01*
X154745850Y-124488480D01*
X154723671Y-124498970D01*
X154700572Y-124507235D01*
X154676773Y-124513196D01*
X154652505Y-124516796D01*
X154628001Y-124518000D01*
X153727999Y-124518000D01*
X153703495Y-124516796D01*
X153679227Y-124513196D01*
X153655428Y-124507235D01*
X153632329Y-124498970D01*
X153610150Y-124488480D01*
X153589107Y-124475868D01*
X153569401Y-124461253D01*
X153551223Y-124444777D01*
X153534747Y-124426599D01*
X153520132Y-124406893D01*
X153507520Y-124385850D01*
X153497030Y-124363671D01*
X153488765Y-124340572D01*
X153482804Y-124316773D01*
X153479204Y-124292505D01*
X153478000Y-124268001D01*
X153478000Y-123617999D01*
X153479204Y-123593495D01*
X153482804Y-123569227D01*
X153488765Y-123545428D01*
X153497030Y-123522329D01*
X153507520Y-123500150D01*
X153520132Y-123479107D01*
X153534747Y-123459401D01*
X153551223Y-123441223D01*
X153569401Y-123424747D01*
X153589107Y-123410132D01*
X153610150Y-123397520D01*
X153632329Y-123387030D01*
X153655428Y-123378765D01*
X153679227Y-123372804D01*
X153703495Y-123369204D01*
X153727999Y-123368000D01*
X154628001Y-123368000D01*
X154652505Y-123369204D01*
X154652505Y-123369204D01*
G37*
D14*
X154178000Y-123943000D03*
D13*
G36*
X154652505Y-125419204D02*
G01*
X154676773Y-125422804D01*
X154700572Y-125428765D01*
X154723671Y-125437030D01*
X154745850Y-125447520D01*
X154766893Y-125460132D01*
X154786599Y-125474747D01*
X154804777Y-125491223D01*
X154821253Y-125509401D01*
X154835868Y-125529107D01*
X154848480Y-125550150D01*
X154858970Y-125572329D01*
X154867235Y-125595428D01*
X154873196Y-125619227D01*
X154876796Y-125643495D01*
X154878000Y-125667999D01*
X154878000Y-126318001D01*
X154876796Y-126342505D01*
X154873196Y-126366773D01*
X154867235Y-126390572D01*
X154858970Y-126413671D01*
X154848480Y-126435850D01*
X154835868Y-126456893D01*
X154821253Y-126476599D01*
X154804777Y-126494777D01*
X154786599Y-126511253D01*
X154766893Y-126525868D01*
X154745850Y-126538480D01*
X154723671Y-126548970D01*
X154700572Y-126557235D01*
X154676773Y-126563196D01*
X154652505Y-126566796D01*
X154628001Y-126568000D01*
X153727999Y-126568000D01*
X153703495Y-126566796D01*
X153679227Y-126563196D01*
X153655428Y-126557235D01*
X153632329Y-126548970D01*
X153610150Y-126538480D01*
X153589107Y-126525868D01*
X153569401Y-126511253D01*
X153551223Y-126494777D01*
X153534747Y-126476599D01*
X153520132Y-126456893D01*
X153507520Y-126435850D01*
X153497030Y-126413671D01*
X153488765Y-126390572D01*
X153482804Y-126366773D01*
X153479204Y-126342505D01*
X153478000Y-126318001D01*
X153478000Y-125667999D01*
X153479204Y-125643495D01*
X153482804Y-125619227D01*
X153488765Y-125595428D01*
X153497030Y-125572329D01*
X153507520Y-125550150D01*
X153520132Y-125529107D01*
X153534747Y-125509401D01*
X153551223Y-125491223D01*
X153569401Y-125474747D01*
X153589107Y-125460132D01*
X153610150Y-125447520D01*
X153632329Y-125437030D01*
X153655428Y-125428765D01*
X153679227Y-125422804D01*
X153703495Y-125419204D01*
X153727999Y-125418000D01*
X154628001Y-125418000D01*
X154652505Y-125419204D01*
X154652505Y-125419204D01*
G37*
D14*
X154178000Y-125993000D03*
D13*
G36*
X158208505Y-123369204D02*
G01*
X158232773Y-123372804D01*
X158256572Y-123378765D01*
X158279671Y-123387030D01*
X158301850Y-123397520D01*
X158322893Y-123410132D01*
X158342599Y-123424747D01*
X158360777Y-123441223D01*
X158377253Y-123459401D01*
X158391868Y-123479107D01*
X158404480Y-123500150D01*
X158414970Y-123522329D01*
X158423235Y-123545428D01*
X158429196Y-123569227D01*
X158432796Y-123593495D01*
X158434000Y-123617999D01*
X158434000Y-124268001D01*
X158432796Y-124292505D01*
X158429196Y-124316773D01*
X158423235Y-124340572D01*
X158414970Y-124363671D01*
X158404480Y-124385850D01*
X158391868Y-124406893D01*
X158377253Y-124426599D01*
X158360777Y-124444777D01*
X158342599Y-124461253D01*
X158322893Y-124475868D01*
X158301850Y-124488480D01*
X158279671Y-124498970D01*
X158256572Y-124507235D01*
X158232773Y-124513196D01*
X158208505Y-124516796D01*
X158184001Y-124518000D01*
X157283999Y-124518000D01*
X157259495Y-124516796D01*
X157235227Y-124513196D01*
X157211428Y-124507235D01*
X157188329Y-124498970D01*
X157166150Y-124488480D01*
X157145107Y-124475868D01*
X157125401Y-124461253D01*
X157107223Y-124444777D01*
X157090747Y-124426599D01*
X157076132Y-124406893D01*
X157063520Y-124385850D01*
X157053030Y-124363671D01*
X157044765Y-124340572D01*
X157038804Y-124316773D01*
X157035204Y-124292505D01*
X157034000Y-124268001D01*
X157034000Y-123617999D01*
X157035204Y-123593495D01*
X157038804Y-123569227D01*
X157044765Y-123545428D01*
X157053030Y-123522329D01*
X157063520Y-123500150D01*
X157076132Y-123479107D01*
X157090747Y-123459401D01*
X157107223Y-123441223D01*
X157125401Y-123424747D01*
X157145107Y-123410132D01*
X157166150Y-123397520D01*
X157188329Y-123387030D01*
X157211428Y-123378765D01*
X157235227Y-123372804D01*
X157259495Y-123369204D01*
X157283999Y-123368000D01*
X158184001Y-123368000D01*
X158208505Y-123369204D01*
X158208505Y-123369204D01*
G37*
D14*
X157734000Y-123943000D03*
D13*
G36*
X158208505Y-125419204D02*
G01*
X158232773Y-125422804D01*
X158256572Y-125428765D01*
X158279671Y-125437030D01*
X158301850Y-125447520D01*
X158322893Y-125460132D01*
X158342599Y-125474747D01*
X158360777Y-125491223D01*
X158377253Y-125509401D01*
X158391868Y-125529107D01*
X158404480Y-125550150D01*
X158414970Y-125572329D01*
X158423235Y-125595428D01*
X158429196Y-125619227D01*
X158432796Y-125643495D01*
X158434000Y-125667999D01*
X158434000Y-126318001D01*
X158432796Y-126342505D01*
X158429196Y-126366773D01*
X158423235Y-126390572D01*
X158414970Y-126413671D01*
X158404480Y-126435850D01*
X158391868Y-126456893D01*
X158377253Y-126476599D01*
X158360777Y-126494777D01*
X158342599Y-126511253D01*
X158322893Y-126525868D01*
X158301850Y-126538480D01*
X158279671Y-126548970D01*
X158256572Y-126557235D01*
X158232773Y-126563196D01*
X158208505Y-126566796D01*
X158184001Y-126568000D01*
X157283999Y-126568000D01*
X157259495Y-126566796D01*
X157235227Y-126563196D01*
X157211428Y-126557235D01*
X157188329Y-126548970D01*
X157166150Y-126538480D01*
X157145107Y-126525868D01*
X157125401Y-126511253D01*
X157107223Y-126494777D01*
X157090747Y-126476599D01*
X157076132Y-126456893D01*
X157063520Y-126435850D01*
X157053030Y-126413671D01*
X157044765Y-126390572D01*
X157038804Y-126366773D01*
X157035204Y-126342505D01*
X157034000Y-126318001D01*
X157034000Y-125667999D01*
X157035204Y-125643495D01*
X157038804Y-125619227D01*
X157044765Y-125595428D01*
X157053030Y-125572329D01*
X157063520Y-125550150D01*
X157076132Y-125529107D01*
X157090747Y-125509401D01*
X157107223Y-125491223D01*
X157125401Y-125474747D01*
X157145107Y-125460132D01*
X157166150Y-125447520D01*
X157188329Y-125437030D01*
X157211428Y-125428765D01*
X157235227Y-125422804D01*
X157259495Y-125419204D01*
X157283999Y-125418000D01*
X158184001Y-125418000D01*
X158208505Y-125419204D01*
X158208505Y-125419204D01*
G37*
D14*
X157734000Y-125993000D03*
D13*
G36*
X145889505Y-166431204D02*
G01*
X145913773Y-166434804D01*
X145937572Y-166440765D01*
X145960671Y-166449030D01*
X145982850Y-166459520D01*
X146003893Y-166472132D01*
X146023599Y-166486747D01*
X146041777Y-166503223D01*
X146058253Y-166521401D01*
X146072868Y-166541107D01*
X146085480Y-166562150D01*
X146095970Y-166584329D01*
X146104235Y-166607428D01*
X146110196Y-166631227D01*
X146113796Y-166655495D01*
X146115000Y-166679999D01*
X146115000Y-167330001D01*
X146113796Y-167354505D01*
X146110196Y-167378773D01*
X146104235Y-167402572D01*
X146095970Y-167425671D01*
X146085480Y-167447850D01*
X146072868Y-167468893D01*
X146058253Y-167488599D01*
X146041777Y-167506777D01*
X146023599Y-167523253D01*
X146003893Y-167537868D01*
X145982850Y-167550480D01*
X145960671Y-167560970D01*
X145937572Y-167569235D01*
X145913773Y-167575196D01*
X145889505Y-167578796D01*
X145865001Y-167580000D01*
X144964999Y-167580000D01*
X144940495Y-167578796D01*
X144916227Y-167575196D01*
X144892428Y-167569235D01*
X144869329Y-167560970D01*
X144847150Y-167550480D01*
X144826107Y-167537868D01*
X144806401Y-167523253D01*
X144788223Y-167506777D01*
X144771747Y-167488599D01*
X144757132Y-167468893D01*
X144744520Y-167447850D01*
X144734030Y-167425671D01*
X144725765Y-167402572D01*
X144719804Y-167378773D01*
X144716204Y-167354505D01*
X144715000Y-167330001D01*
X144715000Y-166679999D01*
X144716204Y-166655495D01*
X144719804Y-166631227D01*
X144725765Y-166607428D01*
X144734030Y-166584329D01*
X144744520Y-166562150D01*
X144757132Y-166541107D01*
X144771747Y-166521401D01*
X144788223Y-166503223D01*
X144806401Y-166486747D01*
X144826107Y-166472132D01*
X144847150Y-166459520D01*
X144869329Y-166449030D01*
X144892428Y-166440765D01*
X144916227Y-166434804D01*
X144940495Y-166431204D01*
X144964999Y-166430000D01*
X145865001Y-166430000D01*
X145889505Y-166431204D01*
X145889505Y-166431204D01*
G37*
D14*
X145415000Y-167005000D03*
D13*
G36*
X145889505Y-164381204D02*
G01*
X145913773Y-164384804D01*
X145937572Y-164390765D01*
X145960671Y-164399030D01*
X145982850Y-164409520D01*
X146003893Y-164422132D01*
X146023599Y-164436747D01*
X146041777Y-164453223D01*
X146058253Y-164471401D01*
X146072868Y-164491107D01*
X146085480Y-164512150D01*
X146095970Y-164534329D01*
X146104235Y-164557428D01*
X146110196Y-164581227D01*
X146113796Y-164605495D01*
X146115000Y-164629999D01*
X146115000Y-165280001D01*
X146113796Y-165304505D01*
X146110196Y-165328773D01*
X146104235Y-165352572D01*
X146095970Y-165375671D01*
X146085480Y-165397850D01*
X146072868Y-165418893D01*
X146058253Y-165438599D01*
X146041777Y-165456777D01*
X146023599Y-165473253D01*
X146003893Y-165487868D01*
X145982850Y-165500480D01*
X145960671Y-165510970D01*
X145937572Y-165519235D01*
X145913773Y-165525196D01*
X145889505Y-165528796D01*
X145865001Y-165530000D01*
X144964999Y-165530000D01*
X144940495Y-165528796D01*
X144916227Y-165525196D01*
X144892428Y-165519235D01*
X144869329Y-165510970D01*
X144847150Y-165500480D01*
X144826107Y-165487868D01*
X144806401Y-165473253D01*
X144788223Y-165456777D01*
X144771747Y-165438599D01*
X144757132Y-165418893D01*
X144744520Y-165397850D01*
X144734030Y-165375671D01*
X144725765Y-165352572D01*
X144719804Y-165328773D01*
X144716204Y-165304505D01*
X144715000Y-165280001D01*
X144715000Y-164629999D01*
X144716204Y-164605495D01*
X144719804Y-164581227D01*
X144725765Y-164557428D01*
X144734030Y-164534329D01*
X144744520Y-164512150D01*
X144757132Y-164491107D01*
X144771747Y-164471401D01*
X144788223Y-164453223D01*
X144806401Y-164436747D01*
X144826107Y-164422132D01*
X144847150Y-164409520D01*
X144869329Y-164399030D01*
X144892428Y-164390765D01*
X144916227Y-164384804D01*
X144940495Y-164381204D01*
X144964999Y-164380000D01*
X145865001Y-164380000D01*
X145889505Y-164381204D01*
X145889505Y-164381204D01*
G37*
D14*
X145415000Y-164955000D03*
D13*
G36*
X156049505Y-147526204D02*
G01*
X156073773Y-147529804D01*
X156097572Y-147535765D01*
X156120671Y-147544030D01*
X156142850Y-147554520D01*
X156163893Y-147567132D01*
X156183599Y-147581747D01*
X156201777Y-147598223D01*
X156218253Y-147616401D01*
X156232868Y-147636107D01*
X156245480Y-147657150D01*
X156255970Y-147679329D01*
X156264235Y-147702428D01*
X156270196Y-147726227D01*
X156273796Y-147750495D01*
X156275000Y-147774999D01*
X156275000Y-148425001D01*
X156273796Y-148449505D01*
X156270196Y-148473773D01*
X156264235Y-148497572D01*
X156255970Y-148520671D01*
X156245480Y-148542850D01*
X156232868Y-148563893D01*
X156218253Y-148583599D01*
X156201777Y-148601777D01*
X156183599Y-148618253D01*
X156163893Y-148632868D01*
X156142850Y-148645480D01*
X156120671Y-148655970D01*
X156097572Y-148664235D01*
X156073773Y-148670196D01*
X156049505Y-148673796D01*
X156025001Y-148675000D01*
X155124999Y-148675000D01*
X155100495Y-148673796D01*
X155076227Y-148670196D01*
X155052428Y-148664235D01*
X155029329Y-148655970D01*
X155007150Y-148645480D01*
X154986107Y-148632868D01*
X154966401Y-148618253D01*
X154948223Y-148601777D01*
X154931747Y-148583599D01*
X154917132Y-148563893D01*
X154904520Y-148542850D01*
X154894030Y-148520671D01*
X154885765Y-148497572D01*
X154879804Y-148473773D01*
X154876204Y-148449505D01*
X154875000Y-148425001D01*
X154875000Y-147774999D01*
X154876204Y-147750495D01*
X154879804Y-147726227D01*
X154885765Y-147702428D01*
X154894030Y-147679329D01*
X154904520Y-147657150D01*
X154917132Y-147636107D01*
X154931747Y-147616401D01*
X154948223Y-147598223D01*
X154966401Y-147581747D01*
X154986107Y-147567132D01*
X155007150Y-147554520D01*
X155029329Y-147544030D01*
X155052428Y-147535765D01*
X155076227Y-147529804D01*
X155100495Y-147526204D01*
X155124999Y-147525000D01*
X156025001Y-147525000D01*
X156049505Y-147526204D01*
X156049505Y-147526204D01*
G37*
D14*
X155575000Y-148100000D03*
D13*
G36*
X156049505Y-145476204D02*
G01*
X156073773Y-145479804D01*
X156097572Y-145485765D01*
X156120671Y-145494030D01*
X156142850Y-145504520D01*
X156163893Y-145517132D01*
X156183599Y-145531747D01*
X156201777Y-145548223D01*
X156218253Y-145566401D01*
X156232868Y-145586107D01*
X156245480Y-145607150D01*
X156255970Y-145629329D01*
X156264235Y-145652428D01*
X156270196Y-145676227D01*
X156273796Y-145700495D01*
X156275000Y-145724999D01*
X156275000Y-146375001D01*
X156273796Y-146399505D01*
X156270196Y-146423773D01*
X156264235Y-146447572D01*
X156255970Y-146470671D01*
X156245480Y-146492850D01*
X156232868Y-146513893D01*
X156218253Y-146533599D01*
X156201777Y-146551777D01*
X156183599Y-146568253D01*
X156163893Y-146582868D01*
X156142850Y-146595480D01*
X156120671Y-146605970D01*
X156097572Y-146614235D01*
X156073773Y-146620196D01*
X156049505Y-146623796D01*
X156025001Y-146625000D01*
X155124999Y-146625000D01*
X155100495Y-146623796D01*
X155076227Y-146620196D01*
X155052428Y-146614235D01*
X155029329Y-146605970D01*
X155007150Y-146595480D01*
X154986107Y-146582868D01*
X154966401Y-146568253D01*
X154948223Y-146551777D01*
X154931747Y-146533599D01*
X154917132Y-146513893D01*
X154904520Y-146492850D01*
X154894030Y-146470671D01*
X154885765Y-146447572D01*
X154879804Y-146423773D01*
X154876204Y-146399505D01*
X154875000Y-146375001D01*
X154875000Y-145724999D01*
X154876204Y-145700495D01*
X154879804Y-145676227D01*
X154885765Y-145652428D01*
X154894030Y-145629329D01*
X154904520Y-145607150D01*
X154917132Y-145586107D01*
X154931747Y-145566401D01*
X154948223Y-145548223D01*
X154966401Y-145531747D01*
X154986107Y-145517132D01*
X155007150Y-145504520D01*
X155029329Y-145494030D01*
X155052428Y-145485765D01*
X155076227Y-145479804D01*
X155100495Y-145476204D01*
X155124999Y-145475000D01*
X156025001Y-145475000D01*
X156049505Y-145476204D01*
X156049505Y-145476204D01*
G37*
D14*
X155575000Y-146050000D03*
D13*
G36*
X143349505Y-128331204D02*
G01*
X143373773Y-128334804D01*
X143397572Y-128340765D01*
X143420671Y-128349030D01*
X143442850Y-128359520D01*
X143463893Y-128372132D01*
X143483599Y-128386747D01*
X143501777Y-128403223D01*
X143518253Y-128421401D01*
X143532868Y-128441107D01*
X143545480Y-128462150D01*
X143555970Y-128484329D01*
X143564235Y-128507428D01*
X143570196Y-128531227D01*
X143573796Y-128555495D01*
X143575000Y-128579999D01*
X143575000Y-129230001D01*
X143573796Y-129254505D01*
X143570196Y-129278773D01*
X143564235Y-129302572D01*
X143555970Y-129325671D01*
X143545480Y-129347850D01*
X143532868Y-129368893D01*
X143518253Y-129388599D01*
X143501777Y-129406777D01*
X143483599Y-129423253D01*
X143463893Y-129437868D01*
X143442850Y-129450480D01*
X143420671Y-129460970D01*
X143397572Y-129469235D01*
X143373773Y-129475196D01*
X143349505Y-129478796D01*
X143325001Y-129480000D01*
X142424999Y-129480000D01*
X142400495Y-129478796D01*
X142376227Y-129475196D01*
X142352428Y-129469235D01*
X142329329Y-129460970D01*
X142307150Y-129450480D01*
X142286107Y-129437868D01*
X142266401Y-129423253D01*
X142248223Y-129406777D01*
X142231747Y-129388599D01*
X142217132Y-129368893D01*
X142204520Y-129347850D01*
X142194030Y-129325671D01*
X142185765Y-129302572D01*
X142179804Y-129278773D01*
X142176204Y-129254505D01*
X142175000Y-129230001D01*
X142175000Y-128579999D01*
X142176204Y-128555495D01*
X142179804Y-128531227D01*
X142185765Y-128507428D01*
X142194030Y-128484329D01*
X142204520Y-128462150D01*
X142217132Y-128441107D01*
X142231747Y-128421401D01*
X142248223Y-128403223D01*
X142266401Y-128386747D01*
X142286107Y-128372132D01*
X142307150Y-128359520D01*
X142329329Y-128349030D01*
X142352428Y-128340765D01*
X142376227Y-128334804D01*
X142400495Y-128331204D01*
X142424999Y-128330000D01*
X143325001Y-128330000D01*
X143349505Y-128331204D01*
X143349505Y-128331204D01*
G37*
D14*
X142875000Y-128905000D03*
D13*
G36*
X143349505Y-126281204D02*
G01*
X143373773Y-126284804D01*
X143397572Y-126290765D01*
X143420671Y-126299030D01*
X143442850Y-126309520D01*
X143463893Y-126322132D01*
X143483599Y-126336747D01*
X143501777Y-126353223D01*
X143518253Y-126371401D01*
X143532868Y-126391107D01*
X143545480Y-126412150D01*
X143555970Y-126434329D01*
X143564235Y-126457428D01*
X143570196Y-126481227D01*
X143573796Y-126505495D01*
X143575000Y-126529999D01*
X143575000Y-127180001D01*
X143573796Y-127204505D01*
X143570196Y-127228773D01*
X143564235Y-127252572D01*
X143555970Y-127275671D01*
X143545480Y-127297850D01*
X143532868Y-127318893D01*
X143518253Y-127338599D01*
X143501777Y-127356777D01*
X143483599Y-127373253D01*
X143463893Y-127387868D01*
X143442850Y-127400480D01*
X143420671Y-127410970D01*
X143397572Y-127419235D01*
X143373773Y-127425196D01*
X143349505Y-127428796D01*
X143325001Y-127430000D01*
X142424999Y-127430000D01*
X142400495Y-127428796D01*
X142376227Y-127425196D01*
X142352428Y-127419235D01*
X142329329Y-127410970D01*
X142307150Y-127400480D01*
X142286107Y-127387868D01*
X142266401Y-127373253D01*
X142248223Y-127356777D01*
X142231747Y-127338599D01*
X142217132Y-127318893D01*
X142204520Y-127297850D01*
X142194030Y-127275671D01*
X142185765Y-127252572D01*
X142179804Y-127228773D01*
X142176204Y-127204505D01*
X142175000Y-127180001D01*
X142175000Y-126529999D01*
X142176204Y-126505495D01*
X142179804Y-126481227D01*
X142185765Y-126457428D01*
X142194030Y-126434329D01*
X142204520Y-126412150D01*
X142217132Y-126391107D01*
X142231747Y-126371401D01*
X142248223Y-126353223D01*
X142266401Y-126336747D01*
X142286107Y-126322132D01*
X142307150Y-126309520D01*
X142329329Y-126299030D01*
X142352428Y-126290765D01*
X142376227Y-126284804D01*
X142400495Y-126281204D01*
X142424999Y-126280000D01*
X143325001Y-126280000D01*
X143349505Y-126281204D01*
X143349505Y-126281204D01*
G37*
D14*
X142875000Y-126855000D03*
M02*
