G04 #@! TF.GenerationSoftware,KiCad,Pcbnew,(5.1.0-0)*
G04 #@! TF.CreationDate,2021-05-05T21:59:45-07:00*
G04 #@! TF.ProjectId,voltage_preamp,766f6c74-6167-4655-9f70-7265616d702e,rev?*
G04 #@! TF.SameCoordinates,Original*
G04 #@! TF.FileFunction,Legend,Top*
G04 #@! TF.FilePolarity,Positive*
%FSLAX46Y46*%
G04 Gerber Fmt 4.6, Leading zero omitted, Abs format (unit mm)*
G04 Created by KiCad (PCBNEW (5.1.0-0)) date 2021-05-05 21:59:45*
%MOMM*%
%LPD*%
G04 APERTURE LIST*
%ADD10C,0.150000*%
%ADD11C,0.300000*%
%ADD12C,0.120000*%
G04 APERTURE END LIST*
D10*
X154265714Y-167219761D02*
X154408571Y-167267380D01*
X154646666Y-167267380D01*
X154741904Y-167219761D01*
X154789523Y-167172142D01*
X154837142Y-167076904D01*
X154837142Y-166981666D01*
X154789523Y-166886428D01*
X154741904Y-166838809D01*
X154646666Y-166791190D01*
X154456190Y-166743571D01*
X154360952Y-166695952D01*
X154313333Y-166648333D01*
X154265714Y-166553095D01*
X154265714Y-166457857D01*
X154313333Y-166362619D01*
X154360952Y-166315000D01*
X154456190Y-166267380D01*
X154694285Y-166267380D01*
X154837142Y-166315000D01*
X155694285Y-166600714D02*
X155694285Y-167267380D01*
X155265714Y-166600714D02*
X155265714Y-167124523D01*
X155313333Y-167219761D01*
X155408571Y-167267380D01*
X155551428Y-167267380D01*
X155646666Y-167219761D01*
X155694285Y-167172142D01*
X156170476Y-167267380D02*
X156170476Y-166600714D01*
X156170476Y-166695952D02*
X156218095Y-166648333D01*
X156313333Y-166600714D01*
X156456190Y-166600714D01*
X156551428Y-166648333D01*
X156599047Y-166743571D01*
X156599047Y-167267380D01*
X156599047Y-166743571D02*
X156646666Y-166648333D01*
X156741904Y-166600714D01*
X156884761Y-166600714D01*
X156980000Y-166648333D01*
X157027619Y-166743571D01*
X157027619Y-167267380D01*
X157503809Y-167267380D02*
X157503809Y-166600714D01*
X157503809Y-166695952D02*
X157551428Y-166648333D01*
X157646666Y-166600714D01*
X157789523Y-166600714D01*
X157884761Y-166648333D01*
X157932380Y-166743571D01*
X157932380Y-167267380D01*
X157932380Y-166743571D02*
X157980000Y-166648333D01*
X158075238Y-166600714D01*
X158218095Y-166600714D01*
X158313333Y-166648333D01*
X158360952Y-166743571D01*
X158360952Y-167267380D01*
X158837142Y-167267380D02*
X158837142Y-166600714D01*
X158837142Y-166267380D02*
X158789523Y-166315000D01*
X158837142Y-166362619D01*
X158884761Y-166315000D01*
X158837142Y-166267380D01*
X158837142Y-166362619D01*
X159313333Y-166600714D02*
X159313333Y-167267380D01*
X159313333Y-166695952D02*
X159360952Y-166648333D01*
X159456190Y-166600714D01*
X159599047Y-166600714D01*
X159694285Y-166648333D01*
X159741904Y-166743571D01*
X159741904Y-167267380D01*
X160646666Y-166600714D02*
X160646666Y-167410238D01*
X160599047Y-167505476D01*
X160551428Y-167553095D01*
X160456190Y-167600714D01*
X160313333Y-167600714D01*
X160218095Y-167553095D01*
X160646666Y-167219761D02*
X160551428Y-167267380D01*
X160360952Y-167267380D01*
X160265714Y-167219761D01*
X160218095Y-167172142D01*
X160170476Y-167076904D01*
X160170476Y-166791190D01*
X160218095Y-166695952D01*
X160265714Y-166648333D01*
X160360952Y-166600714D01*
X160551428Y-166600714D01*
X160646666Y-166648333D01*
X155503809Y-168917380D02*
X155503809Y-167917380D01*
X155503809Y-168298333D02*
X155599047Y-168250714D01*
X155789523Y-168250714D01*
X155884761Y-168298333D01*
X155932380Y-168345952D01*
X155980000Y-168441190D01*
X155980000Y-168726904D01*
X155932380Y-168822142D01*
X155884761Y-168869761D01*
X155789523Y-168917380D01*
X155599047Y-168917380D01*
X155503809Y-168869761D01*
X156837142Y-168250714D02*
X156837142Y-168917380D01*
X156408571Y-168250714D02*
X156408571Y-168774523D01*
X156456190Y-168869761D01*
X156551428Y-168917380D01*
X156694285Y-168917380D01*
X156789523Y-168869761D01*
X156837142Y-168822142D01*
X157170476Y-168250714D02*
X157551428Y-168250714D01*
X157313333Y-168917380D02*
X157313333Y-168060238D01*
X157360952Y-167965000D01*
X157456190Y-167917380D01*
X157551428Y-167917380D01*
X157741904Y-168250714D02*
X158122857Y-168250714D01*
X157884761Y-168917380D02*
X157884761Y-168060238D01*
X157932380Y-167965000D01*
X158027619Y-167917380D01*
X158122857Y-167917380D01*
X158837142Y-168869761D02*
X158741904Y-168917380D01*
X158551428Y-168917380D01*
X158456190Y-168869761D01*
X158408571Y-168774523D01*
X158408571Y-168393571D01*
X158456190Y-168298333D01*
X158551428Y-168250714D01*
X158741904Y-168250714D01*
X158837142Y-168298333D01*
X158884761Y-168393571D01*
X158884761Y-168488809D01*
X158408571Y-168584047D01*
X159313333Y-168917380D02*
X159313333Y-168250714D01*
X159313333Y-168441190D02*
X159360952Y-168345952D01*
X159408571Y-168298333D01*
X159503809Y-168250714D01*
X159599047Y-168250714D01*
D11*
X197660000Y-152281142D02*
X198231428Y-152281142D01*
X198517142Y-152424000D01*
X198802857Y-152709714D01*
X198945714Y-153281142D01*
X198945714Y-154281142D01*
X198802857Y-154852571D01*
X198517142Y-155138285D01*
X198231428Y-155281142D01*
X197660000Y-155281142D01*
X197374285Y-155138285D01*
X197088571Y-154852571D01*
X196945714Y-154281142D01*
X196945714Y-153281142D01*
X197088571Y-152709714D01*
X197374285Y-152424000D01*
X197660000Y-152281142D01*
X200231428Y-152281142D02*
X200231428Y-154709714D01*
X200374285Y-154995428D01*
X200517142Y-155138285D01*
X200802857Y-155281142D01*
X201374285Y-155281142D01*
X201660000Y-155138285D01*
X201802857Y-154995428D01*
X201945714Y-154709714D01*
X201945714Y-152281142D01*
X202945714Y-152281142D02*
X204660000Y-152281142D01*
X203802857Y-155281142D02*
X203802857Y-152281142D01*
X119332571Y-155281142D02*
X119332571Y-152281142D01*
X120761142Y-155281142D02*
X120761142Y-152281142D01*
X122475428Y-155281142D01*
X122475428Y-152281142D01*
D10*
X142295619Y-120340380D02*
X141962285Y-119864190D01*
X141724190Y-120340380D02*
X141724190Y-119340380D01*
X142105142Y-119340380D01*
X142200380Y-119388000D01*
X142248000Y-119435619D01*
X142295619Y-119530857D01*
X142295619Y-119673714D01*
X142248000Y-119768952D01*
X142200380Y-119816571D01*
X142105142Y-119864190D01*
X141724190Y-119864190D01*
X142581333Y-119673714D02*
X142962285Y-119673714D01*
X142724190Y-120340380D02*
X142724190Y-119483238D01*
X142771809Y-119388000D01*
X142867047Y-119340380D01*
X142962285Y-119340380D01*
X143248000Y-119435619D02*
X143295619Y-119388000D01*
X143390857Y-119340380D01*
X143628952Y-119340380D01*
X143724190Y-119388000D01*
X143771809Y-119435619D01*
X143819428Y-119530857D01*
X143819428Y-119626095D01*
X143771809Y-119768952D01*
X143200380Y-120340380D01*
X143819428Y-120340380D01*
X154995619Y-139136380D02*
X154662285Y-138660190D01*
X154424190Y-139136380D02*
X154424190Y-138136380D01*
X154805142Y-138136380D01*
X154900380Y-138184000D01*
X154948000Y-138231619D01*
X154995619Y-138326857D01*
X154995619Y-138469714D01*
X154948000Y-138564952D01*
X154900380Y-138612571D01*
X154805142Y-138660190D01*
X154424190Y-138660190D01*
X155281333Y-138469714D02*
X155662285Y-138469714D01*
X155424190Y-139136380D02*
X155424190Y-138279238D01*
X155471809Y-138184000D01*
X155567047Y-138136380D01*
X155662285Y-138136380D01*
X155948000Y-138231619D02*
X155995619Y-138184000D01*
X156090857Y-138136380D01*
X156328952Y-138136380D01*
X156424190Y-138184000D01*
X156471809Y-138231619D01*
X156519428Y-138326857D01*
X156519428Y-138422095D01*
X156471809Y-138564952D01*
X155900380Y-139136380D01*
X156519428Y-139136380D01*
X144034047Y-122959761D02*
X144176904Y-123007380D01*
X144415000Y-123007380D01*
X144510238Y-122959761D01*
X144557857Y-122912142D01*
X144605476Y-122816904D01*
X144605476Y-122721666D01*
X144557857Y-122626428D01*
X144510238Y-122578809D01*
X144415000Y-122531190D01*
X144224523Y-122483571D01*
X144129285Y-122435952D01*
X144081666Y-122388333D01*
X144034047Y-122293095D01*
X144034047Y-122197857D01*
X144081666Y-122102619D01*
X144129285Y-122055000D01*
X144224523Y-122007380D01*
X144462619Y-122007380D01*
X144605476Y-122055000D01*
X145034047Y-122007380D02*
X145034047Y-122816904D01*
X145081666Y-122912142D01*
X145129285Y-122959761D01*
X145224523Y-123007380D01*
X145415000Y-123007380D01*
X145510238Y-122959761D01*
X145557857Y-122912142D01*
X145605476Y-122816904D01*
X145605476Y-122007380D01*
X146081666Y-123007380D02*
X146081666Y-122007380D01*
X146415000Y-122721666D01*
X146748333Y-122007380D01*
X146748333Y-123007380D01*
X156734047Y-142263761D02*
X156876904Y-142311380D01*
X157115000Y-142311380D01*
X157210238Y-142263761D01*
X157257857Y-142216142D01*
X157305476Y-142120904D01*
X157305476Y-142025666D01*
X157257857Y-141930428D01*
X157210238Y-141882809D01*
X157115000Y-141835190D01*
X156924523Y-141787571D01*
X156829285Y-141739952D01*
X156781666Y-141692333D01*
X156734047Y-141597095D01*
X156734047Y-141501857D01*
X156781666Y-141406619D01*
X156829285Y-141359000D01*
X156924523Y-141311380D01*
X157162619Y-141311380D01*
X157305476Y-141359000D01*
X157734047Y-141311380D02*
X157734047Y-142120904D01*
X157781666Y-142216142D01*
X157829285Y-142263761D01*
X157924523Y-142311380D01*
X158115000Y-142311380D01*
X158210238Y-142263761D01*
X158257857Y-142216142D01*
X158305476Y-142120904D01*
X158305476Y-141311380D01*
X158781666Y-142311380D02*
X158781666Y-141311380D01*
X159115000Y-142025666D01*
X159448333Y-141311380D01*
X159448333Y-142311380D01*
X135882857Y-156408380D02*
X135549523Y-155932190D01*
X135311428Y-156408380D02*
X135311428Y-155408380D01*
X135692380Y-155408380D01*
X135787619Y-155456000D01*
X135835238Y-155503619D01*
X135882857Y-155598857D01*
X135882857Y-155741714D01*
X135835238Y-155836952D01*
X135787619Y-155884571D01*
X135692380Y-155932190D01*
X135311428Y-155932190D01*
X136740000Y-155408380D02*
X136549523Y-155408380D01*
X136454285Y-155456000D01*
X136406666Y-155503619D01*
X136311428Y-155646476D01*
X136263809Y-155836952D01*
X136263809Y-156217904D01*
X136311428Y-156313142D01*
X136359047Y-156360761D01*
X136454285Y-156408380D01*
X136644761Y-156408380D01*
X136740000Y-156360761D01*
X136787619Y-156313142D01*
X136835238Y-156217904D01*
X136835238Y-155979809D01*
X136787619Y-155884571D01*
X136740000Y-155836952D01*
X136644761Y-155789333D01*
X136454285Y-155789333D01*
X136359047Y-155836952D01*
X136311428Y-155884571D01*
X136263809Y-155979809D01*
X137311428Y-156360761D02*
X137311428Y-156408380D01*
X137263809Y-156503619D01*
X137216190Y-156551238D01*
X139073333Y-156408380D02*
X138740000Y-155932190D01*
X138501904Y-156408380D02*
X138501904Y-155408380D01*
X138882857Y-155408380D01*
X138978095Y-155456000D01*
X139025714Y-155503619D01*
X139073333Y-155598857D01*
X139073333Y-155741714D01*
X139025714Y-155836952D01*
X138978095Y-155884571D01*
X138882857Y-155932190D01*
X138501904Y-155932190D01*
X139406666Y-155408380D02*
X140025714Y-155408380D01*
X139692380Y-155789333D01*
X139835238Y-155789333D01*
X139930476Y-155836952D01*
X139978095Y-155884571D01*
X140025714Y-155979809D01*
X140025714Y-156217904D01*
X139978095Y-156313142D01*
X139930476Y-156360761D01*
X139835238Y-156408380D01*
X139549523Y-156408380D01*
X139454285Y-156360761D01*
X139406666Y-156313142D01*
X141216190Y-156408380D02*
X141216190Y-155408380D01*
X141549523Y-156122666D01*
X141882857Y-155408380D01*
X141882857Y-156408380D01*
X142359047Y-155884571D02*
X142692380Y-155884571D01*
X142835238Y-156408380D02*
X142359047Y-156408380D01*
X142359047Y-155408380D01*
X142835238Y-155408380D01*
X143120952Y-155408380D02*
X143692380Y-155408380D01*
X143406666Y-156408380D02*
X143406666Y-155408380D01*
X143978095Y-156122666D02*
X144454285Y-156122666D01*
X143882857Y-156408380D02*
X144216190Y-155408380D01*
X144549523Y-156408380D01*
X145359047Y-156408380D02*
X144882857Y-156408380D01*
X144882857Y-155408380D01*
X146787619Y-155884571D02*
X146454285Y-155884571D01*
X146454285Y-156408380D02*
X146454285Y-155408380D01*
X146930476Y-155408380D01*
X147501904Y-155408380D02*
X147692380Y-155408380D01*
X147787619Y-155456000D01*
X147882857Y-155551238D01*
X147930476Y-155741714D01*
X147930476Y-156075047D01*
X147882857Y-156265523D01*
X147787619Y-156360761D01*
X147692380Y-156408380D01*
X147501904Y-156408380D01*
X147406666Y-156360761D01*
X147311428Y-156265523D01*
X147263809Y-156075047D01*
X147263809Y-155741714D01*
X147311428Y-155551238D01*
X147406666Y-155456000D01*
X147501904Y-155408380D01*
X148359047Y-156408380D02*
X148359047Y-155408380D01*
X149311428Y-156408380D02*
X148835238Y-156408380D01*
X148835238Y-155408380D01*
X146042857Y-137358380D02*
X145709523Y-136882190D01*
X145471428Y-137358380D02*
X145471428Y-136358380D01*
X145852380Y-136358380D01*
X145947619Y-136406000D01*
X145995238Y-136453619D01*
X146042857Y-136548857D01*
X146042857Y-136691714D01*
X145995238Y-136786952D01*
X145947619Y-136834571D01*
X145852380Y-136882190D01*
X145471428Y-136882190D01*
X146947619Y-136358380D02*
X146471428Y-136358380D01*
X146423809Y-136834571D01*
X146471428Y-136786952D01*
X146566666Y-136739333D01*
X146804761Y-136739333D01*
X146900000Y-136786952D01*
X146947619Y-136834571D01*
X146995238Y-136929809D01*
X146995238Y-137167904D01*
X146947619Y-137263142D01*
X146900000Y-137310761D01*
X146804761Y-137358380D01*
X146566666Y-137358380D01*
X146471428Y-137310761D01*
X146423809Y-137263142D01*
X147471428Y-137310761D02*
X147471428Y-137358380D01*
X147423809Y-137453619D01*
X147376190Y-137501238D01*
X149233333Y-137358380D02*
X148900000Y-136882190D01*
X148661904Y-137358380D02*
X148661904Y-136358380D01*
X149042857Y-136358380D01*
X149138095Y-136406000D01*
X149185714Y-136453619D01*
X149233333Y-136548857D01*
X149233333Y-136691714D01*
X149185714Y-136786952D01*
X149138095Y-136834571D01*
X149042857Y-136882190D01*
X148661904Y-136882190D01*
X149614285Y-136453619D02*
X149661904Y-136406000D01*
X149757142Y-136358380D01*
X149995238Y-136358380D01*
X150090476Y-136406000D01*
X150138095Y-136453619D01*
X150185714Y-136548857D01*
X150185714Y-136644095D01*
X150138095Y-136786952D01*
X149566666Y-137358380D01*
X150185714Y-137358380D01*
X151376190Y-137358380D02*
X151376190Y-136358380D01*
X151709523Y-137072666D01*
X152042857Y-136358380D01*
X152042857Y-137358380D01*
X152519047Y-136834571D02*
X152852380Y-136834571D01*
X152995238Y-137358380D02*
X152519047Y-137358380D01*
X152519047Y-136358380D01*
X152995238Y-136358380D01*
X153280952Y-136358380D02*
X153852380Y-136358380D01*
X153566666Y-137358380D02*
X153566666Y-136358380D01*
X154138095Y-137072666D02*
X154614285Y-137072666D01*
X154042857Y-137358380D02*
X154376190Y-136358380D01*
X154709523Y-137358380D01*
X155519047Y-137358380D02*
X155042857Y-137358380D01*
X155042857Y-136358380D01*
X156947619Y-136834571D02*
X156614285Y-136834571D01*
X156614285Y-137358380D02*
X156614285Y-136358380D01*
X157090476Y-136358380D01*
X157661904Y-136358380D02*
X157852380Y-136358380D01*
X157947619Y-136406000D01*
X158042857Y-136501238D01*
X158090476Y-136691714D01*
X158090476Y-137025047D01*
X158042857Y-137215523D01*
X157947619Y-137310761D01*
X157852380Y-137358380D01*
X157661904Y-137358380D01*
X157566666Y-137310761D01*
X157471428Y-137215523D01*
X157423809Y-137025047D01*
X157423809Y-136691714D01*
X157471428Y-136501238D01*
X157566666Y-136406000D01*
X157661904Y-136358380D01*
X158519047Y-137358380D02*
X158519047Y-136358380D01*
X159471428Y-137358380D02*
X158995238Y-137358380D01*
X158995238Y-136358380D01*
X197787047Y-157997380D02*
X197787047Y-156997380D01*
X197882285Y-157616428D02*
X198168000Y-157997380D01*
X198168000Y-157330714D02*
X197787047Y-157711666D01*
X198596571Y-157330714D02*
X198596571Y-158330714D01*
X198596571Y-157378333D02*
X198691809Y-157330714D01*
X198882285Y-157330714D01*
X198977523Y-157378333D01*
X199025142Y-157425952D01*
X199072761Y-157521190D01*
X199072761Y-157806904D01*
X199025142Y-157902142D01*
X198977523Y-157949761D01*
X198882285Y-157997380D01*
X198691809Y-157997380D01*
X198596571Y-157949761D01*
X199882285Y-157949761D02*
X199787047Y-157997380D01*
X199596571Y-157997380D01*
X199501333Y-157949761D01*
X199453714Y-157854523D01*
X199453714Y-157473571D01*
X199501333Y-157378333D01*
X199596571Y-157330714D01*
X199787047Y-157330714D01*
X199882285Y-157378333D01*
X199929904Y-157473571D01*
X199929904Y-157568809D01*
X199453714Y-157664047D01*
X200263238Y-157330714D02*
X200787047Y-157330714D01*
X200263238Y-157997380D01*
X200787047Y-157997380D01*
X201548952Y-157949761D02*
X201453714Y-157997380D01*
X201263238Y-157997380D01*
X201168000Y-157949761D01*
X201120380Y-157854523D01*
X201120380Y-157473571D01*
X201168000Y-157378333D01*
X201263238Y-157330714D01*
X201453714Y-157330714D01*
X201548952Y-157378333D01*
X201596571Y-157473571D01*
X201596571Y-157568809D01*
X201120380Y-157664047D01*
X201977523Y-157949761D02*
X202072761Y-157997380D01*
X202263238Y-157997380D01*
X202358476Y-157949761D01*
X202406095Y-157854523D01*
X202406095Y-157806904D01*
X202358476Y-157711666D01*
X202263238Y-157664047D01*
X202120380Y-157664047D01*
X202025142Y-157616428D01*
X201977523Y-157521190D01*
X201977523Y-157473571D01*
X202025142Y-157378333D01*
X202120380Y-157330714D01*
X202263238Y-157330714D01*
X202358476Y-157378333D01*
X202834666Y-157997380D02*
X202834666Y-156997380D01*
X203263238Y-157997380D02*
X203263238Y-157473571D01*
X203215619Y-157378333D01*
X203120380Y-157330714D01*
X202977523Y-157330714D01*
X202882285Y-157378333D01*
X202834666Y-157425952D01*
X203739428Y-157997380D02*
X203739428Y-156997380D01*
X203834666Y-157616428D02*
X204120380Y-157997380D01*
X204120380Y-157330714D02*
X203739428Y-157711666D01*
X204548952Y-157997380D02*
X204548952Y-157330714D01*
X204548952Y-156997380D02*
X204501333Y-157045000D01*
X204548952Y-157092619D01*
X204596571Y-157045000D01*
X204548952Y-156997380D01*
X204548952Y-157092619D01*
X201382285Y-159171190D02*
X201334666Y-159123571D01*
X201239428Y-159075952D01*
X201144190Y-159075952D01*
X201048952Y-159123571D01*
X201001333Y-159171190D01*
X200953714Y-159266428D01*
X200953714Y-159361666D01*
X201001333Y-159456904D01*
X201048952Y-159504523D01*
X201144190Y-159552142D01*
X201239428Y-159552142D01*
X201334666Y-159504523D01*
X201382285Y-159456904D01*
X201382285Y-159075952D02*
X201382285Y-159456904D01*
X201429904Y-159504523D01*
X201477523Y-159504523D01*
X201572761Y-159456904D01*
X201620380Y-159361666D01*
X201620380Y-159123571D01*
X201525142Y-158980714D01*
X201382285Y-158885476D01*
X201191809Y-158837857D01*
X201001333Y-158885476D01*
X200858476Y-158980714D01*
X200763238Y-159123571D01*
X200715619Y-159314047D01*
X200763238Y-159504523D01*
X200858476Y-159647380D01*
X201001333Y-159742619D01*
X201191809Y-159790238D01*
X201382285Y-159742619D01*
X201525142Y-159647380D01*
X198287047Y-161297380D02*
X198287047Y-160297380D01*
X198715619Y-161297380D02*
X198715619Y-160773571D01*
X198668000Y-160678333D01*
X198572761Y-160630714D01*
X198429904Y-160630714D01*
X198334666Y-160678333D01*
X198287047Y-160725952D01*
X199191809Y-161297380D02*
X199191809Y-160630714D01*
X199191809Y-160725952D02*
X199239428Y-160678333D01*
X199334666Y-160630714D01*
X199477523Y-160630714D01*
X199572761Y-160678333D01*
X199620380Y-160773571D01*
X199620380Y-161297380D01*
X199620380Y-160773571D02*
X199668000Y-160678333D01*
X199763238Y-160630714D01*
X199906095Y-160630714D01*
X200001333Y-160678333D01*
X200048952Y-160773571D01*
X200048952Y-161297380D01*
X200953714Y-161249761D02*
X200858476Y-161297380D01*
X200668000Y-161297380D01*
X200572761Y-161249761D01*
X200525142Y-161202142D01*
X200477523Y-161106904D01*
X200477523Y-160821190D01*
X200525142Y-160725952D01*
X200572761Y-160678333D01*
X200668000Y-160630714D01*
X200858476Y-160630714D01*
X200953714Y-160678333D01*
X201382285Y-161202142D02*
X201429904Y-161249761D01*
X201382285Y-161297380D01*
X201334666Y-161249761D01*
X201382285Y-161202142D01*
X201382285Y-161297380D01*
X202239428Y-161249761D02*
X202144190Y-161297380D01*
X201953714Y-161297380D01*
X201858476Y-161249761D01*
X201810857Y-161154523D01*
X201810857Y-160773571D01*
X201858476Y-160678333D01*
X201953714Y-160630714D01*
X202144190Y-160630714D01*
X202239428Y-160678333D01*
X202287047Y-160773571D01*
X202287047Y-160868809D01*
X201810857Y-160964047D01*
X203144190Y-161297380D02*
X203144190Y-160297380D01*
X203144190Y-161249761D02*
X203048952Y-161297380D01*
X202858476Y-161297380D01*
X202763238Y-161249761D01*
X202715619Y-161202142D01*
X202668000Y-161106904D01*
X202668000Y-160821190D01*
X202715619Y-160725952D01*
X202763238Y-160678333D01*
X202858476Y-160630714D01*
X203048952Y-160630714D01*
X203144190Y-160678333D01*
X204048952Y-160630714D02*
X204048952Y-161297380D01*
X203620380Y-160630714D02*
X203620380Y-161154523D01*
X203668000Y-161249761D01*
X203763238Y-161297380D01*
X203906095Y-161297380D01*
X204001333Y-161249761D01*
X204048952Y-161202142D01*
X196739428Y-161947380D02*
X196834666Y-161947380D01*
X196929904Y-161995000D01*
X196977523Y-162042619D01*
X197025142Y-162137857D01*
X197072761Y-162328333D01*
X197072761Y-162566428D01*
X197025142Y-162756904D01*
X196977523Y-162852142D01*
X196929904Y-162899761D01*
X196834666Y-162947380D01*
X196739428Y-162947380D01*
X196644190Y-162899761D01*
X196596571Y-162852142D01*
X196548952Y-162756904D01*
X196501333Y-162566428D01*
X196501333Y-162328333D01*
X196548952Y-162137857D01*
X196596571Y-162042619D01*
X196644190Y-161995000D01*
X196739428Y-161947380D01*
X197977523Y-161947380D02*
X197501333Y-161947380D01*
X197453714Y-162423571D01*
X197501333Y-162375952D01*
X197596571Y-162328333D01*
X197834666Y-162328333D01*
X197929904Y-162375952D01*
X197977523Y-162423571D01*
X198025142Y-162518809D01*
X198025142Y-162756904D01*
X197977523Y-162852142D01*
X197929904Y-162899761D01*
X197834666Y-162947380D01*
X197596571Y-162947380D01*
X197501333Y-162899761D01*
X197453714Y-162852142D01*
X199168000Y-161899761D02*
X198310857Y-163185476D01*
X199691809Y-161947380D02*
X199787047Y-161947380D01*
X199882285Y-161995000D01*
X199929904Y-162042619D01*
X199977523Y-162137857D01*
X200025142Y-162328333D01*
X200025142Y-162566428D01*
X199977523Y-162756904D01*
X199929904Y-162852142D01*
X199882285Y-162899761D01*
X199787047Y-162947380D01*
X199691809Y-162947380D01*
X199596571Y-162899761D01*
X199548952Y-162852142D01*
X199501333Y-162756904D01*
X199453714Y-162566428D01*
X199453714Y-162328333D01*
X199501333Y-162137857D01*
X199548952Y-162042619D01*
X199596571Y-161995000D01*
X199691809Y-161947380D01*
X200929904Y-161947380D02*
X200453714Y-161947380D01*
X200406095Y-162423571D01*
X200453714Y-162375952D01*
X200548952Y-162328333D01*
X200787047Y-162328333D01*
X200882285Y-162375952D01*
X200929904Y-162423571D01*
X200977523Y-162518809D01*
X200977523Y-162756904D01*
X200929904Y-162852142D01*
X200882285Y-162899761D01*
X200787047Y-162947380D01*
X200548952Y-162947380D01*
X200453714Y-162899761D01*
X200406095Y-162852142D01*
X202120380Y-161899761D02*
X201263238Y-163185476D01*
X202406095Y-162042619D02*
X202453714Y-161995000D01*
X202548952Y-161947380D01*
X202787047Y-161947380D01*
X202882285Y-161995000D01*
X202929904Y-162042619D01*
X202977523Y-162137857D01*
X202977523Y-162233095D01*
X202929904Y-162375952D01*
X202358476Y-162947380D01*
X202977523Y-162947380D01*
X203596571Y-161947380D02*
X203691809Y-161947380D01*
X203787047Y-161995000D01*
X203834666Y-162042619D01*
X203882285Y-162137857D01*
X203929904Y-162328333D01*
X203929904Y-162566428D01*
X203882285Y-162756904D01*
X203834666Y-162852142D01*
X203787047Y-162899761D01*
X203691809Y-162947380D01*
X203596571Y-162947380D01*
X203501333Y-162899761D01*
X203453714Y-162852142D01*
X203406095Y-162756904D01*
X203358476Y-162566428D01*
X203358476Y-162328333D01*
X203406095Y-162137857D01*
X203453714Y-162042619D01*
X203501333Y-161995000D01*
X203596571Y-161947380D01*
X204310857Y-162042619D02*
X204358476Y-161995000D01*
X204453714Y-161947380D01*
X204691809Y-161947380D01*
X204787047Y-161995000D01*
X204834666Y-162042619D01*
X204882285Y-162137857D01*
X204882285Y-162233095D01*
X204834666Y-162375952D01*
X204263238Y-162947380D01*
X204882285Y-162947380D01*
X205834666Y-162947380D02*
X205263238Y-162947380D01*
X205548952Y-162947380D02*
X205548952Y-161947380D01*
X205453714Y-162090238D01*
X205358476Y-162185476D01*
X205263238Y-162233095D01*
X193794857Y-123327380D02*
X193794857Y-122327380D01*
X194175809Y-122327380D01*
X194271047Y-122375000D01*
X194318666Y-122422619D01*
X194366285Y-122517857D01*
X194366285Y-122660714D01*
X194318666Y-122755952D01*
X194271047Y-122803571D01*
X194175809Y-122851190D01*
X193794857Y-122851190D01*
X194794857Y-123327380D02*
X194794857Y-122660714D01*
X194794857Y-122851190D02*
X194842476Y-122755952D01*
X194890095Y-122708333D01*
X194985333Y-122660714D01*
X195080571Y-122660714D01*
X195794857Y-123279761D02*
X195699619Y-123327380D01*
X195509142Y-123327380D01*
X195413904Y-123279761D01*
X195366285Y-123184523D01*
X195366285Y-122803571D01*
X195413904Y-122708333D01*
X195509142Y-122660714D01*
X195699619Y-122660714D01*
X195794857Y-122708333D01*
X195842476Y-122803571D01*
X195842476Y-122898809D01*
X195366285Y-122994047D01*
X196699619Y-123279761D02*
X196604380Y-123327380D01*
X196413904Y-123327380D01*
X196318666Y-123279761D01*
X196271047Y-123232142D01*
X196223428Y-123136904D01*
X196223428Y-122851190D01*
X196271047Y-122755952D01*
X196318666Y-122708333D01*
X196413904Y-122660714D01*
X196604380Y-122660714D01*
X196699619Y-122708333D01*
X197128190Y-123327380D02*
X197128190Y-122660714D01*
X197128190Y-122327380D02*
X197080571Y-122375000D01*
X197128190Y-122422619D01*
X197175809Y-122375000D01*
X197128190Y-122327380D01*
X197128190Y-122422619D01*
X197556761Y-123279761D02*
X197652000Y-123327380D01*
X197842476Y-123327380D01*
X197937714Y-123279761D01*
X197985333Y-123184523D01*
X197985333Y-123136904D01*
X197937714Y-123041666D01*
X197842476Y-122994047D01*
X197699619Y-122994047D01*
X197604380Y-122946428D01*
X197556761Y-122851190D01*
X197556761Y-122803571D01*
X197604380Y-122708333D01*
X197699619Y-122660714D01*
X197842476Y-122660714D01*
X197937714Y-122708333D01*
X198413904Y-123327380D02*
X198413904Y-122660714D01*
X198413904Y-122327380D02*
X198366285Y-122375000D01*
X198413904Y-122422619D01*
X198461523Y-122375000D01*
X198413904Y-122327380D01*
X198413904Y-122422619D01*
X199032952Y-123327380D02*
X198937714Y-123279761D01*
X198890095Y-123232142D01*
X198842476Y-123136904D01*
X198842476Y-122851190D01*
X198890095Y-122755952D01*
X198937714Y-122708333D01*
X199032952Y-122660714D01*
X199175809Y-122660714D01*
X199271047Y-122708333D01*
X199318666Y-122755952D01*
X199366285Y-122851190D01*
X199366285Y-123136904D01*
X199318666Y-123232142D01*
X199271047Y-123279761D01*
X199175809Y-123327380D01*
X199032952Y-123327380D01*
X199794857Y-122660714D02*
X199794857Y-123327380D01*
X199794857Y-122755952D02*
X199842476Y-122708333D01*
X199937714Y-122660714D01*
X200080571Y-122660714D01*
X200175809Y-122708333D01*
X200223428Y-122803571D01*
X200223428Y-123327380D01*
X201318666Y-122327380D02*
X201652000Y-123327380D01*
X201985333Y-122327380D01*
X202461523Y-123327380D02*
X202366285Y-123279761D01*
X202318666Y-123232142D01*
X202271047Y-123136904D01*
X202271047Y-122851190D01*
X202318666Y-122755952D01*
X202366285Y-122708333D01*
X202461523Y-122660714D01*
X202604380Y-122660714D01*
X202699619Y-122708333D01*
X202747238Y-122755952D01*
X202794857Y-122851190D01*
X202794857Y-123136904D01*
X202747238Y-123232142D01*
X202699619Y-123279761D01*
X202604380Y-123327380D01*
X202461523Y-123327380D01*
X203366285Y-123327380D02*
X203271047Y-123279761D01*
X203223428Y-123184523D01*
X203223428Y-122327380D01*
X203604380Y-122660714D02*
X203985333Y-122660714D01*
X203747238Y-122327380D02*
X203747238Y-123184523D01*
X203794857Y-123279761D01*
X203890095Y-123327380D01*
X203985333Y-123327380D01*
X204747238Y-123327380D02*
X204747238Y-122803571D01*
X204699619Y-122708333D01*
X204604380Y-122660714D01*
X204413904Y-122660714D01*
X204318666Y-122708333D01*
X204747238Y-123279761D02*
X204652000Y-123327380D01*
X204413904Y-123327380D01*
X204318666Y-123279761D01*
X204271047Y-123184523D01*
X204271047Y-123089285D01*
X204318666Y-122994047D01*
X204413904Y-122946428D01*
X204652000Y-122946428D01*
X204747238Y-122898809D01*
X205652000Y-122660714D02*
X205652000Y-123470238D01*
X205604380Y-123565476D01*
X205556761Y-123613095D01*
X205461523Y-123660714D01*
X205318666Y-123660714D01*
X205223428Y-123613095D01*
X205652000Y-123279761D02*
X205556761Y-123327380D01*
X205366285Y-123327380D01*
X205271047Y-123279761D01*
X205223428Y-123232142D01*
X205175809Y-123136904D01*
X205175809Y-122851190D01*
X205223428Y-122755952D01*
X205271047Y-122708333D01*
X205366285Y-122660714D01*
X205556761Y-122660714D01*
X205652000Y-122708333D01*
X206509142Y-123279761D02*
X206413904Y-123327380D01*
X206223428Y-123327380D01*
X206128190Y-123279761D01*
X206080571Y-123184523D01*
X206080571Y-122803571D01*
X206128190Y-122708333D01*
X206223428Y-122660714D01*
X206413904Y-122660714D01*
X206509142Y-122708333D01*
X206556761Y-122803571D01*
X206556761Y-122898809D01*
X206080571Y-122994047D01*
X197580571Y-124977380D02*
X197580571Y-123977380D01*
X197961523Y-123977380D01*
X198056761Y-124025000D01*
X198104380Y-124072619D01*
X198152000Y-124167857D01*
X198152000Y-124310714D01*
X198104380Y-124405952D01*
X198056761Y-124453571D01*
X197961523Y-124501190D01*
X197580571Y-124501190D01*
X198580571Y-124977380D02*
X198580571Y-124310714D01*
X198580571Y-124501190D02*
X198628190Y-124405952D01*
X198675809Y-124358333D01*
X198771047Y-124310714D01*
X198866285Y-124310714D01*
X199580571Y-124929761D02*
X199485333Y-124977380D01*
X199294857Y-124977380D01*
X199199619Y-124929761D01*
X199152000Y-124834523D01*
X199152000Y-124453571D01*
X199199619Y-124358333D01*
X199294857Y-124310714D01*
X199485333Y-124310714D01*
X199580571Y-124358333D01*
X199628190Y-124453571D01*
X199628190Y-124548809D01*
X199152000Y-124644047D01*
X200485333Y-124977380D02*
X200485333Y-124453571D01*
X200437714Y-124358333D01*
X200342476Y-124310714D01*
X200152000Y-124310714D01*
X200056761Y-124358333D01*
X200485333Y-124929761D02*
X200390095Y-124977380D01*
X200152000Y-124977380D01*
X200056761Y-124929761D01*
X200009142Y-124834523D01*
X200009142Y-124739285D01*
X200056761Y-124644047D01*
X200152000Y-124596428D01*
X200390095Y-124596428D01*
X200485333Y-124548809D01*
X200961523Y-124977380D02*
X200961523Y-124310714D01*
X200961523Y-124405952D02*
X201009142Y-124358333D01*
X201104380Y-124310714D01*
X201247238Y-124310714D01*
X201342476Y-124358333D01*
X201390095Y-124453571D01*
X201390095Y-124977380D01*
X201390095Y-124453571D02*
X201437714Y-124358333D01*
X201532952Y-124310714D01*
X201675809Y-124310714D01*
X201771047Y-124358333D01*
X201818666Y-124453571D01*
X201818666Y-124977380D01*
X202294857Y-124310714D02*
X202294857Y-125310714D01*
X202294857Y-124358333D02*
X202390095Y-124310714D01*
X202580571Y-124310714D01*
X202675809Y-124358333D01*
X202723428Y-124405952D01*
X202771047Y-124501190D01*
X202771047Y-124786904D01*
X202723428Y-124882142D01*
X202675809Y-124929761D01*
X202580571Y-124977380D01*
X202390095Y-124977380D01*
X202294857Y-124929761D01*
X195675809Y-126246428D02*
X196437714Y-126246428D01*
X196056761Y-126627380D02*
X196056761Y-125865476D01*
X197390095Y-125627380D02*
X196913904Y-125627380D01*
X196866285Y-126103571D01*
X196913904Y-126055952D01*
X197009142Y-126008333D01*
X197247238Y-126008333D01*
X197342476Y-126055952D01*
X197390095Y-126103571D01*
X197437714Y-126198809D01*
X197437714Y-126436904D01*
X197390095Y-126532142D01*
X197342476Y-126579761D01*
X197247238Y-126627380D01*
X197009142Y-126627380D01*
X196913904Y-126579761D01*
X196866285Y-126532142D01*
X197723428Y-125627380D02*
X198056761Y-126627380D01*
X198390095Y-125627380D01*
X199437714Y-125579761D02*
X198580571Y-126865476D01*
X199771047Y-126246428D02*
X200532952Y-126246428D01*
X201437714Y-125960714D02*
X201437714Y-126627380D01*
X201199619Y-125579761D02*
X200961523Y-126294047D01*
X201580571Y-126294047D01*
X201818666Y-125627380D02*
X202152000Y-126627380D01*
X202485333Y-125627380D01*
X203580571Y-126627380D02*
X203580571Y-125627380D01*
X204056761Y-126627380D02*
X204056761Y-125627380D01*
X204628190Y-126627380D01*
X204628190Y-125627380D01*
X196580571Y-129403571D02*
X196247238Y-129403571D01*
X196247238Y-129927380D02*
X196247238Y-128927380D01*
X196723428Y-128927380D01*
X197532952Y-129927380D02*
X197532952Y-129403571D01*
X197485333Y-129308333D01*
X197390095Y-129260714D01*
X197199619Y-129260714D01*
X197104380Y-129308333D01*
X197532952Y-129879761D02*
X197437714Y-129927380D01*
X197199619Y-129927380D01*
X197104380Y-129879761D01*
X197056761Y-129784523D01*
X197056761Y-129689285D01*
X197104380Y-129594047D01*
X197199619Y-129546428D01*
X197437714Y-129546428D01*
X197532952Y-129498809D01*
X198152000Y-129927380D02*
X198056761Y-129879761D01*
X198009142Y-129784523D01*
X198009142Y-128927380D01*
X198485333Y-129879761D02*
X198580571Y-129927380D01*
X198771047Y-129927380D01*
X198866285Y-129879761D01*
X198913904Y-129784523D01*
X198913904Y-129736904D01*
X198866285Y-129641666D01*
X198771047Y-129594047D01*
X198628190Y-129594047D01*
X198532952Y-129546428D01*
X198485333Y-129451190D01*
X198485333Y-129403571D01*
X198532952Y-129308333D01*
X198628190Y-129260714D01*
X198771047Y-129260714D01*
X198866285Y-129308333D01*
X199485333Y-129927380D02*
X199390095Y-129879761D01*
X199342476Y-129832142D01*
X199294857Y-129736904D01*
X199294857Y-129451190D01*
X199342476Y-129355952D01*
X199390095Y-129308333D01*
X199485333Y-129260714D01*
X199628190Y-129260714D01*
X199723428Y-129308333D01*
X199771047Y-129355952D01*
X199818666Y-129451190D01*
X199818666Y-129736904D01*
X199771047Y-129832142D01*
X199723428Y-129879761D01*
X199628190Y-129927380D01*
X199485333Y-129927380D01*
X200247238Y-129260714D02*
X200247238Y-129927380D01*
X200247238Y-129355952D02*
X200294857Y-129308333D01*
X200390095Y-129260714D01*
X200532952Y-129260714D01*
X200628190Y-129308333D01*
X200675809Y-129403571D01*
X200675809Y-129927380D01*
X202390095Y-129927380D02*
X201913904Y-129927380D01*
X201913904Y-128927380D01*
X203152000Y-129927380D02*
X203152000Y-129403571D01*
X203104380Y-129308333D01*
X203009142Y-129260714D01*
X202818666Y-129260714D01*
X202723428Y-129308333D01*
X203152000Y-129879761D02*
X203056761Y-129927380D01*
X202818666Y-129927380D01*
X202723428Y-129879761D01*
X202675809Y-129784523D01*
X202675809Y-129689285D01*
X202723428Y-129594047D01*
X202818666Y-129546428D01*
X203056761Y-129546428D01*
X203152000Y-129498809D01*
X203628190Y-129927380D02*
X203628190Y-128927380D01*
X203628190Y-129308333D02*
X203723428Y-129260714D01*
X203913904Y-129260714D01*
X204009142Y-129308333D01*
X204056761Y-129355952D01*
X204104380Y-129451190D01*
X204104380Y-129736904D01*
X204056761Y-129832142D01*
X204009142Y-129879761D01*
X203913904Y-129927380D01*
X203723428Y-129927380D01*
X203628190Y-129879761D01*
X198152000Y-131482142D02*
X198104380Y-131529761D01*
X197961523Y-131577380D01*
X197866285Y-131577380D01*
X197723428Y-131529761D01*
X197628190Y-131434523D01*
X197580571Y-131339285D01*
X197532952Y-131148809D01*
X197532952Y-131005952D01*
X197580571Y-130815476D01*
X197628190Y-130720238D01*
X197723428Y-130625000D01*
X197866285Y-130577380D01*
X197961523Y-130577380D01*
X198104380Y-130625000D01*
X198152000Y-130672619D01*
X199009142Y-131577380D02*
X199009142Y-131053571D01*
X198961523Y-130958333D01*
X198866285Y-130910714D01*
X198675809Y-130910714D01*
X198580571Y-130958333D01*
X199009142Y-131529761D02*
X198913904Y-131577380D01*
X198675809Y-131577380D01*
X198580571Y-131529761D01*
X198532952Y-131434523D01*
X198532952Y-131339285D01*
X198580571Y-131244047D01*
X198675809Y-131196428D01*
X198913904Y-131196428D01*
X199009142Y-131148809D01*
X199628190Y-131577380D02*
X199532952Y-131529761D01*
X199485333Y-131434523D01*
X199485333Y-130577380D01*
X199866285Y-130910714D02*
X200247238Y-130910714D01*
X200009142Y-130577380D02*
X200009142Y-131434523D01*
X200056761Y-131529761D01*
X200152000Y-131577380D01*
X200247238Y-131577380D01*
X200961523Y-131529761D02*
X200866285Y-131577380D01*
X200675809Y-131577380D01*
X200580571Y-131529761D01*
X200532952Y-131434523D01*
X200532952Y-131053571D01*
X200580571Y-130958333D01*
X200675809Y-130910714D01*
X200866285Y-130910714D01*
X200961523Y-130958333D01*
X201009142Y-131053571D01*
X201009142Y-131148809D01*
X200532952Y-131244047D01*
X201866285Y-131529761D02*
X201771047Y-131577380D01*
X201580571Y-131577380D01*
X201485333Y-131529761D01*
X201437714Y-131482142D01*
X201390095Y-131386904D01*
X201390095Y-131101190D01*
X201437714Y-131005952D01*
X201485333Y-130958333D01*
X201580571Y-130910714D01*
X201771047Y-130910714D01*
X201866285Y-130958333D01*
X202294857Y-131577380D02*
X202294857Y-130577380D01*
X202723428Y-131577380D02*
X202723428Y-131053571D01*
X202675809Y-130958333D01*
X202580571Y-130910714D01*
X202437714Y-130910714D01*
X202342476Y-130958333D01*
X202294857Y-131005952D01*
X162036190Y-117292380D02*
X162036190Y-116292380D01*
X162512380Y-117292380D02*
X162512380Y-116292380D01*
X163083809Y-117292380D01*
X163083809Y-116292380D01*
X160789904Y-123452000D02*
X160694666Y-123404380D01*
X160551809Y-123404380D01*
X160408952Y-123452000D01*
X160313714Y-123547238D01*
X160266095Y-123642476D01*
X160218476Y-123832952D01*
X160218476Y-123975809D01*
X160266095Y-124166285D01*
X160313714Y-124261523D01*
X160408952Y-124356761D01*
X160551809Y-124404380D01*
X160647047Y-124404380D01*
X160789904Y-124356761D01*
X160837523Y-124309142D01*
X160837523Y-123975809D01*
X160647047Y-123975809D01*
X159908952Y-117292380D02*
X160099428Y-117292380D01*
X160194666Y-117244761D01*
X160242285Y-117197142D01*
X160337523Y-117054285D01*
X160385142Y-116863809D01*
X160385142Y-116482857D01*
X160337523Y-116387619D01*
X160289904Y-116340000D01*
X160194666Y-116292380D01*
X160004190Y-116292380D01*
X159908952Y-116340000D01*
X159861333Y-116387619D01*
X159813714Y-116482857D01*
X159813714Y-116720952D01*
X159861333Y-116816190D01*
X159908952Y-116863809D01*
X160004190Y-116911428D01*
X160194666Y-116911428D01*
X160289904Y-116863809D01*
X160337523Y-116816190D01*
X160385142Y-116720952D01*
X160670857Y-116292380D02*
X161004190Y-117292380D01*
X161337523Y-116292380D01*
X149225095Y-131326000D02*
X149129857Y-131278380D01*
X148987000Y-131278380D01*
X148844142Y-131326000D01*
X148748904Y-131421238D01*
X148701285Y-131516476D01*
X148653666Y-131706952D01*
X148653666Y-131849809D01*
X148701285Y-132040285D01*
X148748904Y-132135523D01*
X148844142Y-132230761D01*
X148987000Y-132278380D01*
X149082238Y-132278380D01*
X149225095Y-132230761D01*
X149272714Y-132183142D01*
X149272714Y-131849809D01*
X149082238Y-131849809D01*
X149701285Y-132278380D02*
X149701285Y-131278380D01*
X150272714Y-132278380D01*
X150272714Y-131278380D01*
X150748904Y-132278380D02*
X150748904Y-131278380D01*
X150987000Y-131278380D01*
X151129857Y-131326000D01*
X151225095Y-131421238D01*
X151272714Y-131516476D01*
X151320333Y-131706952D01*
X151320333Y-131849809D01*
X151272714Y-132040285D01*
X151225095Y-132135523D01*
X151129857Y-132230761D01*
X150987000Y-132278380D01*
X150748904Y-132278380D01*
X150256904Y-129071714D02*
X150256904Y-129738380D01*
X150018809Y-128690761D02*
X149780714Y-129405047D01*
X150399761Y-129405047D01*
X150637857Y-128738380D02*
X150971190Y-129738380D01*
X151304523Y-128738380D01*
X160909095Y-131453000D02*
X160813857Y-131405380D01*
X160671000Y-131405380D01*
X160528142Y-131453000D01*
X160432904Y-131548238D01*
X160385285Y-131643476D01*
X160337666Y-131833952D01*
X160337666Y-131976809D01*
X160385285Y-132167285D01*
X160432904Y-132262523D01*
X160528142Y-132357761D01*
X160671000Y-132405380D01*
X160766238Y-132405380D01*
X160909095Y-132357761D01*
X160956714Y-132310142D01*
X160956714Y-131976809D01*
X160766238Y-131976809D01*
X161385285Y-132405380D02*
X161385285Y-131405380D01*
X161956714Y-132405380D01*
X161956714Y-131405380D01*
X162432904Y-132405380D02*
X162432904Y-131405380D01*
X162671000Y-131405380D01*
X162813857Y-131453000D01*
X162909095Y-131548238D01*
X162956714Y-131643476D01*
X163004333Y-131833952D01*
X163004333Y-131976809D01*
X162956714Y-132167285D01*
X162909095Y-132262523D01*
X162813857Y-132357761D01*
X162671000Y-132405380D01*
X162432904Y-132405380D01*
X160416952Y-129738380D02*
X160607428Y-129738380D01*
X160702666Y-129690761D01*
X160750285Y-129643142D01*
X160845523Y-129500285D01*
X160893142Y-129309809D01*
X160893142Y-128928857D01*
X160845523Y-128833619D01*
X160797904Y-128786000D01*
X160702666Y-128738380D01*
X160512190Y-128738380D01*
X160416952Y-128786000D01*
X160369333Y-128833619D01*
X160321714Y-128928857D01*
X160321714Y-129166952D01*
X160369333Y-129262190D01*
X160416952Y-129309809D01*
X160512190Y-129357428D01*
X160702666Y-129357428D01*
X160797904Y-129309809D01*
X160845523Y-129262190D01*
X160893142Y-129166952D01*
X161178857Y-128738380D02*
X161512190Y-129738380D01*
X161845523Y-128738380D01*
X130866285Y-150614571D02*
X130532952Y-150614571D01*
X130532952Y-151138380D02*
X130532952Y-150138380D01*
X131009142Y-150138380D01*
X131532952Y-151138380D02*
X131437714Y-151090761D01*
X131390095Y-150995523D01*
X131390095Y-150138380D01*
X131818666Y-150471714D02*
X132056761Y-151138380D01*
X132294857Y-150471714D02*
X132056761Y-151138380D01*
X131961523Y-151376476D01*
X131913904Y-151424095D01*
X131818666Y-151471714D01*
X132580571Y-150471714D02*
X132771047Y-151138380D01*
X132961523Y-150662190D01*
X133152000Y-151138380D01*
X133342476Y-150471714D01*
X133723428Y-151138380D02*
X133723428Y-150471714D01*
X133723428Y-150138380D02*
X133675809Y-150186000D01*
X133723428Y-150233619D01*
X133771047Y-150186000D01*
X133723428Y-150138380D01*
X133723428Y-150233619D01*
X134199619Y-151138380D02*
X134199619Y-150471714D01*
X134199619Y-150662190D02*
X134247238Y-150566952D01*
X134294857Y-150519333D01*
X134390095Y-150471714D01*
X134485333Y-150471714D01*
X135199619Y-151090761D02*
X135104380Y-151138380D01*
X134913904Y-151138380D01*
X134818666Y-151090761D01*
X134771047Y-150995523D01*
X134771047Y-150614571D01*
X134818666Y-150519333D01*
X134913904Y-150471714D01*
X135104380Y-150471714D01*
X135199619Y-150519333D01*
X135247238Y-150614571D01*
X135247238Y-150709809D01*
X134771047Y-150805047D01*
X136437714Y-151138380D02*
X136437714Y-150471714D01*
X136437714Y-150138380D02*
X136390095Y-150186000D01*
X136437714Y-150233619D01*
X136485333Y-150186000D01*
X136437714Y-150138380D01*
X136437714Y-150233619D01*
X136913904Y-150471714D02*
X136913904Y-151138380D01*
X136913904Y-150566952D02*
X136961523Y-150519333D01*
X137056761Y-150471714D01*
X137199619Y-150471714D01*
X137294857Y-150519333D01*
X137342476Y-150614571D01*
X137342476Y-151138380D01*
X137818666Y-150471714D02*
X137818666Y-151471714D01*
X137818666Y-150519333D02*
X137913904Y-150471714D01*
X138104380Y-150471714D01*
X138199619Y-150519333D01*
X138247238Y-150566952D01*
X138294857Y-150662190D01*
X138294857Y-150947904D01*
X138247238Y-151043142D01*
X138199619Y-151090761D01*
X138104380Y-151138380D01*
X137913904Y-151138380D01*
X137818666Y-151090761D01*
X139152000Y-150471714D02*
X139152000Y-151138380D01*
X138723428Y-150471714D02*
X138723428Y-150995523D01*
X138771047Y-151090761D01*
X138866285Y-151138380D01*
X139009142Y-151138380D01*
X139104380Y-151090761D01*
X139152000Y-151043142D01*
X139485333Y-150471714D02*
X139866285Y-150471714D01*
X139628190Y-150138380D02*
X139628190Y-150995523D01*
X139675809Y-151090761D01*
X139771047Y-151138380D01*
X139866285Y-151138380D01*
X140152000Y-151090761D02*
X140247238Y-151138380D01*
X140437714Y-151138380D01*
X140532952Y-151090761D01*
X140580571Y-150995523D01*
X140580571Y-150947904D01*
X140532952Y-150852666D01*
X140437714Y-150805047D01*
X140294857Y-150805047D01*
X140199619Y-150757428D01*
X140152000Y-150662190D01*
X140152000Y-150614571D01*
X140199619Y-150519333D01*
X140294857Y-150471714D01*
X140437714Y-150471714D01*
X140532952Y-150519333D01*
X141628190Y-150471714D02*
X142009142Y-150471714D01*
X141771047Y-150138380D02*
X141771047Y-150995523D01*
X141818666Y-151090761D01*
X141913904Y-151138380D01*
X142009142Y-151138380D01*
X142485333Y-151138380D02*
X142390095Y-151090761D01*
X142342476Y-151043142D01*
X142294857Y-150947904D01*
X142294857Y-150662190D01*
X142342476Y-150566952D01*
X142390095Y-150519333D01*
X142485333Y-150471714D01*
X142628190Y-150471714D01*
X142723428Y-150519333D01*
X142771047Y-150566952D01*
X142818666Y-150662190D01*
X142818666Y-150947904D01*
X142771047Y-151043142D01*
X142723428Y-151090761D01*
X142628190Y-151138380D01*
X142485333Y-151138380D01*
X131675809Y-152788380D02*
X131675809Y-151788380D01*
X132056761Y-151788380D01*
X132152000Y-151836000D01*
X132199619Y-151883619D01*
X132247238Y-151978857D01*
X132247238Y-152121714D01*
X132199619Y-152216952D01*
X132152000Y-152264571D01*
X132056761Y-152312190D01*
X131675809Y-152312190D01*
X132532952Y-151788380D02*
X133104380Y-151788380D01*
X132818666Y-152788380D02*
X132818666Y-151788380D01*
X133771047Y-152264571D02*
X133437714Y-152264571D01*
X133437714Y-152788380D02*
X133437714Y-151788380D01*
X133913904Y-151788380D01*
X134294857Y-152264571D02*
X134628190Y-152264571D01*
X134771047Y-152788380D02*
X134294857Y-152788380D01*
X134294857Y-151788380D01*
X134771047Y-151788380D01*
X135913904Y-152740761D02*
X136009142Y-152788380D01*
X136199619Y-152788380D01*
X136294857Y-152740761D01*
X136342476Y-152645523D01*
X136342476Y-152597904D01*
X136294857Y-152502666D01*
X136199619Y-152455047D01*
X136056761Y-152455047D01*
X135961523Y-152407428D01*
X135913904Y-152312190D01*
X135913904Y-152264571D01*
X135961523Y-152169333D01*
X136056761Y-152121714D01*
X136199619Y-152121714D01*
X136294857Y-152169333D01*
X136628190Y-152121714D02*
X137009142Y-152121714D01*
X136771047Y-151788380D02*
X136771047Y-152645523D01*
X136818666Y-152740761D01*
X136913904Y-152788380D01*
X137009142Y-152788380D01*
X137771047Y-152788380D02*
X137771047Y-152264571D01*
X137723428Y-152169333D01*
X137628190Y-152121714D01*
X137437714Y-152121714D01*
X137342476Y-152169333D01*
X137771047Y-152740761D02*
X137675809Y-152788380D01*
X137437714Y-152788380D01*
X137342476Y-152740761D01*
X137294857Y-152645523D01*
X137294857Y-152550285D01*
X137342476Y-152455047D01*
X137437714Y-152407428D01*
X137675809Y-152407428D01*
X137771047Y-152359809D01*
X138247238Y-152121714D02*
X138247238Y-152788380D01*
X138247238Y-152216952D02*
X138294857Y-152169333D01*
X138390095Y-152121714D01*
X138532952Y-152121714D01*
X138628190Y-152169333D01*
X138675809Y-152264571D01*
X138675809Y-152788380D01*
X139580571Y-152788380D02*
X139580571Y-151788380D01*
X139580571Y-152740761D02*
X139485333Y-152788380D01*
X139294857Y-152788380D01*
X139199619Y-152740761D01*
X139152000Y-152693142D01*
X139104380Y-152597904D01*
X139104380Y-152312190D01*
X139152000Y-152216952D01*
X139199619Y-152169333D01*
X139294857Y-152121714D01*
X139485333Y-152121714D01*
X139580571Y-152169333D01*
X140199619Y-152788380D02*
X140104380Y-152740761D01*
X140056761Y-152693142D01*
X140009142Y-152597904D01*
X140009142Y-152312190D01*
X140056761Y-152216952D01*
X140104380Y-152169333D01*
X140199619Y-152121714D01*
X140342476Y-152121714D01*
X140437714Y-152169333D01*
X140485333Y-152216952D01*
X140532952Y-152312190D01*
X140532952Y-152597904D01*
X140485333Y-152693142D01*
X140437714Y-152740761D01*
X140342476Y-152788380D01*
X140199619Y-152788380D01*
X140818666Y-152121714D02*
X141199619Y-152121714D01*
X140961523Y-152788380D02*
X140961523Y-151931238D01*
X141009142Y-151836000D01*
X141104380Y-151788380D01*
X141199619Y-151788380D01*
X141390095Y-152121714D02*
X141771047Y-152121714D01*
X141532952Y-152788380D02*
X141532952Y-151931238D01*
X141580571Y-151836000D01*
X141675809Y-151788380D01*
X141771047Y-151788380D01*
X133342857Y-118308380D02*
X133009523Y-117832190D01*
X132771428Y-118308380D02*
X132771428Y-117308380D01*
X133152380Y-117308380D01*
X133247619Y-117356000D01*
X133295238Y-117403619D01*
X133342857Y-117498857D01*
X133342857Y-117641714D01*
X133295238Y-117736952D01*
X133247619Y-117784571D01*
X133152380Y-117832190D01*
X132771428Y-117832190D01*
X134200000Y-117641714D02*
X134200000Y-118308380D01*
X133961904Y-117260761D02*
X133723809Y-117975047D01*
X134342857Y-117975047D01*
X134771428Y-118260761D02*
X134771428Y-118308380D01*
X134723809Y-118403619D01*
X134676190Y-118451238D01*
X136533333Y-118308380D02*
X136200000Y-117832190D01*
X135961904Y-118308380D02*
X135961904Y-117308380D01*
X136342857Y-117308380D01*
X136438095Y-117356000D01*
X136485714Y-117403619D01*
X136533333Y-117498857D01*
X136533333Y-117641714D01*
X136485714Y-117736952D01*
X136438095Y-117784571D01*
X136342857Y-117832190D01*
X135961904Y-117832190D01*
X137485714Y-118308380D02*
X136914285Y-118308380D01*
X137200000Y-118308380D02*
X137200000Y-117308380D01*
X137104761Y-117451238D01*
X137009523Y-117546476D01*
X136914285Y-117594095D01*
X138676190Y-118308380D02*
X138676190Y-117308380D01*
X139009523Y-118022666D01*
X139342857Y-117308380D01*
X139342857Y-118308380D01*
X139819047Y-117784571D02*
X140152380Y-117784571D01*
X140295238Y-118308380D02*
X139819047Y-118308380D01*
X139819047Y-117308380D01*
X140295238Y-117308380D01*
X140580952Y-117308380D02*
X141152380Y-117308380D01*
X140866666Y-118308380D02*
X140866666Y-117308380D01*
X141438095Y-118022666D02*
X141914285Y-118022666D01*
X141342857Y-118308380D02*
X141676190Y-117308380D01*
X142009523Y-118308380D01*
X142819047Y-118308380D02*
X142342857Y-118308380D01*
X142342857Y-117308380D01*
X144247619Y-117784571D02*
X143914285Y-117784571D01*
X143914285Y-118308380D02*
X143914285Y-117308380D01*
X144390476Y-117308380D01*
X144961904Y-117308380D02*
X145152380Y-117308380D01*
X145247619Y-117356000D01*
X145342857Y-117451238D01*
X145390476Y-117641714D01*
X145390476Y-117975047D01*
X145342857Y-118165523D01*
X145247619Y-118260761D01*
X145152380Y-118308380D01*
X144961904Y-118308380D01*
X144866666Y-118260761D01*
X144771428Y-118165523D01*
X144723809Y-117975047D01*
X144723809Y-117641714D01*
X144771428Y-117451238D01*
X144866666Y-117356000D01*
X144961904Y-117308380D01*
X145819047Y-118308380D02*
X145819047Y-117308380D01*
X146771428Y-118308380D02*
X146295238Y-118308380D01*
X146295238Y-117308380D01*
X144835619Y-158440380D02*
X144502285Y-157964190D01*
X144264190Y-158440380D02*
X144264190Y-157440380D01*
X144645142Y-157440380D01*
X144740380Y-157488000D01*
X144788000Y-157535619D01*
X144835619Y-157630857D01*
X144835619Y-157773714D01*
X144788000Y-157868952D01*
X144740380Y-157916571D01*
X144645142Y-157964190D01*
X144264190Y-157964190D01*
X145121333Y-157773714D02*
X145502285Y-157773714D01*
X145264190Y-158440380D02*
X145264190Y-157583238D01*
X145311809Y-157488000D01*
X145407047Y-157440380D01*
X145502285Y-157440380D01*
X145788000Y-157535619D02*
X145835619Y-157488000D01*
X145930857Y-157440380D01*
X146168952Y-157440380D01*
X146264190Y-157488000D01*
X146311809Y-157535619D01*
X146359428Y-157630857D01*
X146359428Y-157726095D01*
X146311809Y-157868952D01*
X145740380Y-158440380D01*
X146359428Y-158440380D01*
X147978809Y-166632380D02*
X147645476Y-166156190D01*
X147407380Y-166632380D02*
X147407380Y-165632380D01*
X147788333Y-165632380D01*
X147883571Y-165680000D01*
X147931190Y-165727619D01*
X147978809Y-165822857D01*
X147978809Y-165965714D01*
X147931190Y-166060952D01*
X147883571Y-166108571D01*
X147788333Y-166156190D01*
X147407380Y-166156190D01*
X148264523Y-165965714D02*
X148645476Y-165965714D01*
X148407380Y-166632380D02*
X148407380Y-165775238D01*
X148455000Y-165680000D01*
X148550238Y-165632380D01*
X148645476Y-165632380D01*
X147978809Y-168187142D02*
X147931190Y-168234761D01*
X147788333Y-168282380D01*
X147693095Y-168282380D01*
X147550238Y-168234761D01*
X147455000Y-168139523D01*
X147407380Y-168044285D01*
X147359761Y-167853809D01*
X147359761Y-167710952D01*
X147407380Y-167520476D01*
X147455000Y-167425238D01*
X147550238Y-167330000D01*
X147693095Y-167282380D01*
X147788333Y-167282380D01*
X147931190Y-167330000D01*
X147978809Y-167377619D01*
X148264523Y-167615714D02*
X148645476Y-167615714D01*
X148407380Y-168282380D02*
X148407380Y-167425238D01*
X148455000Y-167330000D01*
X148550238Y-167282380D01*
X148645476Y-167282380D01*
X146574047Y-161059761D02*
X146716904Y-161107380D01*
X146955000Y-161107380D01*
X147050238Y-161059761D01*
X147097857Y-161012142D01*
X147145476Y-160916904D01*
X147145476Y-160821666D01*
X147097857Y-160726428D01*
X147050238Y-160678809D01*
X146955000Y-160631190D01*
X146764523Y-160583571D01*
X146669285Y-160535952D01*
X146621666Y-160488333D01*
X146574047Y-160393095D01*
X146574047Y-160297857D01*
X146621666Y-160202619D01*
X146669285Y-160155000D01*
X146764523Y-160107380D01*
X147002619Y-160107380D01*
X147145476Y-160155000D01*
X147574047Y-160107380D02*
X147574047Y-160916904D01*
X147621666Y-161012142D01*
X147669285Y-161059761D01*
X147764523Y-161107380D01*
X147955000Y-161107380D01*
X148050238Y-161059761D01*
X148097857Y-161012142D01*
X148145476Y-160916904D01*
X148145476Y-160107380D01*
X148621666Y-161107380D02*
X148621666Y-160107380D01*
X148955000Y-160821666D01*
X149288333Y-160107380D01*
X149288333Y-161107380D01*
X132175857Y-134818380D02*
X131604428Y-134818380D01*
X131890142Y-134818380D02*
X131890142Y-133818380D01*
X131794904Y-133961238D01*
X131699666Y-134056476D01*
X131604428Y-134104095D01*
X133033000Y-133818380D02*
X132842523Y-133818380D01*
X132747285Y-133866000D01*
X132699666Y-133913619D01*
X132604428Y-134056476D01*
X132556809Y-134246952D01*
X132556809Y-134627904D01*
X132604428Y-134723142D01*
X132652047Y-134770761D01*
X132747285Y-134818380D01*
X132937761Y-134818380D01*
X133033000Y-134770761D01*
X133080619Y-134723142D01*
X133128238Y-134627904D01*
X133128238Y-134389809D01*
X133080619Y-134294571D01*
X133033000Y-134246952D01*
X132937761Y-134199333D01*
X132747285Y-134199333D01*
X132652047Y-134246952D01*
X132604428Y-134294571D01*
X132556809Y-134389809D01*
X133556809Y-134723142D02*
X133604428Y-134770761D01*
X133556809Y-134818380D01*
X133509190Y-134770761D01*
X133556809Y-134723142D01*
X133556809Y-134818380D01*
X134509190Y-133818380D02*
X134033000Y-133818380D01*
X133985380Y-134294571D01*
X134033000Y-134246952D01*
X134128238Y-134199333D01*
X134366333Y-134199333D01*
X134461571Y-134246952D01*
X134509190Y-134294571D01*
X134556809Y-134389809D01*
X134556809Y-134627904D01*
X134509190Y-134723142D01*
X134461571Y-134770761D01*
X134366333Y-134818380D01*
X134128238Y-134818380D01*
X134033000Y-134770761D01*
X133985380Y-134723142D01*
X134985380Y-134818380D02*
X134985380Y-134151714D01*
X134985380Y-134246952D02*
X135033000Y-134199333D01*
X135128238Y-134151714D01*
X135271095Y-134151714D01*
X135366333Y-134199333D01*
X135413952Y-134294571D01*
X135413952Y-134818380D01*
X135413952Y-134294571D02*
X135461571Y-134199333D01*
X135556809Y-134151714D01*
X135699666Y-134151714D01*
X135794904Y-134199333D01*
X135842523Y-134294571D01*
X135842523Y-134818380D01*
X136318714Y-134818380D02*
X136318714Y-134151714D01*
X136318714Y-134246952D02*
X136366333Y-134199333D01*
X136461571Y-134151714D01*
X136604428Y-134151714D01*
X136699666Y-134199333D01*
X136747285Y-134294571D01*
X136747285Y-134818380D01*
X136747285Y-134294571D02*
X136794904Y-134199333D01*
X136890142Y-134151714D01*
X137033000Y-134151714D01*
X137128238Y-134199333D01*
X137175857Y-134294571D01*
X137175857Y-134818380D01*
X138366333Y-134770761D02*
X138461571Y-134818380D01*
X138652047Y-134818380D01*
X138747285Y-134770761D01*
X138794904Y-134675523D01*
X138794904Y-134627904D01*
X138747285Y-134532666D01*
X138652047Y-134485047D01*
X138509190Y-134485047D01*
X138413952Y-134437428D01*
X138366333Y-134342190D01*
X138366333Y-134294571D01*
X138413952Y-134199333D01*
X138509190Y-134151714D01*
X138652047Y-134151714D01*
X138747285Y-134199333D01*
X139223476Y-134818380D02*
X139223476Y-133818380D01*
X139652047Y-134818380D02*
X139652047Y-134294571D01*
X139604428Y-134199333D01*
X139509190Y-134151714D01*
X139366333Y-134151714D01*
X139271095Y-134199333D01*
X139223476Y-134246952D01*
X140128238Y-134818380D02*
X140128238Y-134151714D01*
X140128238Y-133818380D02*
X140080619Y-133866000D01*
X140128238Y-133913619D01*
X140175857Y-133866000D01*
X140128238Y-133818380D01*
X140128238Y-133913619D01*
X140985380Y-134770761D02*
X140890142Y-134818380D01*
X140699666Y-134818380D01*
X140604428Y-134770761D01*
X140556809Y-134675523D01*
X140556809Y-134294571D01*
X140604428Y-134199333D01*
X140699666Y-134151714D01*
X140890142Y-134151714D01*
X140985380Y-134199333D01*
X141033000Y-134294571D01*
X141033000Y-134389809D01*
X140556809Y-134485047D01*
X141604428Y-134818380D02*
X141509190Y-134770761D01*
X141461571Y-134675523D01*
X141461571Y-133818380D01*
X142413952Y-134818380D02*
X142413952Y-133818380D01*
X142413952Y-134770761D02*
X142318714Y-134818380D01*
X142128238Y-134818380D01*
X142033000Y-134770761D01*
X141985380Y-134723142D01*
X141937761Y-134627904D01*
X141937761Y-134342190D01*
X141985380Y-134246952D01*
X142033000Y-134199333D01*
X142128238Y-134151714D01*
X142318714Y-134151714D01*
X142413952Y-134199333D01*
D12*
X150780000Y-118872000D02*
X150780000Y-121872000D01*
X154020000Y-117872000D02*
X154020000Y-119872000D01*
X157576000Y-161036000D02*
X157576000Y-158036000D01*
X154336000Y-162036000D02*
X154336000Y-160036000D01*
X160214000Y-117542000D02*
X161544000Y-117542000D01*
X160214000Y-118872000D02*
X160214000Y-117542000D01*
X160214000Y-120142000D02*
X162874000Y-120142000D01*
X162874000Y-120142000D02*
X162874000Y-122742000D01*
X160214000Y-120142000D02*
X160214000Y-122742000D01*
X160214000Y-122742000D02*
X162874000Y-122742000D01*
X155362000Y-118988000D02*
X155362000Y-121938000D01*
X158582000Y-120788000D02*
X158582000Y-118988000D01*
X140500000Y-166700000D02*
X135890000Y-166700000D01*
X140500000Y-158100000D02*
X140500000Y-166700000D01*
X135090000Y-158100000D02*
X140500000Y-158100000D01*
X135090000Y-165900000D02*
X135090000Y-158100000D01*
X135890000Y-166700000D02*
X135090000Y-165900000D01*
X150660000Y-147810000D02*
X146050000Y-147810000D01*
X150660000Y-139210000D02*
X150660000Y-147810000D01*
X145250000Y-139210000D02*
X150660000Y-139210000D01*
X145250000Y-147010000D02*
X145250000Y-139210000D01*
X146050000Y-147810000D02*
X145250000Y-147010000D01*
X137960000Y-128760000D02*
X133350000Y-128760000D01*
X137960000Y-120160000D02*
X137960000Y-128760000D01*
X132550000Y-120160000D02*
X137960000Y-120160000D01*
X132550000Y-127960000D02*
X132550000Y-120160000D01*
X133350000Y-128760000D02*
X132550000Y-127960000D01*
X160984000Y-160662252D02*
X160984000Y-160139748D01*
X159564000Y-160662252D02*
X159564000Y-160139748D01*
X148606252Y-161850000D02*
X148083748Y-161850000D01*
X148606252Y-163270000D02*
X148083748Y-163270000D01*
X158766252Y-142800000D02*
X158243748Y-142800000D01*
X158766252Y-144220000D02*
X158243748Y-144220000D01*
X145921252Y-123750000D02*
X145398748Y-123750000D01*
X145921252Y-125170000D02*
X145398748Y-125170000D01*
X142165000Y-165718748D02*
X142165000Y-166241252D01*
X143585000Y-165718748D02*
X143585000Y-166241252D01*
X152325000Y-146804748D02*
X152325000Y-147327252D01*
X153745000Y-146804748D02*
X153745000Y-147327252D01*
X139625000Y-127618748D02*
X139625000Y-128141252D01*
X141045000Y-127618748D02*
X141045000Y-128141252D01*
X142165000Y-158488748D02*
X142165000Y-159011252D01*
X143585000Y-158488748D02*
X143585000Y-159011252D01*
X152325000Y-139193748D02*
X152325000Y-139716252D01*
X153745000Y-139193748D02*
X153745000Y-139716252D01*
X139625000Y-120388748D02*
X139625000Y-120911252D01*
X141045000Y-120388748D02*
X141045000Y-120911252D01*
X208080000Y-143129000D02*
X207080000Y-144129000D01*
X208080000Y-143129000D02*
X207080000Y-142129000D01*
X193280000Y-135629000D02*
X208280000Y-135629000D01*
X193280000Y-150629000D02*
X193280000Y-135629000D01*
X208280000Y-150629000D02*
X193280000Y-150629000D01*
X208280000Y-135629000D02*
X208280000Y-150629000D01*
X129607000Y-161230000D02*
X130937000Y-161230000D01*
X129607000Y-162560000D02*
X129607000Y-161230000D01*
X129607000Y-163830000D02*
X132267000Y-163830000D01*
X132267000Y-163830000D02*
X132267000Y-163890000D01*
X129607000Y-163830000D02*
X129607000Y-163890000D01*
X129607000Y-163890000D02*
X132267000Y-163890000D01*
X139640000Y-142180000D02*
X140970000Y-142180000D01*
X139640000Y-143510000D02*
X139640000Y-142180000D01*
X139640000Y-144780000D02*
X142300000Y-144780000D01*
X142300000Y-144780000D02*
X142300000Y-144840000D01*
X139640000Y-144780000D02*
X139640000Y-144840000D01*
X139640000Y-144840000D02*
X142300000Y-144840000D01*
X127067000Y-123130000D02*
X128397000Y-123130000D01*
X127067000Y-124460000D02*
X127067000Y-123130000D01*
X127067000Y-125730000D02*
X129727000Y-125730000D01*
X129727000Y-125730000D02*
X129727000Y-125790000D01*
X127067000Y-125730000D02*
X127067000Y-125790000D01*
X127067000Y-125790000D02*
X129727000Y-125790000D01*
X114500000Y-143510000D02*
X115500000Y-142510000D01*
X114500000Y-143510000D02*
X115500000Y-144510000D01*
X129300000Y-151010000D02*
X114300000Y-151010000D01*
X129300000Y-136010000D02*
X129300000Y-151010000D01*
X114300000Y-136010000D02*
X129300000Y-136010000D01*
X114300000Y-151010000D02*
X114300000Y-136010000D01*
X154888000Y-125229252D02*
X154888000Y-124706748D01*
X153468000Y-125229252D02*
X153468000Y-124706748D01*
X156658000Y-127956000D02*
X157988000Y-127956000D01*
X156658000Y-129286000D02*
X156658000Y-127956000D01*
X156658000Y-130556000D02*
X159318000Y-130556000D01*
X159318000Y-130556000D02*
X159318000Y-133156000D01*
X156658000Y-130556000D02*
X156658000Y-133156000D01*
X156658000Y-133156000D02*
X159318000Y-133156000D01*
X158444000Y-125229252D02*
X158444000Y-124706748D01*
X157024000Y-125229252D02*
X157024000Y-124706748D01*
X152086000Y-127956000D02*
X153416000Y-127956000D01*
X152086000Y-129286000D02*
X152086000Y-127956000D01*
X152086000Y-130556000D02*
X154746000Y-130556000D01*
X154746000Y-130556000D02*
X154746000Y-133156000D01*
X152086000Y-130556000D02*
X152086000Y-133156000D01*
X152086000Y-133156000D02*
X154746000Y-133156000D01*
X144705000Y-165718748D02*
X144705000Y-166241252D01*
X146125000Y-165718748D02*
X146125000Y-166241252D01*
X154865000Y-146813748D02*
X154865000Y-147336252D01*
X156285000Y-146813748D02*
X156285000Y-147336252D01*
X142165000Y-127618748D02*
X142165000Y-128141252D01*
X143585000Y-127618748D02*
X143585000Y-128141252D01*
D10*
X149352380Y-119633904D02*
X150161904Y-119633904D01*
X150257142Y-119586285D01*
X150304761Y-119538666D01*
X150352380Y-119443428D01*
X150352380Y-119252952D01*
X150304761Y-119157714D01*
X150257142Y-119110095D01*
X150161904Y-119062476D01*
X149352380Y-119062476D01*
X149352380Y-118157714D02*
X149352380Y-118348190D01*
X149400000Y-118443428D01*
X149447619Y-118491047D01*
X149590476Y-118586285D01*
X149780952Y-118633904D01*
X150161904Y-118633904D01*
X150257142Y-118586285D01*
X150304761Y-118538666D01*
X150352380Y-118443428D01*
X150352380Y-118252952D01*
X150304761Y-118157714D01*
X150257142Y-118110095D01*
X150161904Y-118062476D01*
X149923809Y-118062476D01*
X149828571Y-118110095D01*
X149780952Y-118157714D01*
X149733333Y-118252952D01*
X149733333Y-118443428D01*
X149780952Y-118538666D01*
X149828571Y-118586285D01*
X149923809Y-118633904D01*
X155194095Y-155916380D02*
X155194095Y-156725904D01*
X155241714Y-156821142D01*
X155289333Y-156868761D01*
X155384571Y-156916380D01*
X155575047Y-156916380D01*
X155670285Y-156868761D01*
X155717904Y-156821142D01*
X155765523Y-156725904D01*
X155765523Y-155916380D01*
X156670285Y-156249714D02*
X156670285Y-156916380D01*
X156432190Y-155868761D02*
X156194095Y-156583047D01*
X156813142Y-156583047D01*
X122428095Y-118562380D02*
X122428095Y-117562380D01*
X122428095Y-118038571D02*
X122999523Y-118038571D01*
X122999523Y-118562380D02*
X122999523Y-117562380D01*
X123904285Y-117895714D02*
X123904285Y-118562380D01*
X123666190Y-117514761D02*
X123428095Y-118229047D01*
X124047142Y-118229047D01*
X122428095Y-169362380D02*
X122428095Y-168362380D01*
X122428095Y-168838571D02*
X122999523Y-168838571D01*
X122999523Y-169362380D02*
X122999523Y-168362380D01*
X123380476Y-168362380D02*
X123999523Y-168362380D01*
X123666190Y-168743333D01*
X123809047Y-168743333D01*
X123904285Y-168790952D01*
X123951904Y-168838571D01*
X123999523Y-168933809D01*
X123999523Y-169171904D01*
X123951904Y-169267142D01*
X123904285Y-169314761D01*
X123809047Y-169362380D01*
X123523333Y-169362380D01*
X123428095Y-169314761D01*
X123380476Y-169267142D01*
X198628095Y-169362380D02*
X198628095Y-168362380D01*
X198628095Y-168838571D02*
X199199523Y-168838571D01*
X199199523Y-169362380D02*
X199199523Y-168362380D01*
X199628095Y-168457619D02*
X199675714Y-168410000D01*
X199770952Y-168362380D01*
X200009047Y-168362380D01*
X200104285Y-168410000D01*
X200151904Y-168457619D01*
X200199523Y-168552857D01*
X200199523Y-168648095D01*
X200151904Y-168790952D01*
X199580476Y-169362380D01*
X200199523Y-169362380D01*
X198628095Y-118562380D02*
X198628095Y-117562380D01*
X198628095Y-118038571D02*
X199199523Y-118038571D01*
X199199523Y-118562380D02*
X199199523Y-117562380D01*
X200199523Y-118562380D02*
X199628095Y-118562380D01*
X199913809Y-118562380D02*
X199913809Y-117562380D01*
X199818571Y-117705238D01*
X199723333Y-117800476D01*
X199628095Y-117848095D01*
X162226666Y-123404380D02*
X162226666Y-124118666D01*
X162179047Y-124261523D01*
X162083809Y-124356761D01*
X161940952Y-124404380D01*
X161845714Y-124404380D01*
X163131428Y-123404380D02*
X162940952Y-123404380D01*
X162845714Y-123452000D01*
X162798095Y-123499619D01*
X162702857Y-123642476D01*
X162655238Y-123832952D01*
X162655238Y-124213904D01*
X162702857Y-124309142D01*
X162750476Y-124356761D01*
X162845714Y-124404380D01*
X163036190Y-124404380D01*
X163131428Y-124356761D01*
X163179047Y-124309142D01*
X163226666Y-124213904D01*
X163226666Y-123975809D01*
X163179047Y-123880571D01*
X163131428Y-123832952D01*
X163036190Y-123785333D01*
X162845714Y-123785333D01*
X162750476Y-123832952D01*
X162702857Y-123880571D01*
X162655238Y-123975809D01*
X156210095Y-115784380D02*
X156210095Y-116593904D01*
X156257714Y-116689142D01*
X156305333Y-116736761D01*
X156400571Y-116784380D01*
X156591047Y-116784380D01*
X156686285Y-116736761D01*
X156733904Y-116689142D01*
X156781523Y-116593904D01*
X156781523Y-115784380D01*
X157733904Y-115784380D02*
X157257714Y-115784380D01*
X157210095Y-116260571D01*
X157257714Y-116212952D01*
X157352952Y-116165333D01*
X157591047Y-116165333D01*
X157686285Y-116212952D01*
X157733904Y-116260571D01*
X157781523Y-116355809D01*
X157781523Y-116593904D01*
X157733904Y-116689142D01*
X157686285Y-116736761D01*
X157591047Y-116784380D01*
X157352952Y-116784380D01*
X157257714Y-116736761D01*
X157210095Y-116689142D01*
X133542380Y-163161904D02*
X134351904Y-163161904D01*
X134447142Y-163114285D01*
X134494761Y-163066666D01*
X134542380Y-162971428D01*
X134542380Y-162780952D01*
X134494761Y-162685714D01*
X134447142Y-162638095D01*
X134351904Y-162590476D01*
X133542380Y-162590476D01*
X133542380Y-162209523D02*
X133542380Y-161590476D01*
X133923333Y-161923809D01*
X133923333Y-161780952D01*
X133970952Y-161685714D01*
X134018571Y-161638095D01*
X134113809Y-161590476D01*
X134351904Y-161590476D01*
X134447142Y-161638095D01*
X134494761Y-161685714D01*
X134542380Y-161780952D01*
X134542380Y-162066666D01*
X134494761Y-162161904D01*
X134447142Y-162209523D01*
X143702380Y-144271904D02*
X144511904Y-144271904D01*
X144607142Y-144224285D01*
X144654761Y-144176666D01*
X144702380Y-144081428D01*
X144702380Y-143890952D01*
X144654761Y-143795714D01*
X144607142Y-143748095D01*
X144511904Y-143700476D01*
X143702380Y-143700476D01*
X143797619Y-143271904D02*
X143750000Y-143224285D01*
X143702380Y-143129047D01*
X143702380Y-142890952D01*
X143750000Y-142795714D01*
X143797619Y-142748095D01*
X143892857Y-142700476D01*
X143988095Y-142700476D01*
X144130952Y-142748095D01*
X144702380Y-143319523D01*
X144702380Y-142700476D01*
X131002380Y-125221904D02*
X131811904Y-125221904D01*
X131907142Y-125174285D01*
X131954761Y-125126666D01*
X132002380Y-125031428D01*
X132002380Y-124840952D01*
X131954761Y-124745714D01*
X131907142Y-124698095D01*
X131811904Y-124650476D01*
X131002380Y-124650476D01*
X132002380Y-123650476D02*
X132002380Y-124221904D01*
X132002380Y-123936190D02*
X131002380Y-123936190D01*
X131145238Y-124031428D01*
X131240476Y-124126666D01*
X131288095Y-124221904D01*
X162631380Y-161043857D02*
X162155190Y-161377190D01*
X162631380Y-161615285D02*
X161631380Y-161615285D01*
X161631380Y-161234333D01*
X161679000Y-161139095D01*
X161726619Y-161091476D01*
X161821857Y-161043857D01*
X161964714Y-161043857D01*
X162059952Y-161091476D01*
X162107571Y-161139095D01*
X162155190Y-161234333D01*
X162155190Y-161615285D01*
X162631380Y-160091476D02*
X162631380Y-160662904D01*
X162631380Y-160377190D02*
X161631380Y-160377190D01*
X161774238Y-160472428D01*
X161869476Y-160567666D01*
X161917095Y-160662904D01*
X161631380Y-159472428D02*
X161631380Y-159377190D01*
X161679000Y-159281952D01*
X161726619Y-159234333D01*
X161821857Y-159186714D01*
X162012333Y-159139095D01*
X162250428Y-159139095D01*
X162440904Y-159186714D01*
X162536142Y-159234333D01*
X162583761Y-159281952D01*
X162631380Y-159377190D01*
X162631380Y-159472428D01*
X162583761Y-159567666D01*
X162536142Y-159615285D01*
X162440904Y-159662904D01*
X162250428Y-159710523D01*
X162012333Y-159710523D01*
X161821857Y-159662904D01*
X161726619Y-159615285D01*
X161679000Y-159567666D01*
X161631380Y-159472428D01*
X145248333Y-163012380D02*
X144915000Y-162536190D01*
X144676904Y-163012380D02*
X144676904Y-162012380D01*
X145057857Y-162012380D01*
X145153095Y-162060000D01*
X145200714Y-162107619D01*
X145248333Y-162202857D01*
X145248333Y-162345714D01*
X145200714Y-162440952D01*
X145153095Y-162488571D01*
X145057857Y-162536190D01*
X144676904Y-162536190D01*
X145724523Y-163012380D02*
X145915000Y-163012380D01*
X146010238Y-162964761D01*
X146057857Y-162917142D01*
X146153095Y-162774285D01*
X146200714Y-162583809D01*
X146200714Y-162202857D01*
X146153095Y-162107619D01*
X146105476Y-162060000D01*
X146010238Y-162012380D01*
X145819761Y-162012380D01*
X145724523Y-162060000D01*
X145676904Y-162107619D01*
X145629285Y-162202857D01*
X145629285Y-162440952D01*
X145676904Y-162536190D01*
X145724523Y-162583809D01*
X145819761Y-162631428D01*
X146010238Y-162631428D01*
X146105476Y-162583809D01*
X146153095Y-162536190D01*
X146200714Y-162440952D01*
X155281333Y-143962380D02*
X154948000Y-143486190D01*
X154709904Y-143962380D02*
X154709904Y-142962380D01*
X155090857Y-142962380D01*
X155186095Y-143010000D01*
X155233714Y-143057619D01*
X155281333Y-143152857D01*
X155281333Y-143295714D01*
X155233714Y-143390952D01*
X155186095Y-143438571D01*
X155090857Y-143486190D01*
X154709904Y-143486190D01*
X155852761Y-143390952D02*
X155757523Y-143343333D01*
X155709904Y-143295714D01*
X155662285Y-143200476D01*
X155662285Y-143152857D01*
X155709904Y-143057619D01*
X155757523Y-143010000D01*
X155852761Y-142962380D01*
X156043238Y-142962380D01*
X156138476Y-143010000D01*
X156186095Y-143057619D01*
X156233714Y-143152857D01*
X156233714Y-143200476D01*
X156186095Y-143295714D01*
X156138476Y-143343333D01*
X156043238Y-143390952D01*
X155852761Y-143390952D01*
X155757523Y-143438571D01*
X155709904Y-143486190D01*
X155662285Y-143581428D01*
X155662285Y-143771904D01*
X155709904Y-143867142D01*
X155757523Y-143914761D01*
X155852761Y-143962380D01*
X156043238Y-143962380D01*
X156138476Y-143914761D01*
X156186095Y-143867142D01*
X156233714Y-143771904D01*
X156233714Y-143581428D01*
X156186095Y-143486190D01*
X156138476Y-143438571D01*
X156043238Y-143390952D01*
X142563333Y-124912380D02*
X142230000Y-124436190D01*
X141991904Y-124912380D02*
X141991904Y-123912380D01*
X142372857Y-123912380D01*
X142468095Y-123960000D01*
X142515714Y-124007619D01*
X142563333Y-124102857D01*
X142563333Y-124245714D01*
X142515714Y-124340952D01*
X142468095Y-124388571D01*
X142372857Y-124436190D01*
X141991904Y-124436190D01*
X142896666Y-123912380D02*
X143563333Y-123912380D01*
X143134761Y-124912380D01*
X143327380Y-168931666D02*
X142851190Y-169265000D01*
X143327380Y-169503095D02*
X142327380Y-169503095D01*
X142327380Y-169122142D01*
X142375000Y-169026904D01*
X142422619Y-168979285D01*
X142517857Y-168931666D01*
X142660714Y-168931666D01*
X142755952Y-168979285D01*
X142803571Y-169026904D01*
X142851190Y-169122142D01*
X142851190Y-169503095D01*
X142327380Y-168074523D02*
X142327380Y-168265000D01*
X142375000Y-168360238D01*
X142422619Y-168407857D01*
X142565476Y-168503095D01*
X142755952Y-168550714D01*
X143136904Y-168550714D01*
X143232142Y-168503095D01*
X143279761Y-168455476D01*
X143327380Y-168360238D01*
X143327380Y-168169761D01*
X143279761Y-168074523D01*
X143232142Y-168026904D01*
X143136904Y-167979285D01*
X142898809Y-167979285D01*
X142803571Y-168026904D01*
X142755952Y-168074523D01*
X142708333Y-168169761D01*
X142708333Y-168360238D01*
X142755952Y-168455476D01*
X142803571Y-168503095D01*
X142898809Y-168550714D01*
X153487380Y-150026666D02*
X153011190Y-150360000D01*
X153487380Y-150598095D02*
X152487380Y-150598095D01*
X152487380Y-150217142D01*
X152535000Y-150121904D01*
X152582619Y-150074285D01*
X152677857Y-150026666D01*
X152820714Y-150026666D01*
X152915952Y-150074285D01*
X152963571Y-150121904D01*
X153011190Y-150217142D01*
X153011190Y-150598095D01*
X152487380Y-149121904D02*
X152487380Y-149598095D01*
X152963571Y-149645714D01*
X152915952Y-149598095D01*
X152868333Y-149502857D01*
X152868333Y-149264761D01*
X152915952Y-149169523D01*
X152963571Y-149121904D01*
X153058809Y-149074285D01*
X153296904Y-149074285D01*
X153392142Y-149121904D01*
X153439761Y-149169523D01*
X153487380Y-149264761D01*
X153487380Y-149502857D01*
X153439761Y-149598095D01*
X153392142Y-149645714D01*
X140787380Y-130976666D02*
X140311190Y-131310000D01*
X140787380Y-131548095D02*
X139787380Y-131548095D01*
X139787380Y-131167142D01*
X139835000Y-131071904D01*
X139882619Y-131024285D01*
X139977857Y-130976666D01*
X140120714Y-130976666D01*
X140215952Y-131024285D01*
X140263571Y-131071904D01*
X140311190Y-131167142D01*
X140311190Y-131548095D01*
X140120714Y-130119523D02*
X140787380Y-130119523D01*
X139739761Y-130357619D02*
X140454047Y-130595714D01*
X140454047Y-129976666D01*
X145232380Y-160186666D02*
X144756190Y-160520000D01*
X145232380Y-160758095D02*
X144232380Y-160758095D01*
X144232380Y-160377142D01*
X144280000Y-160281904D01*
X144327619Y-160234285D01*
X144422857Y-160186666D01*
X144565714Y-160186666D01*
X144660952Y-160234285D01*
X144708571Y-160281904D01*
X144756190Y-160377142D01*
X144756190Y-160758095D01*
X144232380Y-159853333D02*
X144232380Y-159234285D01*
X144613333Y-159567619D01*
X144613333Y-159424761D01*
X144660952Y-159329523D01*
X144708571Y-159281904D01*
X144803809Y-159234285D01*
X145041904Y-159234285D01*
X145137142Y-159281904D01*
X145184761Y-159329523D01*
X145232380Y-159424761D01*
X145232380Y-159710476D01*
X145184761Y-159805714D01*
X145137142Y-159853333D01*
X155137380Y-140882666D02*
X154661190Y-141216000D01*
X155137380Y-141454095D02*
X154137380Y-141454095D01*
X154137380Y-141073142D01*
X154185000Y-140977904D01*
X154232619Y-140930285D01*
X154327857Y-140882666D01*
X154470714Y-140882666D01*
X154565952Y-140930285D01*
X154613571Y-140977904D01*
X154661190Y-141073142D01*
X154661190Y-141454095D01*
X154232619Y-140501714D02*
X154185000Y-140454095D01*
X154137380Y-140358857D01*
X154137380Y-140120761D01*
X154185000Y-140025523D01*
X154232619Y-139977904D01*
X154327857Y-139930285D01*
X154423095Y-139930285D01*
X154565952Y-139977904D01*
X155137380Y-140549333D01*
X155137380Y-139930285D01*
X142437380Y-122086666D02*
X141961190Y-122420000D01*
X142437380Y-122658095D02*
X141437380Y-122658095D01*
X141437380Y-122277142D01*
X141485000Y-122181904D01*
X141532619Y-122134285D01*
X141627857Y-122086666D01*
X141770714Y-122086666D01*
X141865952Y-122134285D01*
X141913571Y-122181904D01*
X141961190Y-122277142D01*
X141961190Y-122658095D01*
X142437380Y-121134285D02*
X142437380Y-121705714D01*
X142437380Y-121420000D02*
X141437380Y-121420000D01*
X141580238Y-121515238D01*
X141675476Y-121610476D01*
X141723095Y-121705714D01*
X200453666Y-134072380D02*
X200453666Y-134786666D01*
X200406047Y-134929523D01*
X200310809Y-135024761D01*
X200167952Y-135072380D01*
X200072714Y-135072380D01*
X201406047Y-134072380D02*
X200929857Y-134072380D01*
X200882238Y-134548571D01*
X200929857Y-134500952D01*
X201025095Y-134453333D01*
X201263190Y-134453333D01*
X201358428Y-134500952D01*
X201406047Y-134548571D01*
X201453666Y-134643809D01*
X201453666Y-134881904D01*
X201406047Y-134977142D01*
X201358428Y-135024761D01*
X201263190Y-135072380D01*
X201025095Y-135072380D01*
X200929857Y-135024761D01*
X200882238Y-134977142D01*
X130603666Y-159682380D02*
X130603666Y-160396666D01*
X130556047Y-160539523D01*
X130460809Y-160634761D01*
X130317952Y-160682380D01*
X130222714Y-160682380D01*
X131508428Y-160015714D02*
X131508428Y-160682380D01*
X131270333Y-159634761D02*
X131032238Y-160349047D01*
X131651285Y-160349047D01*
X140636666Y-140632380D02*
X140636666Y-141346666D01*
X140589047Y-141489523D01*
X140493809Y-141584761D01*
X140350952Y-141632380D01*
X140255714Y-141632380D01*
X141017619Y-140632380D02*
X141636666Y-140632380D01*
X141303333Y-141013333D01*
X141446190Y-141013333D01*
X141541428Y-141060952D01*
X141589047Y-141108571D01*
X141636666Y-141203809D01*
X141636666Y-141441904D01*
X141589047Y-141537142D01*
X141541428Y-141584761D01*
X141446190Y-141632380D01*
X141160476Y-141632380D01*
X141065238Y-141584761D01*
X141017619Y-141537142D01*
X128063666Y-121582380D02*
X128063666Y-122296666D01*
X128016047Y-122439523D01*
X127920809Y-122534761D01*
X127777952Y-122582380D01*
X127682714Y-122582380D01*
X128492238Y-121677619D02*
X128539857Y-121630000D01*
X128635095Y-121582380D01*
X128873190Y-121582380D01*
X128968428Y-121630000D01*
X129016047Y-121677619D01*
X129063666Y-121772857D01*
X129063666Y-121868095D01*
X129016047Y-122010952D01*
X128444619Y-122582380D01*
X129063666Y-122582380D01*
X130452380Y-143843333D02*
X131166666Y-143843333D01*
X131309523Y-143890952D01*
X131404761Y-143986190D01*
X131452380Y-144129047D01*
X131452380Y-144224285D01*
X131452380Y-142843333D02*
X131452380Y-143414761D01*
X131452380Y-143129047D02*
X130452380Y-143129047D01*
X130595238Y-143224285D01*
X130690476Y-143319523D01*
X130738095Y-143414761D01*
X152757142Y-125134666D02*
X152804761Y-125182285D01*
X152852380Y-125325142D01*
X152852380Y-125420380D01*
X152804761Y-125563238D01*
X152709523Y-125658476D01*
X152614285Y-125706095D01*
X152423809Y-125753714D01*
X152280952Y-125753714D01*
X152090476Y-125706095D01*
X151995238Y-125658476D01*
X151900000Y-125563238D01*
X151852380Y-125420380D01*
X151852380Y-125325142D01*
X151900000Y-125182285D01*
X151947619Y-125134666D01*
X151852380Y-124801333D02*
X151852380Y-124134666D01*
X152852380Y-124563238D01*
X160869333Y-133961142D02*
X160821714Y-134008761D01*
X160678857Y-134056380D01*
X160583619Y-134056380D01*
X160440761Y-134008761D01*
X160345523Y-133913523D01*
X160297904Y-133818285D01*
X160250285Y-133627809D01*
X160250285Y-133484952D01*
X160297904Y-133294476D01*
X160345523Y-133199238D01*
X160440761Y-133104000D01*
X160583619Y-133056380D01*
X160678857Y-133056380D01*
X160821714Y-133104000D01*
X160869333Y-133151619D01*
X161726476Y-133056380D02*
X161536000Y-133056380D01*
X161440761Y-133104000D01*
X161393142Y-133151619D01*
X161297904Y-133294476D01*
X161250285Y-133484952D01*
X161250285Y-133865904D01*
X161297904Y-133961142D01*
X161345523Y-134008761D01*
X161440761Y-134056380D01*
X161631238Y-134056380D01*
X161726476Y-134008761D01*
X161774095Y-133961142D01*
X161821714Y-133865904D01*
X161821714Y-133627809D01*
X161774095Y-133532571D01*
X161726476Y-133484952D01*
X161631238Y-133437333D01*
X161440761Y-133437333D01*
X161345523Y-133484952D01*
X161297904Y-133532571D01*
X161250285Y-133627809D01*
X156313142Y-125134666D02*
X156360761Y-125182285D01*
X156408380Y-125325142D01*
X156408380Y-125420380D01*
X156360761Y-125563238D01*
X156265523Y-125658476D01*
X156170285Y-125706095D01*
X155979809Y-125753714D01*
X155836952Y-125753714D01*
X155646476Y-125706095D01*
X155551238Y-125658476D01*
X155456000Y-125563238D01*
X155408380Y-125420380D01*
X155408380Y-125325142D01*
X155456000Y-125182285D01*
X155503619Y-125134666D01*
X155408380Y-124229904D02*
X155408380Y-124706095D01*
X155884571Y-124753714D01*
X155836952Y-124706095D01*
X155789333Y-124610857D01*
X155789333Y-124372761D01*
X155836952Y-124277523D01*
X155884571Y-124229904D01*
X155979809Y-124182285D01*
X156217904Y-124182285D01*
X156313142Y-124229904D01*
X156360761Y-124277523D01*
X156408380Y-124372761D01*
X156408380Y-124610857D01*
X156360761Y-124706095D01*
X156313142Y-124753714D01*
X150201333Y-134215142D02*
X150153714Y-134262761D01*
X150010857Y-134310380D01*
X149915619Y-134310380D01*
X149772761Y-134262761D01*
X149677523Y-134167523D01*
X149629904Y-134072285D01*
X149582285Y-133881809D01*
X149582285Y-133738952D01*
X149629904Y-133548476D01*
X149677523Y-133453238D01*
X149772761Y-133358000D01*
X149915619Y-133310380D01*
X150010857Y-133310380D01*
X150153714Y-133358000D01*
X150201333Y-133405619D01*
X151058476Y-133643714D02*
X151058476Y-134310380D01*
X150820380Y-133262761D02*
X150582285Y-133977047D01*
X151201333Y-133977047D01*
X145772142Y-169067666D02*
X145819761Y-169115285D01*
X145867380Y-169258142D01*
X145867380Y-169353380D01*
X145819761Y-169496238D01*
X145724523Y-169591476D01*
X145629285Y-169639095D01*
X145438809Y-169686714D01*
X145295952Y-169686714D01*
X145105476Y-169639095D01*
X145010238Y-169591476D01*
X144915000Y-169496238D01*
X144867380Y-169353380D01*
X144867380Y-169258142D01*
X144915000Y-169115285D01*
X144962619Y-169067666D01*
X144867380Y-168734333D02*
X144867380Y-168115285D01*
X145248333Y-168448619D01*
X145248333Y-168305761D01*
X145295952Y-168210523D01*
X145343571Y-168162904D01*
X145438809Y-168115285D01*
X145676904Y-168115285D01*
X145772142Y-168162904D01*
X145819761Y-168210523D01*
X145867380Y-168305761D01*
X145867380Y-168591476D01*
X145819761Y-168686714D01*
X145772142Y-168734333D01*
X155932142Y-150026666D02*
X155979761Y-150074285D01*
X156027380Y-150217142D01*
X156027380Y-150312380D01*
X155979761Y-150455238D01*
X155884523Y-150550476D01*
X155789285Y-150598095D01*
X155598809Y-150645714D01*
X155455952Y-150645714D01*
X155265476Y-150598095D01*
X155170238Y-150550476D01*
X155075000Y-150455238D01*
X155027380Y-150312380D01*
X155027380Y-150217142D01*
X155075000Y-150074285D01*
X155122619Y-150026666D01*
X155122619Y-149645714D02*
X155075000Y-149598095D01*
X155027380Y-149502857D01*
X155027380Y-149264761D01*
X155075000Y-149169523D01*
X155122619Y-149121904D01*
X155217857Y-149074285D01*
X155313095Y-149074285D01*
X155455952Y-149121904D01*
X156027380Y-149693333D01*
X156027380Y-149074285D01*
X143232142Y-130976666D02*
X143279761Y-131024285D01*
X143327380Y-131167142D01*
X143327380Y-131262380D01*
X143279761Y-131405238D01*
X143184523Y-131500476D01*
X143089285Y-131548095D01*
X142898809Y-131595714D01*
X142755952Y-131595714D01*
X142565476Y-131548095D01*
X142470238Y-131500476D01*
X142375000Y-131405238D01*
X142327380Y-131262380D01*
X142327380Y-131167142D01*
X142375000Y-131024285D01*
X142422619Y-130976666D01*
X143327380Y-130024285D02*
X143327380Y-130595714D01*
X143327380Y-130310000D02*
X142327380Y-130310000D01*
X142470238Y-130405238D01*
X142565476Y-130500476D01*
X142613095Y-130595714D01*
M02*
